<svg id="Layer_1" data-name="Layer 1" xmlns="http://www.w3.org/2000/svg" xmlns:xlink="http://www.w3.org/1999/xlink" width="440" height="75" viewBox="0 0 440 75">
  <defs>
    <style>
      .cls-1 {
        fill: none;
      }

      .cls-2 {
        clip-path: url(#clip-path);
      }

      .cls-3 {
        fill: url(#linear-gradient);
      }

      .cls-4 {
        fill: #231f20;
      }

      .cls-5 {
        fill: #f8bdc1;
      }

      .cls-6 {
        fill: #fff;
      }

      .cls-7 {
        clip-path: url(#clip-path-2);
      }

      .cls-8 {
        fill: url(#linear-gradient-2);
      }

      .cls-9 {
        fill: #986fc1;
      }

      .cls-10 {
        fill: #ffea99;
      }

      .cls-11 {
        fill: red;
      }

      .cls-12 {
        fill: #ffe0f6;
      }

      .cls-13 {
        fill: #0071bc;
      }

      .cls-14 {
        fill: #6c82c2;
      }

      .cls-15 {
        fill: #caa479;
      }

      .cls-16 {
        fill: #e097cb;
      }

      .cls-17 {
        clip-path: url(#clip-path-3);
      }

      .cls-18 {
        fill: url(#linear-gradient-3);
      }

      .cls-19 {
        fill: #d1a3a4;
      }

      .cls-20 {
        fill: #4d4d4d;
      }

      .cls-21 {
        opacity: 0.59;
      }

      .cls-22 {
        clip-path: url(#clip-path-4);
      }

      .cls-23 {
        fill: url(#linear-gradient-4);
      }

      .cls-24 {
        fill: #63254b;
      }

      .cls-25 {
        fill: #e6e6e6;
      }

      .cls-26 {
        fill: #fee0c4;
      }

      .cls-27 {
        fill: #ba9bc9;
      }

      .cls-28 {
        fill: #f1ebf4;
      }

      .cls-29 {
        fill: url(#linear-gradient-5);
      }

      .cls-30 {
        fill: url(#linear-gradient-6);
      }

      .cls-31 {
        fill: url(#linear-gradient-7);
      }

      .cls-32 {
        fill: url(#linear-gradient-8);
      }
    </style>
    <clipPath id="clip-path">
      <rect class="cls-1" x="58.42" y="1.26" width="53.89" height="72.47"/>
    </clipPath>
    <linearGradient id="linear-gradient" x1="94.3" y1="82.19" x2="79.14" y2="6.36" gradientUnits="userSpaceOnUse">
      <stop offset="0.02" stop-color="#fff"/>
      <stop offset="1" stop-color="#29abe2"/>
    </linearGradient>
    <clipPath id="clip-path-2">
      <rect class="cls-1" x="273.99" y="1.26" width="53.89" height="72.47"/>
    </clipPath>
    <linearGradient id="linear-gradient-2" x1="309.87" y1="82.19" x2="294.71" y2="6.36" xlink:href="#linear-gradient"/>
    <clipPath id="clip-path-3">
      <rect class="cls-1" x="381.58" y="1.26" width="53.89" height="72.47"/>
    </clipPath>
    <linearGradient id="linear-gradient-3" x1="417.46" y1="82.19" x2="402.3" y2="6.36" xlink:href="#linear-gradient"/>
    <clipPath id="clip-path-4">
      <rect class="cls-1" x="166.2" y="1.26" width="53.89" height="72.47"/>
    </clipPath>
    <linearGradient id="linear-gradient-4" x1="202.08" y1="82.19" x2="186.92" y2="6.36" xlink:href="#linear-gradient"/>
    <linearGradient id="linear-gradient-5" x1="148.19" y1="82.19" x2="133.03" y2="6.36" xlink:href="#linear-gradient"/>
    <linearGradient id="linear-gradient-6" x1="255.98" y1="82.19" x2="240.82" y2="6.36" xlink:href="#linear-gradient"/>
    <linearGradient id="linear-gradient-7" x1="363.57" y1="82.19" x2="348.41" y2="6.36" xlink:href="#linear-gradient"/>
    <linearGradient id="linear-gradient-8" x1="40.4" y1="82.19" x2="25.25" y2="6.36" xlink:href="#linear-gradient"/>
  </defs>
  <g>
    <g id="priest">
      <g class="cls-2">
        <g>
          <rect class="cls-3" x="58.42" y="1.26" width="53.89" height="72.47"/>
          <g>
            <rect class="cls-4" x="58.76" y="53.95" width="53.02" height="33.53" rx="12"/>
            <rect class="cls-4" x="71.37" y="73.26" width="29.05" height="67.07" rx="12"/>
            <ellipse class="cls-5" cx="85.93" cy="37.24" rx="15.83" ry="19.41"/>
            <path class="cls-6" d="M85.93,33.72c0,3.41-3.09,7.89-6.29,7.89s-5.32-4.48-5.32-7.89,4-7.18,7.2-7.18S85.93,30.31,85.93,33.72Z"/>
            <path class="cls-6" d="M85.84,33.72c0,3.41,3.13,7.89,6.37,7.89s5.38-4.48,5.38-7.89-4-7.18-7.28-7.18S85.84,30.31,85.84,33.72Z"/>
            <ellipse class="cls-4" cx="81.88" cy="33.11" rx="0.39" ry="0.77"/>
            <ellipse class="cls-4" cx="88.25" cy="33.11" rx="0.39" ry="0.77"/>
            <rect class="cls-4" x="73.59" y="11.96" width="24.68" height="12.53" rx="4.77"/>
            <rect class="cls-4" x="64.65" y="21.83" width="42.55" height="2.89" rx="1.45"/>
            <rect class="cls-6" x="84.65" y="56.72" width="2.56" height="2.41" transform="translate(28 143.85) rotate(-90)"/>
            <rect class="cls-4" x="82.49" y="48.7" width="6.43" height="0.38"/>
          </g>
        </g>
      </g>
    </g>
    <g id="Little_girl" data-name="Little girl">
      <g class="cls-7">
        <g>
          <rect class="cls-8" x="273.99" y="1.26" width="53.89" height="72.47"/>
          <g>
            <path class="cls-9" d="M311.74,53.84l11.37,26a11.94,11.94,0,0,1-10.94,16.72H289.42a11.94,11.94,0,0,1-10.94-16.72l11.37-26A11.94,11.94,0,0,1,311.74,53.84Z"/>
            <ellipse class="cls-10" cx="300.8" cy="31.15" rx="2.22" ry="0.26"/>
            <g>
              <ellipse class="cls-10" cx="300.8" cy="37.62" rx="23.83" ry="16.48"/>
              <g>
                <g>
                  <path class="cls-10" d="M323.52,84.64h0a1.29,1.29,0,0,0,1.08-1.47l-4.69-28a1.33,1.33,0,0,0-1.51-1.06h0a1.3,1.3,0,0,0-1.09,1.48l4.7,28A1.31,1.31,0,0,0,323.52,84.64Z"/>
                  <path class="cls-10" d="M326.88,84.86h0a1.27,1.27,0,0,0,.85-1.61l-8.82-27.07a1.33,1.33,0,0,0-1.65-.83h0a1.28,1.28,0,0,0-.85,1.61L325.23,84A1.32,1.32,0,0,0,326.88,84.86Z"/>
                  <path class="cls-10" d="M320.16,86.48h0a1.29,1.29,0,0,0,1.26-1.33l-1.09-28.39A1.3,1.3,0,0,0,319,55.53h0a1.29,1.29,0,0,0-1.26,1.33l1.1,28.39A1.29,1.29,0,0,0,320.16,86.48Z"/>
                </g>
                <rect class="cls-10" x="316.34" y="44.89" width="4.06" height="14.77" rx="1.74"/>
                <polygon class="cls-11" points="320.19 58.89 315.31 58.64 315.81 61.06 320.19 58.89"/>
                <polygon class="cls-11" points="316.94 59.1 321.72 58.1 321.6 60.57 316.94 59.1"/>
              </g>
              <g>
                <g>
                  <path class="cls-10" d="M278.07,84.64h0A1.29,1.29,0,0,1,277,83.17l4.7-28a1.32,1.32,0,0,1,1.51-1.06h0a1.3,1.3,0,0,1,1.08,1.48l-4.7,28A1.3,1.3,0,0,1,278.07,84.64Z"/>
                  <path class="cls-10" d="M274.71,84.86h0a1.27,1.27,0,0,1-.85-1.61l8.83-27.07a1.33,1.33,0,0,1,1.65-.83h0a1.29,1.29,0,0,1,.85,1.61L276.36,84A1.32,1.32,0,0,1,274.71,84.86Z"/>
                  <path class="cls-10" d="M281.43,86.48h0a1.3,1.3,0,0,1-1.26-1.33l1.1-28.39a1.3,1.3,0,0,1,1.35-1.23h0a1.29,1.29,0,0,1,1.26,1.33l-1.09,28.39A1.3,1.3,0,0,1,281.43,86.48Z"/>
                </g>
                <rect class="cls-10" x="281.19" y="44.89" width="4.06" height="14.77" rx="1.74" transform="translate(566.44 104.55) rotate(-180)"/>
                <polygon class="cls-11" points="281.4 58.89 286.29 58.64 285.79 61.06 281.4 58.89"/>
                <polygon class="cls-11" points="284.66 59.1 279.87 58.1 279.99 60.57 284.66 59.1"/>
              </g>
            </g>
            <ellipse class="cls-12" cx="300.8" cy="43.3" rx="16.6" ry="18.23"/>
            <ellipse class="cls-6" cx="296.1" cy="39.66" rx="8.12" ry="5.03" transform="translate(208.34 325.22) rotate(-80.55)"/>
            <ellipse class="cls-6" cx="306.52" cy="39.66" rx="5.02" ry="8.14" transform="translate(-2.26 26.18) rotate(-4.87)"/>
            <circle cx="298.57" cy="39.66" r="0.81"/>
            <circle cx="303.95" cy="39.74" r="0.81"/>
            <ellipse class="cls-13" cx="300.8" cy="25.85" rx="23.29" ry="3.72"/>
            <ellipse class="cls-14" cx="301.31" cy="19.27" rx="13.91" ry="6.58"/>
            <circle class="cls-15" cx="300.08" cy="67.59" r="1.76"/>
            <circle class="cls-15" cx="300.08" cy="74.79" r="1.76"/>
            <ellipse class="cls-14" cx="300.8" cy="25.85" rx="18.54" ry="2.96"/>
            <rect class="cls-16" x="296.64" y="54.85" width="8.31" height="1.35" rx="0.58"/>
          </g>
        </g>
      </g>
    </g>
    <g id="Bad_cowboy" data-name="Bad cowboy">
      <g class="cls-17">
        <g>
          <rect class="cls-18" x="381.58" y="1.26" width="53.89" height="72.47"/>
          <g>
            <g>
              <path d="M419.74,48.77H397.33A5.21,5.21,0,0,0,392.12,54v6.61l8.16,28.18h17.09l7.57-26.16V54A5.21,5.21,0,0,0,419.74,48.77Z"/>
              <g>
                <rect x="388.01" y="51.65" width="5.29" height="21.95" rx="2.65" transform="translate(14.12 -58.86) rotate(8.77)"/>
                <rect x="387.72" y="69.67" width="5.29" height="23.21" rx="2.65" transform="translate(787.5 117.08) rotate(173.39)"/>
                <ellipse cx="395.84" cy="52.67" rx="6.08" ry="3.89"/>
              </g>
              <g>
                <rect x="424.77" y="51.76" width="5.29" height="21.95" rx="2.65" transform="matrix(-0.99, 0.15, -0.15, -0.99, 859.4, 59.53)"/>
                <rect x="425.06" y="69.78" width="5.29" height="23.21" rx="2.65" transform="translate(12.21 -48.67) rotate(6.61)"/>
                <ellipse cx="422.24" cy="52.78" rx="6.08" ry="3.89"/>
              </g>
            </g>
            <g>
              <path d="M418.64,21.08l11.53-2.34c1.69-.35,3.46.38,3.93,1.6l1.33,3.44a1.6,1.6,0,0,1,.11.43,1.83,1.83,0,0,0-.11-.8L434.1,20c-.47-1.23-2.24-1.95-3.93-1.6l-11.53,2.34c-1.49.31-2.44,1.35-2.32,2.43A2.67,2.67,0,0,1,418.64,21.08Z"/>
              <path d="M435.43,23.78l-1.33-3.44c-.47-1.22-2.24-1.95-3.93-1.6l-11.53,2.34a2.67,2.67,0,0,0-2.32,2.06,1.87,1.87,0,0,0,.11.8l1.33,3.44c.47,1.22,2.24,1.94,3.93,1.6l11.53-2.35c1.49-.3,2.44-1.34,2.32-2.42A1.6,1.6,0,0,0,435.43,23.78Z"/>
            </g>
            <g>
              <path d="M398.83,20.61l-11.5-2.34c-1.69-.35-3.45.38-3.92,1.6l-.1.25a3.55,3.55,0,0,1,3.86-1.47l10,2.05c1.69.34,2.68,1.63,2.21,2.85L398.07,27a2.81,2.81,0,0,1-2,1.56c1.61.23,3.22-.48,3.67-1.65L401,23.47C401.51,22.24,400.52,21,398.83,20.61Z"/>
              <path d="M398.07,27l1.33-3.44c.47-1.22-.52-2.51-2.21-2.85l-10-2.05a3.55,3.55,0,0,0-3.86,1.47.84.84,0,0,0-.06.14l-1.33,3.43c-.47,1.23.52,2.52,2.21,2.86l10,2a4.14,4.14,0,0,0,1.89,0A2.81,2.81,0,0,0,398.07,27Z"/>
            </g>
            <rect x="395.61" y="21.4" width="27.08" height="4.41" rx="2.2"/>
            <ellipse class="cls-19" cx="408.53" cy="34.69" rx="12.92" ry="17.39"/>
            <path d="M420,22.89l-3.79-9.61A3.19,3.19,0,0,0,413.48,11h-9.41a3.19,3.19,0,0,0-2.74,2.33l-3.79,9.61Z"/>
            <path class="cls-20" d="M419.28,20.65c-8.76,2.79-12.78,2.53-21.28,0,0-.12.07-.23.1-.35,8.43,2.53,12.38,2.87,21.09,0Z"/>
            <rect class="cls-20" x="401.57" y="11.08" width="0.7" height="8.07" rx="0.35" transform="translate(37.34 -154.74) rotate(22.83)"/>
            <rect class="cls-20" x="404.89" y="9.59" width="0.7" height="4.25" rx="0.35" transform="translate(416.96 -393.52) rotate(90)"/>
            <rect class="cls-20" x="392.01" y="22.77" width="0.7" height="8.07" rx="0.35" transform="translate(527.22 -342.63) rotate(106.15)"/>
            <rect class="cls-6" x="401.08" y="27.46" width="6.94" height="4.3" rx="2.15" transform="translate(43.17 -154.63) rotate(22.83)"/>
            <rect class="cls-6" x="408.82" y="27.46" width="6.94" height="4.3" rx="2.15" transform="translate(803.78 -103.06) rotate(157.17)"/>
            <circle cx="406.22" cy="31.61" r="0.29"/>
            <circle cx="410.32" cy="31.61" r="0.29"/>
            <rect x="408.72" y="26.62" width="5.88" height="0.37" transform="translate(21.84 161.8) rotate(-22.83)"/>
            <rect x="402.45" y="26.36" width="5.88" height="0.37" transform="translate(56.13 -180.97) rotate(26.97)"/>
            <path class="cls-21" d="M395.75,36.92c.82,8.54,6.24,15.15,12.82,15.15,6.4,0,11.72-6.27,12.74-14.5a16.06,16.06,0,0,0-6.25,1.17c-.3.12-.59.24-.87.37-6.4-2.52-3.73-2.52-10.05-.06a18.57,18.57,0,0,0-2.06-1A16.05,16.05,0,0,0,395.75,36.92ZM413,39.72A15.56,15.56,0,0,0,408.84,43a14.86,14.86,0,0,0-3.6-3.27C409.85,37.67,408.35,37.63,413,39.72Z"/>
          </g>
        </g>
      </g>
    </g>
    <g id="Grandma">
      <g class="cls-22">
        <g>
          <rect class="cls-23" x="166.2" y="1.26" width="53.89" height="72.47"/>
          <g>
            <polygon class="cls-24" points="192.97 43.21 213.95 81.05 171.99 81.05 192.97 43.21"/>
            <g>
              <circle class="cls-25" cx="193.74" cy="22.76" r="11.62"/>
              <circle class="cls-26" cx="193.29" cy="42" r="21.65"/>
              <path class="cls-25" d="M171.36,40.16a18.81,18.81,0,0,0,2.39.16,19.17,19.17,0,0,0,19.17-19.17c0-.27,0-.53,0-.79A21.64,21.64,0,0,0,171.36,40.16Z"/>
              <path class="cls-25" d="M214.94,40.2a21.65,21.65,0,0,0-21.18-19.84c0,.26,0,.52,0,.78a19.17,19.17,0,0,0,19.17,19.17A19.57,19.57,0,0,0,214.94,40.2Z"/>
              <ellipse class="cls-6" cx="190.58" cy="42" rx="3.16" ry="5.85"/>
              <ellipse class="cls-6" cx="196.9" cy="42" rx="3.16" ry="5.85"/>
              <circle cx="190.58" cy="41.76" r="0.69"/>
              <circle cx="196.21" cy="41.76" r="0.69"/>
              <circle class="cls-25" cx="193.74" cy="22.76" r="5.62"/>
              <path d="M190,39a3.88,3.88,0,1,0,3.88,3.88A3.88,3.88,0,0,0,190,39Zm0,7.26a3.38,3.38,0,1,1,3.37-3.38A3.38,3.38,0,0,1,190,46.23Z"/>
              <path d="M197.52,38.65a3.88,3.88,0,1,0,3.88,3.88A3.88,3.88,0,0,0,197.52,38.65Zm0,7.26a3.38,3.38,0,1,1,3.37-3.38A3.38,3.38,0,0,1,197.52,45.91Z"/>
              <rect x="201.36" y="42" width="13.56" height="0.85"/>
              <rect x="171.65" y="42" width="14.43" height="0.85"/>
              <rect class="cls-27" x="188.41" y="56.4" width="5.7" height="1.17"/>
              <g>
                <circle class="cls-28" cx="183.79" cy="62.44" r="0.71"/>
                <circle class="cls-28" cx="184.59" cy="63.62" r="0.71"/>
                <circle class="cls-28" cx="185.78" cy="64.44" r="0.71"/>
                <circle class="cls-28" cx="187.06" cy="65.15" r="0.71"/>
                <circle class="cls-28" cx="188.32" cy="65.95" r="0.71"/>
                <circle class="cls-28" cx="189.62" cy="66.57" r="0.71"/>
                <circle class="cls-28" cx="190.88" cy="67.28" r="0.71"/>
                <circle class="cls-28" cx="192.3" cy="67.58" r="0.71"/>
                <circle class="cls-28" cx="202.47" cy="62.67" r="0.71"/>
                <circle class="cls-28" cx="201.67" cy="63.84" r="0.71"/>
                <circle class="cls-28" cx="200.49" cy="64.67" r="0.71"/>
                <circle class="cls-28" cx="199.2" cy="65.38" r="0.71"/>
                <circle class="cls-28" cx="197.94" cy="66.18" r="0.71"/>
                <circle class="cls-28" cx="196.64" cy="66.8" r="0.71"/>
                <circle class="cls-28" cx="195.38" cy="67.51" r="0.71"/>
                <circle class="cls-28" cx="193.96" cy="67.81" r="0.71"/>
              </g>
            </g>
          </g>
        </g>
      </g>
    </g>
    <rect class="cls-29" x="112.31" y="1.26" width="53.89" height="72.47"/>
    <rect class="cls-30" x="220.1" y="1.26" width="53.89" height="72.47"/>
    <rect class="cls-31" x="327.69" y="1.26" width="53.89" height="72.47"/>
    <rect class="cls-32" x="4.52" y="1.26" width="53.89" height="72.47"/>
  </g>
</svg>
