<svg id="MASTER_LAYER" data-name="MASTER LAYER" xmlns="http://www.w3.org/2000/svg" xmlns:xlink="http://www.w3.org/1999/xlink" width="1920" height="1080" viewBox="0 0 1920 1080">
  <defs>
    <style>
      .cls-1 {
        fill: none;
      }

      .cls-2 {
        clip-path: url(#clip-path);
      }

      .cls-3 {
        fill: url(#linear-gradient);
      }

      .cls-4 {
        fill: #e8d190;
      }

      .cls-5 {
        fill: #e8d9ae;
      }

      .cls-6 {
        fill: #ffdd80;
      }

      .cls-18, .cls-7 {
        fill: #fff;
      }

      .cls-7 {
        opacity: 0.38;
      }

      .cls-8 {
        fill: #66380a;
      }

      .cls-9 {
        opacity: 0.23;
      }

      .cls-10 {
        fill: #301800;
      }

      .cls-11 {
        fill: url(#linear-gradient-2);
      }

      .cls-12 {
        fill: url(#linear-gradient-3);
      }

      .cls-13 {
        fill: url(#linear-gradient-4);
      }

      .cls-14 {
        fill: url(#linear-gradient-5);
      }

      .cls-15 {
        fill: url(#linear-gradient-6);
      }

      .cls-16 {
        fill: url(#linear-gradient-7);
      }

      .cls-17 {
        fill: #633;
      }

      .cls-19 {
        fill: #ff8000;
      }

      .cls-20 {
        fill: #a67c52;
      }

      .cls-21 {
        fill: #4d4636;
      }

      .cls-22 {
        fill: #ff931e;
      }

      .cls-23 {
        fill: #cf6b00;
      }

      .cls-24 {
        fill: url(#linear-gradient-8);
      }

      .cls-25 {
        fill: url(#linear-gradient-9);
      }

      .cls-26 {
        fill: url(#linear-gradient-10);
      }

      .cls-27 {
        fill: #754c24;
      }

      .cls-28 {
        fill: #3d660a;
      }

      .cls-29 {
        fill: url(#linear-gradient-11);
      }

      .cls-30 {
        fill: url(#linear-gradient-12);
      }

      .cls-31 {
        fill: url(#linear-gradient-13);
      }

      .cls-32 {
        fill: url(#linear-gradient-14);
      }

      .cls-33 {
        fill: url(#linear-gradient-15);
      }

      .cls-34 {
        fill: url(#linear-gradient-16);
      }

      .cls-35 {
        fill: url(#linear-gradient-17);
      }

      .cls-36 {
        fill: #42210b;
      }

      .cls-37 {
        fill: #66070c;
      }

      .cls-38 {
        fill: #723539;
      }

      .cls-39 {
        fill: #ed1c24;
      }

      .cls-40 {
        fill: url(#linear-gradient-18);
      }

      .cls-41 {
        fill: url(#linear-gradient-19);
      }

      .cls-42 {
        fill: url(#linear-gradient-20);
      }

      .cls-43 {
        fill: url(#linear-gradient-21);
      }

      .cls-44 {
        fill: url(#linear-gradient-22);
      }

      .cls-45 {
        fill: #603813;
      }

      .cls-46 {
        fill: #006837;
      }

      .cls-47 {
        fill: #009245;
      }

      .cls-48 {
        opacity: 0.11;
      }

      .cls-49 {
        opacity: 0.13;
      }

      .cls-50 {
        fill: #f7d2d2;
      }

      .cls-51 {
        fill: #511801;
      }

      .cls-52 {
        fill: #734a39;
      }

      .cls-53 {
        fill: #f5c7c7;
      }

      .cls-54 {
        fill: #9c796a;
      }

      .cls-55 {
        fill: #35485e;
      }

      .cls-56 {
        fill: #c7c1bc;
      }

      .cls-57 {
        fill: #564a41;
      }

      .cls-58 {
        fill: #736357;
      }

      .cls-59 {
        opacity: 0.54;
      }
    </style>
    <clipPath id="clip-path">
      <rect class="cls-1" x="1" y="1" width="1919" height="1079"/>
    </clipPath>
    <linearGradient id="linear-gradient" x1="941.64" y1="959.94" x2="974.45" y2="-122.95" gradientUnits="userSpaceOnUse">
      <stop offset="0.25" stop-color="#fff"/>
      <stop offset="1" stop-color="#29abe2" stop-opacity="0.5"/>
    </linearGradient>
    <linearGradient id="linear-gradient-2" x1="540.61" y1="486.35" x2="525.46" y2="410.52" gradientUnits="userSpaceOnUse">
      <stop offset="0.02" stop-color="#fff"/>
      <stop offset="1" stop-color="#29abe2"/>
    </linearGradient>
    <linearGradient id="linear-gradient-3" x1="541.61" y1="592.35" x2="526.46" y2="516.52" xlink:href="#linear-gradient-2"/>
    <linearGradient id="linear-gradient-4" x1="463.61" y1="485.35" x2="448.46" y2="409.52" xlink:href="#linear-gradient-2"/>
    <linearGradient id="linear-gradient-5" x1="464.61" y1="591.35" x2="449.46" y2="515.52" xlink:href="#linear-gradient-2"/>
    <linearGradient id="linear-gradient-6" x1="617.61" y1="486.35" x2="602.46" y2="410.52" xlink:href="#linear-gradient-2"/>
    <linearGradient id="linear-gradient-7" x1="618.61" y1="592.35" x2="603.46" y2="516.52" xlink:href="#linear-gradient-2"/>
    <linearGradient id="linear-gradient-8" x1="984.37" y1="418" x2="969.21" y2="342.16" xlink:href="#linear-gradient-2"/>
    <linearGradient id="linear-gradient-9" x1="985.37" y1="509" x2="970.21" y2="433.16" xlink:href="#linear-gradient-2"/>
    <linearGradient id="linear-gradient-10" x1="983.37" y1="602" x2="968.21" y2="526.16" xlink:href="#linear-gradient-2"/>
    <linearGradient id="linear-gradient-11" x1="715.37" y1="575" x2="700.21" y2="499.16" xlink:href="#linear-gradient-2"/>
    <linearGradient id="linear-gradient-12" x1="845.37" y1="575" x2="830.21" y2="499.16" xlink:href="#linear-gradient-2"/>
    <linearGradient id="linear-gradient-13" x1="715.37" y1="698" x2="700.21" y2="622.16" xlink:href="#linear-gradient-2"/>
    <linearGradient id="linear-gradient-14" x1="1574.37" y1="453" x2="1559.21" y2="377.16" xlink:href="#linear-gradient-2"/>
    <linearGradient id="linear-gradient-15" x1="1705.37" y1="453" x2="1690.21" y2="377.16" xlink:href="#linear-gradient-2"/>
    <linearGradient id="linear-gradient-16" x1="1573.37" y1="585" x2="1558.21" y2="509.16" xlink:href="#linear-gradient-2"/>
    <linearGradient id="linear-gradient-17" x1="1707.37" y1="585" x2="1692.21" y2="509.16" xlink:href="#linear-gradient-2"/>
    <linearGradient id="linear-gradient-18" x1="1191.37" y1="582" x2="1176.21" y2="506.16" xlink:href="#linear-gradient-2"/>
    <linearGradient id="linear-gradient-19" x1="1114.37" y1="581" x2="1099.21" y2="505.16" xlink:href="#linear-gradient-2"/>
    <linearGradient id="linear-gradient-20" x1="1347.37" y1="584" x2="1332.21" y2="508.16" xlink:href="#linear-gradient-2"/>
    <linearGradient id="linear-gradient-21" x1="1435.37" y1="584" x2="1420.21" y2="508.16" xlink:href="#linear-gradient-2"/>
    <linearGradient id="linear-gradient-22" x1="1270.63" y1="738.17" x2="1248.22" y2="626.03" gradientUnits="userSpaceOnUse">
      <stop offset="0.02"/>
      <stop offset="1" stop-color="#333"/>
    </linearGradient>
  </defs>
  <g class="cls-2">
    <g id="Background">
      <g>
        <rect class="cls-3" x="0.5" y="0.5" width="1919" height="707"/>
        <path d="M1919,1V707H1V1H1919m1-1H0V708H1920V0Z"/>
      </g>
      <g>
        <path class="cls-4" d="M468.36,179.34,1.93,726.09C-9.46,739.44,0,760,17.57,760H950.43c17.54,0,27-20.56,15.64-33.91L499.64,179.34A20.56,20.56,0,0,0,468.36,179.34Z"/>
        <path class="cls-5" d="M422.36,168.34-44.07,715.09C-55.46,728.44-46,749-28.43,749H904.43c17.54,0,27-20.56,15.64-33.91L453.64,168.34A20.56,20.56,0,0,0,422.36,168.34Z"/>
        <path class="cls-4" d="M1034.38,136.82l-758.94,553C259.35,701.54,267.65,727,287.55,727H1805.42c19.91,0,28.2-25.46,12.11-37.18l-758.93-553A20.59,20.59,0,0,0,1034.38,136.82Z"/>
        <path class="cls-5" d="M960.37,125.82l-758.93,553c-16.09,11.72-7.8,37.18,12.11,37.18H1731.42c19.9,0,28.19-25.46,12.11-37.18l-758.94-553A20.59,20.59,0,0,0,960.37,125.82Z"/>
        <path class="cls-4" d="M1709.09,132.31,1319.71,675.45A20.57,20.57,0,0,0,1336.43,708h778.75a20.57,20.57,0,0,0,16.71-32.55L1742.51,132.31A20.56,20.56,0,0,0,1709.09,132.31Z"/>
        <path class="cls-5" d="M1670.43,121.31,1281.06,664.45A20.57,20.57,0,0,0,1297.77,697h778.75a20.57,20.57,0,0,0,16.71-32.55L1703.86,121.31A20.57,20.57,0,0,0,1670.43,121.31Z"/>
        <ellipse class="cls-6" cx="1195" cy="1091" rx="1997" ry="428"/>
        <rect class="cls-7" x="-90" y="433" width="617" height="21" rx="10.5" transform="translate(-257.61 310.25) rotate(-48.14)"/>
        <rect class="cls-7" x="663.11" y="19" width="25.75" height="718.72" rx="12" transform="translate(583.7 -390.79) rotate(53.92)"/>
        <rect class="cls-7" x="1517.31" y="99.5" width="25.75" height="553.28" rx="12" transform="translate(505.71 -821.11) rotate(35.64)"/>
      </g>
    </g>
    <g id="town">
      <g id="bank">
        <rect class="cls-8" x="409.37" y="376.02" width="244.42" height="354.98"/>
        <rect class="cls-9" x="409.37" y="397.02" width="245" height="2"/>
        <rect class="cls-9" x="409.37" y="418.02" width="245" height="2"/>
        <rect class="cls-9" x="409.37" y="439.02" width="245" height="2"/>
        <rect class="cls-9" x="409.37" y="460.02" width="245" height="2"/>
        <rect class="cls-9" x="409.37" y="481.02" width="245" height="2"/>
        <rect class="cls-9" x="409.37" y="502.02" width="245" height="2"/>
        <rect class="cls-9" x="409.37" y="544.02" width="245" height="2"/>
        <rect class="cls-9" x="409.37" y="523.02" width="245" height="2"/>
        <rect class="cls-9" x="409.37" y="565.02" width="245" height="2"/>
        <rect class="cls-9" x="409.37" y="586.02" width="245" height="2"/>
        <rect class="cls-9" x="409" y="607" width="245" height="2"/>
        <rect class="cls-9" x="409" y="628" width="245" height="2"/>
        <rect class="cls-9" x="409" y="670" width="245" height="2"/>
        <rect class="cls-9" x="409" y="691" width="245" height="2"/>
        <rect class="cls-9" x="409" y="712" width="245" height="2"/>
        <rect class="cls-9" x="409" y="649" width="245" height="2"/>
        <g>
          <path d="M501.07,398.12V480h61.09V398.12Zm57.56,79.78h-53.9V405.43h53.9Z"/>
          <rect class="cls-10" x="498.07" y="395.49" width="66.1" height="7.08"/>
          <rect class="cls-11" x="504.73" y="405.43" width="53.89" height="72.47"/>
        </g>
        <g>
          <path d="M502.07,504.12V586h61.09V504.12Zm57.56,79.78h-53.9V511.43h53.9Z"/>
          <rect class="cls-10" x="499.07" y="501.49" width="66.1" height="7.08"/>
          <rect class="cls-12" x="505.73" y="511.43" width="53.89" height="72.47"/>
        </g>
        <g>
          <path d="M424.07,397.12V479h61.09V397.12Zm57.56,79.78h-53.9V404.43h53.9Z"/>
          <rect class="cls-10" x="421.07" y="394.49" width="66.1" height="7.08"/>
          <rect class="cls-13" x="427.73" y="404.43" width="53.89" height="72.47"/>
        </g>
        <g>
          <path d="M425.07,503.12V585h61.09V503.12Zm57.56,79.78h-53.9V510.43h53.9Z"/>
          <rect class="cls-10" x="422.07" y="500.49" width="66.1" height="7.08"/>
          <rect class="cls-14" x="428.73" y="510.43" width="53.89" height="72.47"/>
        </g>
        <g>
          <path d="M578.07,398.12V480h61.09V398.12Zm57.56,79.78h-53.9V405.43h53.9Z"/>
          <rect class="cls-10" x="575.07" y="395.49" width="66.1" height="7.08"/>
          <rect class="cls-15" x="581.73" y="405.43" width="53.89" height="72.47"/>
        </g>
        <g>
          <path d="M579.07,504.12V586h61.09V504.12Zm57.56,79.78h-53.9V511.43h53.9Z"/>
          <rect class="cls-10" x="576.07" y="501.49" width="66.1" height="7.08"/>
          <rect class="cls-16" x="582.73" y="511.43" width="53.89" height="72.47"/>
        </g>
        <g id="bank_name" data-name="bank name">
          <rect x="388" y="358.85" width="283.58" height="25.09"/>
          <rect class="cls-17" x="401" y="298" width="264" height="61"/>
          <g>
            <g>
              <path class="cls-18" d="M415.26,303.16l3.56.15q6.48-.87,21.51-.15l3.71.31,10.28,2,3.79,1.51a10.33,10.33,0,0,1,4.91,4.92c1.37,3.19,1.89,5.12,1.58,5.81l-.63,2.49-3.56,3.06.24.78,3.08,1.82a22.79,22.79,0,0,1,4.19,8.45,35.8,35.8,0,0,1,.24,10.74,15.41,15.41,0,0,1-2.61,4.3q-3.26,2.28-5.62,2.28l-11,.63a22,22,0,0,0-6.08.15l-12.81-.15q-6.81-.63-16.69-.63l-1.1-.77.23-11.21.24-2.28.63-.47,2.61-.31a2.18,2.18,0,0,0,1.19-1.66l.95-13.85-.71-.72c-.16-.21-1.27-.31-3.32-.31l-.87-.63-.24-3.52L412,313v-2.18a12.67,12.67,0,0,1,0-6.89A4.51,4.51,0,0,1,415.26,303.16Zm13.6,16.28c-.47,2.15,0,3.38,1.35,3.69a47,47,0,0,0,7.27-.47,86,86,0,0,1,8.93-1.09,9,9,0,0,0,4.43-1.66q0-1.86-4.9-2.75h-5.38l-3.56.42-6.32.31A4.05,4.05,0,0,0,428.86,319.44Zm1.35,12.45.71,6.12a4.1,4.1,0,0,0,2.37,1.09A117.69,117.69,0,0,0,449.42,338a6.66,6.66,0,0,0,3.08-2c.16-.38-.08-1.19-.71-2.44-1.42-1.62-2.53-2.49-3.32-2.59l-5.61-.78a95.08,95.08,0,0,0-11,.31A4,4,0,0,0,430.21,331.89Z"/>
              <path class="cls-18" d="M485,303.37l16.28.15c5.54-.41,8.54-.41,9,0q1.81,7.58,2.76,9c.16,1.25,0,1.87-.47,1.87l-2.53.47-1.42,1.09c-.16.48.39,1.66,1.66,3.52l4.66,7.27,3.32,4a46.23,46.23,0,0,0,5,7.57,8,8,0,0,0,3.09.94l4.9-.16,1,.62c-.32,7.34-.32,11.1,0,11.31-.32.73-.71,1.09-1.19,1.09h-6.56l-2.13-.47-2.14.47-14.39.31c-2.53,0-3.79-.26-3.79-.78l-.48-8,.24-1.71,2.13-.46q1.91-.63-1.89-4.62.47-1.4-.24-1.71l-7.51.31-2.14,4v.94l1.19.78c2.32.1,3.79.51,4.43,1.24q.94,7.72,0,7.88l-12.26.31H475.35c-1.11-.1-1.66-.41-1.66-.93l-.47-5.55v-2.8l.95-.62h4.26c.8.1,1.87-1.09,3.25-3.58l.95-2.28,5-8.66q.47-1.87,4-8.25V317l-1.19-.78-4.27-.11c-.95-.1-1.26-1.4-.95-3.89l-.94-6.22-.72-2,.24-.31Zm11.78,26.92v1.24l1,.62c1.58.21,2.68,0,3.32-.78.31-.2,0-1.24-.95-3.11l-.71-.78c-1.11-.1-1.66,0-1.66.32Z"/>
              <path class="cls-18" d="M536.94,339.93a28.52,28.52,0,0,0,6.17,0c1.11-.07,1.66-.81,1.66-2.23l.39-14.42v-4.66l-1.1-1.2-4.35-.31a1.06,1.06,0,0,1-.71-1,78.4,78.4,0,0,0,.71-10.68l1.11-1.66,3.95-.62a95,95,0,0,0,10.75,0l1.35.46,13.75,24.07,1.19.57.87-.57.47-6.79v-4.36c-.15-.8-1.92-1.3-5.29-1.51q-1.35-.57-.87-3l.23-7.78a1.25,1.25,0,0,1,1.35-1.09L581,303q1.82.32,9.8-.15c.64,0,1,.2,1.19.62l.24,5,.63,3.42v3l-.87.62-8.7.47a2.76,2.76,0,0,0-1.89,2.07l-.64,10.22v5.86a3.1,3.1,0,0,0,1.59,1.25l5.69.1c1,.1,1.34.66,1.18,1.66l.24,13.85c-.16.52-.63.81-1.42.88q-6.4-.26-8,.16H571.1l-1.35-.57q-11.07-20.76-13.12-26.46l-.63-.46a1.44,1.44,0,0,0-1.66.88L553,336.66c-.16,1.6.08,2.44.71,2.55l.87.31h3.48q1.35.15.87,2.85l-.63,9.34-.95.41-3.4.16a93.72,93.72,0,0,0-11.94.15l-1.58-.31-3.48-.15c-.63-.28-1-.63-1-1q.48-8.87,0-10.38Z"/>
              <path class="cls-18" d="M603,303.73l2.53.15,16.13-.31c1,.11,1.58.47,1.58,1.09a46.41,46.41,0,0,0,.47,9.65l-.23,2.13c-.16.31-1.61.67-4.35,1.09a2.4,2.4,0,0,0-1.42,1.81v2.39q-1.35,1.35,1.18,5.29c.74.21,1.58-.19,2.53-1.2l5.77-6.06a9.6,9.6,0,0,1,1.82-3.63l-.24-.89a2.67,2.67,0,0,1-1.34-2V304l.87-.47,3.72-.15,4.82.31,9.49-.16q3.87-1.5,5.06.16l-.48,10-.71.41-8.93.94a13.38,13.38,0,0,0-3.72,2.28l-11.78,12.71q-2.05,2.39-.63,3.58l5.29,3.06,9.41,4.2,7.59-.11c.64.18.95.42.95.73v6.38l.48,1.66c0,1.21-.4,1.95-1.19,2.23l-17,.31c-3.43.1-5.19-.05-5.3-.47l-.94-6.79.23-2a3.89,3.89,0,0,1,2.06-.31q1.82-.57,0-1.77l-6.25-3.63-3-.93a2,2,0,0,0-2.06,1v3.63l1.19,1.24c3.05-.1,4.66.24,4.82,1l-.47,8.61-1.35.62H599.09l-1-.62.23-9.23.72-.26c3.68.48,5.61,0,5.77-1.51l-.48-19.65c0-1.63-.37-2.65-1.1-3.06-.16-.31-1.56-.47-4.19-.47-.64,0-1-.4-1-1.19a92,92,0,0,1,0-12.24l.71-.32Z"/>
            </g>
            <g>
              <path class="cls-19" d="M417.26,300.16l3.56.15q6.48-.87,21.51-.15l3.71.31,10.28,2,3.79,1.51a10.33,10.33,0,0,1,4.91,4.92c1.37,3.19,1.89,5.12,1.58,5.81l-.63,2.49-3.56,3.06.24.78,3.08,1.82a22.79,22.79,0,0,1,4.19,8.45,35.8,35.8,0,0,1,.24,10.74,15.41,15.41,0,0,1-2.61,4.3q-3.26,2.28-5.62,2.28l-11,.63a22,22,0,0,0-6.08.15l-12.81-.15q-6.81-.63-16.69-.63l-1.1-.77.23-11.21.24-2.28.63-.47,2.61-.31a2.18,2.18,0,0,0,1.19-1.66l.95-13.85-.71-.72c-.16-.21-1.27-.31-3.32-.31l-.87-.63-.24-3.52L414,310v-2.18a12.67,12.67,0,0,1,0-6.89A4.51,4.51,0,0,1,417.26,300.16Zm13.6,16.28c-.47,2.15,0,3.38,1.35,3.69a47,47,0,0,0,7.27-.47,86,86,0,0,1,8.93-1.09,9,9,0,0,0,4.43-1.66q0-1.86-4.9-2.75h-5.38l-3.56.42-6.32.31A4.05,4.05,0,0,0,430.86,316.44Zm1.35,12.45.71,6.12a4.1,4.1,0,0,0,2.37,1.09A117.69,117.69,0,0,0,451.42,335a6.66,6.66,0,0,0,3.08-2c.16-.38-.08-1.19-.71-2.44-1.42-1.62-2.53-2.49-3.32-2.59l-5.61-.78a95.08,95.08,0,0,0-11,.31A4,4,0,0,0,432.21,328.89Z"/>
              <path class="cls-19" d="M487,300.37l16.28.15c5.54-.41,8.54-.41,9,0q1.82,7.58,2.76,9c.16,1.25,0,1.87-.47,1.87l-2.53.47-1.42,1.09c-.16.48.39,1.66,1.66,3.52l4.66,7.27,3.32,4a46.23,46.23,0,0,0,5,7.57,8,8,0,0,0,3.09.94l4.9-.16,1,.62c-.32,7.34-.32,11.1,0,11.31-.32.73-.71,1.09-1.19,1.09h-6.56l-2.13-.47-2.14.47-14.39.31c-2.53,0-3.79-.26-3.79-.78l-.48-8,.24-1.71,2.13-.46q1.91-.63-1.89-4.62.47-1.4-.24-1.71l-7.51.31-2.14,4v.94l1.19.78c2.32.1,3.79.51,4.43,1.24q.94,7.72,0,7.88l-12.26.31H477.35c-1.11-.1-1.66-.41-1.66-.93l-.47-5.55v-2.8l.95-.62h4.26c.8.1,1.87-1.09,3.25-3.58l.95-2.28,5-8.66q.47-1.87,4-8.25V314l-1.19-.78-4.27-.11c-.95-.1-1.26-1.4-.95-3.89l-.94-6.22-.72-2,.24-.31Zm11.78,26.92v1.24l1,.62c1.58.21,2.68,0,3.32-.78.31-.2,0-1.24-.95-3.11l-.71-.78c-1.11-.1-1.66,0-1.66.32Z"/>
              <path class="cls-19" d="M538.94,336.93a28.52,28.52,0,0,0,6.17,0c1.11-.07,1.66-.81,1.66-2.23l.39-14.42v-4.66l-1.1-1.2-4.35-.31a1.06,1.06,0,0,1-.71-1,78.4,78.4,0,0,0,.71-10.68l1.11-1.66,3.95-.62a95,95,0,0,0,10.75,0l1.35.46,13.75,24.07,1.19.57.87-.57.47-6.79v-4.36c-.15-.8-1.92-1.3-5.29-1.51q-1.35-.57-.87-3l.23-7.78a1.25,1.25,0,0,1,1.35-1.09L583,300q1.82.32,9.8-.15c.64,0,1,.2,1.19.62l.24,5,.63,3.42v3l-.87.62-8.7.47a2.76,2.76,0,0,0-1.89,2.07l-.64,10.22v5.86a3.1,3.1,0,0,0,1.59,1.25l5.69.1c1,.1,1.34.66,1.18,1.66l.24,13.85c-.16.52-.63.81-1.42.88q-6.4-.26-8,.16H573.1l-1.35-.57q-11.07-20.76-13.12-26.46l-.63-.46a1.44,1.44,0,0,0-1.66.88L555,333.66c-.16,1.6.08,2.44.71,2.55l.87.31h3.48q1.35.15.87,2.85l-.63,9.34-.95.41-3.4.16a93.72,93.72,0,0,0-11.94.15l-1.58-.31-3.48-.15c-.63-.28-1-.63-1-1q.48-8.87,0-10.38Z"/>
              <path class="cls-19" d="M605,300.73l2.53.15,16.13-.31c1,.11,1.58.47,1.58,1.09a46.41,46.41,0,0,0,.47,9.65l-.23,2.13c-.16.31-1.61.67-4.35,1.09a2.4,2.4,0,0,0-1.42,1.81v2.39q-1.35,1.35,1.18,5.29c.74.21,1.58-.19,2.53-1.2l5.77-6.06a9.6,9.6,0,0,1,1.82-3.63l-.24-.89a2.67,2.67,0,0,1-1.34-2V301l.87-.47,3.72-.15,4.82.31,9.49-.16q3.87-1.5,5.06.16l-.48,10-.71.41-8.93.94a13.38,13.38,0,0,0-3.72,2.28l-11.78,12.71q-2.05,2.39-.63,3.58l5.29,3.06,9.41,4.2,7.59-.11c.64.18.95.42.95.73v6.38l.48,1.66c0,1.21-.4,1.95-1.19,2.23l-17,.31c-3.43.1-5.19-.05-5.3-.47l-.94-6.79.23-2a3.89,3.89,0,0,1,2.06-.31q1.82-.57,0-1.77l-6.25-3.63-3-.93a2,2,0,0,0-2.06,1v3.63l1.19,1.24c3.05-.1,4.66.24,4.82,1l-.47,8.61-1.35.62H601.09l-1-.62.23-9.23.72-.26c3.68.48,5.61,0,5.77-1.51l-.48-19.65c0-1.63-.37-2.65-1.1-3.06-.16-.31-1.56-.47-4.19-.47-.64,0-1-.4-1-1.19a92,92,0,0,1,0-12.24l.71-.32Z"/>
            </g>
          </g>
        </g>
        <g>
          <rect class="cls-20" x="483" y="608" width="78" height="121"/>
          <g>
            <path d="M493,619v14h58.33V619Zm56,13.44H495.33V619.56H549Z"/>
            <path d="M493,633v14h58.33V633Zm56,13.44H495.33V633.56H549Z"/>
            <path d="M493,647v14h58.33V647Zm56,13.44H495.33V647.56H549Z"/>
            <path d="M493,661v14h58.33V661Zm56,13.44H495.33V661.56H549Z"/>
            <path d="M493,675v14h58.33V675Zm56,13.44H495.33V675.56H549Z"/>
            <path d="M493,689v14h58.33V689Zm56,13.44H495.33V689.56H549Z"/>
            <path d="M493,703v14h58.33V703Zm56,13.44H495.33V703.56H549Z"/>
          </g>
        </g>
      </g>
      <g id="orange_house" data-name="orange house">
        <rect class="cls-21" x="889.11" y="301.09" width="169.89" height="15.03"/>
        <polygon class="cls-22" points="1051.4 413 978.04 413 893 413 894.81 430 978.04 430 1053 430 1051.4 413"/>
        <rect class="cls-23" x="893" y="429" width="160" height="4"/>
        <polygon class="cls-22" points="1051.4 433 978.04 433 893 433 894.81 450 978.04 450 1053 450 1051.4 433"/>
        <rect class="cls-23" x="893" y="449" width="160" height="4"/>
        <polygon class="cls-22" points="1051.4 453 978.04 453 893 453 894.81 470 978.04 470 1053 470 1051.4 453"/>
        <rect class="cls-23" x="893" y="469" width="160" height="4"/>
        <polygon class="cls-22" points="1051.4 353 978.04 353 893 353 894.81 370 978.04 370 1053 370 1051.4 353"/>
        <rect class="cls-23" x="893" y="369" width="160" height="4"/>
        <polygon class="cls-22" points="1051.4 333 978.04 333 893 333 894.81 350 978.04 350 1053 350 1051.4 333"/>
        <rect class="cls-23" x="893" y="349" width="160" height="4"/>
        <polygon class="cls-22" points="1051.4 313 978.04 313 893 313 894.81 330 978.04 330 1053 330 1051.4 313"/>
        <rect class="cls-23" x="893" y="329" width="160" height="4"/>
        <polygon class="cls-22" points="1051.4 373 978.04 373 893 373 894.81 390 978.04 390 1053 390 1051.4 373"/>
        <rect class="cls-23" x="893" y="389" width="160" height="4"/>
        <polygon class="cls-22" points="1051.4 393 978.04 393 893 393 894.81 410 978.04 410 1053 410 1051.4 393"/>
        <rect class="cls-23" x="893" y="409" width="160" height="4"/>
        <polygon class="cls-22" points="1051.4 473 978.04 473 893 473 894.81 490 978.04 490 1053 490 1051.4 473"/>
        <rect class="cls-23" x="893" y="489" width="160" height="4"/>
        <polygon class="cls-22" points="1051.4 493 978.04 493 893 493 894.81 510 978.04 510 1053 510 1051.4 493"/>
        <rect class="cls-23" x="893" y="509" width="160" height="4"/>
        <polygon class="cls-22" points="1051.4 513 978.04 513 893 513 894.81 530 978.04 530 1053 530 1051.4 513"/>
        <rect class="cls-23" x="893" y="529" width="160" height="4"/>
        <polygon class="cls-22" points="1051.4 533 978.04 533 893 533 894.81 550 978.04 550 1053 550 1051.4 533"/>
        <rect class="cls-23" x="893" y="549" width="160" height="4"/>
        <polygon class="cls-22" points="1051.4 553 978.04 553 893 553 894.81 570 978.04 570 1053 570 1051.4 553"/>
        <rect class="cls-23" x="893" y="569" width="160" height="4"/>
        <polygon class="cls-22" points="1051.4 573 978.04 573 893 573 894.81 590 978.04 590 1053 590 1051.4 573"/>
        <rect class="cls-23" x="893" y="589" width="160" height="4"/>
        <polygon class="cls-22" points="1051.4 593 978.04 593 893 593 894.81 610 978.04 610 1053 610 1051.4 593"/>
        <rect class="cls-23" x="893" y="609" width="160" height="4"/>
        <polygon class="cls-22" points="1051.4 613 978.04 613 893 613 894.81 630 978.04 630 1053 630 1051.4 613"/>
        <rect class="cls-23" x="893" y="629" width="160" height="4"/>
        <polygon class="cls-22" points="1051.4 633 978.04 633 893 633 894.81 650 978.04 650 1053 650 1051.4 633"/>
        <rect class="cls-23" x="893" y="649" width="160" height="4"/>
        <polygon class="cls-22" points="1051.4 653 978.04 653 893 653 894.81 670 978.04 670 1053 670 1051.4 653"/>
        <rect class="cls-23" x="893" y="669" width="160" height="4"/>
        <polygon class="cls-22" points="1051.4 673 978.04 673 893 673 894.81 690 978.04 690 1053 690 1051.4 673"/>
        <rect class="cls-23" x="893" y="689" width="160" height="4"/>
        <polygon class="cls-22" points="1051.4 693 978.04 693 893 693 894.81 710 978.04 710 1053 710 1051.4 693"/>
        <rect class="cls-23" x="893" y="709" width="160" height="4"/>
        <polygon class="cls-22" points="1051.4 713 978.04 713 893 713 894.81 730 978.04 730 1053 730 1051.4 713"/>
        <rect class="cls-23" x="893" y="729" width="160" height="4"/>
        <g>
          <path d="M944.82,329.76v81.88h61.09V329.76Zm57.56,79.78H948.49V337.07h53.89Z"/>
          <rect class="cls-10" x="941.82" y="327.14" width="66.1" height="7.08"/>
          <rect class="cls-24" x="948.49" y="337.07" width="53.89" height="72.47"/>
        </g>
        <g>
          <path d="M945.82,420.76v81.88h61.09V420.76Zm57.56,79.78H949.49V428.07h53.89Z"/>
          <rect class="cls-10" x="942.82" y="418.14" width="66.1" height="7.08"/>
          <rect class="cls-25" x="949.49" y="428.07" width="53.89" height="72.47"/>
        </g>
        <g>
          <path d="M943.82,513.76v81.88h61.09V513.76Zm57.56,79.78H947.49V521.07h53.89Z"/>
          <rect class="cls-10" x="940.82" y="511.14" width="66.1" height="7.08"/>
          <rect class="cls-26" x="947.49" y="521.07" width="53.89" height="72.47"/>
        </g>
        <g>
          <rect class="cls-27" x="932" y="609" width="78" height="121"/>
          <g>
            <path d="M942,620v14h58.33V620Zm56,13.44H944.33V620.56H998Z"/>
            <path d="M942,634v14h58.33V634Zm56,13.44H944.33V634.56H998Z"/>
            <path d="M942,648v14h58.33V648Zm56,13.44H944.33V648.56H998Z"/>
            <path d="M942,662v14h58.33V662Zm56,13.44H944.33V662.56H998Z"/>
            <path d="M942,676v14h58.33V676Zm56,13.44H944.33V676.56H998Z"/>
            <path d="M942,690v14h58.33V690Zm56,13.44H944.33V690.56H998Z"/>
            <path d="M942,704v14h58.33V704Zm56,13.44H944.33V704.56H998Z"/>
          </g>
        </g>
      </g>
      <g id="Green_House" data-name="Green House">
        <rect class="cls-28" x="647.42" y="429.7" width="244.42" height="302.3"/>
        <rect class="cls-21" x="653" y="418.77" width="247.16" height="21.86"/>
        <g>
          <path d="M675.82,486.76v81.88h61.09V486.76Zm57.56,79.78H679.49V494.07h53.89Z"/>
          <rect class="cls-10" x="672.82" y="484.14" width="66.1" height="7.08"/>
          <rect class="cls-29" x="679.49" y="494.07" width="53.89" height="72.47"/>
        </g>
        <g>
          <path d="M805.82,486.76v81.88h61.09V486.76Zm57.56,79.78H809.49V494.07h53.89Z"/>
          <rect class="cls-10" x="802.82" y="484.14" width="66.1" height="7.08"/>
          <rect class="cls-30" x="809.49" y="494.07" width="53.89" height="72.47"/>
        </g>
        <g>
          <rect class="cls-27" x="796" y="609" width="78" height="121"/>
          <g>
            <path d="M806,620v14h58.33V620Zm56,13.44H808.33V620.56H862Z"/>
            <path d="M806,634v14h58.33V634Zm56,13.44H808.33V634.56H862Z"/>
            <path d="M806,648v14h58.33V648Zm56,13.44H808.33V648.56H862Z"/>
            <path d="M806,662v14h58.33V662Zm56,13.44H808.33V662.56H862Z"/>
            <path d="M806,676v14h58.33V676Zm56,13.44H808.33V676.56H862Z"/>
            <path d="M806,690v14h58.33V690Zm56,13.44H808.33V690.56H862Z"/>
            <path d="M806,704v14h58.33V704Zm56,13.44H808.33V704.56H862Z"/>
          </g>
        </g>
        <g>
          <path d="M675.82,609.76v81.88h61.09V609.76Zm57.56,79.78H679.49V617.07h53.89Z"/>
          <rect class="cls-10" x="672.82" y="607.14" width="66.1" height="7.08"/>
          <rect class="cls-31" x="679.49" y="617.07" width="53.89" height="72.47"/>
        </g>
      </g>
      <g id="Brown_light_house" data-name="Brown light house">
        <g id="light_brown_house" data-name="light brown house">
          <rect class="cls-21" x="1462" y="288.85" width="354" height="25.09"/>
          <polygon class="cls-20" points="1791.19 619 1645.8 619 1477.28 619 1480.87 639.6 1645.8 639.6 1794.35 639.6 1791.19 619"/>
          <rect class="cls-27" x="1477.28" y="638.6" width="317.07" height="4"/>
          <polygon class="cls-20" points="1791.19 596 1645.8 596 1477.28 596 1480.87 616.6 1645.8 616.6 1794.35 616.6 1791.19 596"/>
          <rect class="cls-27" x="1477.28" y="615.6" width="317.07" height="4"/>
          <polygon class="cls-20" points="1791.19 572 1645.8 572 1477.28 572 1480.87 592.6 1645.8 592.6 1794.35 592.6 1791.19 572"/>
          <rect class="cls-27" x="1477.28" y="591.6" width="317.07" height="4"/>
          <polygon class="cls-20" points="1791.19 690 1645.8 690 1477.28 690 1480.87 710.6 1645.8 710.6 1794.35 710.6 1791.19 690"/>
          <polygon class="cls-20" points="1791.19 713 1645.8 713 1477.28 713 1480.87 733.6 1645.8 733.6 1794.35 733.6 1791.19 713"/>
          <rect class="cls-27" x="1477.28" y="709.6" width="317.07" height="4"/>
          <polygon class="cls-20" points="1791.19 667 1645.8 667 1477.28 667 1480.87 687.6 1645.8 687.6 1794.35 687.6 1791.19 667"/>
          <rect class="cls-27" x="1477.28" y="686.6" width="317.07" height="4"/>
          <polygon class="cls-20" points="1791.19 643 1645.8 643 1477.28 643 1480.87 663.6 1645.8 663.6 1794.35 663.6 1791.19 643"/>
          <rect class="cls-27" x="1477.28" y="662.6" width="317.07" height="4"/>
          <polygon class="cls-20" points="1791.19 549 1645.8 549 1477.28 549 1480.87 569.6 1645.8 569.6 1794.35 569.6 1791.19 549"/>
          <rect class="cls-27" x="1477.28" y="568.6" width="317.07" height="4"/>
          <polygon class="cls-20" points="1791.19 525 1645.8 525 1477.28 525 1480.87 545.6 1645.8 545.6 1794.35 545.6 1791.19 525"/>
          <rect class="cls-27" x="1477.28" y="544.6" width="317.07" height="4"/>
          <polygon class="cls-20" points="1791.19 502 1645.8 502 1477.28 502 1480.87 522.6 1645.8 522.6 1794.35 522.6 1791.19 502"/>
          <rect class="cls-27" x="1477.28" y="521.6" width="317.07" height="4"/>
          <polygon class="cls-20" points="1791.19 478 1645.8 478 1477.28 478 1480.87 498.6 1645.8 498.6 1794.35 498.6 1791.19 478"/>
          <rect class="cls-27" x="1477.28" y="497.6" width="317.07" height="4"/>
          <polygon class="cls-20" points="1791.19 455 1645.8 455 1477.28 455 1480.87 475.6 1645.8 475.6 1794.35 475.6 1791.19 455"/>
          <rect class="cls-27" x="1477.28" y="474.6" width="317.07" height="4"/>
          <polygon class="cls-20" points="1791.19 431 1645.8 431 1477.28 431 1480.87 451.6 1645.8 451.6 1794.35 451.6 1791.19 431"/>
          <rect class="cls-27" x="1477.28" y="450.6" width="317.07" height="4"/>
          <polygon class="cls-20" points="1791.19 408 1645.8 408 1477.28 408 1480.87 428.6 1645.8 428.6 1794.35 428.6 1791.19 408"/>
          <rect class="cls-27" x="1477.28" y="427.6" width="317.07" height="4"/>
          <polygon class="cls-20" points="1791.19 384 1645.8 384 1477.28 384 1480.87 404.6 1645.8 404.6 1794.35 404.6 1791.19 384"/>
          <rect class="cls-27" x="1477.28" y="403.6" width="317.07" height="4"/>
          <polygon class="cls-20" points="1791.19 361 1645.8 361 1477.28 361 1480.87 381.6 1645.8 381.6 1794.35 381.6 1791.19 361"/>
          <rect class="cls-27" x="1477.28" y="380.6" width="317.07" height="4"/>
          <polygon class="cls-20" points="1791.19 337 1645.8 337 1477.28 337 1480.87 357.6 1645.8 357.6 1794.35 357.6 1791.19 337"/>
          <rect class="cls-27" x="1477.28" y="356.6" width="317.07" height="4"/>
          <polygon class="cls-20" points="1791.19 314 1645.8 314 1477.28 314 1480.87 334.6 1645.8 334.6 1794.35 334.6 1791.19 314"/>
          <rect class="cls-27" x="1477.28" y="333.6" width="317.07" height="4"/>
          <rect class="cls-27" x="1477.28" y="309.6" width="317.07" height="4"/>
        </g>
        <g>
          <path d="M1534.82,364.76v81.88h61.09V364.76Zm57.56,79.78h-53.89V372.07h53.89Z"/>
          <rect class="cls-10" x="1531.82" y="362.14" width="66.1" height="7.08"/>
          <rect class="cls-32" x="1538.49" y="372.07" width="53.89" height="72.47"/>
        </g>
        <g>
          <path d="M1665.82,364.76v81.88h61.09V364.76Zm57.56,79.78h-53.89V372.07h53.89Z"/>
          <rect class="cls-10" x="1662.82" y="362.14" width="66.1" height="7.08"/>
          <rect class="cls-33" x="1669.49" y="372.07" width="53.89" height="72.47"/>
        </g>
        <g>
          <path d="M1533.82,496.76v81.88h61.09V496.76Zm57.56,79.78h-53.89V504.07h53.89Z"/>
          <rect class="cls-10" x="1530.82" y="494.14" width="66.1" height="7.08"/>
          <rect class="cls-34" x="1537.49" y="504.07" width="53.89" height="72.47"/>
        </g>
        <g>
          <path d="M1667.82,496.76v81.88h61.09V496.76Zm57.56,79.78h-53.89V504.07h53.89Z"/>
          <rect class="cls-10" x="1664.82" y="494.14" width="66.1" height="7.08"/>
          <rect class="cls-35" x="1671.49" y="504.07" width="53.89" height="72.47"/>
        </g>
        <g>
          <rect class="cls-36" x="1596" y="610" width="78" height="121"/>
          <g>
            <path d="M1606,621v14h58.33V621Zm56,13.44h-53.67V621.56H1662Z"/>
            <path d="M1606,635v14h58.33V635Zm56,13.44h-53.67V635.56H1662Z"/>
            <path d="M1606,649v14h58.33V649Zm56,13.44h-53.67V649.56H1662Z"/>
            <path d="M1606,663v14h58.33V663Zm56,13.44h-53.67V663.56H1662Z"/>
            <path d="M1606,677v14h58.33V677Zm56,13.44h-53.67V677.56H1662Z"/>
            <path d="M1606,691v14h58.33V691Zm56,13.44h-53.67V691.56H1662Z"/>
            <path d="M1606,705v14h58.33V705Zm56,13.44h-53.67V705.56H1662Z"/>
          </g>
        </g>
      </g>
      <g id="Saloon">
        <g id="Saloon-2" data-name="Saloon">
          <g id="Saloon-3" data-name="Saloon">
            <rect class="cls-21" x="1027" y="378.85" width="482" height="25.09"/>
            <polygon class="cls-37" points="1475.22 709 1277.26 709 1047.81 709 1052.69 729.6 1277.26 729.6 1479.53 729.6 1475.22 709"/>
            <rect class="cls-38" x="1047.81" y="728.6" width="431.72" height="4"/>
            <polygon class="cls-37" points="1475.22 686 1277.26 686 1047.81 686 1052.69 706.6 1277.26 706.6 1479.53 706.6 1475.22 686"/>
            <rect class="cls-38" x="1047.81" y="705.6" width="431.72" height="4"/>
            <polygon class="cls-37" points="1475.22 662 1277.26 662 1047.81 662 1052.69 682.6 1277.26 682.6 1479.53 682.6 1475.22 662"/>
            <rect class="cls-38" x="1047.81" y="681.6" width="431.72" height="4"/>
            <polygon class="cls-37" points="1475.22 639 1277.26 639 1047.81 639 1052.69 659.6 1277.26 659.6 1479.53 659.6 1475.22 639"/>
            <rect class="cls-38" x="1047.81" y="658.6" width="431.72" height="4"/>
            <polygon class="cls-37" points="1475.22 615 1277.26 615 1047.81 615 1052.69 635.6 1277.26 635.6 1479.53 635.6 1475.22 615"/>
            <rect class="cls-38" x="1047.81" y="634.6" width="431.72" height="4"/>
            <polygon class="cls-37" points="1475.22 592 1277.26 592 1047.81 592 1052.69 612.6 1277.26 612.6 1479.53 612.6 1475.22 592"/>
            <rect class="cls-38" x="1047.81" y="611.6" width="431.72" height="4"/>
            <polygon class="cls-37" points="1475.22 568 1277.26 568 1047.81 568 1052.69 588.6 1277.26 588.6 1479.53 588.6 1475.22 568"/>
            <rect class="cls-38" x="1047.81" y="587.6" width="431.72" height="4"/>
            <polygon class="cls-37" points="1475.22 545 1277.26 545 1047.81 545 1052.69 565.6 1277.26 565.6 1479.53 565.6 1475.22 545"/>
            <rect class="cls-38" x="1047.81" y="564.6" width="431.72" height="4"/>
            <polygon class="cls-37" points="1475.22 521 1277.26 521 1047.81 521 1052.69 541.6 1277.26 541.6 1479.53 541.6 1475.22 521"/>
            <rect class="cls-38" x="1047.81" y="540.6" width="431.72" height="4"/>
            <polygon class="cls-37" points="1475.22 498 1277.26 498 1047.81 498 1052.69 518.6 1277.26 518.6 1479.53 518.6 1475.22 498"/>
            <rect class="cls-38" x="1047.81" y="517.6" width="431.72" height="4"/>
            <polygon class="cls-37" points="1475.22 474 1277.26 474 1047.81 474 1052.69 494.6 1277.26 494.6 1479.53 494.6 1475.22 474"/>
            <rect class="cls-38" x="1047.81" y="493.6" width="431.72" height="4"/>
            <polygon class="cls-37" points="1475.22 451 1277.26 451 1047.81 451 1052.69 471.6 1277.26 471.6 1479.53 471.6 1475.22 451"/>
            <rect class="cls-38" x="1047.81" y="470.6" width="431.72" height="4"/>
            <polygon class="cls-37" points="1475.22 427 1277.26 427 1047.81 427 1052.69 447.6 1277.26 447.6 1479.53 447.6 1475.22 427"/>
            <rect class="cls-38" x="1047.81" y="446.6" width="431.72" height="4"/>
            <polygon class="cls-37" points="1475.22 404 1277.26 404 1047.81 404 1052.69 424.6 1277.26 424.6 1479.53 424.6 1475.22 404"/>
            <rect class="cls-38" x="1047.81" y="423.6" width="431.72" height="4"/>
            <rect class="cls-38" x="1047.81" y="399.6" width="431.72" height="4"/>
          </g>
          <g>
            <path class="cls-39" d="M1113.49,301.59h5.14l5,1.23,3.71,1.41.67-.25a2.54,2.54,0,0,1,2.69-1.4q9.95.24,9.94,1.65l-.67,23.28a2.89,2.89,0,0,1-2.45,1,35.48,35.48,0,0,0-9,.49h-3.87l-1-.74-.42-5.45c-.84-1.1-1.4-1.59-1.68-1.48l-1.52.74a17.61,17.61,0,0,0-2.61,7.35q-.75,5,2.61,6.68l11.87-.25q5.64.75,6.57,4.3,1.26,1.65,1.68,9.08,0,18.5-4.8,24.43l-4.12,4.05a29.16,29.16,0,0,1-11.45,2.89,42.39,42.39,0,0,1-9.43-.5l-5.56-2.39q-2.19-1.65-2.69-6.36V354.67c0-1.93.39-3,1.18-3.14l5.38.25c2.59-.77,4-.61,4.13.49q-.77,5.7.51,6.44.42.92,5.8,2.4,7,.4,8.68-3.8l-.42-4.54q1.42-4.29-3.88-6.69l-16.75.25q-8-.75-7.58-9V328.5l1.77-17.34.92-3.38Q1106.76,300.92,1113.49,301.59Z"/>
            <path class="cls-39" d="M1158.71,302.49l17.34.25q8.85-1,9.6,0,1.93,12.06,2.95,14.28.26,3-.51,3l-2.69.75-1.52,1.73q-.26,1.15,1.77,5.61l5,11.56,3.53,6.44a84.27,84.27,0,0,0,5.31,12.05,6.69,6.69,0,0,0,3.28,1.49l5.22-.25,1,1q-.49,17.5,0,18c-.33,1.16-.76,1.73-1.26,1.73h-7l-2.27-.74-2.28.74-15.32.5c-2.69,0-4-.41-4-1.24l-.51-12.8.26-2.72,2.27-.74q2-1-2-7.35c.34-1.49.25-2.39-.25-2.72l-8,.49-2.27,6.36v1.48l1.26,1.24q3.71.26,4.71,2,1,12.3,0,12.55l-13,.5h-10.78c-1.17-.17-1.76-.66-1.76-1.49l-.51-8.83v-4.46l1-1h4.55c.84.16,2-1.73,3.45-5.7l1-3.63,5.31-13.79q.49-3,4.29-13.12v-1.49l-1.26-1.24-4.55-.16q-1.52-.25-1-6.19l-1-9.91-.76-3.14.25-.49Zm12.54,42.85v2l1,1c1.69.33,2.87-.08,3.54-1.24q.51-.49-1-4.95l-.76-1.24c-1.18-.16-1.77,0-1.77.5Z"/>
            <path class="cls-39" d="M1215.88,301.5l22.06.25a1.15,1.15,0,0,1,1.18,1v15.44l-.51.74-6.48.74q-2.54,2.23-2,3.47l-.76,31.45c.67,1.6,2.36,2.32,5.05,2.15l8.25-.25,1-1.23.26-4.13c.16-.66.67-1,1.51-1H1248c2.47-1,4-1,4.46,0l-.25,28-1,1q-10.28,1.25-32.84,1.49h-4.21l-1-1,.25-19.4.51-.74,5.22-.5,1.51-1.73.25-3.14-.5-9.41.25-3.63a127.73,127.73,0,0,1-.5-16.27,8.33,8.33,0,0,0-1.27-2.89l-3.19-1.48-.51-1.24-.51-16.68C1215,301.83,1215.37,301.5,1215.88,301.5Z"/>
            <path class="cls-39" d="M1278.44,301.59h10.77l6.49.9a26.8,26.8,0,0,1,7.15,2.31l2.87,2.15q2.43,3.72,3.87,14.28-.51,18.33,0,20.64-.77,28.65-3.62,32.11a11.88,11.88,0,0,1-6.23,4.46q-11.7,2.9-12.21,2.15l-12.38-.25-6-1.15q-2.94-.75-7-6.36a34.3,34.3,0,0,1-3.37-10.32l-1.18-19.9.25-14.77,1.43-9.91,1.94-5.61q1.42-3.22,6.65-7.52Q1277,300.84,1278.44,301.59ZM1270.61,333q-.25,13,1.43,19.23l1.18,2.39c.61,1.11,2.61,2.34,6,3.72q8.08-.26,11.71-3.47c1.29-1.92,1.93-3.27,1.93-4l.93-8.92V330.4a17.62,17.62,0,0,0-2.1-5.86l-2.87-2.15-6.73.49-5.31,1c-2.52.94-4.1,1.93-4.71,3Q1271.53,327.58,1270.61,333Z"/>
            <path class="cls-39" d="M1338.3,301.59h10.78l6.48.9a27,27,0,0,1,7.16,2.31l2.86,2.15q2.45,3.72,3.87,14.28-.5,18.33,0,20.64-.75,28.65-3.62,32.11a11.88,11.88,0,0,1-6.23,4.46q-11.7,2.9-12.21,2.15l-12.37-.25-6-1.15q-3-.75-7-6.36a34.58,34.58,0,0,1-3.37-10.32l-1.18-19.9.26-14.77,1.43-9.91,1.93-5.61c1-2.15,3.17-4.65,6.66-7.52Q1336.87,300.84,1338.3,301.59ZM1330.47,333q-.26,13,1.43,19.23l1.18,2.39c.62,1.11,2.61,2.34,6,3.72q8.09-.26,11.7-3.47c1.29-1.92,1.94-3.27,1.94-4l.92-8.92V330.4a17.62,17.62,0,0,0-2.1-5.86l-2.86-2.15-6.74.49-5.3,1q-3.8,1.41-4.72,3C1331.56,327.34,1331.09,329.38,1330.47,333Z"/>
            <path class="cls-39" d="M1375.26,360.69q4.89.49,6.57,0c1.18-.11,1.77-1.29,1.77-3.55l.42-22.95v-7.43l-1.18-1.89-4.63-.5a1.81,1.81,0,0,1-.76-1.65q.77-8.18.76-17l1.18-2.64,4.21-1a65.42,65.42,0,0,0,11.45,0l1.43.74,14.65,38.31,1.26.91.93-.91.51-10.82v-6.93c-.17-1.27-2-2.06-5.65-2.39q-1.42-.92-.92-4.79l.25-12.39c.17-1.15.65-1.73,1.43-1.73l13.22-.25q1.93.5,10.44-.24a1.18,1.18,0,0,1,1.26,1l.26,7.92.67,5.45v4.79l-.93,1-9.26.74c-1,.44-1.68,1.54-2,3.3l-.67,16.27v9.32a3.84,3.84,0,0,0,1.68,2l6.06.16c1,.17,1.44,1.05,1.27,2.64l.25,22a1.63,1.63,0,0,1-1.52,1.41c-4.54-.28-7.38-.19-8.5.25h-9.51l-1.44-.91q-11.79-33-14-42.1l-.68-.75c-.84-.16-1.43.31-1.76,1.41l-1.44,18c-.16,2.53.09,3.88.76,4.05l.93.49h3.7q1.44.25.93,4.54l-.67,14.86-1,.66-3.62.25a66.81,66.81,0,0,0-12.72.25l-1.68-.5-3.71-.24a1.94,1.94,0,0,1-1-1.66q.51-14.12,0-16.51Z"/>
          </g>
        </g>
        <g>
          <path d="M1151.82,493.76v81.88h61.09V493.76Zm57.56,79.78h-53.89V501.07h53.89Z"/>
          <rect class="cls-10" x="1148.82" y="491.14" width="66.1" height="7.08"/>
          <rect class="cls-40" x="1155.49" y="501.07" width="53.89" height="72.47"/>
        </g>
        <g>
          <path d="M1074.82,492.76v81.88h61.09V492.76Zm57.56,79.78h-53.89V500.07h53.89Z"/>
          <rect class="cls-10" x="1071.82" y="490.14" width="66.1" height="7.08"/>
          <rect class="cls-41" x="1078.49" y="500.07" width="53.89" height="72.47"/>
        </g>
        <g>
          <path d="M1307.82,495.76v81.88h61.09V495.76Zm57.56,79.78h-53.89V503.07h53.89Z"/>
          <rect class="cls-10" x="1304.82" y="493.14" width="66.1" height="7.08"/>
          <rect class="cls-42" x="1311.49" y="503.07" width="53.89" height="72.47"/>
        </g>
        <g>
          <path d="M1395.82,495.76v81.88h61.09V495.76Zm57.56,79.78h-53.89V503.07h53.89Z"/>
          <rect class="cls-10" x="1392.82" y="493.14" width="66.1" height="7.08"/>
          <rect class="cls-43" x="1399.49" y="503.07" width="53.89" height="72.47"/>
        </g>
        <g>
          <g>
            <path class="cls-44" d="M1297.3,659.65a35.39,35.39,0,1,0-70.78-.41h0V733h70V667.25A35.89,35.89,0,0,0,1297.3,659.65Z"/>
            <rect class="cls-45" x="1220" y="651.86" width="13.02" height="81.14" rx="6.51"/>
            <rect class="cls-45" x="1289.98" y="651.86" width="13.02" height="81.14" rx="6.51"/>
            <path class="cls-45" d="M1245.23,665c-8.54,0-15.47,3.4-15.47,7.61v38c0,4.2,6.93,7.61,15.47,7.61s15.46-3.41,15.46-7.61v-38C1260.69,668.38,1253.76,665,1245.23,665Z"/>
            <path class="cls-45" d="M1277.77,665c-8.53,0-15.46,3.4-15.46,7.61v38c0,4.2,6.93,7.61,15.46,7.61s15.47-3.41,15.47-7.61v-38C1293.24,668.38,1286.31,665,1277.77,665Z"/>
          </g>
          <g>
            <path d="M1234,671v6h25v-6Zm24,5.76h-23v-5.52h23Z"/>
            <path d="M1234,677v6h25v-6Zm24,5.76h-23v-5.52h23Z"/>
            <path d="M1234,683v6h25v-6Zm24,5.76h-23v-5.52h23Z"/>
            <path d="M1234,689v6h25v-6Zm24,5.76h-23v-5.52h23Z"/>
            <path d="M1234,695v6h25v-6Zm24,5.76h-23v-5.52h23Z"/>
            <path d="M1234,701v6h25v-6Zm24,5.76h-23v-5.52h23Z"/>
            <path d="M1234,707v6h25v-6Zm24,5.76h-23v-5.52h23Z"/>
          </g>
          <g>
            <path d="M1265,671v6h25v-6Zm24,5.76h-23v-5.52h23Z"/>
            <path d="M1265,677v6h25v-6Zm24,5.76h-23v-5.52h23Z"/>
            <path d="M1265,683v6h25v-6Zm24,5.76h-23v-5.52h23Z"/>
            <path d="M1265,689v6h25v-6Zm24,5.76h-23v-5.52h23Z"/>
            <path d="M1265,695v6h25v-6Zm24,5.76h-23v-5.52h23Z"/>
            <path d="M1265,701v6h25v-6Zm24,5.76h-23v-5.52h23Z"/>
            <path d="M1265,707v6h25v-6Zm24,5.76h-23v-5.52h23Z"/>
          </g>
        </g>
      </g>
      <rect class="cls-46" x="336" y="568" width="35" height="113" rx="16.5"/>
      <rect class="cls-46" x="186" y="649" width="33" height="75" rx="16.5"/>
      <rect class="cls-47" x="329" y="568" width="33" height="97" rx="16.5"/>
      <rect class="cls-47" x="181" y="702" width="87" height="30" rx="15"/>
      <rect class="cls-47" x="181" y="649" width="26" height="77" rx="13"/>
      <rect class="cls-46" x="241" y="528.56" width="58" height="269.44" rx="27.5"/>
      <rect class="cls-47" x="232" y="529" width="55" height="272" rx="27.5"/>
      <path class="cls-47" d="M283.12,636h59.76A19.12,19.12,0,0,1,362,655.12v12.14A14.74,14.74,0,0,1,347.26,682H283.12A19.12,19.12,0,0,1,264,662.88v-7.76A19.12,19.12,0,0,1,283.12,636Z"/>
      <g class="cls-48">
        <path d="M418.47,818.35l-2,0c-9.07.11-12.33,1.26-7.23,2.57l44.92,11.51c5.09,1.3,16.68,2.28,25.76,2.18l2,0c9.07-.1,12.33-1.26,7.23-2.56l-44.92-11.51C439.14,819.22,427.54,818.24,418.47,818.35Z"/>
        <path d="M242.34,813.94h0c-9.08.11-12.33,1.27-7.24,2.57l23.58,6c5.1,1.31,16.69,2.29,25.77,2.18h0c9.07-.1,12.33-1.26,7.23-2.56l-23.58-6C263,814.82,251.41,813.84,242.34,813.94Z"/>
        <path d="M421.45,820.72h0c-9.07.11-12.33,1.26-7.23,2.57l35.94,9.2c5.09,1.31,16.69,2.29,25.76,2.18h0c9.07-.1,12.33-1.26,7.23-2.56l-35.93-9.21C442.12,821.6,430.53,820.61,421.45,820.72Z"/>
        <path d="M251.19,817.15l57-.67c8.24-.09,11.2-1.14,6.57-2.33h0c-4.63-1.19-15.17-2.08-23.42-2l-57,.66c-8.25.1-11.2,1.15-6.57,2.34h0C232.4,816.35,242.94,817.25,251.19,817.15Z"/>
        <path d="M279,824.8h0c7.15-.09,9.71-1,5.7-2L256,815.44c-4-1-13.15-1.8-20.3-1.72h0c-7.15.08-9.71,1-5.7,2l28.64,7.34C262.66,824.11,271.8,824.88,279,824.8Z"/>
        <path d="M269.78,802.49l-3,0c-15.12.17-20.55,2.1-12.06,4.27l120.41,30.85c8.49,2.18,27.81,3.81,42.94,3.63l3,0c15.12-.18,20.55-2.1,12.06-4.28L312.72,806.12C304.23,804,284.9,802.31,269.78,802.49Z"/>
        <path d="M259.1,802.16h0c-15.13.18-20.55,2.11-12.06,4.28l121.84,31.22c8.5,2.17,27.82,3.81,42.94,3.63h0c15.13-.18,20.55-2.1,12.06-4.28L302,805.8C293.54,803.62,274.22,802,259.1,802.16Z"/>
        <path d="M413.67,818.25l-64.14.76c-10.51.12-14.28,1.46-8.38,3l4.36,1.12c5.9,1.51,19.34,2.65,29.85,2.52l59.76-.7c10.51-.12,14.29-1.46,8.38-3l-6.81-1.75C432.13,819,421.77,818.16,413.67,818.25Z"/>
      </g>
      <g id="bank-2" data-name="bank" class="cls-49">
        <polygon points="654.28 733.9 409.86 733.9 477.44 774 721.86 774 654.28 733.9"/>
        <polygon class="cls-9" points="718.06 771.41 473.06 771.41 473.44 771.63 718.44 771.63 718.06 771.41"/>
        <polygon class="cls-9" points="714.06 769.03 469.06 769.03 469.44 769.26 714.44 769.26 714.06 769.03"/>
        <polygon class="cls-9" points="710.07 766.66 465.06 766.66 465.44 766.89 710.45 766.89 710.07 766.66"/>
        <polygon class="cls-9" points="706.07 764.29 461.07 764.29 461.45 764.51 706.45 764.51 706.07 764.29"/>
        <polygon class="cls-9" points="702.07 761.92 457.07 761.92 457.45 762.14 702.45 762.14 702.07 761.92"/>
        <polygon class="cls-9" points="698.07 759.54 453.07 759.54 453.45 759.77 698.45 759.77 698.07 759.54"/>
        <polygon class="cls-9" points="690.08 754.8 445.08 754.8 445.46 755.02 690.46 755.02 690.08 754.8"/>
        <polygon class="cls-9" points="694.07 757.17 449.07 757.17 449.45 757.4 694.46 757.4 694.07 757.17"/>
        <polygon class="cls-9" points="686.08 752.42 441.08 752.42 441.46 752.65 686.46 752.65 686.08 752.42"/>
        <polygon class="cls-9" points="682.08 750.05 437.08 750.05 437.46 750.28 682.46 750.28 682.08 750.05"/>
        <polygon class="cls-9" points="677.72 747.68 432.72 747.68 433.1 747.91 678.1 747.91 677.72 747.68"/>
        <polygon class="cls-9" points="673.72 745.31 428.72 745.31 429.1 745.53 674.1 745.53 673.72 745.31"/>
        <polygon class="cls-9" points="665.73 740.56 420.73 740.56 421.11 740.79 666.11 740.79 665.73 740.56"/>
        <polygon class="cls-9" points="661.73 738.19 416.73 738.19 417.11 738.42 662.11 738.42 661.73 738.19"/>
        <polygon class="cls-9" points="657.73 735.82 412.73 735.82 413.11 736.04 658.11 736.04 657.73 735.82"/>
        <polygon class="cls-9" points="669.72 742.94 424.72 742.94 425.11 743.16 670.11 743.16 669.72 742.94"/>
        <g>
          <path d="M564.93,771.51l-15.58-9.25h61.09L626,771.51Zm42.37-9H553.41l13.8,8.19H621.1Z"/>
          <polygon points="627.18 771 561.08 771 562.43 771.8 628.53 771.8 627.18 771"/>
          <polygon points="607.3 762.5 553.41 762.5 567.21 770.68 621.1 770.68 607.3 762.5"/>
        </g>
        <g>
          <path d="M545.75,759.53l-15.58-9.25h61.09l15.59,9.25Zm42.37-9H534.23l13.8,8.19h53.89Z"/>
          <polygon points="608 759.03 541.9 759.03 543.25 759.83 609.35 759.83 608 759.03"/>
          <polygon points="588.13 750.52 534.23 750.52 548.03 758.71 601.92 758.71 588.13 750.52"/>
        </g>
        <g>
          <path d="M488.12,771.62l-15.58-9.25h61.09l15.58,9.25Zm42.37-9H476.6l13.8,8.19h53.89Z"/>
          <polygon points="550.37 771.12 484.27 771.12 485.62 771.92 551.72 771.92 550.37 771.12"/>
          <polygon points="530.49 762.61 476.6 762.61 490.4 770.8 544.29 770.8 530.49 762.61"/>
        </g>
        <g>
          <path d="M468.94,759.64l-15.58-9.25h61.09L530,759.64Zm42.38-9h-53.9l13.8,8.19h53.89Z"/>
          <polygon points="531.19 759.14 465.09 759.14 466.44 759.94 532.54 759.94 531.19 759.14"/>
          <polygon points="511.31 750.63 457.42 750.63 471.22 758.82 525.11 758.82 511.31 750.63"/>
        </g>
        <g>
          <path d="M641.93,771.51l-15.58-9.25h61.09L703,771.51Zm42.37-9H630.41l13.8,8.19H698.1Z"/>
          <polygon points="704.18 771 638.08 771 639.43 771.8 705.53 771.8 704.18 771"/>
          <polygon points="684.3 762.5 630.41 762.5 644.21 770.68 698.1 770.68 684.3 762.5"/>
        </g>
        <g>
          <path d="M622.75,759.53l-15.58-9.25h61.09l15.59,9.25Zm42.37-9H611.23l13.8,8.19h53.89Z"/>
          <polygon points="685 759.03 618.9 759.03 620.25 759.83 686.35 759.83 685 759.03"/>
          <polygon points="665.13 750.52 611.23 750.52 625.03 758.71 678.92 758.71 665.13 750.52"/>
        </g>
        <g id="bank_name-2" data-name="bank name">
          <polygon points="738.14 773.11 454.56 773.11 459.34 775.95 742.92 775.95 738.14 773.11"/>
          <polygon points="736.31 775.93 472.31 775.93 483.92 782.82 747.92 782.82 736.31 775.93"/>
          <g>
            <g>
              <path d="M493.76,782.2c-1.16-.31-1.6-.57-1.31-.78l-.42-.24.4-.33-.43-.4.75-.07c2.05,0,3.14,0,3.26,0l.57-.08L493,778.7a6.89,6.89,0,0,0-1.5-.19l-2.67,0-.72-.06-.68-.26-2.37-1.26,1-.09q9.89,0,16.57-.07l12.78,0c1.48,0,3.52,0,6.11,0l11.11.07q2.37,0,6,.26c1.15.12,2.29.28,3.43.48s1.64.74,1.81,1.22c-.21.35-1.07.66-2.59,1l-2.73.21-.09.09,4.14.34,1.1.28c.45.08.29.3-.47.66a16.45,16.45,0,0,1-4,.56l-3.51.17-9.89.22-3.65,0q-14.9.08-21.54,0l-3.53,0Q495.13,782.31,493.76,782.2Zm14.79-3q5.23.06,11.05,0l5.47-.09a19.79,19.79,0,0,0,2.82-.29c.4-.14.48-.24.25-.28-1-.1-2.12-.18-3.47-.23q-6-.11-16.33-.12a19.06,19.06,0,0,0-2.17.12l.46.69C507,779.1,507.68,779.16,508.55,779.2Zm1.22,1.43,6.38,0,3.64.05h5.37c3.16-.07,4.62-.17,4.38-.31-1.1-.09-2.68-.15-4.74-.19-3,0-6.09-.07-9.14-.12-3.83-.05-6.28-.07-7.37-.06-1.31,0-1.52.18-.64.42C508.26,780.53,509,780.59,509.77,780.63Z"/>
              <path d="M565.6,782.23l-.29,0,.33-.23-.23-.7c-.79-.28-.72-.43.2-.44h4.25l1-.09-.18-.1c-3.18-.49-5-.8-5.6-.94l-6.63-1-1.38-.26a28.15,28.15,0,0,0-3.92-.41h-4.27l-1.07-.07-.53-.31-.59-.63c-.09-.06.4-.09,1.49-.11h10.12l12.31,0a1.7,1.7,0,0,1,1.5.89A40.26,40.26,0,0,1,568,778l-1,.09.18.1,2.9.45,7.57,0c.43,0,.4-.09-.09-.19,2-.3,2.36-.48,1-.53l-2.23-.05-.56-.19-1.06-.91a25.27,25.27,0,0,1,3.65-.09l14.45,0,2.22,0,2,0h6.56a8.1,8.1,0,0,1,1.4.12c-.28,0,.44.45,2.15,1.28l-.83.07-4.93,0c-1.39,0-2.36.06-2.91.11a26.17,26.17,0,0,0-3.54.85l-2.55.46-3.28.82c-.91.21-1.24.34-1,.4l1.63.12,2.62,0c.47,0,.75.07.83.21a1.59,1.59,0,0,0-1.06,1c-.4,0-3.4,0-9,0l-16.25,0Zm9.33-2.72a13.61,13.61,0,0,0,1.72,0l.56-.09c.59-.21.71-.32.36-.35a32.69,32.69,0,0,0-3.47-.09l-.83.07.23.14Z"/>
              <path d="M610.76,778.06c.13-.11-.53-.5-2-1.17-.08,0,.17-.08.75-.11l3.45,0,1.52,0q7,.06,12,0l3.43,0,1,0,2.41,1.06c.66.2.55.31-.33.32h-3.48l-.81,0c-.61,0-.69.1-.23.28l3.5,1.28a10.28,10.28,0,0,0,1.83.1l.54,0a59.38,59.38,0,0,1,8.09-3l1.24-.06h8.93q1.67,0,8,0a9.47,9.47,0,0,1,1.59.1l2.4,1.57c.35.11.05.17-.87.18l-5.68,0a7.4,7.4,0,0,0-1.34.14l1.11.66,2.58,1.15a11.67,11.67,0,0,0,2.29.24l8.79,0,1,.07.57.34,0,.39.71.56a3.79,3.79,0,0,1-1.07.07c-5.38,0-8.66,0-9.83,0l-12.44,0a6.74,6.74,0,0,1-1.55-.12l-1.72-.88c-.63-.18-.53-.29.29-.34a34.74,34.74,0,0,0,5-.17l-.83-.49-1.77-.77-1-.06-1.08.06-9.17,2.72-1.26,0q-6.7,0-10.75,0l-4.07-.06-1.43-.19a14.77,14.77,0,0,0-2.74-1.21q-.13-.08.51-.12l4.29,0,.88-.14-.89-.52-3.14-1.63a5.32,5.32,0,0,0-2.08-.26c-1.1,0-3.15,0-6.17,0Z"/>
              <path d="M680.6,782.21l-.77,0a8.75,8.75,0,0,1-2.33-1.38c-.15-.09.09-.13.72-.13,2.64,0,4,0,4.1-.06.66,0,.84-.16.53-.34L679.58,778a32.69,32.69,0,0,0-6.06-.17l-.76,0-2-1.05.83-.07h20.55l1.47.07,2.11,1a31.21,31.21,0,0,1-4.63.11l-1,.14.7.41a14.8,14.8,0,0,0,2.25.12l2.82-.1,5.56-.41c1.06-.09.95-.16-.34-.2-.77,0-1.48,0-2.11,0l-.61-.22-.35-.77s1.76-.06,5.21,0l17.06,0A4.3,4.3,0,0,1,722,777l-.16.19L723,778c.07,0-.21.07-.8.09l-7.62,0-8.6.48-4.72.34c-.8.09-.36.23,1.32.41l14.2,1.43c1.75.14,3.14.23,4.15.26l9.11.11.79,0,2.38,1.14a30.89,30.89,0,0,1-5,0h-9.52l-4.76,0-3.75,0-1,0-1.76-1c0-.11.31-.18,1-.23l.07-.09a22.24,22.24,0,0,1-2.51-.42l-6.92-.68a23.35,23.35,0,0,0-2.76-.14q-1.78.45-.18.6l.46.27a8.67,8.67,0,0,0,1.76.21q4.23.06,4.56.12l.64.24c.06.32.51.68,1.36,1.09.12.07-.34.11-1.37.12l-16.19,0-2.5,0Z"/>
            </g>
            <g>
              <path d="M496.33,782.54c-1.16-.31-1.59-.57-1.31-.78l-.41-.24.39-.33-.43-.4.75-.07c2.05,0,3.14,0,3.26,0l.57-.08L495.57,779a6.89,6.89,0,0,0-1.5-.19l-2.67,0-.72,0-.68-.26-2.37-1.26,1-.09q9.89,0,16.57-.07l12.78,0c1.48,0,3.52,0,6.12,0l11.1.07q2.37,0,6.05.26c1.15.11,2.29.28,3.43.48s1.64.74,1.81,1.22c-.21.34-1.07.66-2.59.95l-2.73.21-.09.09,4.14.34,1.11.28q.66.12-.48.66a16.43,16.43,0,0,1-4,.56l-3.51.17-9.9.22-3.65,0q-14.89.07-21.54,0l-3.53,0Q497.7,782.65,496.33,782.54Zm14.79-3q5.24.06,11,0l5.47-.09a19.79,19.79,0,0,0,2.82-.29c.4-.15.48-.24.25-.28-1-.11-2.12-.18-3.47-.23q-6-.11-16.33-.12a19.06,19.06,0,0,0-2.17.12l.46.69C509.61,779.44,510.25,779.49,511.12,779.54Zm1.22,1.42,6.38,0,3.64,0h5.37c3.16-.07,4.62-.17,4.38-.31-1.1-.09-2.68-.16-4.74-.19-3,0-6.09-.07-9.14-.13q-5.73-.06-7.37,0c-1.31,0-1.52.18-.64.42C510.83,780.87,511.54,780.93,512.34,781Z"/>
              <path d="M568.17,782.57l-.29,0,.33-.23-.23-.7c-.79-.28-.72-.43.21-.44h4.24l1-.09-.18-.11c-3.18-.48-5-.79-5.6-.93l-6.63-1-1.38-.25a26.64,26.64,0,0,0-3.92-.41h-4.27l-1.07-.07-.53-.32-.59-.62c-.09-.06.4-.1,1.49-.11h10.12l12.31,0a1.69,1.69,0,0,1,1.5.89,40.26,40.26,0,0,1-4.19.14l-1,.09.17.1,2.9.45,7.57,0c.43,0,.4-.09-.09-.19,2-.3,2.36-.48,1-.53l-2.23,0-.56-.19-1.06-.91a25.4,25.4,0,0,1,3.65-.09l14.45,0,2.22,0,2.05,0h6.56a8.1,8.1,0,0,1,1.4.12c-.28,0,.44.45,2.15,1.28l-.83.07-4.93,0c-1.39,0-2.36.06-2.91.11a25.42,25.42,0,0,0-3.54.85l-2.55.46-3.28.82c-.91.21-1.24.34-1,.4l1.63.12,2.62.05c.47,0,.75.07.83.21a1.59,1.59,0,0,0-1.06,1q-.6.06-9,0l-16.26,0Zm9.33-2.73a10.68,10.68,0,0,0,1.72,0l.56-.09c.59-.21.71-.33.36-.35a32.59,32.59,0,0,0-3.47-.09l-.83.07.23.14Z"/>
              <path d="M613.33,778.4c.13-.11-.53-.5-2-1.17-.08-.05.17-.08.75-.12h3.45l1.52,0q7,.06,12,0l3.43,0,1,0,2.41,1.06c.66.2.55.31-.33.32h-3.48l-.81,0c-.61,0-.69.1-.23.28l3.5,1.28a10.28,10.28,0,0,0,1.83.1l.54-.05a60,60,0,0,1,8.09-3l1.24-.07h8.93c1.11,0,3.78,0,8,0a9.47,9.47,0,0,1,1.59.1l2.4,1.57q.52.16-.87.18l-5.68,0a7.4,7.4,0,0,0-1.34.14l1.12.66L663,781a11.67,11.67,0,0,0,2.29.24l8.79,0,1,.07.57.34,0,.39.71.56a3.79,3.79,0,0,1-1.07.07c-5.38,0-8.66,0-9.83,0l-12.44,0a6.74,6.74,0,0,1-1.55-.12l-1.72-.88c-.63-.18-.53-.3.3-.34a34.65,34.65,0,0,0,5-.17l-.83-.49-1.77-.77-1-.06-1.08.06-9.17,2.72-1.26,0c-4.46,0-8,0-10.75,0l-4.07-.07-1.42-.18a15.21,15.21,0,0,0-2.75-1.21q-.13-.07.51-.12l4.29,0,.88-.14-.89-.52-3.13-1.63a5.38,5.38,0,0,0-2.09-.26c-1.1,0-3.15,0-6.17,0Z"/>
              <path d="M683.17,782.55l-.77,0a9,9,0,0,1-2.33-1.38c-.15-.09.09-.14.72-.14,2.64,0,4,0,4.1,0,.66-.05.84-.16.53-.34l-3.27-2.23a34.87,34.87,0,0,0-6.06-.17l-.76,0-2-1,.83-.07h20.55l1.47.07,2.11,1a30.07,30.07,0,0,1-4.63.12l-.94.14.69.41a14.8,14.8,0,0,0,2.25.12l2.83-.11,5.55-.41c1.06-.08,1-.15-.33-.2-.78,0-1.49,0-2.12,0l-.61-.22-.35-.77s1.77-.06,5.21,0l17.06,0a4.3,4.3,0,0,1,1.61.25l-.16.19,1.22.72c.06,0-.21.06-.81.08h-7.61l-8.61.48-4.72.34c-.8.09-.36.23,1.32.41l14.2,1.43c1.75.14,3.14.23,4.15.26l9.11.11.79,0,2.38,1.13a29.19,29.19,0,0,1-5,0l-9.52,0-4.76,0-3.75,0-1-.05-1.76-1c0-.11.31-.18,1-.23l.07-.1a20.24,20.24,0,0,1-2.51-.41l-6.92-.68a21.36,21.36,0,0,0-2.76-.14q-1.79.45-.18.6l.46.27a8.89,8.89,0,0,0,1.76.2c2.82,0,4.34.09,4.56.13l.64.24c.06.32.52.68,1.36,1.09.12.07-.34.11-1.37.12l-16.19,0h-6.72Z"/>
            </g>
          </g>
        </g>
        <g>
          <polygon points="561.88 734.12 483.88 734.12 506.91 747.79 584.91 747.79 561.88 734.12"/>
          <g>
            <path d="M514.82,746.55,512.15,745h58.33l2.67,1.58ZM568.26,745H514.59l2.45,1.46h53.67Z"/>
            <path d="M512.15,745l-2.66-1.58h58.33l2.66,1.58Zm53.44-1.52H511.93l2.45,1.46H568Z"/>
            <path d="M509.49,743.39l-2.67-1.58h58.33l2.67,1.58Zm53.44-1.52H509.26l2.45,1.45h53.67Z"/>
            <path d="M506.82,741.81l-2.66-1.59h58.33l2.66,1.59Zm53.44-1.52H506.6l2.45,1.45h53.66Z"/>
            <path d="M504.16,740.22l-2.67-1.58h58.33l2.67,1.58Zm53.44-1.51H503.93l2.45,1.45h53.67Z"/>
            <path d="M501.49,738.64l-2.66-1.58h58.33l2.66,1.58Zm53.44-1.52H501.27l2.45,1.46h53.66Z"/>
            <path d="M498.83,737.06l-2.67-1.58h58.33l2.67,1.58Zm53.44-1.52H498.6l2.45,1.46h53.67Z"/>
          </g>
        </g>
      </g>
      <g id="orange_house-2" data-name="orange house" class="cls-49">
        <polygon points="1138.47 780.77 968.58 780.77 971.44 782.47 1141.33 782.47 1138.47 780.77"/>
        <polygon points="1112.43 769.83 1039.07 769.83 954.03 769.83 952.61 767.91 1035.83 767.91 1110.79 767.91 1112.43 769.83"/>
        <polygon points="1110.22 767.57 950.22 767.57 950.98 768.02 1110.98 768.02 1110.22 767.57"/>
        <polygon points="1108.63 767.57 1035.26 767.57 950.22 767.57 948.8 765.65 1032.03 765.65 1106.99 765.65 1108.63 767.57"/>
        <polygon points="1106.42 765.31 946.42 765.31 947.18 765.76 1107.18 765.76 1106.42 765.31"/>
        <polygon points="1104.82 765.31 1031.45 765.31 946.42 765.31 944.99 763.39 1028.22 763.39 1103.18 763.39 1104.82 765.31"/>
        <polygon points="1102.61 763.05 942.61 763.05 943.37 763.5 1103.37 763.5 1102.61 763.05"/>
        <polygon points="1123.86 776.61 1050.49 776.61 965.45 776.61 964.03 774.68 1047.26 774.68 1122.22 774.68 1123.86 776.61"/>
        <polygon points="1121.64 774.35 961.64 774.35 962.41 774.8 1122.41 774.8 1121.64 774.35"/>
        <polygon points="1127.66 778.87 1054.3 778.87 969.26 778.87 967.83 776.95 1051.06 776.95 1126.02 776.95 1127.66 778.87"/>
        <polygon points="1125.45 776.61 965.45 776.61 966.21 777.06 1126.21 777.06 1125.45 776.61"/>
        <polygon points="1131.47 781.13 1058.11 781.13 973.07 781.13 971.64 779.21 1054.87 779.21 1129.83 779.21 1131.47 781.13"/>
        <polygon points="1129.26 778.87 969.26 778.87 970.02 779.32 1130.02 779.32 1129.26 778.87"/>
        <polygon points="1120.05 774.35 1046.68 774.35 961.64 774.35 960.22 772.43 1043.45 772.43 1118.41 772.43 1120.05 774.35"/>
        <polygon points="1117.84 772.09 957.84 772.09 958.6 772.54 1118.6 772.54 1117.84 772.09"/>
        <polygon points="1116.24 772.09 1042.88 772.09 957.84 772.09 956.41 770.17 1039.64 770.17 1114.6 770.17 1116.24 772.09"/>
        <polygon points="1114.03 769.83 954.03 769.83 954.79 770.28 1114.79 770.28 1114.03 769.83"/>
        <polygon points="1101.01 763.05 1027.65 763.05 942.61 763.05 941.18 761.13 1024.41 761.13 1099.37 761.13 1101.01 763.05"/>
        <polygon points="1098.8 760.79 938.8 760.79 939.56 761.24 1099.56 761.24 1098.8 760.79"/>
        <polygon points="1097.2 760.79 1023.84 760.79 938.8 760.79 937.38 758.87 1020.61 758.87 1095.57 758.87 1097.2 760.79"/>
        <polygon points="1094.99 758.53 934.99 758.53 935.75 758.98 1095.76 758.98 1094.99 758.53"/>
        <polygon points="1093.4 758.53 1020.03 758.53 934.99 758.53 933.57 756.61 1016.8 756.61 1091.76 756.61 1093.4 758.53"/>
        <polygon points="1091.19 756.27 931.19 756.27 931.95 756.72 1091.95 756.72 1091.19 756.27"/>
        <polygon points="1089.59 756.27 1016.23 756.27 931.19 756.27 929.76 754.35 1012.99 754.35 1087.95 754.35 1089.59 756.27"/>
        <polygon points="1087.38 754.01 927.38 754.01 928.14 754.46 1088.14 754.46 1087.38 754.01"/>
        <polygon points="1085.78 754.01 1012.42 754.01 927.38 754.01 925.96 752.09 1009.18 752.09 1084.14 752.09 1085.78 754.01"/>
        <polygon points="1083.57 751.75 923.57 751.75 924.33 752.2 1084.33 752.2 1083.57 751.75"/>
        <polygon points="1081.98 751.75 1008.61 751.75 923.57 751.75 922.15 749.83 1005.38 749.83 1080.34 749.83 1081.98 751.75"/>
        <polygon points="1079.77 749.49 919.76 749.49 920.53 749.94 1080.53 749.94 1079.77 749.49"/>
        <polygon points="1078.17 749.49 1004.8 749.49 919.76 749.49 918.34 747.57 1001.57 747.57 1076.53 747.57 1078.17 749.49"/>
        <polygon points="1075.96 747.23 915.96 747.23 916.72 747.68 1076.72 747.68 1075.96 747.23"/>
        <polygon points="1074.36 747.23 1001 747.23 915.96 747.23 914.53 745.31 997.76 745.31 1072.72 745.31 1074.36 747.23"/>
        <polygon points="1072.15 744.97 912.15 744.97 912.91 745.42 1072.91 745.42 1072.15 744.97"/>
        <polygon points="1070.55 744.97 997.19 744.97 912.15 744.97 910.73 743.05 993.95 743.05 1068.91 743.05 1070.55 744.97"/>
        <polygon points="1068.34 742.71 908.34 742.71 909.11 743.16 1069.11 743.16 1068.34 742.71"/>
        <polygon points="1066.75 742.71 993.38 742.71 908.34 742.71 906.92 740.79 990.15 740.79 1065.11 740.79 1066.75 742.71"/>
        <polygon points="1064.54 740.45 904.54 740.45 905.3 740.9 1065.3 740.9 1064.54 740.45"/>
        <polygon points="1062.94 740.45 989.58 740.45 904.54 740.45 903.11 738.53 986.34 738.53 1061.3 738.53 1062.94 740.45"/>
        <polygon points="1060.73 738.19 900.73 738.19 901.49 738.64 1061.49 738.64 1060.73 738.19"/>
        <polygon points="1059.13 738.19 985.77 738.19 900.73 738.19 899.3 736.27 982.53 736.27 1057.49 736.27 1059.13 738.19"/>
        <polygon points="1056.92 735.93 896.92 735.93 897.68 736.38 1057.68 736.38 1056.92 735.93"/>
        <polygon points="1055.33 735.93 981.96 735.93 896.92 735.93 895.5 734.01 978.73 734.01 1053.69 734.01 1055.33 735.93"/>
        <polygon points="1053.12 733.67 893.12 733.67 893.88 734.12 1053.88 734.12 1053.12 733.67"/>
        <g>
          <path d="M1021.7,779.23,1006.11,770h61.09l15.59,9.25Zm42.37-9h-53.9l13.8,8.19h53.89Z"/>
          <polygon points="1083.94 778.73 1017.84 778.73 1019.19 779.53 1085.29 779.53 1083.94 778.73"/>
          <polygon points="1064.07 770.22 1010.17 770.22 1023.97 778.41 1077.86 778.41 1064.07 770.22"/>
        </g>
        <g>
          <path d="M1005.37,769l-15.58-9.25h61.09l15.59,9.25Zm42.37-9H993.85l13.8,8.18h53.89Z"/>
          <polygon points="1067.62 768.45 1001.52 768.45 1002.87 769.25 1068.97 769.25 1067.62 768.45"/>
          <polygon points="1047.74 759.94 993.85 759.94 1007.65 768.12 1061.54 768.12 1047.74 759.94"/>
        </g>
        <g>
          <path d="M985.67,758.44l-15.59-9.25h61.1l15.58,9.25Zm42.37-9H974.15l13.79,8.19h53.9Z"/>
          <polygon points="1047.92 757.94 981.82 757.94 983.17 758.74 1049.27 758.74 1047.92 757.94"/>
          <polygon points="1028.04 749.43 974.15 749.43 987.94 757.62 1041.84 757.62 1028.04 749.43"/>
        </g>
        <g>
          <polygon points="1010.69 734.01 932.69 734.01 955.72 747.68 1033.72 747.68 1010.69 734.01"/>
          <g>
            <path d="M963.63,746.44,961,744.86h58.33l2.67,1.58Zm53.44-1.52H963.4l2.45,1.46h53.67Z"/>
            <path d="M961,744.86l-2.66-1.59h58.33l2.66,1.59Zm53.44-1.52H960.74l2.45,1.45h53.66Z"/>
            <path d="M958.3,743.27l-2.67-1.58H1014l2.67,1.58Zm53.44-1.51H958.07l2.45,1.45h53.67Z"/>
            <path d="M955.63,741.69,953,740.11h58.33l2.66,1.58Zm53.44-1.52H955.41l2.45,1.46h53.66Z"/>
            <path d="M953,740.11l-2.67-1.58h58.33l2.67,1.58Zm53.44-1.52H952.74l2.45,1.46h53.67Z"/>
            <path d="M950.3,738.53,947.64,737H1006l2.66,1.58Zm53.44-1.52H950.08l2.45,1.46h53.66Z"/>
            <path d="M947.64,737,945,735.37h58.33L1006,737Zm53.44-1.52H947.41l2.45,1.45h53.67Z"/>
          </g>
        </g>
      </g>
      <g id="Green_House-2" data-name="Green House" class="cls-49">
        <polygon points="892.15 733.78 647.73 733.78 705.27 767.94 949.69 767.94 892.15 733.78"/>
        <polygon points="955.93 766.7 708.77 766.7 712.93 769.17 960.09 769.17 955.93 766.7"/>
        <g>
          <path d="M722.81,761.49l-15.59-9.25h61.1l15.58,9.25Zm42.37-9H711.29l13.79,8.19H779Z"/>
          <polygon points="785.06 760.99 718.96 760.99 720.31 761.79 786.4 761.79 785.06 760.99"/>
          <polygon points="765.18 752.48 711.29 752.48 725.08 760.67 778.98 760.67 765.18 752.48"/>
        </g>
        <g>
          <path d="M852.81,761.49l-15.59-9.25h61.1l15.58,9.25Zm42.37-9H841.29l13.79,8.19H909Z"/>
          <polygon points="915.06 760.99 848.96 760.99 850.31 761.79 916.4 761.79 915.06 760.99"/>
          <polygon points="895.18 752.48 841.29 752.48 855.08 760.67 908.98 760.67 895.18 752.48"/>
        </g>
        <g>
          <polygon points="874.69 734.01 796.69 734.01 819.72 747.68 897.72 747.68 874.69 734.01"/>
          <g>
            <path d="M827.63,746.44,825,744.86h58.33l2.67,1.58Zm53.44-1.52H827.4l2.45,1.46h53.67Z"/>
            <path d="M825,744.86l-2.66-1.59h58.33l2.66,1.59Zm53.44-1.52H824.74l2.45,1.45h53.66Z"/>
            <path d="M822.3,743.27l-2.67-1.58H878l2.67,1.58Zm53.44-1.51H822.07l2.45,1.45h53.67Z"/>
            <path d="M819.63,741.69,817,740.11H875.3l2.66,1.58Zm53.44-1.52H819.41l2.45,1.46h53.66Z"/>
            <path d="M817,740.11l-2.67-1.58h58.33l2.67,1.58Zm53.44-1.52H816.74l2.45,1.46h53.67Z"/>
            <path d="M814.3,738.53,811.64,737H870l2.66,1.58ZM867.74,737H814.08l2.45,1.46h53.66Z"/>
            <path d="M811.64,737,809,735.37H867.3L870,737Zm53.44-1.52H811.41l2.45,1.45h53.67Z"/>
          </g>
        </g>
        <g>
          <path d="M699.4,747.6l-15.59-9.26H744.9l15.59,9.26Zm42.37-9h-53.9l13.8,8.19h53.89Z"/>
          <polygon points="761.64 747.09 695.54 747.09 696.89 747.89 762.99 747.89 761.64 747.09"/>
          <polygon points="741.77 738.58 687.87 738.58 701.67 746.77 755.56 746.77 741.77 738.58"/>
        </g>
      </g>
      <g id="Brown_light_house-2" data-name="Brown light house" class="cls-49">
        <g>
          <g id="light_brown_house-2" data-name="light brown house">
            <polygon points="1895.89 781.02 1541.89 781.02 1546.66 783.85 1900.66 783.85 1895.89 781.02"/>
            <polygon points="1813 746.55 1667.62 746.55 1499.1 746.55 1498.76 744.22 1663.7 744.22 1812.25 744.22 1813 746.55"/>
            <polygon points="1811.67 743.88 1494.6 743.88 1495.37 744.34 1812.44 744.34 1811.67 743.88"/>
            <polygon points="1817.38 749.15 1672 749.15 1503.47 749.15 1503.14 746.82 1668.08 746.82 1816.63 746.82 1817.38 749.15"/>
            <polygon points="1816.05 746.48 1498.98 746.48 1499.74 746.93 1816.82 746.93 1816.05 746.48"/>
            <polygon points="1821.95 751.86 1676.57 751.86 1508.04 751.86 1507.71 749.53 1672.64 749.53 1821.19 749.53 1821.95 751.86"/>
            <polygon points="1820.62 749.2 1503.55 749.2 1504.31 749.65 1821.38 749.65 1820.62 749.2"/>
            <polygon points="1799.49 738.53 1654.1 738.53 1485.58 738.53 1485.25 736.2 1650.18 736.2 1798.73 736.2 1799.49 738.53"/>
            <polygon points="1795.11 735.93 1649.73 735.93 1481.2 735.93 1480.87 733.6 1645.8 733.6 1794.35 733.6 1795.11 735.93"/>
            <polygon points="1798.16 735.86 1481.09 735.86 1481.85 736.32 1798.92 736.32 1798.16 735.86"/>
            <polygon points="1803.87 741.13 1658.48 741.13 1489.96 741.13 1489.63 738.8 1654.56 738.8 1803.11 738.8 1803.87 741.13"/>
            <polygon points="1802.54 738.46 1485.47 738.46 1486.23 738.91 1803.3 738.91 1802.54 738.46"/>
            <polygon points="1808.43 743.84 1663.05 743.84 1494.53 743.84 1494.2 741.51 1659.13 741.51 1807.68 741.51 1808.43 743.84"/>
            <polygon points="1807.11 741.17 1490.04 741.17 1490.8 741.63 1807.87 741.63 1807.11 741.17"/>
            <polygon points="1826.33 754.46 1680.94 754.46 1512.42 754.46 1512.09 752.13 1677.02 752.13 1825.57 752.13 1826.33 754.46"/>
            <polygon points="1825 751.79 1507.93 751.79 1508.69 752.25 1825.76 752.25 1825 751.79"/>
            <polygon points="1830.9 757.17 1685.51 757.17 1516.99 757.17 1516.66 754.85 1681.59 754.85 1830.14 754.85 1830.9 757.17"/>
            <polygon points="1829.57 754.51 1512.5 754.51 1513.26 754.96 1830.33 754.96 1829.57 754.51"/>
            <polygon points="1835.28 759.77 1689.89 759.77 1521.37 759.77 1521.04 757.44 1685.97 757.44 1834.52 757.44 1835.28 759.77"/>
            <polygon points="1833.95 757.1 1516.88 757.1 1517.64 757.56 1834.71 757.56 1833.95 757.1"/>
            <polygon points="1839.85 762.48 1694.46 762.48 1525.94 762.48 1525.61 760.15 1690.54 760.15 1839.09 760.15 1839.85 762.48"/>
            <polygon points="1838.52 759.82 1521.44 759.82 1522.21 760.27 1839.28 760.27 1838.52 759.82"/>
            <polygon points="1844.22 765.08 1698.84 765.08 1530.32 765.08 1529.98 762.75 1694.92 762.75 1843.47 762.75 1844.22 765.08"/>
            <polygon points="1842.89 762.41 1525.82 762.41 1526.58 762.87 1843.66 762.87 1842.89 762.41"/>
            <polygon points="1848.79 767.79 1703.41 767.79 1534.88 767.79 1534.55 765.47 1699.48 765.47 1848.03 765.47 1848.79 767.79"/>
            <polygon points="1847.46 765.13 1530.39 765.13 1531.15 765.58 1848.22 765.58 1847.46 765.13"/>
            <polygon points="1853.17 770.39 1707.79 770.39 1539.26 770.39 1538.93 768.06 1703.86 768.06 1852.41 768.06 1853.17 770.39"/>
            <polygon points="1851.84 767.73 1534.77 767.73 1535.53 768.18 1852.6 768.18 1851.84 767.73"/>
            <polygon points="1857.74 773.1 1712.35 773.1 1543.83 773.1 1543.5 770.78 1708.43 770.78 1856.98 770.78 1857.74 773.1"/>
            <polygon points="1856.41 770.44 1539.34 770.44 1540.1 770.89 1857.17 770.89 1856.41 770.44"/>
            <polygon points="1862.12 775.7 1716.73 775.7 1548.21 775.7 1547.88 773.37 1712.81 773.37 1861.36 773.37 1862.12 775.7"/>
            <polygon points="1860.79 773.03 1543.72 773.03 1544.48 773.49 1861.55 773.49 1860.79 773.03"/>
            <polygon points="1866.69 778.41 1721.3 778.41 1552.78 778.41 1552.45 776.09 1717.38 776.09 1865.93 776.09 1866.69 778.41"/>
            <polygon points="1865.36 775.75 1548.29 775.75 1549.05 776.2 1866.12 776.2 1865.36 775.75"/>
            <polygon points="1871.06 781.01 1725.68 781.01 1557.16 781.01 1556.82 778.68 1721.76 778.68 1870.31 778.68 1871.06 781.01"/>
            <polygon points="1869.73 778.35 1552.66 778.35 1553.42 778.8 1870.5 778.8 1869.73 778.35"/>
            <polygon points="1874.3 781.06 1557.23 781.06 1557.99 781.51 1875.07 781.51 1874.3 781.06"/>
          </g>
          <g>
            <path d="M1759.7,779.23,1744.11,770h61.09l15.59,9.25Zm42.37-9h-53.9l13.8,8.19h53.89Z"/>
            <polygon points="1821.94 778.73 1755.84 778.73 1757.19 779.53 1823.29 779.53 1821.94 778.73"/>
            <polygon points="1802.07 770.22 1748.17 770.22 1761.97 778.41 1815.86 778.41 1802.07 770.22"/>
          </g>
          <g>
            <path d="M1741.42,768.38l-15.58-9.25h61.09l15.58,9.25Zm42.37-9H1729.9l13.8,8.19h53.89Z"/>
            <polygon points="1803.67 767.88 1737.57 767.88 1738.92 768.68 1805.02 768.68 1803.67 767.88"/>
            <polygon points="1783.79 759.37 1729.9 759.37 1743.7 767.56 1797.59 767.56 1783.79 759.37"/>
          </g>
          <g>
            <path d="M1724.29,758.22,1708.7,749h61.1l15.58,9.26Zm42.37-9h-53.89l13.79,8.19h53.9Z"/>
            <polygon points="1786.54 757.71 1720.44 757.71 1721.79 758.51 1787.88 758.51 1786.54 757.71"/>
            <polygon points="1766.66 749.2 1712.77 749.2 1726.56 757.39 1780.46 757.39 1766.66 749.2"/>
          </g>
        </g>
        <g>
          <path d="M1602.7,779.23,1587.11,770h61.09l15.59,9.25Zm42.37-9h-53.9l13.8,8.19h53.89Z"/>
          <polygon points="1664.94 778.73 1598.84 778.73 1600.19 779.53 1666.29 779.53 1664.94 778.73"/>
          <polygon points="1645.07 770.22 1591.17 770.22 1604.97 778.41 1658.86 778.41 1645.07 770.22"/>
        </g>
        <g>
          <path d="M1679.7,779.23,1664.11,770h61.09l15.59,9.25Zm42.37-9h-53.9l13.8,8.19h53.89Z"/>
          <polygon points="1741.94 778.73 1675.84 778.73 1677.19 779.53 1743.29 779.53 1741.94 778.73"/>
          <polygon points="1722.07 770.22 1668.17 770.22 1681.97 778.41 1735.86 778.41 1722.07 770.22"/>
        </g>
        <g>
          <path d="M1584.42,768.38l-15.58-9.25h61.09l15.58,9.25Zm42.37-9H1572.9l13.8,8.19h53.89Z"/>
          <polygon points="1646.67 767.88 1580.57 767.88 1581.92 768.68 1648.02 768.68 1646.67 767.88"/>
          <polygon points="1626.79 759.37 1572.9 759.37 1586.7 767.56 1640.59 767.56 1626.79 759.37"/>
        </g>
        <g>
          <path d="M1661.42,768.38l-15.58-9.25h61.09l15.58,9.25Zm42.37-9H1649.9l13.8,8.19h53.89Z"/>
          <polygon points="1723.67 767.88 1657.57 767.88 1658.92 768.68 1725.02 768.68 1723.67 767.88"/>
          <polygon points="1703.79 759.37 1649.9 759.37 1663.7 767.56 1717.59 767.56 1703.79 759.37"/>
        </g>
        <g>
          <path d="M1567.29,758.22,1551.7,749h61.1l15.58,9.26Zm42.37-9h-53.89l13.79,8.19h53.9Z"/>
          <polygon points="1629.54 757.71 1563.44 757.71 1564.79 758.51 1630.88 758.51 1629.54 757.71"/>
          <polygon points="1609.66 749.2 1555.77 749.2 1569.56 757.39 1623.46 757.39 1609.66 749.2"/>
        </g>
        <g>
          <path d="M1644.29,758.22,1628.7,749h61.1l15.58,9.26Zm42.37-9h-53.89l13.79,8.19h53.9Z"/>
          <polygon points="1706.54 757.71 1640.44 757.71 1641.79 758.51 1707.88 758.51 1706.54 757.71"/>
          <polygon points="1686.66 749.2 1632.77 749.2 1646.56 757.39 1700.46 757.39 1686.66 749.2"/>
        </g>
        <g>
          <polygon points="1674.5 733.9 1596.5 733.9 1619.53 747.57 1697.53 747.57 1674.5 733.9"/>
          <g>
            <path d="M1627.44,746.33l-2.67-1.59h58.33l2.67,1.59Zm53.44-1.52h-53.67l2.45,1.45h53.67Z"/>
            <path d="M1624.77,744.74l-2.66-1.58h58.33l2.66,1.58Zm53.44-1.51h-53.66l2.45,1.45h53.66Z"/>
            <path d="M1622.11,743.16l-2.67-1.58h58.33l2.67,1.58Zm53.44-1.52h-53.67l2.45,1.46H1678Z"/>
            <path d="M1619.44,741.58l-2.66-1.58h58.33l2.66,1.58Zm53.44-1.52h-53.67l2.46,1.46h53.66Z"/>
            <path d="M1616.78,740l-2.67-1.58h58.33l2.67,1.58Zm53.44-1.52h-53.67l2.45,1.46h53.67Z"/>
            <path d="M1614.11,738.42l-2.67-1.59h58.34l2.66,1.59Zm53.44-1.52h-53.67l2.46,1.45H1670Z"/>
            <path d="M1611.44,736.83l-2.66-1.58h58.33l2.67,1.58Zm53.45-1.51h-53.67l2.45,1.45h53.67Z"/>
          </g>
        </g>
      </g>
      <g id="Saloon-4" data-name="Saloon" class="cls-49">
        <g id="Saloon-5" data-name="Saloon">
          <g id="Saloon-6" data-name="Saloon">
            <polygon points="1571.76 770.85 1089.76 770.85 1094.53 773.68 1576.53 773.68 1571.76 770.85"/>
            <polygon points="1479.9 736.38 1281.95 736.38 1052.49 736.38 1053.45 734.05 1278.03 734.05 1480.29 734.05 1479.9 736.38"/>
            <polygon points="1479.72 733.72 1048 733.72 1048.76 734.17 1480.48 734.17 1479.72 733.72"/>
            <polygon points="1484.28 738.98 1286.33 738.98 1056.87 738.98 1057.83 736.65 1282.4 736.65 1484.66 736.65 1484.28 738.98"/>
            <polygon points="1484.09 736.32 1052.37 736.32 1053.14 736.77 1484.86 736.77 1484.09 736.32"/>
            <polygon points="1488.85 741.69 1290.89 741.69 1061.44 741.69 1062.4 739.37 1286.97 739.37 1489.23 739.37 1488.85 741.69"/>
            <polygon points="1488.66 739.03 1056.94 739.03 1057.7 739.48 1489.42 739.48 1488.66 739.03"/>
            <polygon points="1493.22 744.29 1295.27 744.29 1065.81 744.29 1066.78 741.96 1291.35 741.96 1493.61 741.96 1493.22 744.29"/>
            <polygon points="1493.04 741.63 1061.32 741.63 1062.08 742.08 1493.8 742.08 1493.04 741.63"/>
            <polygon points="1497.79 747 1299.84 747 1070.38 747 1071.35 744.68 1295.92 744.68 1498.18 744.68 1497.79 747"/>
            <polygon points="1497.61 744.34 1065.89 744.34 1066.65 744.79 1498.37 744.79 1497.61 744.34"/>
            <polygon points="1502.17 749.6 1304.22 749.6 1074.76 749.6 1075.73 747.27 1300.3 747.27 1502.56 747.27 1502.17 749.6"/>
            <polygon points="1501.99 746.93 1070.27 746.93 1071.03 747.39 1502.75 747.39 1501.99 746.93"/>
            <polygon points="1506.74 752.31 1308.79 752.31 1079.33 752.31 1080.3 749.99 1304.87 749.99 1507.13 749.99 1506.74 752.31"/>
            <polygon points="1506.56 749.65 1074.84 749.65 1075.6 750.1 1507.32 750.1 1506.56 749.65"/>
            <polygon points="1511.12 754.91 1313.17 754.91 1083.71 754.91 1084.67 752.59 1309.24 752.59 1511.51 752.59 1511.12 754.91"/>
            <polygon points="1510.93 752.25 1079.21 752.25 1079.98 752.7 1511.7 752.7 1510.93 752.25"/>
            <polygon points="1515.69 757.62 1317.73 757.62 1088.28 757.62 1089.24 755.3 1313.81 755.3 1516.07 755.3 1515.69 757.62"/>
            <polygon points="1515.5 754.96 1083.78 754.96 1084.55 755.41 1516.27 755.41 1515.5 754.96"/>
            <polygon points="1520.07 760.22 1322.11 760.22 1092.65 760.22 1093.62 757.89 1318.19 757.89 1520.45 757.89 1520.07 760.22"/>
            <polygon points="1519.88 757.56 1088.16 757.56 1088.92 758.01 1520.64 758.01 1519.88 757.56"/>
            <polygon points="1524.63 762.93 1326.68 762.93 1097.22 762.93 1098.19 760.61 1322.76 760.61 1525.02 760.61 1524.63 762.93"/>
            <polygon points="1524.45 760.27 1092.73 760.27 1093.49 760.72 1525.21 760.72 1524.45 760.27"/>
            <polygon points="1529.01 765.53 1331.06 765.53 1101.6 765.53 1102.57 763.21 1327.14 763.21 1529.4 763.21 1529.01 765.53"/>
            <polygon points="1528.83 762.87 1097.11 762.87 1097.87 763.32 1529.59 763.32 1528.83 762.87"/>
            <polygon points="1533.58 768.25 1335.63 768.25 1106.17 768.25 1107.14 765.92 1331.71 765.92 1533.97 765.92 1533.58 768.25"/>
            <polygon points="1533.4 765.58 1101.68 765.58 1102.44 766.03 1534.16 766.03 1533.4 765.58"/>
            <polygon points="1537.96 770.84 1340.01 770.84 1110.55 770.84 1111.52 768.52 1336.09 768.52 1538.35 768.52 1537.96 770.84"/>
            <polygon points="1537.78 768.18 1106.06 768.18 1106.82 768.63 1538.54 768.63 1537.78 768.18"/>
            <polygon points="1542.34 770.89 1110.63 770.89 1111.39 771.34 1543.11 771.34 1542.34 770.89"/>
          </g>
          <g>
            <path d="M1182.88,781.77l-1.57-.39-5.07-2-1.68-1q-2-.93,5.87-1l16.8,0q4.85-.27,2.6-.76l-.44-.51a57.7,57.7,0,0,0-9.4-.43c-3.4.11-5.19.2-5.35.27-.75.06-.51.3.72.73,0,.12-1.3.14-4,0l-5.34,0a3.7,3.7,0,0,1-1.78-.35l-3.17-1.89c-.27-.35.23-.59,1.48-.71l5.1-.27q4-.09,9.34-.06,4.88,0,12,.33l4.89.45a23.85,23.85,0,0,1,9.45,2.76c.67.56.68.91,0,1q-.25.4-5.75.49l-11.92,0c-2,.12-2.48.37-1.34.75a20.63,20.63,0,0,0,4,.83l1.66.09a7.2,7.2,0,0,0,1.4-.17l-.62-.62.87-.08h3.88c2.22.06,5.26.08,9.1.06a22.58,22.58,0,0,1,2.63.11l5.1,2.63c.18.1-3,.17-9.62.19a20.81,20.81,0,0,1-3-.16l-.72,0-3.44.16-4.81.14h-5.14A95.44,95.44,0,0,1,1182.88,781.77Z"/>
            <path d="M1239.36,782.31l-.34-.06.16-.35-.88-1.12c-1.09-.45-1.14-.68-.17-.7l4.52,0,1-.14-.29-.17c-3.81-.76-6.08-1.26-6.79-1.48l-7.93-1.56-1.7-.41a24.55,24.55,0,0,0-4.54-.64h-4.54l-1.2-.11-.85-.51-1.18-1c-.15-.09.34-.14,1.49-.16h10.78l13.14,0a3.76,3.76,0,0,1,2.39,1.42,25.25,25.25,0,0,1-4.34.22l-1,.14.29.17,3.48.72,8.1.06c.44,0,.35-.14-.27-.31,1.89-.48,2.09-.76.62-.83l-2.41-.09-.77-.3-1.94-1.45c-.15-.09,1.12-.14,3.81-.14l15.42.06,2.41.08,2.13-.08h7a7,7,0,0,1,1.6.19q-.42.06,3.42,2l-.82.11-5.27,0c-1.45,0-2.45.09-3,.17a11.05,11.05,0,0,0-3,1.36l-2.31.73-2.77,1.3c-.78.34-1,.55-.7.64l1.85.19,2.84.09a1.44,1.44,0,0,1,1.07.33c-.39.17-.47.71-.23,1.62q-.57.1-9.6,0l-17.3,0Zm7.52-4.34a8.31,8.31,0,0,0,1.86.06l.52-.14c.45-.34.47-.53.07-.56a23.76,23.76,0,0,0-3.78-.14l-.81.11.37.22Z"/>
            <path d="M1296.63,782.36l-2.67-1.88.27-.14,2.92-.17a1.11,1.11,0,0,0,.71-.32,8.34,8.34,0,0,1-2.59-1.84l-1-.41-1.28-1.07-.85-.35-1.85-.2-5.31-.05-.65-.09-3.94-2.19.82-.11h4.21q22.6,0,33.12.17l1.2.11,5.58,3.16a25.57,25.57,0,0,1-4.46,0h-2.53a8.11,8.11,0,0,1-1.71-.11l-1-.47-1.24-.14-8.3,0a19.3,19.3,0,0,0-4.64.24l6.74,3.55c-.18.1.72.23,2.69.39l6.62.09.65.08,2.93,1.75c0,.07-.37.11-1,.11l-22,0A8.51,8.51,0,0,1,1296.63,782.36Z"/>
            <path d="M1349.49,782.1q-6-.48-8.08-.85l-3-.63-3.32-1.12-3.06-1.67-2.61-2.25c0-.49.47-.88,1.4-1.16a31.17,31.17,0,0,1,5.78-.72l5.76-.13,12.33,0c.24-.06,4.45,0,12.62.24q4.38.16,7.08.51,3.51.39,9.73,3.63-.06.26,3.93,2.33c.38.79,0,1.33-1.16,1.61l-2.45.24q-2.82.18-6.72.26l-6.31.11h-10.77Q1359.32,782.55,1349.49,782.1Zm-.07-2.49c.81.12,2.57.23,5.28.34l5.49.11,6.83.06,2.45-.25q1.11-.35,1-.66l-2.18-1.29-2.62-1a16.82,16.82,0,0,0-2.71-.46q-4.23-.36-12.36-.39a41.21,41.21,0,0,0-5.28.42l-.72.27c-.32.47.42,1.2,2.23,2.17A18,18,0,0,0,1349.42,779.61Z"/>
            <path d="M1409.35,782.1q-6-.48-8.08-.85l-3-.63L1395,779.5l-3.07-1.67-2.61-2.25c0-.49.47-.88,1.41-1.16a31.06,31.06,0,0,1,5.77-.72l5.76-.13,12.33,0c.25-.06,4.45,0,12.62.24q4.39.16,7.08.51,3.52.39,9.73,3.63-.06.26,3.93,2.33c.39.79,0,1.33-1.15,1.61l-2.46.24q-2.8.18-6.72.26l-6.3.11h-10.78Q1419.2,782.55,1409.35,782.1Zm-.07-2.49c.82.12,2.58.23,5.28.34l5.49.11,6.83.06,2.46-.25q1.1-.35,1-.66l-2.19-1.29-2.62-1a16.82,16.82,0,0,0-2.71-.46q-4.23-.36-12.36-.39a40.73,40.73,0,0,0-5.27.42l-.72.27c-.33.47.41,1.2,2.23,2.17A17.7,17.7,0,0,0,1409.28,779.61Z"/>
            <path d="M1445,775.68c0-.18-1-.81-3.14-1.87-.13-.07.1-.14.69-.19l3.66,0,1.59-.06q7.47.09,12.76,0l3.67,0,1.14.07,3.5,1.68q1.32.48-.06.51h-3.71l-.83.06c-.64,0-.64.17,0,.46l4.86,2a8.6,8.6,0,0,0,2,.16l.54-.09c.3-.68,2.29-2.27,6-4.75l1.26-.11h9.51q1.82.07,8.55,0a8.51,8.51,0,0,1,1.78.16l4,2.49c.47.18.22.28-.76.3l-6,0a4.49,4.49,0,0,0-1.31.22l1.78,1.06,3.77,1.83a11.3,11.3,0,0,0,2.65.38l9.4.08,1.11.11.91.54.37.62,1.25.9c0,.07-.4.11-1.07.11q-8.64-.09-10.49,0l-13.26,0a5.9,5.9,0,0,1-1.76-.19l-2.61-1.4c-.83-.3-.83-.48,0-.55q5.29,0,5.19-.27l-1.33-.78L1488,778l-1.1-.1-1.09.1-7.36,4.33-1.29.08q-7.16-.06-11.45,0l-4.4-.11-1.68-.3a27.62,27.62,0,0,0-4-1.92c-.15-.09,0-.15.44-.19l4.54,0,.81-.22-1.41-.84-4.79-2.59a5.3,5.3,0,0,0-2.44-.4q-1.79-.06-6.57,0Z"/>
          </g>
        </g>
        <g>
          <path d="M1204.85,768.05l-15.59-9.26h61.1l15.58,9.26Zm42.37-9h-53.89l13.79,8.19H1261Z"/>
          <polygon points="1267.1 767.54 1201 767.54 1202.35 768.34 1268.45 768.34 1267.1 767.54"/>
          <polygon points="1247.22 759.03 1193.33 759.03 1207.13 767.22 1261.02 767.22 1247.22 759.03"/>
        </g>
        <g>
          <path d="M1128,768.16l-15.59-9.25h61.1l15.58,9.25Zm42.37-9h-53.89l13.8,8.18h53.89Z"/>
          <polygon points="1190.29 767.65 1124.19 767.65 1125.54 768.46 1191.64 768.46 1190.29 767.65"/>
          <polygon points="1170.41 759.14 1116.52 759.14 1130.32 767.33 1184.21 767.33 1170.41 759.14"/>
        </g>
        <g>
          <path d="M1184.48,756l-15.58-9.25H1230l15.58,9.25Zm42.37-9H1173l13.8,8.19h53.89Z"/>
          <polygon points="1246.73 755.45 1180.63 755.45 1181.98 756.25 1248.08 756.25 1246.73 755.45"/>
          <polygon points="1226.85 746.94 1172.96 746.94 1186.76 755.13 1240.65 755.13 1226.85 746.94"/>
        </g>
        <g>
          <path d="M1107.67,756.07l-15.58-9.25h61.09l15.58,9.25Zm42.37-9h-53.89l13.8,8.18h53.89Z"/>
          <polygon points="1169.92 755.57 1103.82 755.57 1105.17 756.37 1171.27 756.37 1169.92 755.57"/>
          <polygon points="1150.04 747.06 1096.15 747.06 1109.95 755.24 1163.84 755.24 1150.04 747.06"/>
        </g>
        <g>
          <path d="M1369.85,768.05l-15.59-9.26h61.1l15.58,9.26Zm42.37-9h-53.89l13.79,8.19H1426Z"/>
          <polygon points="1432.1 767.54 1366 767.54 1367.35 768.34 1433.45 768.34 1432.1 767.54"/>
          <polygon points="1412.22 759.03 1358.33 759.03 1372.13 767.22 1426.02 767.22 1412.22 759.03"/>
        </g>
        <g>
          <path d="M1349.48,756l-15.58-9.25H1395l15.58,9.25Zm42.37-9H1338l13.8,8.19h53.89Z"/>
          <polygon points="1411.73 755.45 1345.63 755.45 1346.98 756.25 1413.08 756.25 1411.73 755.45"/>
          <polygon points="1391.85 746.94 1337.96 746.94 1351.76 755.13 1405.65 755.13 1391.85 746.94"/>
        </g>
        <g>
          <path d="M1370.47,767.82l-15.59-9.25H1416l15.58,9.25Zm42.37-9H1359l13.79,8.18h53.9Z"/>
          <polygon points="1432.72 767.32 1366.62 767.32 1367.97 768.12 1434.07 768.12 1432.72 767.32"/>
          <polygon points="1412.84 758.81 1358.95 758.81 1372.74 767 1426.64 767 1412.84 758.81"/>
        </g>
        <g>
          <path d="M1350.1,755.73l-15.58-9.25h61.09l15.58,9.25Zm42.37-9h-53.89l13.8,8.19h53.89Z"/>
          <polygon points="1412.35 755.23 1346.25 755.23 1347.6 756.03 1413.7 756.03 1412.35 755.23"/>
          <polygon points="1392.47 746.72 1338.58 746.72 1352.38 754.9 1406.27 754.9 1392.47 746.72"/>
        </g>
        <g>
          <path d="M1458.47,767.82l-15.59-9.25H1504l15.58,9.25Zm42.37-9H1447l13.79,8.18h53.9Z"/>
          <polygon points="1520.72 767.32 1454.62 767.32 1455.97 768.12 1522.07 768.12 1520.72 767.32"/>
          <polygon points="1500.84 758.81 1446.95 758.81 1460.74 767 1514.64 767 1500.84 758.81"/>
        </g>
        <g>
          <path d="M1438.1,755.73l-15.58-9.25h61.09l15.58,9.25Zm42.37-9h-53.89l13.8,8.19h53.89Z"/>
          <polygon points="1500.35 755.23 1434.25 755.23 1435.6 756.03 1501.7 756.03 1500.35 755.23"/>
          <polygon points="1480.47 746.72 1426.58 746.72 1440.38 754.9 1494.27 754.9 1480.47 746.72"/>
        </g>
        <g>
          <g>
            <path d="M1311.38,742c3.75,2.22-9.06,4-28.61,4s-38.16-1.78-42.09-4h0l-14.05-8.33h70l12.51,7.43A9.57,9.57,0,0,1,1311.38,742Z"/>
            <path d="M1227.66,733.67h-2.07c-3,0-2,2.06,2.25,4.58h0c4.24,2.53,10.18,4.59,13.19,4.59h2.07c3,0,2-2.06-2.24-4.59h0C1236.61,735.73,1230.67,733.67,1227.66,733.67Z"/>
            <path d="M1297.64,733.67h-2.07c-3,0-2,2.06,2.25,4.58h0c4.25,2.53,10.18,4.59,13.19,4.59h2.08c3,0,2-2.06-2.25-4.59h0C1306.59,735.73,1300.65,733.67,1297.64,733.67Z"/>
            <path d="M1258.29,741.36c-8.54,0-16.11-.39-16.91-.86l-7.24-4.3c-.8-.48,5.47-.86,14-.86s16.11.38,16.91.86l7.24,4.3C1273.1,741,1266.83,741.36,1258.29,741.36Z"/>
            <path d="M1290.84,741.36c-8.54,0-16.11-.39-16.91-.86l-7.24-4.3c-.8-.48,5.47-.86,14-.86s16.11.38,16.91.86l7.24,4.3C1305.65,741,1299.38,741.36,1290.84,741.36Z"/>
          </g>
          <g>
            <path d="M1245.92,740.68l-1.14-.68h25l1.14.68Zm22.9-.65h-23l1,.62h23Z"/>
            <path d="M1244.78,740l-1.15-.68h25l1.15.68Zm22.9-.65h-23l1,.62h23Z"/>
            <path d="M1243.63,739.32l-1.14-.68h25l1.14.68Zm22.91-.65h-23l1,.62h23Z"/>
            <path d="M1242.49,738.64l-1.14-.68h25l1.14.68Zm22.9-.65h-23l1.06.63h23Z"/>
            <path d="M1241.35,738l-1.14-.67h25l1.14.67Zm22.9-.65h-23l1,.63h23Z"/>
            <path d="M1240.21,737.29l-1.15-.68h25l1.15.68Zm22.9-.65h-23l1.05.62h23Z"/>
            <path d="M1239.06,736.61l-1.14-.68h25l1.14.68ZM1262,736h-23l1,.62h23Z"/>
          </g>
          <g>
            <path d="M1276.92,740.68l-1.14-.68h25l1.14.68Zm22.9-.65h-23l1,.62h23Z"/>
            <path d="M1275.78,740l-1.15-.68h25l1.15.68Zm22.9-.65h-23l1,.62h23Z"/>
            <path d="M1274.63,739.32l-1.14-.68h25l1.14.68Zm22.91-.65h-23l1,.62h23Z"/>
            <path d="M1273.49,738.64l-1.14-.68h25l1.14.68Zm22.9-.65h-23l1.06.63h23Z"/>
            <path d="M1272.35,738l-1.14-.67h25l1.14.67Zm22.9-.65h-23l1,.63h23Z"/>
            <path d="M1271.21,737.29l-1.15-.68h25l1.15.68Zm22.9-.65h-23l1.05.62h23Z"/>
            <path d="M1270.06,736.61l-1.14-.68h25l1.14.68ZM1293,736h-23l1,.62h23Z"/>
          </g>
        </g>
      </g>
    </g>
    <g id="Character">
      <ellipse class="cls-50" cx="889.64" cy="1088.49" rx="15.51" ry="9.62" transform="translate(-443.47 1534.69) rotate(-69.25)"/>
      <ellipse class="cls-50" cx="1072.94" cy="924.28" rx="15.52" ry="9.61" transform="translate(-160.08 1620.81) rotate(-70.21)"/>
      <g>
        <path class="cls-51" d="M997.44,888.23l29-8.7a8,8,0,0,1,9.91,6l3.34,12.73a8.79,8.79,0,0,1,.26,1.59,9.1,9.1,0,0,0-.26-3l-3.34-12.73a8,8,0,0,0-9.91-6l-29,8.7a8.59,8.59,0,0,0-5.83,9A8.48,8.48,0,0,1,997.44,888.23Z"/>
        <path class="cls-52" d="M1039.71,898.21l-3.34-12.73a8,8,0,0,0-9.91-6l-29,8.7a8.48,8.48,0,0,0-5.83,7.62,8.8,8.8,0,0,0,.26,3l3.34,12.74a8,8,0,0,0,9.9,6l29-8.7a8.61,8.61,0,0,0,5.83-9A8.79,8.79,0,0,0,1039.71,898.21Z"/>
      </g>
      <g>
        <path class="cls-51" d="M933.13,886.48l-29-8.7a8,8,0,0,0-9.91,6l-.24.92a8,8,0,0,1,9.74-5.44l25.3,7.58a8.71,8.71,0,0,1,5.57,10.59l-3.34,12.74a8.37,8.37,0,0,1-5.13,5.79,8,8,0,0,0,9.26-6.11l3.34-12.73A8.71,8.71,0,0,0,933.13,886.48Z"/>
        <path class="cls-52" d="M931.23,910.12l3.34-12.74A8.71,8.71,0,0,0,929,886.79l-25.3-7.58a8,8,0,0,0-9.74,5.44c-.05.17-.11.34-.16.51l-3.34,12.74A8.71,8.71,0,0,0,896,908.49l25.29,7.58a7.57,7.57,0,0,0,4.78-.16A8.37,8.37,0,0,0,931.23,910.12Z"/>
      </g>
      <rect class="cls-52" x="919.77" y="889.38" width="93.92" height="16.35" rx="4.28"/>
      <ellipse class="cls-53" cx="964.59" cy="930.65" rx="44.82" ry="64.46"/>
      <path class="cls-54" d="M936.23,879.88h0a1.18,1.18,0,0,0,1.59-.69L947.74,854a1.34,1.34,0,0,0-.65-1.69h0a1.19,1.19,0,0,0-1.59.69l-9.91,25.18A1.33,1.33,0,0,0,936.23,879.88Z"/>
      <path class="cls-54" d="M895.06,905.28h0a1.32,1.32,0,0,0,.83,1.6l24.55,7.6a1.21,1.21,0,0,0,1.5-.89h0a1.31,1.31,0,0,0-.82-1.6l-24.56-7.6A1.21,1.21,0,0,0,895.06,905.28Z"/>
      <path class="cls-55" d="M893.35,1085.52h0c-7.37-2.67-11.35-11.29-8.85-19.16l23.32-73.43c2.5-7.87,10.56-12.12,17.93-9.45h0c7.36,2.67,11.34,11.29,8.84,19.16l-23.32,73.43C908.78,1083.94,900.71,1088.19,893.35,1085.52Z"/>
      <path class="cls-55" d="M1007.11,1021.17h0a15.85,15.85,0,0,1-2.81-21.15l50.4-71.77a13.59,13.59,0,0,1,19.79-3h0a15.84,15.84,0,0,1,2.82,21.15l-50.4,71.77A13.6,13.6,0,0,1,1007.11,1021.17Z"/>
      <path class="cls-56" d="M1064.34,839.88c-.12,0-.23,0-.34,0s-.23,0-.34,0h0a3.35,3.35,0,0,0-3.22,3.44v41.1a3.35,3.35,0,0,0,3.22,3.45h0c.11,0,.23,0,.34,0s.22,0,.34,0a3.35,3.35,0,0,0,3.22-3.45v-41.1A3.35,3.35,0,0,0,1064.34,839.88Z"/>
      <rect class="cls-57" x="1062.26" y="839.88" width="6.44" height="47.98" rx="1.69"/>
      <rect class="cls-58" x="1056.5" y="880.41" width="19.68" height="31.75" rx="5.16"/>
      <rect x="1059.45" y="889.91" width="2.27" height="15.84"/>
      <rect x="1063.21" y="886.74" width="2.27" height="15.84"/>
      <rect x="1066.88" y="886.74" width="2.27" height="15.84"/>
      <rect x="1070.67" y="886.74" width="2.27" height="15.84"/>
      <path d="M1086.47,925.53l-19.66-7.13a8.28,8.28,0,0,1-4.75-10.31h0a7.51,7.51,0,0,1,9.64-5.08l19.66,7.13a8.29,8.29,0,0,1,4.75,10.31h0A7.51,7.51,0,0,1,1086.47,925.53Z"/>
      <path class="cls-50" d="M1074.09,922.05h0a2,2,0,0,1-.95-2.49l5.87-14.91a1.75,1.75,0,0,1,2.33-1h0a2,2,0,0,1,1,2.5L1076.42,921A1.74,1.74,0,0,1,1074.09,922.05Z"/>
      <path class="cls-50" d="M1071.59,921.36h0a2,2,0,0,1-.95-2.49l5.87-14.91a1.75,1.75,0,0,1,2.33-1h0a2,2,0,0,1,1,2.5l-5.87,14.91A1.74,1.74,0,0,1,1071.59,921.36Z"/>
      <path class="cls-50" d="M1077.44,922.91h0a2,2,0,0,1-1-2.49l5.87-14.91a1.75,1.75,0,0,1,2.33-1h0a2,2,0,0,1,1,2.5l-5.87,14.91A1.74,1.74,0,0,1,1077.44,922.91Z"/>
      <path class="cls-50" d="M1079.78,925.05h0a2,2,0,0,1-1-2.49l5.87-14.91a1.75,1.75,0,0,1,2.34-1h0a2,2,0,0,1,1,2.5l-5.87,14.9A1.75,1.75,0,0,1,1079.78,925.05Z"/>
      <path class="cls-59" d="M968.28,1029h0a1.2,1.2,0,0,1-.27-1.6L991.14,992a1,1,0,0,1,1.5-.29h0a1.21,1.21,0,0,1,.26,1.6l-23.13,35.4A1,1,0,0,1,968.28,1029Z"/>
      <path class="cls-59" d="M948.34,994.8h0c.27-.56.41-1,1.55-.46,16.66,8.61,13.51,9.73,30.5-1.06,1.16-.74,1.27-.2,1.57.32h0c.3.52.79.8-.41,1.56-17.61,11.25-15.52,10.07-32.67,1.15C947.71,995.7,948.06,995.35,948.34,994.8Z"/>
      <path class="cls-59" d="M956.56,1005.57h0c.13-.39.18-.73,1-.48,12.07,3.7,10.08,4.81,20.39-4.35.71-.62.83-.28,1.09,0h0c.26.31.61.43-.12,1.08-10.69,9.54-9.4,8.51-21.84,4.66C956.24,1006.24,956.44,1006,956.56,1005.57Z"/>
      <rect class="cls-55" x="917.54" y="982.03" width="98.39" height="97.97"/>
      <path d="M997.69,975c7.63-10.83,12.31-25.4,12.31-41.44,0-33.45-20.33-60.56-45.41-60.56s-45.41,27.11-45.41,60.56c0,16,4.68,30.61,12.31,41.44Z"/>
      <polyline class="cls-52" points="916 914.78 929.23 889.27 1008 889 1008 915.45 919.2 916"/>
      <path class="cls-52" d="M1004.4,894.92l-13.15-35.64c-2-5.35-5.59-8.63-9.49-8.63H949.11c-3.9,0-7.51,3.28-9.48,8.63l-13.16,35.64Z"/>
      <path class="cls-51" d="M1001.87,886.61c-30.4,10.36-44.34,9.4-73.8-.18.12-.43.23-.87.34-1.3,29.25,9.39,43,10.63,73.15.16C1001.66,885.73,1001.76,886.17,1001.87,886.61Z"/>
    </g>
  </g>
</svg>
