<svg id="Layer_1" data-name="Layer 1" xmlns="http://www.w3.org/2000/svg" xmlns:xlink="http://www.w3.org/1999/xlink" width="55" height="75" viewBox="0 0 55 75">
  <defs>
    <style>
      .cls-1 {
        fill: none;
      }

      .cls-2 {
        clip-path: url(#clip-path);
      }

      .cls-3 {
        fill: #d1a3a4;
      }

      .cls-4 {
        fill: #4d4d4d;
      }

      .cls-5 {
        fill: #fff;
      }

      .cls-6 {
        opacity: 0.59;
      }
    </style>
    <clipPath id="clip-path">
      <rect class="cls-1" x="0.52" y="1.39" width="53.89" height="72.47"/>
    </clipPath>
  </defs>
  <g id="Bad_cowboy" data-name="Bad cowboy">
    <g class="cls-2">
      <g>
        <g>
          <path d="M38.67,48.9H16.26a5.2,5.2,0,0,0-5.2,5.2v6.61l8.15,28.18h17.1l7.57-26.16V54.1A5.2,5.2,0,0,0,38.67,48.9Z"/>
          <g>
            <rect x="6.95" y="51.77" width="5.29" height="21.95" rx="2.65" transform="translate(9.68 -0.73) rotate(8.77)"/>
            <rect x="6.66" y="69.79" width="5.29" height="23.21" rx="2.65" transform="translate(27.92 161.17) rotate(173.39)"/>
            <ellipse cx="14.77" cy="52.79" rx="6.08" ry="3.89"/>
          </g>
          <g>
            <rect x="43.7" y="51.88" width="5.29" height="21.95" rx="2.65" transform="translate(101.75 117.9) rotate(171.23)"/>
            <rect x="43.99" y="69.9" width="5.29" height="23.21" rx="2.65" transform="translate(9.69 -4.83) rotate(6.61)"/>
            <ellipse cx="41.17" cy="52.9" rx="6.08" ry="3.89"/>
          </g>
        </g>
        <g>
          <path d="M37.57,21.21l11.54-2.35c1.69-.34,3.46.38,3.93,1.6l1.33,3.44a2.07,2.07,0,0,1,.1.43,1.69,1.69,0,0,0-.1-.8L53,20.09c-.47-1.22-2.24-1.95-3.93-1.6L37.57,20.83c-1.49.31-2.44,1.35-2.31,2.43A2.63,2.63,0,0,1,37.57,21.21Z"/>
          <path d="M54.37,23.9,53,20.46c-.47-1.22-2.24-1.94-3.93-1.6L37.57,21.21a2.63,2.63,0,0,0-2.31,2.05,1.72,1.72,0,0,0,.1.8l1.33,3.44c.47,1.22,2.24,1.95,3.93,1.6l11.53-2.34c1.5-.31,2.45-1.35,2.32-2.43A2.07,2.07,0,0,0,54.37,23.9Z"/>
        </g>
        <g>
          <path d="M17.77,20.73,6.26,18.39C4.58,18,2.81,18.77,2.34,20l-.09.25a3.54,3.54,0,0,1,3.86-1.47l10,2.05c1.68.34,2.68,1.63,2.2,2.85L17,27.11a2.83,2.83,0,0,1-2,1.56c1.6.23,3.22-.48,3.67-1.64L20,23.59C20.44,22.36,19.45,21.08,17.77,20.73Z"/>
          <path d="M17,27.11l1.32-3.44c.48-1.22-.52-2.51-2.2-2.85l-10-2.05a3.54,3.54,0,0,0-3.86,1.47.91.91,0,0,0-.07.14L.86,23.82c-.47,1.22.52,2.51,2.2,2.85l10,2a4.29,4.29,0,0,0,1.89,0A2.83,2.83,0,0,0,17,27.11Z"/>
        </g>
        <rect x="14.55" y="21.52" width="27.08" height="4.41" rx="2.2"/>
        <ellipse class="cls-3" cx="27.47" cy="34.81" rx="12.92" ry="17.39"/>
        <path d="M38.94,23,35.15,13.4a3.19,3.19,0,0,0-2.73-2.33H23a3.19,3.19,0,0,0-2.73,2.33L16.48,23Z"/>
        <path class="cls-4" d="M38.22,20.77c-8.77,2.79-12.79,2.53-21.28-.05,0-.12.06-.23.1-.35,8.43,2.53,12.38,2.87,21.09,0C38.16,20.53,38.18,20.65,38.22,20.77Z"/>
        <rect class="cls-4" x="20.51" y="11.2" width="0.7" height="8.07" rx="0.35" transform="translate(7.54 -6.9) rotate(22.83)"/>
        <rect class="cls-4" x="23.82" y="9.71" width="0.7" height="4.25" rx="0.35" transform="translate(36.01 -12.33) rotate(90)"/>
        <rect class="cls-4" x="10.95" y="22.89" width="0.7" height="8.07" rx="0.35" transform="matrix(-0.28, 0.96, -0.96, -0.28, 40.3, 23.56)"/>
        <rect class="cls-5" x="20.02" y="27.58" width="6.94" height="4.3" rx="2.15" transform="translate(13.37 -6.79) rotate(22.83)"/>
        <rect class="cls-5" x="27.76" y="27.58" width="6.94" height="4.3" rx="2.15" transform="translate(71.54 45.01) rotate(157.17)"/>
        <circle cx="25.16" cy="31.73" r="0.29"/>
        <circle cx="29.26" cy="31.73" r="0.29"/>
        <rect x="27.66" y="26.74" width="5.88" height="0.37" transform="translate(-8.05 13.98) rotate(-22.83)"/>
        <rect x="21.39" y="26.48" width="5.88" height="0.37" transform="translate(14.74 -8.13) rotate(26.97)"/>
        <path class="cls-6" d="M14.69,37c.81,8.54,6.24,15.15,12.81,15.15,6.41,0,11.72-6.27,12.74-14.5A16.09,16.09,0,0,0,34,38.86l-.87.37c-6.4-2.52-3.72-2.52-10-.06a18.57,18.57,0,0,0-2.06-1A16,16,0,0,0,14.69,37Zm17.22,2.8a15.44,15.44,0,0,0-4.14,3.27,14.24,14.24,0,0,0-3.59-3.27C28.78,37.79,27.28,37.75,31.91,39.84Z"/>
      </g>
    </g>
  </g>
</svg>
