<svg id="Layer_1" data-name="Layer 1" xmlns="http://www.w3.org/2000/svg" xmlns:xlink="http://www.w3.org/1999/xlink" width="55" height="75" viewBox="0 0 55 75">
  <defs>
    <style>
      .cls-1 {
        fill: none;
      }

      .cls-2 {
        clip-path: url(#clip-path);
      }

      .cls-3 {
        fill: #63254b;
      }

      .cls-4 {
        fill: #e6e6e6;
      }

      .cls-5 {
        fill: #fee0c4;
      }

      .cls-6 {
        fill: #fff;
      }

      .cls-7 {
        fill: #ba9bc9;
      }

      .cls-8 {
        fill: #f1ebf4;
      }
    </style>
    <clipPath id="clip-path">
      <rect class="cls-1" x="0.55" y="1.26" width="53.89" height="72.47"/>
    </clipPath>
  </defs>
  <g id="Grandma">
    <g class="cls-2">
      <g>
        <polygon class="cls-3" points="27.32 43.21 48.3 81.05 6.34 81.05 27.32 43.21"/>
        <g>
          <circle class="cls-4" cx="28.09" cy="22.76" r="11.62"/>
          <circle class="cls-5" cx="27.64" cy="42" r="21.65"/>
          <path class="cls-4" d="M5.71,40.16a18.81,18.81,0,0,0,2.39.16A19.18,19.18,0,0,0,27.28,21.15c0-.27,0-.53,0-.79A21.64,21.64,0,0,0,5.71,40.16Z"/>
          <path class="cls-4" d="M49.29,40.2A21.65,21.65,0,0,0,28.11,20.36c0,.26,0,.52,0,.78A19.17,19.17,0,0,0,47.26,40.31,19.42,19.42,0,0,0,49.29,40.2Z"/>
          <ellipse class="cls-6" cx="24.93" cy="42" rx="3.16" ry="5.85"/>
          <ellipse class="cls-6" cx="31.25" cy="42" rx="3.16" ry="5.85"/>
          <circle cx="24.93" cy="41.76" r="0.69"/>
          <circle cx="30.56" cy="41.76" r="0.69"/>
          <circle class="cls-4" cx="28.09" cy="22.76" r="5.62"/>
          <path d="M24.31,39a3.88,3.88,0,1,0,3.88,3.88A3.88,3.88,0,0,0,24.31,39Zm0,7.26a3.38,3.38,0,1,1,3.37-3.38A3.38,3.38,0,0,1,24.31,46.23Z"/>
          <path d="M31.87,38.65a3.88,3.88,0,1,0,3.88,3.88A3.88,3.88,0,0,0,31.87,38.65Zm0,7.26a3.38,3.38,0,1,1,3.37-3.38A3.38,3.38,0,0,1,31.87,45.91Z"/>
          <rect x="35.71" y="42" width="13.56" height="0.85"/>
          <rect x="6" y="42" width="14.43" height="0.85"/>
          <rect class="cls-7" x="22.76" y="56.4" width="5.7" height="1.17"/>
          <g>
            <circle class="cls-8" cx="18.14" cy="62.44" r="0.71"/>
            <circle class="cls-8" cx="18.94" cy="63.62" r="0.71"/>
            <circle class="cls-8" cx="20.13" cy="64.44" r="0.71"/>
            <circle class="cls-8" cx="21.41" cy="65.15" r="0.71"/>
            <circle class="cls-8" cx="22.67" cy="65.95" r="0.71"/>
            <circle class="cls-8" cx="23.97" cy="66.57" r="0.71"/>
            <circle class="cls-8" cx="25.23" cy="67.28" r="0.71"/>
            <circle class="cls-8" cx="26.65" cy="67.58" r="0.71"/>
            <circle class="cls-8" cx="36.82" cy="62.67" r="0.71"/>
            <circle class="cls-8" cx="36.02" cy="63.84" r="0.71"/>
            <circle class="cls-8" cx="34.84" cy="64.67" r="0.71"/>
            <circle class="cls-8" cx="33.55" cy="65.38" r="0.71"/>
            <circle class="cls-8" cx="32.29" cy="66.18" r="0.71"/>
            <circle class="cls-8" cx="31" cy="66.8" r="0.71"/>
            <circle class="cls-8" cx="29.73" cy="67.51" r="0.71"/>
            <circle class="cls-8" cx="28.31" cy="67.81" r="0.71"/>
          </g>
        </g>
      </g>
    </g>
  </g>
</svg>
