<svg xmlns="http://www.w3.org/2000/svg" xmlns:xlink="http://www.w3.org/1999/xlink" width="230" height="60" viewBox="0 0 230 60">
  <defs>
    <style>
      .cls-1 {
        fill: none;
      }

      .cls-2 {
        clip-path: url(#clip-path);
      }

      .cls-3 {
        opacity: 0.16;
      }
    </style>
    <clipPath id="clip-path">
      <rect class="cls-1" x="116" y="213" width="1919" height="1079"/>
    </clipPath>
  </defs>
  <g id="Layer_8" data-name="Layer 8">
    <g>
      <g class="cls-3">
        <g>
          <path d="M35.18,23.43a3.62,3.62,0,0,0,1.54-1.27l1.59-2.3a3.7,3.7,0,0,0-.94-5.12l-6.06-4.17a3.69,3.69,0,0,0-5.12.95l-1.59,2.3A3.85,3.85,0,0,0,24,15.27a16.29,16.29,0,1,0,11.16,8.16ZM13.85,41.5a12.44,12.44,0,1,1,17.29-3.19A12.42,12.42,0,0,1,13.85,41.5Z"/>
          <path d="M60.81,21a3.69,3.69,0,0,0-.2-2l-1-2.6a3.69,3.69,0,0,0-4.78-2.06L48,17.07a3.69,3.69,0,0,0-2.05,4.78l1,2.6a3.54,3.54,0,0,0,.87,1.29,16.3,16.3,0,1,0,13-4.75ZM64,48.76A12.44,12.44,0,1,1,70.94,32.6,12.44,12.44,0,0,1,64,48.76Z"/>
          <path d="M36.09,8.2a2.63,2.63,0,1,0,2.63,2.63A2.62,2.62,0,0,0,36.09,8.2Zm0,4.71a2.09,2.09,0,1,1,2.09-2.08A2.08,2.08,0,0,1,36.09,12.91Z"/>
          <path d="M41,7.5a2.63,2.63,0,1,0,2.62,2.63A2.63,2.63,0,0,0,41,7.5Zm0,4.71a2.09,2.09,0,1,1,2.08-2.08A2.09,2.09,0,0,1,41,12.21Z"/>
          <path d="M45.55,8.9a2.63,2.63,0,1,0,2.63,2.63A2.63,2.63,0,0,0,45.55,8.9Zm0,4.71a2.09,2.09,0,1,1,2.08-2.08A2.08,2.08,0,0,1,45.55,13.61Z"/>
          <path d="M50.1,11a2.63,2.63,0,1,0,2.63,2.63A2.62,2.62,0,0,0,50.1,11Zm0,4.71a2.08,2.08,0,1,1,2.09-2.08A2.08,2.08,0,0,1,50.1,15.71Z"/>
        </g>
        <g>
          <path d="M34.18,22.43a3.62,3.62,0,0,0,1.54-1.27l1.59-2.3a3.7,3.7,0,0,0-.94-5.12L30.31,9.57a3.69,3.69,0,0,0-5.12.95l-1.59,2.3A3.85,3.85,0,0,0,23,14.27a16.29,16.29,0,1,0,11.16,8.16ZM12.85,40.5a12.44,12.44,0,1,1,17.29-3.19A12.42,12.42,0,0,1,12.85,40.5Z"/>
          <path d="M59.81,20a3.69,3.69,0,0,0-.2-2l-1-2.6a3.69,3.69,0,0,0-4.78-2.06L47,16.07a3.69,3.69,0,0,0-2.05,4.78l1,2.6a3.54,3.54,0,0,0,.87,1.29,16.3,16.3,0,1,0,13-4.75ZM63,47.76A12.44,12.44,0,1,1,69.94,31.6,12.44,12.44,0,0,1,63,47.76Z"/>
          <path d="M35.09,7.2a2.63,2.63,0,1,0,2.63,2.63A2.62,2.62,0,0,0,35.09,7.2Zm0,4.71a2.09,2.09,0,1,1,2.09-2.08A2.08,2.08,0,0,1,35.09,11.91Z"/>
          <path d="M40,6.5a2.63,2.63,0,1,0,2.62,2.63A2.63,2.63,0,0,0,40,6.5Zm0,4.71a2.09,2.09,0,1,1,2.08-2.08A2.09,2.09,0,0,1,40,11.21Z"/>
          <path d="M44.55,7.9a2.63,2.63,0,1,0,2.63,2.63A2.63,2.63,0,0,0,44.55,7.9Zm0,4.71a2.09,2.09,0,1,1,2.08-2.08A2.08,2.08,0,0,1,44.55,12.61Z"/>
          <path d="M49.1,10a2.63,2.63,0,1,0,2.63,2.63A2.62,2.62,0,0,0,49.1,10Zm0,4.71a2.08,2.08,0,1,1,2.09-2.08A2.08,2.08,0,0,1,49.1,14.71Z"/>
        </g>
      </g>
      <g class="cls-3">
        <g>
          <path d="M110.18,23.43a3.62,3.62,0,0,0,1.54-1.27l1.59-2.3a3.7,3.7,0,0,0-.94-5.12l-6.06-4.17a3.69,3.69,0,0,0-5.12.95l-1.59,2.3A3.85,3.85,0,0,0,99,15.27a16.29,16.29,0,1,0,11.16,8.16ZM88.85,41.5a12.44,12.44,0,1,1,17.29-3.19A12.42,12.42,0,0,1,88.85,41.5Z"/>
          <path d="M135.81,21a3.69,3.69,0,0,0-.2-2l-1-2.6a3.69,3.69,0,0,0-4.78-2.06L123,17.07a3.69,3.69,0,0,0-2,4.78l1,2.6a3.54,3.54,0,0,0,.87,1.29,16.3,16.3,0,1,0,13-4.75ZM139,48.76a12.44,12.44,0,1,1,6.94-16.16A12.44,12.44,0,0,1,139,48.76Z"/>
          <path d="M111.09,8.2a2.63,2.63,0,1,0,2.63,2.63A2.62,2.62,0,0,0,111.09,8.2Zm0,4.71a2.09,2.09,0,1,1,2.09-2.08A2.08,2.08,0,0,1,111.09,12.91Z"/>
          <path d="M116,7.5a2.63,2.63,0,1,0,2.62,2.63A2.63,2.63,0,0,0,116,7.5Zm0,4.71a2.09,2.09,0,1,1,2.08-2.08A2.09,2.09,0,0,1,116,12.21Z"/>
          <path d="M120.55,8.9a2.63,2.63,0,1,0,2.63,2.63A2.63,2.63,0,0,0,120.55,8.9Zm0,4.71a2.09,2.09,0,1,1,2.08-2.08A2.08,2.08,0,0,1,120.55,13.61Z"/>
          <path d="M125.1,11a2.63,2.63,0,1,0,2.63,2.63A2.62,2.62,0,0,0,125.1,11Zm0,4.71a2.08,2.08,0,1,1,2.09-2.08A2.08,2.08,0,0,1,125.1,15.71Z"/>
        </g>
        <g>
          <path d="M109.18,22.43a3.62,3.62,0,0,0,1.54-1.27l1.59-2.3a3.7,3.7,0,0,0-.94-5.12l-6.06-4.17a3.69,3.69,0,0,0-5.12.95l-1.59,2.3A3.85,3.85,0,0,0,98,14.27a16.29,16.29,0,1,0,11.16,8.16ZM87.85,40.5a12.44,12.44,0,1,1,17.29-3.19A12.42,12.42,0,0,1,87.85,40.5Z"/>
          <path d="M134.81,20a3.69,3.69,0,0,0-.2-2l-1-2.6a3.69,3.69,0,0,0-4.78-2.06L122,16.07a3.69,3.69,0,0,0-2,4.78l1,2.6a3.54,3.54,0,0,0,.87,1.29,16.3,16.3,0,1,0,13-4.75ZM138,47.76a12.44,12.44,0,1,1,6.94-16.16A12.44,12.44,0,0,1,138,47.76Z"/>
          <path d="M110.09,7.2a2.63,2.63,0,1,0,2.63,2.63A2.62,2.62,0,0,0,110.09,7.2Zm0,4.71a2.09,2.09,0,1,1,2.09-2.08A2.08,2.08,0,0,1,110.09,11.91Z"/>
          <path d="M115,6.5a2.63,2.63,0,1,0,2.62,2.63A2.63,2.63,0,0,0,115,6.5Zm0,4.71a2.09,2.09,0,1,1,2.08-2.08A2.09,2.09,0,0,1,115,11.21Z"/>
          <path d="M119.55,7.9a2.63,2.63,0,1,0,2.63,2.63A2.63,2.63,0,0,0,119.55,7.9Zm0,4.71a2.09,2.09,0,1,1,2.08-2.08A2.08,2.08,0,0,1,119.55,12.61Z"/>
          <path d="M124.1,10a2.63,2.63,0,1,0,2.63,2.63A2.62,2.62,0,0,0,124.1,10Zm0,4.71a2.08,2.08,0,1,1,2.09-2.08A2.08,2.08,0,0,1,124.1,14.71Z"/>
        </g>
      </g>
      <g class="cls-3">
        <g>
          <path d="M186.18,23.43a3.62,3.62,0,0,0,1.54-1.27l1.59-2.3a3.7,3.7,0,0,0-.94-5.12l-6.06-4.17a3.69,3.69,0,0,0-5.12.95l-1.59,2.3a3.85,3.85,0,0,0-.58,1.45,16.29,16.29,0,1,0,11.16,8.16ZM164.85,41.5a12.44,12.44,0,1,1,17.29-3.19A12.42,12.42,0,0,1,164.85,41.5Z"/>
          <path d="M211.81,21a3.69,3.69,0,0,0-.2-2l-1-2.6a3.69,3.69,0,0,0-4.78-2.06L199,17.07a3.69,3.69,0,0,0-2.05,4.78l1,2.6a3.54,3.54,0,0,0,.87,1.29,16.3,16.3,0,1,0,13-4.75ZM215,48.76a12.44,12.44,0,1,1,6.94-16.16A12.44,12.44,0,0,1,215,48.76Z"/>
          <path d="M187.09,8.2a2.63,2.63,0,1,0,2.63,2.63A2.62,2.62,0,0,0,187.09,8.2Zm0,4.71a2.09,2.09,0,1,1,2.09-2.08A2.08,2.08,0,0,1,187.09,12.91Z"/>
          <path d="M192,7.5a2.63,2.63,0,1,0,2.62,2.63A2.63,2.63,0,0,0,192,7.5Zm0,4.71a2.09,2.09,0,1,1,2.08-2.08A2.09,2.09,0,0,1,192,12.21Z"/>
          <path d="M196.55,8.9a2.63,2.63,0,1,0,2.63,2.63A2.63,2.63,0,0,0,196.55,8.9Zm0,4.71a2.09,2.09,0,1,1,2.08-2.08A2.08,2.08,0,0,1,196.55,13.61Z"/>
          <path d="M201.1,11a2.63,2.63,0,1,0,2.63,2.63A2.62,2.62,0,0,0,201.1,11Zm0,4.71a2.08,2.08,0,1,1,2.09-2.08A2.08,2.08,0,0,1,201.1,15.71Z"/>
        </g>
        <g>
          <path d="M185.18,22.43a3.62,3.62,0,0,0,1.54-1.27l1.59-2.3a3.7,3.7,0,0,0-.94-5.12l-6.06-4.17a3.69,3.69,0,0,0-5.12.95l-1.59,2.3a3.85,3.85,0,0,0-.58,1.45,16.29,16.29,0,1,0,11.16,8.16ZM163.85,40.5a12.44,12.44,0,1,1,17.29-3.19A12.42,12.42,0,0,1,163.85,40.5Z"/>
          <path d="M210.81,20a3.69,3.69,0,0,0-.2-2l-1-2.6a3.69,3.69,0,0,0-4.78-2.06L198,16.07a3.69,3.69,0,0,0-2.05,4.78l1,2.6a3.54,3.54,0,0,0,.87,1.29,16.3,16.3,0,1,0,13-4.75ZM214,47.76a12.44,12.44,0,1,1,6.94-16.16A12.44,12.44,0,0,1,214,47.76Z"/>
          <path d="M186.09,7.2a2.63,2.63,0,1,0,2.63,2.63A2.62,2.62,0,0,0,186.09,7.2Zm0,4.71a2.09,2.09,0,1,1,2.09-2.08A2.08,2.08,0,0,1,186.09,11.91Z"/>
          <path d="M191,6.5a2.63,2.63,0,1,0,2.62,2.63A2.63,2.63,0,0,0,191,6.5Zm0,4.71a2.09,2.09,0,1,1,2.08-2.08A2.09,2.09,0,0,1,191,11.21Z"/>
          <path d="M195.55,7.9a2.63,2.63,0,1,0,2.63,2.63A2.63,2.63,0,0,0,195.55,7.9Zm0,4.71a2.09,2.09,0,1,1,2.08-2.08A2.08,2.08,0,0,1,195.55,12.61Z"/>
          <path d="M200.1,10a2.63,2.63,0,1,0,2.63,2.63A2.62,2.62,0,0,0,200.1,10Zm0,4.71a2.08,2.08,0,1,1,2.09-2.08A2.08,2.08,0,0,1,200.1,14.71Z"/>
        </g>
      </g>
    </g>
  </g>
</svg>
