<svg id="Layer_1" data-name="Layer 1" xmlns="http://www.w3.org/2000/svg" xmlns:xlink="http://www.w3.org/1999/xlink" width="55" height="75" viewBox="0 0 55 75">
  <defs>
    <style>
      .cls-1 {
        fill: none;
      }

      .cls-2 {
        clip-path: url(#clip-path);
      }

      .cls-3 {
        fill: #986fc1;
      }

      .cls-4 {
        fill: #ffea99;
      }

      .cls-5 {
        fill: red;
      }

      .cls-6 {
        fill: #ffe0f6;
      }

      .cls-7 {
        fill: #fff;
      }

      .cls-8 {
        fill: #0071bc;
      }

      .cls-9 {
        fill: #6c82c2;
      }

      .cls-10 {
        fill: #caa479;
      }

      .cls-11 {
        fill: #e097cb;
      }
    </style>
    <clipPath id="clip-path">
      <rect class="cls-1" x="0.55" y="1.26" width="53.89" height="72.47"/>
    </clipPath>
  </defs>
  <g id="Little_girl" data-name="Little girl">
    <g class="cls-2">
      <g>
        <path class="cls-3" d="M38.3,53.84l11.38,26A12,12,0,0,1,38.74,96.59H16A11.94,11.94,0,0,1,5.05,79.87l11.37-26A11.94,11.94,0,0,1,38.3,53.84Z"/>
        <ellipse class="cls-4" cx="27.36" cy="31.15" rx="2.22" ry="0.26"/>
        <g>
          <ellipse class="cls-4" cx="27.36" cy="37.62" rx="23.83" ry="16.48"/>
          <g>
            <g>
              <path class="cls-4" d="M50.08,84.64h0a1.29,1.29,0,0,0,1.09-1.47l-4.7-28A1.32,1.32,0,0,0,45,54.07h0a1.3,1.3,0,0,0-1.08,1.48l4.7,28A1.3,1.3,0,0,0,50.08,84.64Z"/>
              <path class="cls-4" d="M53.45,84.86h0a1.27,1.27,0,0,0,.85-1.61L45.47,56.18a1.33,1.33,0,0,0-1.65-.83h0A1.28,1.28,0,0,0,43,57L51.8,84A1.32,1.32,0,0,0,53.45,84.86Z"/>
              <path class="cls-4" d="M46.73,86.48h0A1.3,1.3,0,0,0,48,85.15L46.9,56.76a1.3,1.3,0,0,0-1.35-1.23h0a1.29,1.29,0,0,0-1.25,1.33l1.09,28.39A1.3,1.3,0,0,0,46.73,86.48Z"/>
            </g>
            <rect class="cls-4" x="42.91" y="44.89" width="4.06" height="14.77" rx="1.74"/>
            <polygon class="cls-5" points="46.75 58.89 41.87 58.64 42.37 61.06 46.75 58.89"/>
            <polygon class="cls-5" points="43.5 59.1 48.29 58.1 48.17 60.57 43.5 59.1"/>
          </g>
          <g>
            <g>
              <path class="cls-4" d="M4.64,84.64h0a1.29,1.29,0,0,1-1.08-1.47l4.69-28a1.33,1.33,0,0,1,1.51-1.06h0a1.31,1.31,0,0,1,1.09,1.48l-4.7,28A1.31,1.31,0,0,1,4.64,84.64Z"/>
              <path class="cls-4" d="M1.28,84.86h0a1.28,1.28,0,0,1-.86-1.61L9.25,56.18a1.33,1.33,0,0,1,1.65-.83h0A1.28,1.28,0,0,1,11.75,57L2.93,84A1.32,1.32,0,0,1,1.28,84.86Z"/>
              <path class="cls-4" d="M8,86.48H8a1.29,1.29,0,0,1-1.26-1.33L7.82,56.76a1.3,1.3,0,0,1,1.36-1.23h0a1.29,1.29,0,0,1,1.26,1.33L9.35,85.25A1.29,1.29,0,0,1,8,86.48Z"/>
            </g>
            <rect class="cls-4" x="7.75" y="44.89" width="4.06" height="14.77" rx="1.74" transform="translate(19.57 104.55) rotate(-180)"/>
            <polygon class="cls-5" points="7.97 58.89 12.85 58.64 12.35 61.06 7.97 58.89"/>
            <polygon class="cls-5" points="11.22 59.1 6.44 58.1 6.56 60.57 11.22 59.1"/>
          </g>
        </g>
        <ellipse class="cls-6" cx="27.36" cy="43.3" rx="16.6" ry="18.23"/>
        <ellipse class="cls-7" cx="22.66" cy="39.66" rx="8.12" ry="5.03" transform="translate(-20.18 55.5) rotate(-80.55)"/>
        <ellipse class="cls-7" cx="33.08" cy="39.66" rx="5.02" ry="8.14" transform="translate(-3.25 2.95) rotate(-4.87)"/>
        <circle cx="25.14" cy="39.66" r="0.81"/>
        <circle cx="30.51" cy="39.74" r="0.81"/>
        <ellipse class="cls-8" cx="27.36" cy="25.85" rx="23.29" ry="3.72"/>
        <ellipse class="cls-9" cx="27.88" cy="19.27" rx="13.91" ry="6.58"/>
        <circle class="cls-10" cx="26.65" cy="67.59" r="1.76"/>
        <circle class="cls-10" cx="26.65" cy="74.79" r="1.76"/>
        <ellipse class="cls-9" cx="27.36" cy="25.85" rx="18.54" ry="2.96"/>
        <rect class="cls-11" x="23.2" y="54.85" width="8.31" height="1.35" rx="0.58"/>
      </g>
    </g>
  </g>
</svg>
