<svg xmlns="http://www.w3.org/2000/svg" xmlns:xlink="http://www.w3.org/1999/xlink" width="120" height="80" viewBox="0 0 120 80">
  <defs>
    <style>
      .cls-1 {
        fill: none;
      }

      .cls-2 {
        fill: #c7c1bc;
      }

      .cls-3 {
        fill: #564a41;
      }

      .cls-4 {
        fill: #736357;
      }

      .cls-5 {
        clip-path: url(#clip-path);
      }

      .cls-6 {
        clip-path: url(#clip-path-2);
      }

      .cls-7 {
        fill: #ffdd80;
      }
    </style>
    <clipPath id="clip-path">
      <rect class="cls-1" x="1910.5" y="-1157.5" width="1920" height="1077"/>
    </clipPath>
    <clipPath id="clip-path-2">
      <rect class="cls-1" x="-91.5" y="-1177.5" width="1919" height="1079"/>
    </clipPath>
  </defs>
  <g id="Instructions">
    <g id="backward_gun" data-name="backward gun">
      <path class="cls-2" d="M3.2,24c0-.16,0-.32,0-.48s-.05-.31-.05-.48h0a4.53,4.53,0,0,1,4.5-4.54l54.05-.36a4.53,4.53,0,0,1,4.56,4.48h0c0,.17,0,.32,0,.48a3.91,3.91,0,0,1,0,.48,4.53,4.53,0,0,1-4.5,4.55l-54,.36A4.54,4.54,0,0,1,3.2,24Z"/>
      <rect class="cls-3" x="30.25" y="-6.21" width="9.04" height="63.11" rx="1.08" transform="translate(59.88 -9.59) rotate(89.62)"/>
      <rect class="cls-4" x="63.59" y="5.4" width="27.62" height="41.76" rx="3.29" transform="translate(103.15 -51.29) rotate(89.62)"/>
      <rect x="73.62" y="7.79" width="3.19" height="20.84" transform="translate(92.92 -57.12) rotate(89.62)"/>
      <rect x="73.65" y="13.07" width="3.19" height="20.84" transform="translate(98.22 -51.92) rotate(89.62)"/>
      <rect x="73.69" y="18.22" width="3.19" height="20.84" transform="translate(103.41 -46.83) rotate(89.62)"/>
      <rect x="73.72" y="23.53" width="3.19" height="20.84" transform="translate(108.76 -41.59) rotate(89.62)"/>
      <path d="M116.06,54.26,106.5,26.74a10.74,10.74,0,0,0-13.61-6.58h0A10.69,10.69,0,0,0,86.3,33.74l9.56,27.51a10.73,10.73,0,0,0,13.6,6.59h0a10.7,10.7,0,0,0,6.6-13.58"/>
      <rect x="12.06" y="16.17" width="4.81" height="3.27" rx="0.42" transform="translate(32.18 3.21) rotate(89.62)"/>
    </g>
  </g>
  <g id="MASTER_LAYER" data-name="MASTER LAYER">
    <g class="cls-6">
      <g id="Background">
        <ellipse class="cls-7" cx="1102.5" cy="-87.5" rx="1997" ry="428"/>
      </g>
    </g>
  </g>
</svg>
