<svg xmlns="http://www.w3.org/2000/svg" xmlns:xlink="http://www.w3.org/1999/xlink" width="70" height="70" viewBox="0 0 70 70">
  <defs>
    <style>
      .cls-1 {
        fill: none;
      }

      .cls-2 {
        clip-path: url(#clip-path);
      }

      .cls-3 {
        clip-path: url(#clip-path-2);
      }

      .cls-4 {
        fill: #ffdd80;
      }

      .cls-5 {
        fill: #f7931e;
      }

      .cls-6 {
        fill: #42210b;
      }
    </style>
    <clipPath id="clip-path">
      <rect class="cls-1" x="934" y="-1210" width="1920" height="1077"/>
    </clipPath>
    <clipPath id="clip-path-2">
      <rect class="cls-1" x="-1068" y="-1230" width="1919" height="1079"/>
    </clipPath>
  </defs>
  <g id="MASTER_LAYER" data-name="MASTER LAYER">
    <g class="cls-3">
      <g id="Background">
        <ellipse class="cls-4" cx="126" cy="-140" rx="1997" ry="428"/>
      </g>
    </g>
  </g>
  <g id="settings">
    <g>
      <circle class="cls-5" cx="35.5" cy="35.5" r="33.5"/>
      <path class="cls-6" d="M26.56,13.12a24.55,24.55,0,0,0-6.71,4.46L22,22.25a19.77,19.77,0,1,1-3.35,21.37c-.12-.25-.22-.51-.33-.76l.07,0L22,45.45l3.51-1.58-14-10L9.81,50.94l3.51-1.58.45-4.47.16-.07c.1.25.21.51.33.76a24.55,24.55,0,1,0,12.3-32.46Z"/>
    </g>
  </g>
</svg>
