<svg id="Layer_8" data-name="Layer 8" xmlns="http://www.w3.org/2000/svg" width="70" height="70" viewBox="0 0 70 70">
  <defs>
    <style>
      .cls-1 {
        fill: #8c6239;
      }
    </style>
  </defs>
  <g id="settings">
    <path class="cls-1" d="M63.78,42c1.61,0,2.92-3.17,2.92-7s-1.28-7-2.85-7a3.87,3.87,0,0,1-3.58-2.21c-.41-1.22-1-5.1.13-6.2s-.24-4.23-3-7-5.86-4.1-6.93-3a3.82,3.82,0,0,1-4.05.9C45.29,9.87,42,7.53,42,6S38.87,3.3,35,3.3,28,4.52,28,6A3.85,3.85,0,0,1,25.7,9.51c-1.24.43-5.15,1.09-6.21,0s-4.17.31-6.91,3.05-4.09,5.86-3,6.94a3.88,3.88,0,0,1,.94,4.06C10,24.73,7.65,28,6.1,28s-2.8,3.17-2.8,7,1.29,7,2.88,7A4,4,0,0,1,9.83,44.2c.42,1.19,1,5-.16,6.18s.17,4.3,2.91,7,5.93,4,7.09,2.87,3-1.68,4.11-1.14S28,62.05,28,63.7s3.17,3,7,3,7-1.35,7-3,1-3.34,2.12-3.74,5-.85,6.15.32,4.37-.11,7.11-2.85,4-5.92,2.88-7.07-1.64-3-1.08-4.11S62.16,42,63.78,42ZM35,52.67a18,18,0,1,1,17.95-18A18,18,0,0,1,35,52.67Z"/>
  </g>
</svg>
