<svg xmlns="http://www.w3.org/2000/svg" xmlns:xlink="http://www.w3.org/1999/xlink" width="1920" height="1080" viewBox="0 0 1920 1080">
  <defs>
    <style>
      .cls-1, .cls-9 {
        fill: none;
      }

      .cls-2 {
        clip-path: url(#clip-path);
      }

      .cls-3 {
        clip-path: url(#clip-path-2);
      }

      .cls-4 {
        fill: #8c6239;
      }

      .cls-5 {
        fill: #573c23;
      }

      .cls-6, .cls-7 {
        fill: #ad7846;
      }

      .cls-7 {
        stroke: #000;
        stroke-width: 2px;
      }

      .cls-7, .cls-9 {
        stroke-miterlimit: 10;
      }

      .cls-8 {
        fill: #f7931e;
      }

      .cls-9 {
        stroke: #f7931e;
        stroke-width: 7px;
      }
    </style>
    <clipPath id="clip-path">
      <rect class="cls-1" x="-2457.5" y="-2792" width="1920" height="1077"/>
    </clipPath>
    <clipPath id="clip-path-2">
      <rect class="cls-1" x="-4459.5" y="-2812" width="1919" height="1079"/>
    </clipPath>
  </defs>
  <g id="settings">
    <g>
      <g>
        <rect class="cls-4" x="-1" y="1.99" width="1919" height="1077.51"/>
        <path d="M1917.5,2.49V1079H-.5V2.49h1918m1-1H-1.5V1080h1920V1.49Z"/>
      </g>
      <g>
        <g>
          <g>
            <path class="cls-5" d="M67.83,1069.64C60.92,716.63,59.5,357.45,63.62,2h1.3C71.41,357.78,72.39,716.92,67.83,1069.64Z"/>
            <path d="M64.43,2.49c6.28,345,7.39,693.1,3.29,1035.44-6.38-342.64-7.6-690.77-3.6-1035.44h.31m1-1H63.13C59,358.74,60.44,723.53,67.53,1080h.66C72.91,723.51,71.93,358.72,65.41,1.49Z"/>
          </g>
          <g>
            <path class="cls-5" d="M161.53,1079.5c-2.55-357-2.88-719.6-1-1077.51h.05c.77,91.32,1.38,182.2,1.84,270.12v.49c1.39,267.71,1.55,539.19.46,806.9Z"/>
            <path d="M160.71,75.4c.5,66.49.92,132.39,1.25,196.71v.49c1.39,267.59,1.55,538.89.46,806.4H162c-2.37-332.48-2.81-669.69-1.31-1003.6m.41-73.91h-1.05c-1.91,356.84-1.6,720.44,1,1078.51h2.39c1.09-267.76.94-538.61-.46-807.4v-.49q-.71-135.77-1.84-270.62Z"/>
          </g>
          <g>
            <path class="cls-5" d="M253.18,1079.5C250,721.94,249.69,359.38,252.2,2h.37c3.92,357.18,5,719.74,3.26,1077.51Z"/>
            <path d="M252.45,38.14C256.06,383.5,257,733.45,255.33,1079h-1.66c-3-345.41-3.46-695.37-1.22-1040.86m.61-36.65H251.7c-2.51,356.79-2.19,720.18,1,1078.51h3.65c1.76-358.34.65-721.72-3.27-1078.51Z"/>
          </g>
          <g>
            <path class="cls-5" d="M343.6,1079.5c-5-358-5.51-720.6-1.56-1077.51h1.18c2.63,152.46,4.48,307.36,5.48,460.39v.35c1.23,187.17,1.25,375.87.06,560.85l-.19.21.19.21q-.18,27.78-.4,55.5Z"/>
            <path d="M342.73,2.49c2.63,152.41,4.47,307.13,5.47,459.88v.37c1.23,187.13,1.25,375.76.06,560.63l-.41.42.41.41c-.13,20.15-.26,38.09-.39,54.8H344.1c-5-357.72-5.51-719.89-1.56-1076.51h.19m1-1h-2.16c-4,356.79-3.44,720.17,1.56,1078.51h5.75q.22-28.07.4-56.2s0,0,0,0c1.2-186.36,1.17-373.93-.06-561v-.36c-1-154.22-2.85-308.16-5.49-460.88Z"/>
          </g>
          <g>
            <path class="cls-5" d="M441.39,1039.15c-3.29-343-3.92-691.7-1.86-1037.16h.18C443,346.88,443.51,695.62,441.39,1039.15Z"/>
            <path d="M439.72,58.13c2.59,303.87,3.11,610.26,1.56,913.11-2.59-302.48-3.12-608.87-1.56-913.11m.49-56.64H439c-2.13,357.25-1.38,722,2.27,1078.51h.33c2.42-356.49,1.93-721.27-1.42-1078.51Z"/>
          </g>
          <g>
            <path class="cls-5" d="M533.41,1079.5C531.15,723,530.76,360.41,532.24,2h1c2.48,358.24,3.09,720.79,1.81,1077.51Z"/>
            <path d="M532.72,6.08c2.45,356.73,3,717.68,1.78,1072.92h-.6c-2.24-355-2.64-716-1.18-1072.92m1-4.59h-2C530.26,359,530.64,721.93,532.91,1080h2.59c1.28-358.08.66-721-1.81-1078.51Z"/>
          </g>
          <g>
            <path class="cls-5" d="M624.51,1079.5C620.58,721.76,620.13,359.21,623.16,2h.65c4.73,356.92,6,719.48,3.78,1077.51Z"/>
            <path d="M623.52,18.28c4.56,351.5,5.76,708.24,3.58,1060.72H625c-3.87-352.17-4.37-708.92-1.49-1060.72m.78-16.79h-1.64c-3,356.82-2.58,720.32,1.36,1078.51h4.07c2.23-358.21.95-721.7-3.79-1078.51Z"/>
          </g>
          <g>
            <path class="cls-5" d="M720.71,1028.73c-2.58-316.8-3.06-637.81-1.42-956C721.87,391.25,722.35,712.26,720.71,1028.73Z"/>
            <path d="M719.41,155.37c1.83,263.78,2.23,528.79,1.17,791.17-1.83-262.55-2.22-527.63-1.17-791.17M719.18,2.49c-2.18,356-1.7,721.18,1.46,1077.51h.28c2.11-356.35,1.5-721.52-1.74-1077.51Z"/>
          </g>
          <g>
            <path class="cls-5" d="M812,981.35C810.45,656.82,810,327.83,810.66,2h.87C812.77,328.86,812.92,657.86,812,981.35Z"/>
            <path d="M811.12,24.55c1,268.18,1.21,537.62.72,804.16-1-267.23-1.22-536.67-.72-804.16M812,1.49h-1.87c-.72,358.8-.11,722.28,1.81,1078.51h.18c1.29-356.25,1.24-719.72-.12-1078.51Z"/>
          </g>
          <g>
            <path class="cls-5" d="M906.41,1039.08c-3.29-343-3.92-691.69-1.86-1037.09h.18C908,347.49,908.53,696.2,906.41,1039.08Z"/>
            <path d="M904.74,58.21c2.58,304.29,3.1,610.65,1.56,913-2.59-302.42-3.12-608.79-1.56-913m.49-56.72h-1.18c-2.13,357.25-1.38,722,2.27,1078.51h.33c2.42-356.49,1.92-721.27-1.42-1078.51Z"/>
          </g>
          <g>
            <path class="cls-5" d="M997.5,1070.63C990.3,718,988.43,358.47,991.93,2h3.77C1001.66,358.72,1002.27,718.2,997.5,1070.63Z"/>
            <path d="M995.21,2.49c5.78,346.38,6.52,695.36,2.18,1037.9-6.69-342.78-8.36-691.73-5-1037.9h2.79m1-1h-4.76c-3.52,358.07-1.61,722.18,5.76,1078.51h.68c4.92-356.35,4.31-720.45-1.68-1078.51Z"/>
          </g>
          <g>
            <path class="cls-5" d="M1091.3,1079.5c-2.76-357.55-3.1-720.11-1-1077.51h.14c3.23,357.68,4.07,720.24,2.48,1077.51Z"/>
            <path d="M1090.44,63.36c2.79,337.55,3.45,678.89,2,1015.64h-.6c-2.59-336.94-3-678.3-1.35-1015.64m.46-61.87h-1.13c-2.07,356.84-1.73,720.45,1,1078.51h2.59c1.59-358.08.74-721.67-2.49-1078.51Z"/>
          </g>
          <g>
            <path class="cls-5" d="M1186.06,1003.23c-1.73-300.05-2.07-603.42-1-904.21C1186.8,399.3,1187.14,702.69,1186.06,1003.23Z"/>
            <path d="M1185.2,223.22c1,218.22,1.22,437.59.73,655.91-1-218.09-1.22-437.48-.73-655.91M1185,2.49c-1.63,356-1.27,721.18,1.08,1077.51h.22c1.56-356.35,1.12-721.52-1.3-1077.51Z"/>
          </g>
          <g>
            <path class="cls-5" d="M1277.73,1079.5c-2.6-357.26-3-719.82-1.32-1077.51h.58c2.78,358.09,3.41,720.64,1.87,1077.51Z"/>
            <path d="M1276.75,36c2.55,346.85,3.1,697.54,1.61,1043h-.14c-2.51-345.85-3-696.55-1.47-1043m.74-34.5h-1.58c-1.72,357.29-1.28,720.74,1.32,1078.51h2.13c1.54-357.79.9-721.23-1.87-1078.51Z"/>
          </g>
          <g>
            <path class="cls-5" d="M1371.43,1039.14C1368.14,696,1367.51,347.27,1369.57,2h.18C1373,347.51,1373.55,696.23,1371.43,1039.14Z"/>
            <path d="M1369.75,58.81c2.59,304.1,3.11,610.24,1.56,912.4-2.58-302.39-3.11-608.52-1.56-912.4m.49-57.32h-1.17c-2.13,357.24-1.38,722,2.26,1078.51h.33c2.43-356.49,1.93-721.27-1.42-1078.51Z"/>
          </g>
          <g>
            <path class="cls-5" d="M1463.82,1079.5c-2.57-356.88-3.1-719.44-1.59-1077.51h1.08c2.53,357.72,3,720.27,1.51,1077.51Z"/>
            <path d="M1462.82,2.49c2.52,357.37,3,719.53,1.5,1076.51h0c-2.56-356.63-3.09-718.79-1.58-1076.51h.09m1-1h-2.08c-1.51,357.69-1,720.91,1.59,1078.51h2c1.53-357.61,1-720.83-1.51-1078.51Z"/>
          </g>
          <g>
            <path class="cls-5" d="M1557.68,1079.5c-4.52-345.39-5-695-1.46-1039.73,2.18,139.15,3.72,280.17,4.59,419.78v.13c1.18,189.33,1.16,380.28,0,567.55v.35q-.16,26-.37,51.92Z"/>
            <path d="M1556.33,79.68c1.86,126.2,3.2,253.64,4,379.87v.13c1.18,189.28,1.16,380.23,0,567.55v.35q-.16,25.73-.36,51.42h-1.72c-4.35-331.94-5-667.73-1.85-999.32m-.21-77.19c-4,355.77-3.62,719.7,1.07,1077.51h3.7q.19-26.19.37-52.42v-.35c1.22-188.38,1.23-378.25,0-567.55v-.13c-1-153.1-2.69-305.82-5.19-457.06Z"/>
          </g>
          <g>
            <path class="cls-5" d="M1650.44,1039.14c-3.29-343.21-3.92-691.92-1.86-1037.15h.17C1652,347.56,1652.56,696.29,1650.44,1039.14Z"/>
            <path d="M1648.76,58.84c2.59,304.07,3.11,610.24,1.56,912.37-2.58-302.37-3.11-608.52-1.56-912.37m.49-57.35h-1.17c-2.13,357.24-1.38,722,2.26,1078.51h.33c2.43-356.49,1.93-721.27-1.42-1078.51Z"/>
          </g>
          <g>
            <path class="cls-5" d="M1747.33,1021.42c-1.12-293.36-1.35-590-.69-884.21.16,42,.3,84.94.43,128.52C1747.8,517.51,1747.89,771.41,1747.33,1021.42Z"/>
            <path d="M1746.81,358.07c.34,147.65.45,295.78.34,443.17q-.5-221.25-.34-443.17M1746.53-5c0,2.17,0,4.32,0,6.49-1.14,356.28-1,721.07.55,1078.51h.62c.72-269.51.68-543.2-.11-814.25v0q-.39-132.66-1-264.24l0-6.49Z"/>
          </g>
          <g>
            <path class="cls-5" d="M1837.08,969.11C1835.35,649.78,1835,326,1836.09,5,1837.83,326.27,1838.16,650.06,1837.08,969.11Z"/>
            <path d="M1836.23,137.43c1,233.33,1.22,467.54.72,699.74-1-232.35-1.22-466.51-.72-699.74m.34-135.94h-1c-1.2,354.82-.67,716.66,1.59,1070,1.53-353.38,1.31-715.21-.62-1070Z"/>
          </g>
        </g>
        <g>
          <path class="cls-6" d="M1843,1080h-.66c-4.72-356.49-3.75-721.28,2.77-1078.51h2.28C1851.5,358.74,1850,723.52,1843,1080Z"/>
          <path class="cls-6" d="M1749.46,1080h-2.39c-1.1-270-.93-543.22.5-814.25v0q.69-132.55,1.8-264.24h1.05C1752.33,358.33,1752,721.94,1749.46,1080Z"/>
          <path class="cls-6" d="M1657.81,1080h-3.65c-1.76-358.34-.65-721.72,3.27-1078.51h1.36C1661.3,358.28,1661,721.67,1657.81,1080Z"/>
          <path class="cls-6" d="M1567.39,1080h-5.76q-.21-26.19-.37-52.42v-.35c-1.23-188.51-1.21-378.26,0-567.55v-.13c1-153.29,2.84-306.27,5.47-458.06h2.16C1572.9,358.28,1572.39,721.66,1567.39,1080Z"/>
          <path class="cls-6" d="M1469.2,1080h-.33c-2.42-356.49-1.93-721.27,1.42-1078.51h1.18C1473.6,358.73,1472.84,723.52,1469.2,1080Z"/>
          <path class="cls-6" d="M1377.59,1080H1375c-1.28-358.08-.66-721,1.81-1078.51h2C1380.25,359,1379.86,721.93,1377.59,1080Z"/>
          <path class="cls-6" d="M1286.49,1080h-4.07c-2.23-358.21-1-721.7,3.78-1078.51h1.65C1290.88,358.31,1290.43,721.81,1286.49,1080Z"/>
          <path class="cls-6" d="M1189.87,1080h-.28c-2.11-356.35-1.5-721.52,1.74-1077.51C1193.51,358.49,1193,723.67,1189.87,1080Z"/>
          <path class="cls-6" d="M1098.54,1080h-.18c-1.29-356.25-1.24-719.72.12-1078.51h1.87C1101.07,360.29,1100.46,723.77,1098.54,1080Z"/>
          <path class="cls-6" d="M1004.2,1080h-.33c-2.42-356.49-1.93-721.27,1.42-1078.51h1.18C1008.6,358.73,1007.84,723.52,1004.2,1080Z"/>
          <path class="cls-6" d="M913.32,1080h-.68c-4.91-356.34-4.3-720.45,1.69-1078.51h4.76C922.61,359.56,920.69,723.67,913.32,1080Z"/>
          <path class="cls-7" d="M819.73,1080h-2.59c-1.59-358.07-.75-721.67,2.48-1078.51h1.13C822.82,358.33,822.48,721.93,819.73,1080Z"/>
          <path class="cls-6" d="M724.48,1080h-.22c-1.55-356.35-1.11-721.52,1.31-1077.51C727.2,358.49,726.84,723.67,724.48,1080Z"/>
          <path class="cls-6" d="M633.3,1080h-2.13c-1.54-357.79-.9-721.23,1.87-1078.51h1.58C636.34,358.78,635.89,722.23,633.3,1080Z"/>
          <path class="cls-6" d="M539.2,1080h-.33c-2.42-356.49-1.93-721.27,1.42-1078.51h1.18C543.6,358.73,542.84,723.52,539.2,1080Z"/>
          <path class="cls-6" d="M447.22,1080h-2c-1.54-357.61-1-720.83,1.5-1078.51h2.09C450.31,359.18,449.78,722.4,447.22,1080Z"/>
          <path class="cls-6" d="M353.35,1080h-3.7q-.21-28.08-.39-56.2s0,0,0,0c-1.19-186.23-1.21-373.92-.06-561v-.36c.95-154,2.69-307.71,5.21-459.88C358.38,358.26,358,722.19,353.35,1080Z"/>
          <path class="cls-6" d="M260.2,1080h-.33c-2.42-356.49-1.93-721.27,1.42-1078.51h1.18C264.6,358.73,263.84,723.52,260.2,1080Z"/>
          <path class="cls-6" d="M163.49,1080h-.63c-.71-267.24-.67-538.59.1-807.4v-.49q.39-135.87,1-270.62L164-5c0,2.17,0,4.32,0,6.49C165.18,357.77,165,722.56,163.49,1080Z"/>
          <path class="cls-6" d="M73.35,1071.51c-1.52-353.38-1.3-715.22.63-1070h1C76.15,356.3,75.62,718.15,73.35,1071.51Z"/>
        </g>
      </g>
      <g>
        <g>
          <g>
            <path class="cls-5" d="M108.32,76.81c-.49-24.93-.95-50-1.37-74.82h2.25C108.94,26.39,108.64,51.45,108.32,76.81Z"/>
            <path d="M108.69,2.49q-.22,20.9-.48,42.45-.39-21.25-.75-42.45h1.23m1-1h-3.26q.9,52.77,2,105.34.72-52.56,1.28-105.34Z"/>
          </g>
          <g>
            <path class="cls-5" d="M202.88,197.81c-.56-66.05-1-131.66-1.42-195.82h2.26c-.17,51.26-.38,104.83-.65,159.23Q203,179.52,202.88,197.81Z"/>
            <path d="M203.22,2.49c-.13,38.23-.28,77.72-.46,117.86-.3-39.68-.56-79-.79-117.86h1.25m1-1H201q.79,132.83,2,264.62.33-52.35.59-104.89.39-79.68.65-159.73Z"/>
          </g>
          <g>
            <path class="cls-5" d="M295.32,250.85c-.93-82-1.72-165.5-2.35-248.86h3.72C296.38,86.49,295.92,170,295.32,250.85Z"/>
            <path d="M296.19,2.49c-.24,64.91-.57,129.25-1,192.28-.67-63.63-1.25-128-1.73-192.28h2.71m1-1h-4.72q1.14,150.89,2.95,300.57,1.23-149.55,1.77-300.57Z"/>
          </g>
          <g>
            <path class="cls-5" d="M387.05,270c-1.63-89.29-3-179.29-4.05-268h6.43q-.07,14.87-.17,29.72C388.73,112.35,388,192.35,387.05,270Z"/>
            <path d="M388.93,2.49q-.07,14.61-.17,29.21c-.45,69-1.06,137.49-1.81,204.5-1.37-78-2.52-156.4-3.45-233.71h5.43m1-1h-7.44q1.8,150.89,4.66,300.57,1.74-134.56,2.61-270.35.09-15.1.17-30.22Z"/>
          </g>
          <g>
            <path class="cls-5" d="M481.89,46.92q-.22-22.5-.41-44.93h.67Q482,24.39,481.89,46.92Z"/>
            <path d="M482.65,1.49H481q.46,52.79,1,105.34.38-52.56.66-105.34Z"/>
          </g>
          <g>
            <path class="cls-5" d="M574.9,227.81C574.32,152.87,573.81,77.2,573.4,2h2.36C575.56,77.17,575.27,152.83,574.9,227.81Z"/>
            <path d="M575.26,2.49c-.13,46.85-.29,93.93-.48,140.94-.33-46.93-.62-94-.87-140.94h1.35m1-1H572.9q.83,150.87,2.1,300.57.86-149.59,1.26-300.57Z"/>
          </g>
          <g>
            <path class="cls-5" d="M666.91,240.86c-1.08-78.2-2-158.36-2.78-238.87h4.42C668.17,81.62,667.62,161.77,666.91,240.86Z"/>
            <path d="M668,2.49c-.3,64.27-.71,128.87-1.24,193-.82-63.55-1.55-128.15-2.16-193H668m1-1h-5.42Q665,142.85,667,283.08q1.38-140.13,2-281.59Z"/>
          </g>
          <g>
            <path class="cls-5" d="M760.93,2h.44c0,11.28-.11,22.64-.17,34.16C761.11,25,761,13.66,760.93,2Z"/>
            <path d="M761.87,1.49h-1.44q.41,52.79.88,105.34.32-52.56.56-105.34Z"/>
          </g>
          <g>
            <path class="cls-5" d="M852.93,1.49q-.15,52.76-.35,105.34Q852.3,54.26,852,1.49Z"/>
            <path d="M852.93,1.49H852q.24,52.77.54,105.34.2-52.57.35-105.34Z"/>
          </g>
          <g>
            <path class="cls-5" d="M946.91,47q-.23-22.5-.41-45h.67Q947.05,24.31,946.91,47Z"/>
            <path d="M947.67,1.49H946q.46,52.77,1,105.34.38-52.56.66-105.34Z"/>
          </g>
          <g>
            <path class="cls-5" d="M1038,78c-.55-26.82-1-51.88-1.46-76h2.39C1038.66,26.79,1038.35,52.24,1038,78Z"/>
            <path d="M1038.43,2.49q-.26,22.21-.54,45.12c-.3-15.57-.58-30.55-.84-45.12h1.38m1-1H1036q.95,52.77,2.07,105.34.75-52.57,1.34-105.34Z"/>
          </g>
          <g>
            <path class="cls-5" d="M1132.78,203.34c-.61-66.31-1.15-133.78-1.6-201.35h2.54C1133.49,68.63,1133.18,136.11,1132.78,203.34Z"/>
            <path d="M1133.22,2.49c-.15,43.23-.34,86.85-.56,130.57-.36-43.27-.68-86.89-1-130.57h1.53m1-1h-3.54q.88,132.81,2.2,264.62.88-131.71,1.34-264.62Z"/>
          </g>
          <g>
            <path class="cls-5" d="M1226.52,2h.07l0,7.31C1226.55,6.85,1226.54,4.42,1226.52,2Z"/>
            <path d="M1227.09,1.49H1226q.29,52.79.65,105.34.24-52.56.42-105.34Z"/>
          </g>
          <g>
            <path class="cls-5" d="M1318.92,176.72c-.47-56.88-.9-115.4-1.28-174.73h2C1319.47,61.39,1319.22,119.9,1318.92,176.72Z"/>
            <path d="M1319.18,2.49q-.17,48.17-.38,95.42-.35-47.22-.65-95.42h1m1-1h-3q.78,122.76,1.88,244.64.75-121.8,1.16-244.64Z"/>
          </g>
          <g>
            <path class="cls-5" d="M1411.93,47q-.23-22.61-.42-45h.68Q1412.07,24.4,1411.93,47Z"/>
            <path d="M1412.69,1.49H1411q.46,52.77,1,105.34.38-52.56.66-105.34Z"/>
          </g>
          <g>
            <path class="cls-5" d="M1504.93,168.25c-.45-55.8-.85-111.47-1.19-166.26h1.9C1505.45,57.29,1505.21,113,1504.93,168.25Z"/>
            <path d="M1505.14,2.49q-.15,42.26-.33,84.71-.3-42.63-.56-84.71h.89m1-1h-2.9Q1504,121,1505,239.64q.71-118.6,1.11-238.15Z"/>
          </g>
          <g>
            <path class="cls-5" d="M1599.84,202.55c-1-66.42-1.95-133.72-2.69-200.56h4.3q-.09,16.06-.2,32.1C1600.89,90.7,1600.42,147.2,1599.84,202.55Z"/>
            <path d="M1600.94,2.49q-.07,15.81-.19,31.6c-.28,43.05-.62,86.1-1,128.67-.78-53.24-1.48-106.88-2.08-160.27h3.29m1-1h-5.31q1.33,119.52,3.3,238.15,1.15-102.36,1.81-205.54.12-16.3.2-32.61Z"/>
          </g>
          <g>
            <path class="cls-5" d="M1690.94,46.94q-.23-22.45-.42-44.95h.68C1691.12,17,1691,32,1690.94,46.94Z"/>
            <path d="M1691.7,1.49H1690q.46,52.77,1,105.34.38-52.56.66-105.34Z"/>
          </g>
          <g>
            <path class="cls-5" d="M1787.71,2h.17q0,14.09-.06,28.42Q1787.76,16.18,1787.71,2Z"/>
            <path d="M1788.38,1.49h-1.17q.32,85.38.72,170.25c0-1,0-2,0-3q.27-83.36.44-167.28Z"/>
          </g>
          <g>
            <path class="cls-5" d="M1878,1.49q-.15,38.76-.31,77.37-.24-38.61-.47-77.37Z"/>
            <path d="M1878,1.49h-.78q.22,38.76.47,77.37.16-38.61.31-77.37Z"/>
          </g>
        </g>
        <g>
          <path class="cls-6" d="M1885,1.49q-.91,52.79-2,105.34-.72-52.56-1.28-105.34Z"/>
          <path class="cls-6" d="M1790.52,1.49q-.81,132.83-2,264.62-.3-48.59-.55-97.34-.42-83.42-.68-167.28Z"/>
          <path class="cls-6" d="M1699,1.49q-1.14,150.89-3,300.57-1.23-149.55-1.77-300.57Z"/>
          <path class="cls-6" d="M1609,1.49q-1.82,150.89-4.66,300.57-1.72-133.38-2.59-268-.11-16.3-.2-32.61Z"/>
          <path class="cls-6" d="M1510.51,1.49q-.46,52.77-1,105.34-.37-52.56-.66-105.34Z"/>
          <path class="cls-6" d="M1418.59,1.49q-.83,150.87-2.1,300.57-.85-149.59-1.26-300.57Z"/>
          <path class="cls-6" d="M1327.86,1.49q-1.33,141.35-3.38,281.59-1.38-140.13-2-281.59Z"/>
          <path class="cls-6" d="M1231.07,1.49q-.4,52.79-.88,105.34-.33-52.56-.57-105.34Z"/>
          <path class="cls-6" d="M1139.46,1.49q-.24,52.77-.54,105.34-.2-52.57-.35-105.34Z"/>
          <path class="cls-6" d="M1045.51,1.49q-.46,52.77-1,105.34-.37-52.56-.66-105.34Z"/>
          <path class="cls-6" d="M955.48,1.49q-.94,52.77-2.07,105.34-.75-52.57-1.34-105.34Z"/>
          <path class="cls-7" d="M860.83,1.49q-.89,132.81-2.2,264.62-.89-131.71-1.34-264.62Z"/>
          <path class="cls-6" d="M765.51,1.49q-.3,52.79-.66,105.34-.24-52.56-.43-105.34Z"/>
          <path class="cls-6" d="M674.37,1.49q-.76,122.78-1.88,244.64-.75-121.8-1.15-244.64Z"/>
          <path class="cls-6" d="M580.51,1.49q-.46,52.77-1,105.34-.37-52.56-.66-105.34Z"/>
          <path class="cls-6" d="M488.28,1.49q-.73,119.49-1.79,238.15-.71-118.6-1.1-238.15Z"/>
          <path class="cls-6" d="M394.88,1.49q-1.33,119.52-3.3,238.15-1.15-103.54-1.82-207.93-.11-15.1-.19-30.22Z"/>
          <path class="cls-6" d="M301.51,1.49q-.47,52.77-1,105.34-.37-52.56-.66-105.34Z"/>
          <path class="cls-6" d="M204.32,1.49q-.31,85.38-.72,170.25l0-10.52q-.25-79.6-.42-159.73Z"/>
          <path class="cls-6" d="M114.32,1.49q-.22,38.76-.47,77.37-.16-38.61-.31-77.37Z"/>
        </g>
      </g>
      <g>
        <g>
          <g>
            <path class="cls-5" d="M27.44,1079.5c.47-77.9,1.21-156,2.19-232.56,1.5,77.16,2.76,155.25,3.73,232.56Z"/>
            <path d="M29.74,878.84C31,945.44,32,1012.53,32.86,1079H28c.4-66.93,1-134,1.79-200.16m-.21-62Q27.73,947.76,26.94,1080h6.93q-1.66-132.12-4.34-263.16Z"/>
          </g>
          <g>
            <path class="cls-5" d="M125.26,1079.5c.2-64.1.47-129.2.82-194.27.54,63.92,1,129,1.42,194.27Z"/>
            <path d="M126.2,962.86c.29,38.5.55,77.29.79,116.14h-1.23c.12-38.45.27-77.24.44-116.14m-.22-146q-.81,131-1.22,263.16H128q-.81-132.09-2-263.16Z"/>
          </g>
          <g>
            <path class="cls-5" d="M216.62,1079.5c.3-70.26.71-141,1.22-211,.79,70,1.47,140.7,2,211Z"/>
            <path d="M218,925c.53,51.26,1,102.78,1.42,154h-2.25c.22-51.25.5-102.76.83-154m-.21-108.11q-1.06,131-1.62,263.16h4.26q-1.06-132.07-2.64-263.16Z"/>
          </g>
          <g>
            <path class="cls-5" d="M305.87,1079.5c.5-76.43,1.22-153.79,2.14-230.46,1.41,77.14,2.61,154.51,3.57,230.46Z"/>
            <path d="M308.12,883c1.14,65.68,2.13,131.36,3,196h-4.7c.42-65,1-130.63,1.74-196m-.21-66.15q-1.68,131-2.54,263.16h6.72q-1.68-132.07-4.18-263.16Z"/>
          </g>
          <g>
            <path class="cls-5" d="M404.16,1079.5c.22-67.84.53-135.66.94-202.35.63,66.68,1.18,134.5,1.62,202.35Z"/>
            <path d="M405.21,945.62c.38,44.2.71,88.76,1,133.38h-1.55c.15-44.61.33-89.17.55-133.38M405,816.84q-.92,130.92-1.33,263.16h3.56q-.86-132.12-2.23-263.16Z"/>
          </g>
          <g>
            <path class="cls-5" d="M497.12,1079.5c.2-90.19.53-180.94,1-270.71.69,89,1.26,179.79,1.72,270.71Z"/>
            <path d="M498.21,893.41c.43,61.51.79,123.53,1.1,185.59h-1.69c.14-61.76.34-123.78.59-185.59M498,734.46q-1,171.85-1.38,345.54h3.7q-.87-173.5-2.32-345.54Z"/>
          </g>
          <g>
            <path class="cls-5" d="M587.36,1079.5c.37-73.27.89-147.17,1.55-220.28,1,73.95,1.89,147.86,2.59,220.28Z"/>
            <path d="M589,904.72c.75,58.52,1.42,116.86,2,174.28h-3.13c.3-58,.68-116.29,1.16-174.28m-.21-87.88q-1.29,131-1.95,263.16H592q-1.28-132.09-3.19-263.16Z"/>
          </g>
          <g>
            <path class="cls-5" d="M684.27,1079.5c.13-39,.3-79.25.51-120.28.32,39.6.62,79.83.88,120.28Z"/>
            <path d="M684.91,1042.09q.12,18.4.24,36.91h-.38q.06-18.3.14-36.91m-.23-152.85q-.58,95-.91,190.76h2.39q-.61-95.71-1.48-190.76Z"/>
          </g>
          <g>
            <path class="cls-5" d="M775.89,1079.5c.07-108.25.27-216.54.58-323.26.5,107.69.89,216,1.15,323.26Z"/>
            <path d="M776.6,909.61q.31,84.87.52,169.39h-.73q.06-84.82.21-169.39m-.24-272c-.55,146.49-.87,294.23-1,442.41h2.73c-.36-148.19-1-295.93-1.76-442.41Z"/>
          </g>
          <g>
            <path class="cls-5" d="M869.18,1079.5c.21-67.93.52-135.86.93-202.68.64,66.61,1.18,134.53,1.63,202.68Z"/>
            <path d="M870.23,945.08c.38,44.37.71,89.11,1,133.92h-1.55c.14-44.77.32-89.51.55-133.92M870,816.84q-.93,130.92-1.33,263.16h3.56q-.86-132.12-2.23-263.16Z"/>
          </g>
          <g>
            <path class="cls-5" d="M956.07,1079.5c.46-105.15,1.4-211.34,2.8-316.13,2.11,103.74,3.79,209.94,5,316.13Z"/>
            <path d="M959,793.82c1.82,93.91,3.29,189.57,4.38,285.18h-6.79c.42-94.83,1.22-190.5,2.41-285.18m-.21-59.36q-2.44,171.75-3.2,345.54h8.8q-2-173.57-5.6-345.54Z"/>
          </g>
          <g>
            <path class="cls-5" d="M1054.89,1079.5c.22-64.79.53-131.63.92-199.47.61,66.24,1.14,133.08,1.59,199.47Z"/>
            <path d="M1055.93,950.57c.35,42.78.68,85.69,1,128.43h-1.5c.14-42,.32-84.93.54-128.43m-.22-133.73q-.87,131-1.32,263.16h3.51q-.89-132.09-2.19-263.16Z"/>
          </g>
          <g>
            <path class="cls-5" d="M1150.27,1079.5c.08-30.78.17-62.06.29-93.62.18,31.63.34,62.9.49,93.62Z"/>
            <path d="M1150.45,889.24q-.43,95-.68,190.76h1.78q-.45-95.71-1.1-190.76Z"/>
          </g>
          <g>
            <path class="cls-5" d="M1241.19,1079.5c.21-79.26.52-158.47.93-236.32.65,78.8,1.2,158,1.64,236.32Z"/>
            <path d="M1242.24,922.39c.39,52.4.73,104.73,1,156.61h-1.56c.14-52.37.32-104.69.55-156.61m-.22-149q-.93,152.52-1.33,306.6h3.57q-.85-153.94-2.24-306.6Z"/>
          </g>
          <g>
            <path class="cls-5" d="M1334.2,1079.5c.21-68,.52-135.77.93-202.35.63,66.66,1.18,134.47,1.63,202.35Z"/>
            <path d="M1335.25,945.64c.37,44.21.71,88.77,1,133.36h-1.55c.14-44.59.32-89.15.55-133.36m-.22-128.8q-.93,130.92-1.33,263.16h3.56q-.87-132.12-2.23-263.16Z"/>
          </g>
          <g>
            <path class="cls-5" d="M1427.1,1079.5c.21-94.63.56-188.71,1-280.6.74,92.29,1.36,186.37,1.84,280.6Z"/>
            <path d="M1428.25,880.09c.47,65.9.88,132.39,1.21,198.91h-1.86c.15-66.75.37-133.24.65-198.91M1428,727.47q-1,175.29-1.43,352.53h3.87q-.9-177-2.44-352.53Z"/>
          </g>
          <g>
            <path class="cls-5" d="M1520.42,1079.5c.35-51.93.79-103.24,1.3-153,.79,50.28,1.5,101.6,2.13,153Z"/>
            <path d="M1521.83,966.49c.55,37.22,1.06,74.84,1.52,112.51h-2.42c.25-37.92.56-75.55.9-112.51m-.21-77.25q-1.06,95-1.7,190.76h4.44q-1.17-95.68-2.74-190.76Z"/>
          </g>
          <g>
            <path class="cls-5" d="M1613.21,1079.5c.21-68,.52-135.77.93-202.35.63,66.6,1.18,134.42,1.63,202.35Z"/>
            <path d="M1614.26,945.62c.37,44.18.71,88.74,1,133.38h-1.55c.14-44.6.32-89.16.55-133.38M1614,816.84q-.93,130.92-1.33,263.16h3.56q-.87-132.12-2.23-263.16Z"/>
          </g>
          <g>
            <path class="cls-5" d="M1712,1079.5q0-27.51.11-55.89.12,27.76.21,55.89Z"/>
            <path d="M1712,881.75q-.32,98.73-.5,198.25h1.32q-.35-99.46-.82-198.25Z"/>
          </g>
          <g>
            <path class="cls-5" d="M1801.11,1079.5c.11-63.69.26-126.57.47-188,.33,61,.62,123.9.86,188Z"/>
            <path d="M1801.72,1024.14q.1,27.27.22,54.86h-.33q0-27.52.11-54.86m-.25-235.26q-.63,144.76-.86,291.12h2.33q-.56-146.21-1.47-291.12Z"/>
          </g>
        </g>
        <g>
          <path class="cls-6" d="M1814.54,1080h-6.93q1.67-132.12,4.34-263.16Q1813.75,947.76,1814.54,1080Z"/>
          <path class="cls-6" d="M1716.72,1080h-3.24q.81-132.09,2-263.16Q1716.3,947.82,1716.72,1080Z"/>
          <path class="cls-6" d="M1625.36,1080h-4.26q1.07-132.07,2.64-263.16Q1624.81,947.83,1625.36,1080Z"/>
          <path class="cls-6" d="M1536.12,1080h-6.72q1.68-132.07,4.18-263.16Q1535.26,947.83,1536.12,1080Z"/>
          <path class="cls-6" d="M1437.82,1080h-3.56q.87-132.12,2.23-263.16Q1437.42,947.76,1437.82,1080Z"/>
          <path class="cls-6" d="M1344.87,1080h-3.7q.87-173.5,2.32-345.54Q1344.48,906.32,1344.87,1080Z"/>
          <path class="cls-6" d="M1254.63,1080h-5.14q1.29-132.07,3.2-263.16Q1254,947.82,1254.63,1080Z"/>
          <path class="cls-6" d="M1157.73,1080h-2.39q.62-95.71,1.48-190.76Q1157.41,984.25,1157.73,1080Z"/>
          <path class="cls-6" d="M1066.11,1080h-2.73c.36-148.19.95-295.93,1.76-442.41C1065.69,784.08,1066,931.82,1066.11,1080Z"/>
          <path class="cls-6" d="M972.82,1080h-3.56q.87-132.12,2.23-263.16Q972.42,947.76,972.82,1080Z"/>
          <path class="cls-6" d="M885.94,1080h-8.8q2-173.55,5.59-345.54Q885.18,906.21,885.94,1080Z"/>
          <path class="cls-7" d="M787.12,1080h-3.51q.89-132.09,2.19-263.16Q786.67,947.82,787.12,1080Z"/>
          <path class="cls-6" d="M691.74,1080H690q.45-95.71,1.1-190.76Q691.5,984.25,691.74,1080Z"/>
          <path class="cls-6" d="M600.82,1080h-3.57q.87-153.94,2.24-306.6Q600.42,925.92,600.82,1080Z"/>
          <path class="cls-6" d="M507.82,1080h-3.56q.87-132.12,2.23-263.16Q507.42,947.76,507.82,1080Z"/>
          <path class="cls-6" d="M414.92,1080h-3.86q.88-177,2.43-352.53Q414.54,902.76,414.92,1080Z"/>
          <path class="cls-6" d="M321.61,1080h-4.44q1.17-95.68,2.74-190.76Q321,984.28,321.61,1080Z"/>
          <path class="cls-6" d="M228.82,1080h-3.56q.87-132.12,2.23-263.16Q228.42,947.76,228.82,1080Z"/>
          <path class="cls-6" d="M130,1080H128.7q.33-99.46.81-198.25Q129.82,980.48,130,1080Z"/>
          <path class="cls-6" d="M40.92,1080H38.6q.54-146.21,1.46-291.12Q40.69,933.65,40.92,1080Z"/>
        </g>
      </g>
    </g>
    <g>
      <path class="cls-8" d="M761.9,206.13h6.17l6.06,1.51,4.45,1.72.81-.3a3.06,3.06,0,0,1,3.23-1.72q11.93.3,11.93,2l-.81,28.5a3.41,3.41,0,0,1-2.93,1.22,41.59,41.59,0,0,0-10.81.6h-4.65l-1.22-.91-.5-6.67c-1-1.35-1.69-1.95-2-1.82l-1.82.91a21.93,21.93,0,0,0-3.14,9q-.9,6.17,3.14,8.18l14.25-.3q6.76.92,7.88,5.26,1.51,2,2,11.11,0,22.65-5.76,29.92l-4.95,4.95q-7.89,3.54-13.74,3.54a49.8,49.8,0,0,1-11.32-.61l-6.67-2.93c-1.76-1.35-2.83-3.94-3.24-7.78V271.11c0-2.35.47-3.63,1.42-3.84l6.46.31c3.1-.95,4.75-.74,5,.6q-.92,7,.6,7.89c.34.74,2.66,1.71,7,2.93q8.39.5,10.41-4.65l-.51-5.56q1.73-5.25-4.65-8.19l-20.11.31q-9.6-.92-9.1-11V239.08l2.13-21.23,1.11-4.14Q753.81,205.33,761.9,206.13Z"/>
      <path class="cls-8" d="M856.2,206.13c2.22-.2,3.54.1,3.94.91V222.5l.71,3-.71,6.57v12l-.91,2.12-4.65,1h-4.24L849,246q.62-5.87-2.72-7.08H837L833.86,241l1,3.74,1.83,1.51h5.55c.81,0,1.22.84,1.22,2.53l-.31,10.2-1.51.92-10.21.3c-2.29,1.21-3.34,2.56-3.13,4q-.91,7.08,2.22,8.29,9.3.3,11.12-.61,1.82,0,2.73-7.38l1.92-.91h6.46a2.09,2.09,0,0,1,1.52,1.82l-.3,28.1q1.92,6.17-2.73,6.17h-6.87l-7.08,1h-6.16q-.32.9-26.58,2.12c-1.69.4-2.83,0-3.44-1.21l1.31-22.95,1.22-.91h5l1.82-1.51q.9-28.4.6-36.18-.9-2.73-7.07-2.13c-.81-.2-1.21-.84-1.21-1.92L802,208.86a2.3,2.3,0,0,1,1.92-1.52Q834.26,207.34,856.2,206.13Z"/>
      <path class="cls-8" d="M868,206.53q22.34.61,53.86,0c2,0,3.14.51,3.54,1.52l-.91,22.23-.91,3.34.3,8.59A2.94,2.94,0,0,1,922.5,244l-8.69.6h-2c-1.42,0-2-2-1.82-6l-2.13-1.21-5.55.3q-2.73,2.63-2.13,3.24l-1.82,34.16.31,4.55,1.51,1.11h10.11c1-.21,1.62,1.21,1.82,4.24l-.3,2.93.3,12.43c-.2,1.42-.91,2.12-2.12,2.12l-15.77.31-18.09-.31q-1.51-.6-2.12-5.05l.91-7.68q-.61-4.55,0-5.66l1.82-.91,7.37.31q2.13-.92,2.13-4.45l.6-25.27-.3-10.41-2.43-2.12h-1.82c-1.34.4-2.12,2.39-2.32,6-.4.61-1.31.81-2.73.61h-9.8l-1.11-1.21q.6-33.25,0-36.59l.6-2.93Z"/>
      <path class="cls-8" d="M932.61,206.53q22.33.61,53.86,0c2,0,3.14.51,3.54,1.52l-.91,22.23-.91,3.34.3,8.59a2.94,2.94,0,0,1-1.41,1.82l-8.69.6h-2c-1.42,0-2-2-1.82-6l-2.12-1.21-5.56.3q-2.73,2.63-2.12,3.24l-1.83,34.16.31,4.55,1.52,1.11h10.1c1-.21,1.62,1.21,1.82,4.24l-.3,2.93.3,12.43c-.2,1.42-.91,2.12-2.12,2.12l-15.77.31-18.09-.31q-1.52-.6-2.12-5.05l.91-7.68q-.62-4.55,0-5.66l1.82-.91,7.38.31q2.12-.92,2.12-4.45l.6-25.27-.3-10.41-2.42-2.12h-1.82q-2,.6-2.33,6c-.4.61-1.31.81-2.73.61H932l-1.11-1.21q.6-33.25,0-36.59l.6-2.93Z"/>
      <path class="cls-8" d="M996.68,206.53l30.42.3q1.22,2.43,1.21,14.66v7.18l-1.21,1.21q-7.48-1.51-8.08,4.24l-.51,28.4.3,8.9,1.72,1.82h12.64l1.11.91.6,26c0,1-.87,1.62-2.62,1.82-1.42-.41-5.63-.3-12.64.3l-5-.3q-.62.9-14.35.91-5.06,0-5.05-1.52V276.57l.6-.91,7.48-.61a4.36,4.36,0,0,0,1.72-3.94l.6-37.29a7.38,7.38,0,0,0-2.62-3l-6-.31c-.8-.2-1.21-.91-1.21-2.12l-.3-20.31A1.43,1.43,0,0,1,996.68,206.53Z"/>
      <path class="cls-8" d="M1042.67,278.49q5.85.61,7.88,0,2.12-.19,2.12-4.34l.51-28.1V237l-1.42-2.32-5.56-.61a2.25,2.25,0,0,1-.91-2q.92-10,.91-20.82l1.42-3.23,5.05-1.22a76,76,0,0,0,13.75,0l1.72.91,17.58,46.9,1.52,1.11,1.11-1.11.61-13.24v-8.49q-.32-2.33-6.78-2.93c-1.14-.74-1.51-2.7-1.11-5.86l.3-15.16c.21-1.42.78-2.13,1.72-2.13l15.87-.3q2.32.6,12.53-.3a1.43,1.43,0,0,1,1.52,1.21l.3,9.7.81,6.67v5.86l-1.11,1.22-11.12.91c-1.21.54-2,1.88-2.42,4l-.81,19.91v11.42a4.72,4.72,0,0,0,2,2.43l7.28.2c1.21.2,1.71,1.28,1.51,3.23l.3,27a2,2,0,0,1-1.81,1.72c-5.46-.34-8.87-.24-10.21.3h-11.42l-1.72-1.11q-14.16-40.43-16.78-51.55l-.81-.91c-1-.2-1.72.37-2.12,1.72l-1.72,22q-.3,4.65.91,5l1.11.6h4.45c1.15.2,1.52,2.06,1.11,5.56l-.81,18.19-1.21.81-4.34.3a79.19,79.19,0,0,0-15.27.31l-2-.61-4.44-.3a2.38,2.38,0,0,1-1.22-2q.61-17.28,0-20.21Z"/>
      <path class="cls-8" d="M1147.27,207.24h9.8l10.21,2.32,5.46,2.33c1.14-.2,1.72-1.65,1.72-4.35l2.32-.5,9,.2,3.23-.81c1.35.4,1.92.88,1.72,1.42l.3,9v27.79c-.4.81-.91,1.22-1.52,1.22q-3.12-.91-16.77,2l-2.33-.61c-1.35-3.7-2.39-5.83-3.13-6.37-1.55-1.55-2.73-2.32-3.54-2.32a103.63,103.63,0,0,0-17.38,4.35,16.24,16.24,0,0,0-7.48,7.27c-.2,0-.88,2.8-2,8.39a46.76,46.76,0,0,0,.61,10.92q1.71,7.58,3.73,10.81a6.4,6.4,0,0,0,3.14,2.22l3.23.91h5.16l7.27-2.62,1.42-1.72a4.51,4.51,0,0,0-2-4.35l-10.72.61c-1.14-.61-1.61-1.28-1.41-2q.3-7.27-.61-9l.31-4.95,2.62-.81a190.25,190.25,0,0,1,25.78-1.52l10.41-1.11q5-.3,5,.61l.5,10.41-.2,4.65-1.21.81a4.24,4.24,0,0,0-3.74,2.32q-.61,2.33,0,24.66l-1.42,1.11-7.88,1.22c-1.35.13-2.22-.07-2.63-.61l-2-2h-1.72l-12.12,3.13-11,.61-11-1.11q-9-2.13-12.43-10.21-2.62-3.73-3.23-23.75l.6-17.39q1.72-11.52,1.22-11.82,2.82-14.76,4.54-18Q1133.11,208.15,1147.27,207.24Z"/>
      <path class="cls-8" d="M1214,206.13h6.17l6.06,1.51,4.45,1.72.81-.3a3.05,3.05,0,0,1,3.23-1.72q11.93.3,11.93,2l-.81,28.5a3.44,3.44,0,0,1-2.93,1.22,41.68,41.68,0,0,0-10.82.6h-4.65l-1.21-.91-.5-6.67c-1-1.35-1.69-1.95-2-1.82l-1.82.91a21.78,21.78,0,0,0-3.14,9q-.9,6.17,3.14,8.18l14.25-.3q6.77.92,7.88,5.26,1.52,2,2,11.11,0,22.65-5.76,29.92l-5,4.95q-7.89,3.54-13.75,3.54a49.83,49.83,0,0,1-11.32-.61l-6.67-2.93q-2.62-2-3.23-7.78V271.11q0-3.53,1.41-3.84l6.47.31c3.1-.95,4.75-.74,5,.6q-.9,7,.61,7.89c.34.74,2.66,1.71,7,2.93,5.6.33,9.06-1.22,10.41-4.65l-.5-5.56q1.71-5.25-4.65-8.19l-20.11.31q-9.6-.92-9.1-11V239.08l2.12-21.23,1.12-4.14Q1205.88,205.33,1214,206.13Z"/>
    </g>
    <g>
      <path class="cls-8" d="M451.8,436.73h5.44l5.35,1.34,3.93,1.51.71-.27a2.69,2.69,0,0,1,2.85-1.51q10.53.27,10.53,1.78l-.71,25.16a3,3,0,0,1-2.59,1.07,36.41,36.41,0,0,0-9.54.54h-4.11l-1.07-.81-.45-5.88c-.89-1.19-1.48-1.73-1.78-1.61l-1.61.8a19.42,19.42,0,0,0-2.76,7.94c-.54,3.63.39,6,2.76,7.23l12.58-.27c4,.54,6.31,2.08,7,4.64.9,1.19,1.49,4.46,1.79,9.82q0,20-5.09,26.4L470.62,519q-7,3.13-12.13,3.13a43.64,43.64,0,0,1-10-.54L442.61,519q-2.33-1.77-2.86-6.86v-18c0-2.08.42-3.21,1.25-3.39l5.71.27c2.74-.83,4.19-.65,4.37.54-.53,4.1-.36,6.42.54,6.95.29.66,2.35,1.52,6.15,2.59q7.41.45,9.19-4.1l-.44-4.91q1.51-4.64-4.11-7.22l-17.75.26q-8.48-.79-8-9.72v-9.55l1.87-18.73,1-3.66Q444.66,436,451.8,436.73Z"/>
      <path class="cls-8" d="M508.36,436.73h11.42l6.87,1a27.56,27.56,0,0,1,7.58,2.5l3,2.32q2.6,4,4.11,15.43-.54,19.82,0,22.3-.81,31-3.84,34.71a12.7,12.7,0,0,1-6.6,4.82q-12.4,3.12-12.94,2.32l-13.11-.27-6.34-1.25q-3.12-.8-7.4-6.87a37.62,37.62,0,0,1-3.57-11.15l-1.25-21.5.27-16,1.52-10.71,2.05-6.06q1.51-3.48,7-8.12Q506.84,435.92,508.36,436.73Zm-8.3,33.9q-.27,14,1.52,20.79l1.25,2.58q1,1.78,6.33,4,8.56-.27,12.4-3.75,2.06-3.12,2.05-4.37l1-9.64v-12.4a19.12,19.12,0,0,0-2.23-6.33l-3-2.32-7.14.54-5.62,1.07c-2.67,1-4.34,2.08-5,3.21Q501,464.83,500.06,470.63Z"/>
      <path class="cls-8" d="M548.06,437.35l29,.54.72.71-.72,12.58v8.3l-.53,1.34L570,462.06q-1.87,1.08-1.88,4.2-1,17-1,23.46l1.52,3.21,3.66,1.52q6.51.27,7.85-.53a4.72,4.72,0,0,0,2.32-3.66l.53-18.2.54-4.2v-5.53l-.27-.71-2.86-2.41.81-8.3.18-11.77a2.45,2.45,0,0,1,1.33-1.52q18.82-.27,22.22-.8,4.63-.54,4.91,1.07l.26,12.49q1.08,8.12-2,8.56a62.34,62.34,0,0,0-10.7,0l-1.61,1.61v20.07q1.34,9.11.8,11.24L595,506,593.2,513l-1.6,3.92q-.72,3.57-16.15,5.18H563.76a13.8,13.8,0,0,1-7-3.93,10.08,10.08,0,0,1-2.94-6L554,473l.8-9.37-1.25-2.05-6.33-.54c-1-.17-1.34-1.48-1-3.92l.54-18.83A1.39,1.39,0,0,1,548.06,437.35Z"/>
      <path class="cls-8" d="M616.4,500.61q5.18.52,7,0c1.25-.12,1.87-1.4,1.87-3.84l.45-24.8v-8l-1.25-2.05-4.91-.54a2,2,0,0,1-.8-1.78q.79-8.83.8-18.38l1.25-2.86,4.46-1.07a67.32,67.32,0,0,0,12.13,0l1.52.81,15.52,41.39,1.34,1,1-1,.54-11.69v-7.49q-.27-2.05-6-2.59-1.51-1-1-5.17l.27-13.38c.18-1.25.68-1.88,1.51-1.88l14-.26q2.05.53,11.06-.27a1.26,1.26,0,0,1,1.34,1.07l.27,8.56.71,5.89v5.18l-1,1.07-9.81.8c-1.07.48-1.79,1.66-2.14,3.57l-.72,17.57v10.08a4.12,4.12,0,0,0,1.79,2.15l6.42.17c1.07.18,1.52,1.13,1.34,2.86l.27,23.82A1.76,1.76,0,0,1,674,521q-7.23-.45-9,.26H654.94l-1.52-1q-12.49-35.69-14.81-45.5l-.71-.8c-.89-.18-1.52.33-1.87,1.52L634.51,495c-.18,2.73.09,4.19.8,4.37l1,.53h3.93q1.51.27,1,4.91l-.71,16.06-1.07.71-3.84.27a69.1,69.1,0,0,0-13.47.27l-1.79-.54-3.92-.27a2.07,2.07,0,0,1-1.07-1.78q.52-15.25,0-17.84Z"/>
      <path class="cls-8" d="M699.55,436.55q18.19.54,20.52,1.34,8.48,1.88,11.86,4a14.21,14.21,0,0,1,6.34,5.53q1.88,6.61,1.6,9.19l.8,2.41a9.76,9.76,0,0,1-.53,4.73q.54,5-.27,31.14-2.05,25.61-19.27,27.21l-23.19-.27-4.47-.54a9.51,9.51,0,0,1-4.55,0,2,2,0,0,1-1.51-1.87l-.54-10.53v-3.39l.81-.8,6.51.27c.53,0,1.25-.72,2.14-2.14q-.54-15.34,0-34.89a3.91,3.91,0,0,0-2.32-2.05l-7.14.27c-.71-.36-1.07-.8-1.07-1.34V458l.54-2.41.27-8.38.8-7.68a2.28,2.28,0,0,1,2.58-2.14ZM705.88,491q0,13.2,2.32,14l11.6-.81q6.87-1.34,8.74-14.27a30.33,30.33,0,0,0-3.39-14.54,9.24,9.24,0,0,0-6.6-3.39q-10.35,0-11.42,2.14l-.8,3.92v9.73Z"/>
      <path class="cls-8" d="M818.56,436.73c2-.18,3.12.09,3.48.8v13.65l.62,2.68-.62,5.8v10.61l-.8,1.88-4.11.89h-3.75l-1.16-1.16q.54-5.17-2.4-6.25h-8.21l-2.77,1.88.89,3.3,1.61,1.34h4.91c.71,0,1.07.74,1.07,2.23l-.27,9-1.34.8-9,.27q-3,1.6-2.76,3.57-.81,6.24,2,7.31,8.21.27,9.81-.53,1.6,0,2.41-6.52l1.7-.8h5.71a1.83,1.83,0,0,1,1.33,1.61l-.26,24.8c1.13,3.63.32,5.44-2.41,5.44h-6.07l-6.24.89h-5.45q-.27.81-23.46,1.88c-1.49.35-2.5,0-3-1.07l1.16-20.25,1.07-.81h4.37l1.6-1.34q.81-25.06.54-31.94c-.54-1.6-2.62-2.23-6.25-1.87-.71-.18-1.07-.74-1.07-1.69l-.62-24a2,2,0,0,1,1.69-1.34Q799.21,437.8,818.56,436.73Z"/>
      <path class="cls-8" d="M850.05,436.91q23.64.52,26.05,0l1,1.07q-.52,17.47,0,33.72A1.67,1.67,0,0,1,875,473h-4.82l-1.07-.8-.8-5.27c-1.25-1.25-2.23-1.87-2.94-1.87l-11.15.8-5,.54-1.34,1.6c-.53,2.5,0,4.35,1.61,5.53l5.26-.26.8.53.54,2.14-.27,5.89-.53.8c-3,.18-4.64.42-5,.72a6.54,6.54,0,0,0-2.14,6.15l.8,7.68,1.61,1.6,6.06-.27,1.07,1.08a169.21,169.21,0,0,0-.8,17.75,2.53,2.53,0,0,1-1.34,1.61h-5L847.91,520,837,520.5c-.18.54-1.88.8-5.09.8l-2.05.81c-1.43-.18-2.14-.81-2.14-1.88l-.27-14.81v-1.6l1.34-1.34c4,.36,6.33-.45,6.87-2.41q.52-4.27-.27-32.92l-.8-2.14-.81-.8-4.46-1.07c-.89-.9-1.16-2.47-.8-4.73q1.61-17.85,1.07-18.92c.18-1.36.8-2.14,1.88-2.32Z"/>
      <path class="cls-8" d="M907.86,436.91q23.64.52,26,0l1,1.07q-.52,17.47,0,33.72a1.67,1.67,0,0,1-2,1.25H928l-1.08-.8-.8-5.27c-1.25-1.25-2.23-1.87-2.94-1.87l-11.15.8-5,.54-1.34,1.6c-.53,2.5,0,4.35,1.61,5.53l5.26-.26.8.53.54,2.14-.27,5.89-.53.8c-3,.18-4.64.42-5,.72a6.54,6.54,0,0,0-2.14,6.15l.8,7.68,1.61,1.6,6.06-.27,1.08,1.08a166.24,166.24,0,0,0-.81,17.75,2.5,2.5,0,0,1-1.34,1.61h-5L905.72,520l-10.88.53c-.18.54-1.88.8-5.09.8l-2,.81c-1.43-.18-2.14-.81-2.14-1.88l-.27-14.81v-1.6l1.34-1.34c4,.36,6.33-.45,6.87-2.41q.54-4.27-.27-32.92l-.8-2.14-.8-.8-4.47-1.07c-.89-.9-1.16-2.47-.8-4.73q1.6-17.85,1.07-18.92c.18-1.36.8-2.14,1.88-2.32Z"/>
      <path class="cls-8" d="M989.14,436.73c2-.18,3.12.09,3.48.8v13.65l.62,2.68-.62,5.8v10.61l-.81,1.88-4.1.89H984l-1.16-1.16q.54-5.17-2.41-6.25h-8.2l-2.77,1.88.89,3.3,1.61,1.34h4.91c.71,0,1.07.74,1.07,2.23l-.27,9-1.34.8-9,.27q-3,1.6-2.77,3.57c-.53,4.16.12,6.6,2,7.31q8.21.27,9.81-.53,1.61,0,2.41-6.52l1.69-.8h5.71a1.84,1.84,0,0,1,1.34,1.61l-.27,24.8q1.7,5.45-2.4,5.44H978.7l-6.25.89H967q-.27.81-23.46,1.88c-1.49.35-2.5,0-3-1.07l1.16-20.25,1.08-.81h4.37l1.6-1.34q.81-25.06.54-31.94c-.54-1.6-2.62-2.23-6.25-1.87-.71-.18-1.07-.74-1.07-1.69l-.62-24A2,2,0,0,1,943,437.8Q969.79,437.8,989.14,436.73Z"/>
      <path class="cls-8" d="M1022.33,437q9.27-.27,11.06.53l6,2.05,4.19,2.59a1.24,1.24,0,0,0,1.52-.71q-.81-3.93.8-4.73h3q.27.52,7.76,1.34c.72.17,1.08,1.45,1.08,3.83l-.54,34.71-.8.53-11.6.27h-13.92l-1.34-.53-.53-1.34a22.9,22.9,0,0,0-.54-7.23,7.44,7.44,0,0,0-3-3.57q-5.72-3.39-10.35,1.79-1.61,3.83-2.32,17-.27,7.76,1.78,12.4c.84,1.72,2.83,3.63,6,5.71l6.69-.27,4.11-2.86a15.46,15.46,0,0,0,2.58-5.44l.81-7.22c0-.66.77-1,2.32-1l14.18.45,1.61,1.07q.53,3.39-1.07,17-5.44,19.19-25.61,18.65-2.31.52-11.6-2.05-9.27-3.93-9.54-4.64-6.51-4.9-7-14,0-23,1.07-41.84l1.52-7.59q1.07-5.09,8.56-10.52A31.61,31.61,0,0,1,1022.33,437Z"/>
      <path class="cls-8" d="M1065.24,437.08q19.71.54,47.55,0c1.72,0,2.77.45,3.12,1.34l-.8,19.63-.8,2.94.26,7.59a2.6,2.6,0,0,1-1.24,1.6l-7.68.54h-1.78c-1.25,0-1.79-1.76-1.61-5.26l-1.87-1.08-4.91.27c-1.6,1.55-2.23,2.5-1.87,2.86L1092,497.66l.27,4,1.34,1h8.92c.89-.18,1.43,1.07,1.61,3.75l-.27,2.58.27,11c-.18,1.24-.81,1.87-1.88,1.87l-13.92.27-16-.27c-.9-.36-1.52-1.84-1.88-4.46l.8-6.78c-.35-2.68-.35-4.34,0-5l1.61-.8,6.51.27c1.25-.54,1.88-1.85,1.88-3.93l.53-22.3-.27-9.19-2.14-1.88h-1.6c-1.19.36-1.88,2.12-2,5.27-.36.53-1.16.71-2.41.53h-8.66l-1-1.07q.54-29.34,0-32.29l.54-2.59Z"/>
      <path class="cls-8" d="M1135.54,436.73H1141l5.35,1.34,3.93,1.51.71-.27a2.71,2.71,0,0,1,2.86-1.51q10.53.27,10.53,1.78l-.72,25.16a3,3,0,0,1-2.58,1.07,36.46,36.46,0,0,0-9.55.54h-4.1l-1.08-.81-.44-5.88c-.89-1.19-1.49-1.73-1.79-1.61l-1.6.8a19.29,19.29,0,0,0-2.77,7.94q-.8,5.44,2.77,7.23l12.58-.27c4,.54,6.3,2.08,7,4.64q1.34,1.78,1.78,9.82,0,20-5.08,26.4l-4.38,4.37q-6.94,3.13-12.13,3.13a43.64,43.64,0,0,1-10-.54l-5.89-2.59q-2.32-1.77-2.85-6.86v-18c0-2.08.41-3.21,1.25-3.39l5.7.27q4.11-1.25,4.38.54-.81,6.15.53,6.95.45,1,6.16,2.59,7.39.45,9.19-4.1l-.45-4.91q1.52-4.64-4.1-7.22l-17.76.26q-8.48-.79-8-9.72v-9.55l1.88-18.73,1-3.66Q1128.41,436,1135.54,436.73Z"/>
    </g>
    <g>
      <path class="cls-8" d="M850.37,598.2h11.15l1.34,1.07c3.92,6.73,5.8,10.35,5.62,10.89l4.28,5.89,13.83,24.17,1.87,1.34c1.08-.35,1.79-1.84,2.15-4.46l6.33-36.49a2,2,0,0,1,1.87-1.6q14.1-.27,16.51-.81h8.83c1.43.9,2.14,1.88,2.14,2.95v17.57l-1.07,1.61q-8.29.27-9.1.71c-1.25.72-1.78,2.14-1.6,4.29l.53,33.54c.71,1.79,1.52,2.86,2.41,3.21l5.35.27c.72,0,1.16,1.07,1.34,3.21l.54,15.17c-.36.71-.81,1.07-1.34,1.07l-4.82-.27-24.27.54c-.71-.36-1.07-.81-1.07-1.34q.54-2.41-1-14.36v-2.15l1-1.07,7-.53c1.25-.54,1.79-3.27,1.61-8.21L901.49,635l-1.07-1.07c-.54-.18-1.16.45-1.87,1.87l-6.16,23.11q-3.12,2.14-4.19.27L881.5,648q-8.73-17-11.15-20.26l-1.6-1.33c-.72-.18-1.16,0-1.34.53q-.54,9.11,1.07,31.94a4.39,4.39,0,0,0,3.75,3l5.53-.54,1.07,1.07a119.14,119.14,0,0,0,.8,16.77c.36,2,0,3.13-1.07,3.48l-20.25.54c-3.69.35-5.53-.09-5.53-1.34l-1.34-15.7c-.18-2.14,0-3.21.53-3.21l6.34-1.61,1.34-2.14-.81-31.67q-.26-6.16-.8-6.87l-1.78-1.34q-7.23.54-7.23-1.34a150.72,150.72,0,0,0,0-18.11A2.53,2.53,0,0,1,850.37,598.2Z"/>
      <path class="cls-8" d="M933.87,598.38l29,.54.71.71-.71,12.58v8.3l-.54,1.34-6.51,1.24q-1.87,1.08-1.87,4.2-1,17-1,23.46l1.51,3.21,3.66,1.52q6.51.27,7.85-.53a4.7,4.7,0,0,0,2.32-3.66l.54-18.2.53-4.2v-5.53l-.26-.71-2.86-2.41.8-8.3.18-11.77a2.46,2.46,0,0,1,1.34-1.52q18.82-.27,22.21-.8c3.1-.36,4.73,0,4.91,1.07l.27,12.49q1.06,8.12-2.05,8.56a62.48,62.48,0,0,0-10.71,0l-1.6,1.61v20.07q1.33,9.11.8,11.24L980.8,667,979,674,977.41,678q-.7,3.57-16.15,5.18H949.58a13.8,13.8,0,0,1-7.05-3.93,10,10,0,0,1-2.95-6l.27-39.16.81-9.37-1.25-2.05-6.34-.54c-1-.17-1.34-1.48-1-3.92l.54-18.83A1.38,1.38,0,0,1,933.87,598.38Z"/>
      <path class="cls-8" d="M1016.31,597.76h5.44l5.35,1.34,3.93,1.51.71-.27a2.71,2.71,0,0,1,2.86-1.51q10.53.27,10.53,1.78l-.72,25.16a3,3,0,0,1-2.58,1.07,36.46,36.46,0,0,0-9.55.54h-4.11l-1.07-.81-.44-5.88c-.89-1.19-1.49-1.73-1.79-1.61l-1.6.8a19.29,19.29,0,0,0-2.77,7.94q-.79,5.45,2.77,7.23l12.58-.27q6,.81,7,4.64,1.34,1.79,1.78,9.82,0,20-5.08,26.4l-4.38,4.37q-6.95,3.13-12.13,3.13a43.64,43.64,0,0,1-10-.54l-5.89-2.59q-2.32-1.77-2.85-6.86v-18c0-2.08.41-3.21,1.24-3.39l5.71.27q4.11-1.25,4.38.54-.81,6.15.53,7,.45,1,6.16,2.58,7.39.45,9.19-4.1l-.45-4.91q1.52-4.64-4.1-7.22l-17.76.26q-8.48-.79-8-9.72v-9.55l1.88-18.73,1-3.66Q1009.18,597,1016.31,597.76Z"/>
      <path class="cls-8" d="M1052.26,598.11l26.86.27q1.07,2.14,1.07,12.94v6.33l-1.07,1.07c-4.41-.89-6.78.36-7.14,3.75l-.45,25.07.27,7.85,1.52,1.61h11.15l1,.8.54,22.93c0,.89-.78,1.43-2.32,1.6q-1.87-.52-11.16.27l-4.46-.27q-.52.81-12.67.81c-3,0-4.46-.45-4.46-1.34V659.94l.54-.8,6.6-.54a3.85,3.85,0,0,0,1.52-3.48l.53-32.92a6.39,6.39,0,0,0-2.32-2.67l-5.26-.27c-.71-.18-1.07-.8-1.07-1.87l-.27-17.94A1.27,1.27,0,0,1,1052.26,598.11Z"/>
      <path class="cls-8" d="M1116.41,598q9.27-.27,11.06.53l6,2.05,4.19,2.59a1.23,1.23,0,0,0,1.52-.71q-.81-3.93.8-4.73h3q.26.53,7.76,1.34c.71.17,1.07,1.45,1.07,3.83l-.54,34.71-.8.53-11.6.27H1125l-1.33-.53-.54-1.34a22.9,22.9,0,0,0-.54-7.23,7.44,7.44,0,0,0-3-3.57q-5.71-3.39-10.35,1.79-1.61,3.83-2.32,17-.27,7.75,1.79,12.4c.83,1.72,2.82,3.63,6,5.71l6.69-.27,4.1-2.86a15.53,15.53,0,0,0,2.59-5.44l.8-7.22c0-.66.77-1,2.32-1l14.18.45,1.61,1.07q.54,3.39-1.07,17-5.44,19.18-25.6,18.65-2.32.52-11.6-2-9.29-3.93-9.55-4.64-6.51-4.91-7-14,0-23,1.07-41.84l1.52-7.59q1.06-5.09,8.57-10.52A31.52,31.52,0,0,1,1116.41,598Z"/>
    </g>
    <path class="cls-8" d="M1394.47,660.39V608.47h0v-5.82l-6,1.94-44.91,17.16.13.33v42.46a13.19,13.19,0,1,0,9.31,12.61,13.31,13.31,0,0,0-.39-3.18V637.68l33-12.6V651a13.19,13.19,0,1,0,9.31,12.61A12.82,12.82,0,0,0,1394.47,660.39Z"/>
    <g>
      <path class="cls-8" d="M1347.42,460.84l-12.92,5.59a16.29,16.29,0,0,0-8.49,21.42l6.46,14.94a17.55,17.55,0,0,0,23.07,9.14l12-5.21,31.31,7.33-8-18.4L1371.61,451l-6.26-14.46Z"/>
      <path class="cls-9" d="M1383.34,458.73c8.75,4.11,13.94,11.4,11.44,25.56"/>
      <path class="cls-9" d="M1386.52,445c15.46,5.59,23.77,22.33,20.67,46.18"/>
      <path class="cls-9" d="M1387.56,426.91c24.1,5.88,42.81,45.43,33.51,74.88"/>
    </g>
  </g>
</svg>
