<svg xmlns="http://www.w3.org/2000/svg" xmlns:xlink="http://www.w3.org/1999/xlink" width="1000" height="900" viewBox="0 0 1000 900">
  <defs>
    <style>
      .cls-1, .cls-19, .cls-20 {
        fill: none;
      }

      .cls-2 {
        isolation: isolate;
      }

      .cls-3 {
        fill: #8c6239;
      }

      .cls-4 {
        fill: #573c23;
      }

      .cls-5, .cls-6 {
        fill: #ad7846;
      }

      .cls-19, .cls-20, .cls-6 {
        stroke: #000;
        stroke-miterlimit: 10;
      }

      .cls-20, .cls-6 {
        stroke-width: 2px;
      }

      .cls-7 {
        opacity: 0.75;
        mix-blend-mode: multiply;
      }

      .cls-8 {
        fill: url(#linear-gradient);
      }

      .cls-9 {
        clip-path: url(#clip-path);
      }

      .cls-10 {
        fill: #454545;
      }

      .cls-11 {
        fill: #353535;
      }

      .cls-12 {
        fill: #272727;
      }

      .cls-13 {
        fill: #545454;
      }

      .cls-14 {
        fill: #d5d5d5;
      }

      .cls-15 {
        fill: #9f9f9f;
      }

      .cls-16 {
        fill: #828282;
      }

      .cls-17 {
        opacity: 0.54;
      }

      .cls-18 {
        fill: #fff;
      }

      .cls-19 {
        stroke-width: 3px;
      }

      .cls-21 {
        fill: #c2c2c2;
      }

      .cls-22 {
        fill: #4d4d4d;
      }

      .cls-23 {
        fill: #666;
      }

      .cls-24 {
        fill: #f7931e;
      }

      .cls-25 {
        clip-path: url(#clip-path-2);
      }

      .cls-26 {
        clip-path: url(#clip-path-3);
      }

      .cls-27 {
        fill: #42210b;
      }
    </style>
    <linearGradient id="linear-gradient" x1="353.35" y1="90.65" x2="849.26" y2="1012.08" gradientTransform="translate(-0.26 -0.37)" gradientUnits="userSpaceOnUse">
      <stop offset="0.15" stop-color="#ffdd80"/>
      <stop offset="0.16" stop-color="#fedc80" stop-opacity="0.99"/>
      <stop offset="0.3" stop-color="#edcf88" stop-opacity="0.84"/>
      <stop offset="0.45" stop-color="#e0c58e" stop-opacity="0.72"/>
      <stop offset="0.59" stop-color="#d5bd93" stop-opacity="0.62"/>
      <stop offset="0.73" stop-color="#cdb796" stop-opacity="0.55"/>
      <stop offset="0.87" stop-color="#c9b398" stop-opacity="0.51"/>
      <stop offset="1" stop-color="#c7b299" stop-opacity="0.5"/>
    </linearGradient>
    <clipPath id="clip-path">
      <rect id="SVGID" class="cls-1" x="415.95" y="246.89" width="204.98" height="198.34" transform="translate(-4.44 6.74) rotate(-0.74)"/>
    </clipPath>
    <clipPath id="clip-path-2">
      <rect class="cls-1" x="3664.5" y="-2739" width="1920" height="1077"/>
    </clipPath>
    <clipPath id="clip-path-3">
      <rect class="cls-1" x="1662.5" y="-2759" width="1919" height="1079"/>
    </clipPath>
  </defs>
  <g class="cls-2">
    <g id="end_screens" data-name="end screens">
      <g id="you_lost" data-name="you lost">
        <g>
          <g>
            <rect class="cls-3" x="50.86" y="-47.09" width="898.11" height="995.91" transform="translate(47.52 949.4) rotate(-89.83)"/>
            <path d="M3.83,1l994.9,2.62L996,900.73,1.09,898.11,3.83,1m-1-1L.09,899.11,997,901.73,999.74,2.62,2.83,0Z"/>
          </g>
          <g>
            <g>
              <g>
                <path class="cls-4" d="M584.17,34.82c-180.18,0-361.08-.77-538.38-2.3,138.09-.93,278.75-1.4,418.78-1.4,178.3,0,358.15.76,534.57,2.26v.08C862.19,34.36,722.57,34.82,584.17,34.82Z"/>
                <path d="M464.59,31.62c156.15,0,313.49.59,468.68,1.74-115.7.64-232.85,1-349.12,1-156.36,0-313.26-.58-467.86-1.73,115.3-.64,232-1,348.28-1h0m0-1c-154.6,0-309,.57-461.81,1.71v.3c192.17,1.8,386.94,2.69,581.42,2.69,139,0,277.86-.45,415.49-1.36V32.89c-177.11-1.51-356.22-2.27-535.1-2.27Z"/>
              </g>
              <g>
                <path class="cls-4" d="M747.65,78.48c-247,0-497.48-.59-744.55-1.75v-.12c50.58,0,102-.08,152.94-.08,254,0,510.81.63,764.61,1.85-57.73.07-115.08.1-171.29.1h-1.71Z"/>
                <path d="M202.9,77c165.13,0,331.28.36,496.86.93-165,0-331.28-.36-496.86-.93M156,76Q79.18,76,2.6,76.11v1.12C249.69,78.39,499.59,79,747.65,79h2.15q125.26,0,249.7-.2v-.5C720.5,76.79,437.06,76,156,76Z"/>
              </g>
              <g>
                <path class="cls-4" d="M637.89,121.86c-211.64,0-425.26-.55-634.92-1.62v-.71c75-.14,151.37-.21,226.94-.21,242.43,0,487.15.71,728.11,2.12C852,121.72,744.54,121.86,637.89,121.86Z"/>
                <path d="M230,119.82c196.75,0,395,.47,591.54,1.4-61.17.09-122.52.14-183.6.14-197,0-395.74-.47-591.45-1.4,60.91-.1,122.43-.14,183.49-.14h0m-.06-1q-114,0-227.47.21v1.71c210.88,1.08,423.6,1.62,635.48,1.62q181.4,0,361.43-.53v-.64c-254.5-1.57-512.6-2.37-769.43-2.37Z"/>
              </g>
              <g>
                <path class="cls-4" d="M517.21,165.25c-154.46,0-310.18-.46-462.81-1.36h-.22q-25.7-.15-51.35-.32v-1.7c114.82-.51,231.78-.76,347.6-.76,216.35,0,434.48.89,648.3,2.65v0c-141,.87-284.18,1.35-425.52,1.45h-.33Z"/>
                <path d="M350.48,161.61c191.73,0,384.83.7,575.1,2.09-117.17.6-235.37,1-352.35,1h-.34l-55.61,0c-154.47,0-310.15-.46-462.73-1.36h-.44q-25.41-.15-50.77-.32v-.7c114.68-.51,231.46-.76,347.14-.76m0-1q-174.45,0-348.14.77v2.69l52,.32h0c153.81.91,308.48,1.36,463,1.36l55.61,0h.34c142.55-.1,284.85-.59,426-1.45v-1c-214.67-1.77-431.89-2.66-648.77-2.66Z"/>
              </g>
              <g>
                <path class="cls-4" d="M742.25,209.24c-210.29,0-421.71-.54-630.07-1.61,64.95-.11,130.36-.16,195.5-.16,209.5,0,421.05.54,629.76,1.61C872.63,209.19,807.21,209.24,742.25,209.24Z"/>
                <path d="M307.65,208c144.58,0,290.11.26,435,.77h-.39c-145.23,0-291-.26-435.91-.77h1.27m-.07-1q-153.33,0-305.38.39v.15c244.48,1.48,493.14,2.23,740.09,2.23q128.84,0,256.82-.27v-.55C770.31,207.62,538.2,207,307.58,207Z"/>
              </g>
              <g>
                <path class="cls-4" d="M836.82,252.81c-277.93,0-558.61-.62-834.25-1.84v-.21q53.09,0,106.33,0c289.83,0,583.88.69,874.31,2C934.64,252.79,885.48,252.81,836.82,252.81Z"/>
                <path d="M202.06,251.25c179.08.09,359.46.44,539.22,1-179.7-.09-360.14-.44-539.22-1m-93.23-1q-53.44,0-106.76,0v1.21c276.92,1.23,557,1.84,834.59,1.84q81.3,0,162.31-.07v-.91c-295-1.39-593.93-2.11-890.14-2.11Z"/>
              </g>
              <g>
                <path class="cls-4" d="M587.47,296c-194.94,0-391.77-.56-585-1.68v-.91c97.46-.29,196.73-.43,295-.43,226.68,0,455.3.76,679.87,2.27C848.59,295.76,717.55,296,587.47,296Z"/>
                <path d="M297.48,293.49c191.45,0,384.3.54,574.94,1.62-94.64.27-190,.4-284.92.4-191.46,0-384.73-.54-574.65-1.62,94.12-.27,189.82-.4,284.63-.4m0-1q-148.13,0-295.54.43v1.91C196.2,296,392.1,296.51,587.5,296.51c137.63,0,275-.28,411.34-.83v-.77c-232-1.61-467.08-2.42-701.36-2.42Z"/>
              </g>
              <g>
                <path class="cls-4" d="M739.91,339.86c-201.31,0-403.49-.46-602.78-1.37,34.81,0,69.69,0,104.46,0,200.61,0,402.74.46,602.85,1.37Q792.17,339.85,739.91,339.86Z"/>
                <path d="M241.55,338q-120.33,0-239.75.22v.13c243.82,1.37,492.08,2.06,738.09,2.06q129.5,0,257.89-.26C748.16,338.67,493.68,338,241.55,338Z"/>
              </g>
              <g>
                <path class="cls-4" d="M953.72,383.05c-232.08-.2-465.2-.71-696.19-1.51C489,381.74,722.13,382.25,953.72,383.05Z"/>
                <path d="M27.42,380.93H1.67V381c329.29,1.47,665.26,2.33,996.9,2.57v-.88c-323-1.18-650.12-1.78-971.16-1.78Z"/>
              </g>
              <g>
                <path class="cls-4" d="M741.94,427c-210.7,0-422.27-.54-630.48-1.61,64.91-.11,130.29-.16,195.4-.16,209.52,0,421.07.54,629.77,1.61C872,427,806.72,427,741.94,427Z"/>
                <path d="M307,425.73c144.39,0,289.77.26,434.5.77-145.2,0-290.84-.26-435.51-.77h1m0-1q-153.36,0-305.41.39v.15c244.56,1.49,493.35,2.23,740.37,2.23q128.72,0,256.54-.27v-.55c-228.77-1.3-460.89-1.95-691.49-1.95Z"/>
              </g>
              <g>
                <path class="cls-4" d="M618.71,470.43c-193.06,0-386.87-.86-576.76-2.56,152.06-1.1,307.07-1.65,461.38-1.65,164.65,0,331,.63,494.49,1.87v1.24C872.5,470.06,745,470.43,618.71,470.43Z"/>
                <path d="M503.37,466.72c164.46,0,330.64.63,493.94,1.87v.24c-125.18.73-252.56,1.1-378.63,1.1-170.65,0-341.89-.67-510.46-2,130.69-.8,263.14-1.2,395.13-1.2h0m-.05-1c-168,0-335.9.65-501.91,1.95V468c204,2,410.78,2.94,617.28,2.94,126.87,0,253.68-.37,379.63-1.1V467.6c-164.15-1.25-329.66-1.88-495-1.88Z"/>
              </g>
              <g>
                <path class="cls-4" d="M714.85,514c-237.75,0-477.67-.58-713.08-1.73V512c60.52-.08,122.1-.12,183-.12,248.44,0,499.26.64,746.65,1.9C859.5,513.9,786.92,514,714.85,514Z"/>
                <path d="M184.78,512.39c185.29,0,371.87.36,557.35,1.06H714.76c-185.81,0-372.94-.35-558.2-1.06h28.22m0-1q-91.92,0-183.51.12v1.21c236.62,1.15,475.8,1.73,713.49,1.73q142.18,0,283.42-.27v-.53c-269-1.5-542.2-2.26-813.4-2.26Z"/>
              </g>
              <g>
                <path class="cls-4" d="M773.37,557.76c-188.75-.09-378.51-.49-566.95-1.18C395.09,556.67,584.81,557.07,773.37,557.76Z"/>
                <path d="M123,556.06q-61,0-121.85.05v.1c282.86,1.37,571.72,2.07,856.07,2.07q70.15,0,139.91-.06c-288.61-1.43-583.7-2.16-874.13-2.16Z"/>
              </g>
              <g>
                <path class="cls-4" d="M787.73,601.19c-262.19,0-526.69-.63-786.23-1.88h0c55.68-.06,112.32-.09,168.35-.09,261.14,0,525.13.63,785.44,1.88C899.62,601.16,843.43,601.19,787.73,601.19Z"/>
                <path d="M225.8,599.73c167.79.06,336.55.38,504.51.95-168-.06-336.87-.38-504.51-.95m-55.86-1q-84.63,0-168.93.09v1c260.77,1.25,524.76,1.88,786.68,1.88q105.38,0,210.23-.14v-.74c-274.15-1.39-552.22-2.09-828-2.09Z"/>
              </g>
              <g>
                <path class="cls-4" d="M740.52,644.76c-210.38,0-421.7-.54-629.7-1.61C175.5,643,240.63,643,305.48,643c209.72,0,421.35.54,630,1.61C870.74,644.71,805.4,644.76,740.52,644.76Z"/>
                <path d="M305.54,643.49c144.5,0,289.94.26,434.73.77-145,0-290.45-.26-434.95-.77h.22m-.07-1q-152.94,0-304.6.38V643c244.3,1.49,492.77,2.23,739.54,2.23q129.11,0,257.37-.27v-.55c-229-1.3-461.43-2-692.31-2Z"/>
              </g>
              <g>
                <path class="cls-4" d="M834.39,688.38c-273.83,0-550.6-.65-822.76-1.94,53.17-.05,107.11-.07,160.51-.07,273,0,549.14.65,821,1.94C940.59,688.36,887.21,688.38,834.39,688.38Z"/>
                <path d="M243.31,686.88c172.21.07,345.49.4,517.94,1-172.4-.08-345.66-.41-517.94-1m-71-1q-86,0-171.6.08v.94c276.23,1.32,556.06,2,833.53,2q81.84,0,163.37-.08v-1c-273.55-1.3-550.58-2-825.3-2Z"/>
              </g>
              <g>
                <path class="cls-4" d="M530.81,732.86c-160.69,0-322.67-.48-481.43-1.42h-.33q-22.24-.12-44.45-.27l-3.5,0v-.74c106.69-.43,215.45-.65,323.27-.65,198.73,0,398.72.73,595.62,2.17-115,.55-231,.86-345.89.92H530.81Z"/>
                <path d="M324.4,730.26c168.07,0,337.05.53,504.28,1.56-84.86.31-170,.48-254.57.53h-43.4c-160.53,0-322.48-.48-481.33-1.42h-.32l-22.21-.13c98.41-.36,198.38-.55,297.55-.55m0-1q-162.31,0-323.8.65v1.73q24.2.17,48.45.3h.32c159.78.95,320.72,1.42,481.34,1.42H574.1c141.52-.07,282.69-.52,422.49-1.32-222-1.84-447.38-2.77-672.19-2.77Z"/>
              </g>
              <g>
                <path class="cls-4" d="M739.94,775.41c-210.3,0-421.53-.54-629.44-1.61,64.65-.1,129.76-.15,194.6-.15,209.62,0,421.21.54,629.9,1.61C870.21,775.36,804.84,775.41,739.94,775.41Z"/>
                <path d="M305,774.15c144.54,0,290,.25,434.81.76-145,0-290.45-.25-434.94-.76H305m0-1q-152.94,0-304.56.38v.15c244.28,1.49,492.75,2.23,739.5,2.23q129.13,0,257.41-.27v-.55c-229-1.29-461.47-1.94-692.35-1.94Z"/>
              </g>
              <g>
                <path class="cls-4" d="M620.88,820.36q-158.11-.27-316.17-.71Q462.6,819.91,620.88,820.36Z"/>
                <path d="M.33,818.82v.29c249.12,1,502.1,1.64,752.65,1.93h0q122.63.15,244.25.17h6l-6,0C667.92,819.79,330.73,819,.33,818.82Z"/>
              </g>
              <g>
                <path class="cls-4" d="M850.9,862.83c-202-.13-404.68-.55-605.69-1.28C446.47,861.67,649.3,862.1,850.9,862.83Z"/>
                <path d="M126,861q-59.1,0-117.9,0c318.47,1.54,644.31,2.31,964.38,2.31h24.68v-.45C708.49,861.65,414.85,861,126,861Z"/>
              </g>
            </g>
            <g>
              <path class="cls-5" d="M.2,863.73v-.31c329.52-1.34,666.71,0,996.9,3.92v1.07C666.87,869.48,329.69,867.91.2,863.73Z"/>
              <path class="cls-5" d="M.33,820v-1.12c249.61.14,502.12.88,752.65,2.21h0q122.53.65,244.24,1.49V823C667.39,823.05,331.3,822,.33,820Z"/>
              <path class="cls-5" d="M.46,777v-1.71c331.23,0,667.11,1.45,996.9,4.15v.64C667.57,780.42,331.68,779.38.46,777Z"/>
              <path class="cls-5" d="M.59,734.69V732l48.45,0h.32c174.25-.11,349.65.36,524.61,1.41h.12c141.69.85,283.09,2.07,423.39,3.67v1C667.7,739,331.81,737.9.59,734.69Z"/>
              <path class="cls-5" d="M.73,688.71v-.16c329.52-.27,666.7.85,996.9,3.29v.55C667.42,692.52,330.23,691.28.73,688.71Z"/>
              <path class="cls-5" d="M.86,645.81v-1.22c331,.27,666.46,1.45,996.9,3.47V649C667.32,648.8,331.84,647.74.86,645.81Z"/>
              <path class="cls-5" d="M1,603.15v-1.91c331.11-.17,667.09,1.31,996.9,4.39v.77C668.07,607,332.08,605.86,1,603.15Z"/>
              <path class="cls-5" d="M1.13,557.9v-.13c329.39-.12,666.93,1.05,996,3.43C668,561.36,330.49,560.25,1.13,557.9Z"/>
              <path class="cls-5" d="M1.26,515.13v-.08c329.29.26,665.26,1.17,996.9,2.68v.87C666.51,518.07,330.53,516.9,1.26,515.13Z"/>
              <path class="cls-5" d="M1.4,471v-.15c329.51-.27,666.7.85,996.9,3.29v.55C668.09,474.77,330.89,473.52,1.4,471Z"/>
              <path class="cls-5" d="M1.53,428.4v-.32c329.38-1.44,665.94-.26,996.9,3.41v2.23C667.44,434.5,330.88,432.71,1.53,428.4Z"/>
              <path class="cls-6" d="M1.66,384.57v-1.21c331,.12,667.07,1.4,996.9,3.78v.53C668.72,387.77,332.64,386.73,1.66,384.57Z"/>
              <path class="cls-5" d="M1.8,340v-.1c329.38.14,666.93,1.24,996,3.24C668.71,343,331.16,341.94,1.8,340Z"/>
              <path class="cls-5" d="M1.93,297.27v-1c330.71.15,666.66,1.33,996.9,3.5v.74C668.57,300.44,332.62,299.35,1.93,297.27Z"/>
              <path class="cls-5" d="M2.06,253.2v-.15c329.52-.27,666.7.85,996.9,3.28v.56C668.75,257,331.56,255.77,2.06,253.2Z"/>
              <path class="cls-5" d="M2.19,210.13v-.94c330.55.15,666.3,1.28,996.91,3.33v1C668.47,213.33,332.73,212.2,2.19,210.13Z"/>
              <path class="cls-5" d="M2.33,166.17v-1.73l52-.05h0c172.14-.1,345.62.34,518.59,1.34h.34c142.38.82,284.42,2,425.07,3.56C669.45,170.28,333.05,169.24,2.33,166.17Z"/>
              <path class="cls-5" d="M2.46,122.55v-.15c329.52-.27,666.7.85,996.9,3.28v.56C669.15,126.36,332,125.12,2.46,122.55Z"/>
              <path class="cls-5" d="M2.6,77.26V77c247,.31,497.83,1,746.31,2h.45q125.58.51,250.14,1.14l6,0h-6C670.18,79.81,333,78.83,2.6,77.26Z"/>
              <path class="cls-5" d="M10.57,35.07c326.65.15,661.11,1.13,989.06,2.9v.45C671.66,38.12,337.19,37,10.57,35.07Z"/>
            </g>
          </g>
          <g>
            <g>
              <g>
                <path class="cls-4" d="M999.08,54.19l-35.52-.29,35.52-.23Z"/>
                <path d="M999.58,53.17q-48.78.28-97.36.67,48.57.46,97.36.86V53.17Z"/>
              </g>
              <g>
                <path class="cls-4" d="M998.94,98.46q-49.47-.21-98.81-.45Q950,97.95,999,97.93Z"/>
                <path d="M999.45,97.43q-122.78,0-244.6.3,48.38.28,96.95.54,73.65.38,147.64.69V97.43Z"/>
              </g>
              <g>
                <path class="cls-4" d="M998.81,142c-57.6-.26-114.71-.55-170.76-.88,56.51-.15,113.63-.26,170.76-.32Z"/>
                <path d="M998.31,141.29v.2l-34.16-.16,34.16,0m1-1q-139.47.18-277.83.65,138.22.94,277.82,1.56v-2.21Z"/>
              </g>
              <g>
                <path class="cls-4" d="M971.25,185.27c-62.25-.37-124.12-.81-184.67-1.31,70.8-.44,141.88-.78,212.11-1v2.48Z"/>
                <path d="M998.18,183.44v1.48l-25.89-.14h-1c-37.06-.22-74-.46-110.55-.73,46-.24,91.94-.44,137.48-.6m1-1q-139.47.48-277.83,1.45,124.38,1.14,249.89,1.88,13.95.07,27.93.15v-3.48Z"/>
              </g>
              <g>
                <path class="cls-4" d="M999,229.34q-48.76-.26-97.36-.56,48.57-.14,97.37-.22Z"/>
                <path d="M999.05,228.56q-48.79.09-97.37.22,48.57.3,97.36.56v-.78Z"/>
              </g>
              <g>
                <path class="cls-4" d="M998.41,272.68c-39.67-.16-79.47-.33-119.19-.52,39.75,0,79.56-.05,119.19-.05Z"/>
                <path d="M998.92,271.61q-139.47,0-277.83.25,138.27.76,277.82,1.32v-1.57Z"/>
              </g>
              <g>
                <path class="cls-4" d="M998.28,316.13c-57.56-.29-115.41-.63-172.85-1,57-.22,114.79-.39,172.85-.52Z"/>
                <path d="M997.78,315.09v.54l-67.69-.37,67.69-.17m1-1q-130.66.29-260.29.9,129.53,1,260.28,1.64v-2.54Z"/>
              </g>
              <g>
                <path class="cls-4" d="M998.65,360.1q-48.79-.24-97.37-.52,48.57-.1,97.37-.16Z"/>
                <path d="M998.65,359.42q-48.79.06-97.37.16,48.57.27,97.37.52v-.68Z"/>
              </g>
              <g>
                <path class="cls-4" d="M998.52,402.74q-48.76-.19-97.37-.42h97.37Z"/>
                <path d="M950.64,402.32H901.15q48.58.21,97.37.42v-.42Z"/>
              </g>
              <g>
                <path class="cls-4" d="M998.38,447.1q-48.78-.25-97.36-.56,48.57-.14,97.36-.22Z"/>
                <path d="M998.38,446.32q-48.78.09-97.36.22,48.57.3,97.36.56v-.78Z"/>
              </g>
              <g>
                <path class="cls-4" d="M997.75,489.57l-38.22-.32,38.22-.27Z"/>
                <path d="M998.25,488.48q-48.78.31-97.36.71,48.58.48,97.36.89v-1.6Z"/>
              </g>
              <g>
                <path class="cls-4" d="M997.61,534c-37-.16-74.35-.34-111.67-.53,37.12,0,74.41-.1,111.68-.13Z"/>
                <path d="M998.12,532.8q-122.76.11-244.6.39,121.76.73,244.59,1.27V532.8Z"/>
              </g>
              <g>
                <path class="cls-4" d="M998,578q-48.79-.21-97.36-.45,48.57,0,97.36,0Z"/>
                <path d="M998,577.45q-48.79,0-97.36,0,48.57.24,97.36.45v-.5Z"/>
              </g>
              <g>
                <path class="cls-4" d="M997.35,621q-39.33-.16-77.91-.36l77.91-.06Z"/>
                <path d="M997.85,620.12q-113.46.07-226.13.29,112.59.65,226.13,1.13v-1.42Z"/>
              </g>
              <g>
                <path class="cls-4" d="M997.72,664.87q-48.79-.27-97.37-.57,48.57-.13,97.37-.22Z"/>
                <path d="M997.72,664.08q-48.78.09-97.37.22,48.57.3,97.37.57v-.79Z"/>
              </g>
              <g>
                <path class="cls-4" d="M997.08,708.13l-67.67-.31,67.67-.05Z"/>
                <path d="M997.59,707.27q-110.46,0-220.14.26,109.63.62,220.13,1.1v-1.36Z"/>
              </g>
              <g>
                <path class="cls-4" d="M997,753l-29.64-.17c-38.12-.22-76.15-.48-113.73-.75,47.58-.23,95.56-.42,143.37-.56Z"/>
                <path d="M996.45,752v.48l-29.14-.17-22.68-.14,51.82-.17m1-1q-110.48.33-220.13,1,94.62.79,190,1.35l30.13.17V751Z"/>
              </g>
              <g>
                <path class="cls-4" d="M997.32,795.52q-48.8-.25-97.37-.56,48.57-.13,97.37-.23Z"/>
                <path d="M997.32,794.73q-48.78.09-97.37.23,48.57.3,97.37.56v-.79Z"/>
              </g>
              <g>
                <path class="cls-4" d="M997.18,840.8q-77.55-.28-154.62-.62h-2.74q78.4,0,157.36.08Z"/>
                <path d="M839.82,840.17h2.74q77,.33,154.62.61v-.54q-78.91-.06-157.36-.08Z"/>
              </g>
              <g>
                <path class="cls-4" d="M997.05,882.76l-71.52-.33q35.7,0,71.52,0Z"/>
                <path d="M997.05,882.4l-71.52,0,71.52.33v-.36Z"/>
              </g>
            </g>
            <g>
              <path class="cls-5" d="M997,886.06q-48.79-.55-97.36-1.19,48.57-.21,97.36-.34Z"/>
              <path class="cls-5" d="M997.17,841.8q-122.76-.7-244.58-1.6l90,0q77.1,0,154.62.09Z"/>
              <path class="cls-5" d="M997.31,798.94q-139.47-.9-277.82-2.11,138.22-.21,277.82-.1Z"/>
              <path class="cls-5" d="M997.43,756.79Q858,755.58,719.62,753.88q123.28-.48,247.69-.56h30.14Z"/>
              <path class="cls-5" d="M997.58,710.67q-48.78-.34-97.37-.73,48.57,0,97.37-.05Z"/>
              <path class="cls-5" d="M997.71,667.63q-139.46-.75-277.82-1.72,138.26,0,277.82.14Z"/>
              <path class="cls-5" d="M997.84,625.14q-130.65-1-260.28-2.27,129.53-.3,260.28-.27Z"/>
              <path class="cls-5" d="M998,579.82l-97.36-.67q48.57,0,97.37,0Z"/>
              <path class="cls-5" d="M998.11,536.92q-48.78-.24-97.37-.51l97.37.09Z"/>
              <path class="cls-5" d="M998.24,492.92q-48.78-.35-97.36-.73,48.57,0,97.36-.06Z"/>
              <path class="cls-5" d="M998.37,450.76q-48.78-.57-97.36-1.22,48.59-.23,97.36-.38Z"/>
              <path class="cls-6" d="M998.5,406.44q-122.75-.74-244.59-1.68,121.76-.09,244.6,0Z"/>
              <path class="cls-5" d="M998.64,361.8l-97.36-.56,97.36.05Z"/>
              <path class="cls-5" d="M998.77,319.12q-113.47-.66-226.13-1.47,112.61-.06,226.13.05Z"/>
              <path class="cls-5" d="M998.9,275.17q-48.76-.35-97.36-.73,48.57-.06,97.37-.06Z"/>
              <path class="cls-5" d="M999,232q-110.46-.63-220.13-1.42,109.64,0,220.13.07Z"/>
              <path class="cls-5" d="M999.17,188.24Q888.7,187.33,779,186.12q95.73-.3,192.21-.35l27.93,0Z"/>
              <path class="cls-5" d="M999.3,144.52q-48.78-.35-97.36-.74,48.57,0,97.37-.05Z"/>
              <path class="cls-5" d="M999.44,99q-78.91-.36-157.36-.76l9.72,0q73.58.06,147.64.19Z"/>
              <path class="cls-5" d="M999.57,56.86l-71.52-.41,71.52,0Z"/>
            </g>
          </g>
          <g>
            <g>
              <g>
                <path class="cls-4" d="M3.29,13.82c60.58.35,121.33.78,181.31,1.29-60.4.41-121.16.72-181.32.95Z"/>
                <path d="M3.79,14.32c36.69.21,73.44.45,110,.73-36.73.2-73.48.37-110,.51V14.32m-1-1v3.24Q124.91,16.11,246,15.17,125,14,2.79,13.32Z"/>
              </g>
              <g>
                <path class="cls-4" d="M3.15,59.63q48.2.19,97.26.44-48.48,0-97.26.07Z"/>
                <path d="M2.65,59.13v1.51q122.09-.06,243.25-.3Q124.82,59.63,2.65,59.13Z"/>
              </g>
              <g>
                <path class="cls-4" d="M3,102.41c45.09.22,90.33.46,135.32.72-45,.12-90.26.21-135.32.27Z"/>
                <path d="M2.52,101.91v2q122.07-.18,243.24-.59-121.08-.82-243.24-1.4Z"/>
              </g>
              <g>
                <path class="cls-4" d="M2.89,144.21c58.81.34,118.17.76,177.23,1.25-59.47.37-118.84.66-177.23.89Z"/>
                <path d="M3.39,144.71q50.91.3,102.29.67c-34.27.18-68.43.34-102.29.47v-1.14m-1-1v3.15q122.09-.47,243.26-1.32Q124.56,144.42,2.39,143.7Z"/>
              </g>
              <g>
                <path class="cls-4" d="M2.75,190.23c38.19.16,76.4.34,114.38.54-38,.06-76.23.1-114.38.13Z"/>
                <path d="M2.25,189.73v1.67q122.12-.09,243.25-.41-121-.75-243.25-1.26Z"/>
              </g>
              <g>
                <path class="cls-4" d="M2.62,234.49v-.73c53.46.21,107.05.43,160.4.68-47.63,0-95.57.06-143.53.06Z"/>
                <path d="M2.12,233.26V235H19.84q151.45,0,301.68-.24-158.86-.88-319.4-1.49Z"/>
              </g>
              <g>
                <path class="cls-4" d="M2.49,276c51.61.27,103.66.58,155.54.93-52.13.2-104.17.36-155.54.48Z"/>
                <path d="M3,276.52l50.19.28L3,276.92v-.4m-1-1v2.41q122.1-.29,243.25-.86Q124.15,276.15,2,275.52Z"/>
              </g>
              <g>
                <path class="cls-4" d="M2.35,321.4l22.81.1-22.81,0Z"/>
                <path d="M1.85,320.9V322q88.47-.06,176.32-.23-87.79-.51-176.32-.89Z"/>
              </g>
              <g>
                <path class="cls-4" d="M135.45,364.74q-66.75-.06-133.23-.16v-.27Q68.93,364.51,135.45,364.74Z"/>
                <path d="M1.72,363.81v1.27q183.09.26,364.67.26h44.26c-135.4-.62-272-1.13-408.93-1.53Z"/>
              </g>
              <g>
                <path class="cls-4" d="M2.09,408c38.34.16,76.7.34,114.86.54-38.08.06-76.45.1-114.86.13Z"/>
                <path d="M1.59,407.49v1.67q122.13-.07,243.25-.41-121-.75-243.24-1.26Z"/>
              </g>
              <g>
                <path class="cls-4" d="M2,448.68c86.54.42,173.78,1,260.1,1.79-85.72.61-173,1.06-260.11,1.33Z"/>
                <path d="M2.46,449.19c64.13.31,128.64.72,192.93,1.22-63.91.39-128.44.69-192.93.89v-2.11m-1-1v4.12q160.44-.49,319.41-1.78Q162.1,449,1.46,448.18Z"/>
              </g>
              <g>
                <path class="cls-4" d="M1.82,495c36,.15,72.58.33,109.61.51-36.63.06-73.23.1-109.61.13Z"/>
                <path d="M1.32,494.46v1.64q122.09-.09,243.25-.39Q123.49,495,1.32,494.46Z"/>
              </g>
              <g>
                <path class="cls-4" d="M1.18,540v-.83q88.47.35,176.32.78Q89.7,540,1.18,540Z"/>
                <path d="M1.19,539.12V540H40.81q68.55,0,136.7-.06-87.81-.43-176.32-.78Z"/>
              </g>
              <g>
                <path class="cls-4" d="M1.56,582.2c44.93.18,89.86.37,134.48.59-45,0-90,.07-134.49.08Z"/>
                <path d="M1.06,581.7v1.67q142.31,0,283.4-.3-141-.81-283.39-1.37Z"/>
              </g>
              <g>
                <path class="cls-4" d="M1.42,625.75q57.44.25,114.38.54c-37.91.06-76.11.1-114.38.13Z"/>
                <path d="M.92,625.25v1.67q122.12-.09,243.25-.4-121-.76-243.25-1.27Z"/>
              </g>
              <g>
                <path class="cls-4" d="M1.29,670.07v-.81c58.14.22,116.05.46,173.27.73-54,0-108.38.08-162.66.08Z"/>
                <path d="M.79,668.76v1.81h10q158.6,0,315.84-.29-162-.91-325.86-1.52Z"/>
              </g>
              <g>
                <path class="cls-4" d="M1.16,713c33.42.2,66.56.42,99.15.66-32.81.16-65.95.3-99.16.41Z"/>
                <path d="M1.66,713.46l7.14,0-7.15,0v-.07m-1-1v2.08q88.46-.31,176.33-.82Q89.14,713,.66,712.46Z"/>
              </g>
              <g>
                <path class="cls-4" d="M1,756.41c38.25.16,76.47.34,114.46.53-37.94.06-76.16.11-114.46.14Z"/>
                <path d="M.53,755.91v1.67q122.12-.09,243.25-.41-121-.75-243.24-1.26Z"/>
              </g>
              <g>
                <path class="cls-4" d="M.38,802.8v-.62q91.95.33,183.25.72Q92.37,802.89.38,802.8Z"/>
                <path d="M.38,802.18v.62q91.94.08,183.25.1-91.26-.39-183.25-.72Z"/>
              </g>
              <g>
                <path class="cls-4" d="M.75,844.49v-.09l30.87.11Z"/>
                <path d="M.26,843.9V845q76.36.06,152.36.06,58.5,0,116.74,0Q135.53,844.37.26,843.9Z"/>
              </g>
            </g>
            <g>
              <path class="cls-5" d="M.24,850.42v-3.24q122.12,1.1,243.24,2.67Q122.47,850.38.24,850.42Z"/>
              <path class="cls-5" d="M.38,804.61V803.1q122.1.69,243.24,1.58Q122.56,804.74.38,804.61Z"/>
              <path class="cls-5" d="M.51,761.83v-2q122.09.81,243.24,1.87Q122.67,761.89.51,761.83Z"/>
              <path class="cls-5" d="M.63,720V716.9q122.09,1.1,243.24,2.59Q122.8,720,.63,720Z"/>
              <path class="cls-5" d="M.78,674v-1.67Q122.9,673.08,244,674,123,674.15.78,674Z"/>
              <path class="cls-5" d="M.91,630.48v-1.73q160.38.82,319.4,1.93Q161.45,630.73.91,630.48Z"/>
              <path class="cls-5" d="M1,588.23v-2.41q122.09.93,243.24,2.14Q123.21,588.24,1,588.23Z"/>
              <path class="cls-5" d="M1.18,542.85v-1.12q88.47.53,176.32,1.16Q89.69,542.93,1.18,542.85Z"/>
              <path class="cls-5" d="M1.31,499.94v-1.27c137,.53,273.54,1.16,408.93,1.9C274.84,500.47,138.27,500.26,1.31,499.94Z"/>
              <path class="cls-5" d="M1.44,456.26v-1.67q122.12.74,243.24,1.69Q123.67,456.39,1.44,456.26Z"/>
              <path class="cls-5" d="M1.56,415.57l0-4.12Q162,412.79,321,414.91,162.21,415.65,1.56,415.57Z"/>
              <path class="cls-6" d="M1.71,369.3v-1.65q122.1.74,243.24,1.67Q123.89,369.41,1.71,369.3Z"/>
              <path class="cls-5" d="M1.84,324.63v-.83q88.48.45,176.33,1Q90.35,324.75,1.84,324.63Z"/>
              <path class="cls-5" d="M2,282.06v-1.67q142.29.78,283.39,1.79Q144.39,282.24,2,282.06Z"/>
              <path class="cls-5" d="M2.1,238.51v-1.67q122.12.74,243.24,1.68Q124.35,238.64,2.1,238.51Z"/>
              <path class="cls-5" d="M2.24,195v-1.8q163.65.84,325.86,2Q166.07,195.25,2.24,195Z"/>
              <path class="cls-5" d="M2.37,151.31v-2.08Q90.82,150,178.7,151,90.86,151.24,2.37,151.31Z"/>
              <path class="cls-5" d="M2.5,107.86v-1.67q122.12.72,243.24,1.68Q124.73,108,2.5,107.86Z"/>
              <path class="cls-5" d="M2.65,61.59V61q91.94.39,183.24.86Q94.63,61.74,2.65,61.59Z"/>
              <path class="cls-5" d="M2.77,19.86V18.78q135.14.6,269.08,1.39Q138.06,20.11,2.77,19.86Z"/>
            </g>
          </g>
        </g>
        <g>
          <g>
            <g>
              <image class="cls-7" width="361" height="496" transform="translate(341.5 150)" xlink:href="youlose1.png"/>
              <rect class="cls-8" x="352.5" y="160.52" width="325.01" height="461.37" transform="translate(-5.02 6.7) rotate(-0.74)"/>
            </g>
            <g>
              <path d="M378.06,187.58l18.93-.1a1.76,1.76,0,0,1,1.53.81,84.61,84.61,0,0,1-.19,11.21l-.79.42-4.74.2c-1.93.18-2.89.77-2.88,1.75l-.06,10.84.21.78-.34,4.43.6.41a1.25,1.25,0,0,0,1.31-.43l1.68-2.7,1.15-3.33,8.93-18.43a1.72,1.72,0,0,1,2.62-.73L412,210a1.57,1.57,0,0,0,1.6.9c.61-.19,1-1.31,1.28-3.34q.11-6.69.63-7.11l0-2-1.33-1-4-.08c-.62,0-.81-1-.57-2.9l.25-6.33c.26-.61.58-.93,1-.93a11.28,11.28,0,0,1,3.43.37,8.84,8.84,0,0,1,3.23-.32l14.57-.19a1.29,1.29,0,0,1,1.15,1.6L433,191c.4.28.63,2.81.69,7.61l-.79.7-9.36,0-1.11.57-.39.51-1.72,15.52a2.13,2.13,0,0,0,1,2.44l.93.21,5.74.07c.4,0,.59.18.6.54l.44,8.67,0,1.89-.72.52-6.53.36-6.26.08a4.7,4.7,0,0,1-2.12-.62l-2.56-4.39-3.95-9.45L403.81,210c-.14-.27-.54-.36-1.19-.26-.36,0-1,1.26-2,3.76q-4.1,9.28-6.9,17c-.13.34-.83.56-2.11.67q-10.28.41-13,0c-.75-.08-1.06-.92-.95-2.53l.11-6.69a1,1,0,0,1,.91-.51q5.16.57,4.18-3.7l-.42-2-.91-13.92c-.27-1-1.82-1.59-4.63-1.65-.4-.27-.61-.94-.62-2l.07-9.87A1.92,1.92,0,0,1,378.06,187.58Z"/>
              <path d="M435.83,187.07l13.58,0q6.91-.65,7.52-.1,1.6,6.72,2.41,7.95c.15,1.11,0,1.66-.37,1.67l-2.11.44-1.17,1c-.13.44.34,1.47,1.42,3.12l4,6.41,2.82,3.56a41.58,41.58,0,0,0,4.24,6.68,6.36,6.36,0,0,0,2.58.8l4.09-.2.8.55q-.27,9.78.13,10.05c-.26.65-.58,1-1,1l-5.47.08-1.79-.4-1.77.44-12,.43c-2.11,0-3.17-.19-3.17-.65l-.49-7.14.18-1.53,1.77-.43q1.58-.58-1.63-4.09c.25-.83.18-1.34-.22-1.52l-6.26.36L442.17,219v.84l1,.67c1.94.07,3.17.42,3.71,1.06.59,4.58.62,6.91.09,7l-10.22.41-8.44.11c-.92-.08-1.39-.35-1.39-.81l-.46-4.93,0-2.49.78-.57,3.56,0q1,.12,2.66-3.22l.77-2,4.05-7.75a45,45,0,0,1,3.27-7.38v-.83l-1-.68-3.56-.05c-.79-.08-1.07-1.23-.83-3.44l-.87-5.53-.61-1.75.19-.27ZM446,210.88V212l.8.55a2.88,2.88,0,0,0,2.76-.73c.26-.19,0-1.11-.82-2.76l-.61-.68c-.92-.08-1.38,0-1.38.29Z"/>
              <path d="M479.57,219a23.13,23.13,0,0,0,5.14-.06c.92-.08,1.38-.74,1.36-2l.16-12.82-.05-4.15-.94-1-3.63-.23a1,1,0,0,1-.6-.92,73.36,73.36,0,0,0,.47-9.5l.9-1.49,3.29-.6a71.33,71.33,0,0,0,9-.12l1.13.4,11.75,21.26,1,.49.72-.51.32-6.05-.05-3.88c-.14-.7-1.62-1.13-4.44-1.28-.75-.33-1-1.21-.76-2.66l.11-6.92a1.07,1.07,0,0,1,1.11-1l10.35-.27a50.44,50.44,0,0,0,8.18-.24c.52,0,.86.17,1,.54l.26,4.42.56,3,0,2.68-.72.56-7.25.51a2.38,2.38,0,0,0-1.56,1.86l-.41,9.1.07,5.21a2.57,2.57,0,0,0,1.33,1.09l4.75,0c.79.08,1.13.57,1,1.46l.36,12.31c-.13.47-.52.73-1.18.8a29.24,29.24,0,0,0-6.66.23l-7.45.09-1.13-.49q-9.46-18.33-11.25-23.38l-.53-.41a1.19,1.19,0,0,0-1.37.8l-1,10.07c-.12,1.42.09,2.17.62,2.26l.73.26,2.9,0c.75.09,1,.93.76,2.53l-.43,8.31-.78.38-2.84.17a76,76,0,0,0-9.95.27l-1.32-.26-2.91-.1c-.53-.24-.79-.54-.8-.91.2-5.26.16-8.34-.12-9.22Z"/>
              <path d="M531.37,185.51q14.57.09,35.14-.46c1.28,0,2,.21,2.32.66l-.46,10.16-.58,1.53.25,3.92a1.61,1.61,0,0,1-.91.84l-5.67.35h-1.32c-.92,0-1.33-.88-1.22-2.7l-1.39-.54-3.63.19c-1.17.81-1.63,1.31-1.36,1.49l-1,15.61.23,2.07,1,.49,6.6-.08c.65-.1,1.06.54,1.21,1.92l-.18,1.34.27,5.67c-.13.65-.58,1-1.38,1l-10.28.27h-11.8c-.67-.17-1.14-.93-1.42-2.28l.55-3.52q-.42-2.07,0-2.58l1.18-.43,4.81.08a1.89,1.89,0,0,0,1.36-2.05l.25-11.54-.26-4.74-1.59-.95h-1.19c-.88.2-1.37,1.11-1.48,2.74-.26.28-.85.38-1.78.3l-6.4.09-.73-.55c.14-10.12.06-15.68-.21-16.69l.38-1.35Z"/>
              <path d="M608.12,184.33c1.45-.11,2.31,0,2.57.38l.1,7.06.47,1.38-.42,3,.07,5.49-.58,1-3,.5-2.77,0-.86-.59c.24-1.78-.37-2.85-1.82-3.2l-6.07.07-2,1,.68,1.7,1.2.67,3.62,0q.79,0,.81,1.14l-.14,4.66-1,.43-6.66.22c-1.49.58-2.16,1.2-2,1.87q-.56,3.24,1.5,3.77c4,0,6.46-.09,7.25-.37q1.18,0,1.74-3.39l1.24-.43,4.22-.06a1.14,1.14,0,0,1,1,.82l0,12.82c.86,1.87.28,2.81-1.74,2.84l-4.49.06-4.61.52-4,.05q-.2.42-17.33,1.19c-1.1.2-1.85,0-2.25-.52l.72-10.48.79-.43,3.23,0,1.18-.71q.42-13,.18-16.51c-.4-.83-2-1.13-4.63-.91a.84.84,0,0,1-.8-.87l-.62-12.4a1.5,1.5,0,0,1,1.24-.71Q593.82,185.07,608.12,184.33Z"/>
              <path d="M625.06,184q13.46.09,15.18.49a39.37,39.37,0,0,1,8.79,2,10.23,10.23,0,0,1,4.72,2.8c1,2.27,1.37,3.85,1.25,4.74l.61,1.24a3.69,3.69,0,0,1-.36,2.44q.42,2.58,0,16.1-1.34,13.26-14.06,14.26l-17.14.08-3.3-.23a10.42,10.42,0,0,1-3.37,0,1.23,1.23,0,0,1-1.13-1l-.47-5.43,0-1.75.59-.43,4.82.08c.39,0,.91-.38,1.56-1.13q-.5-7.92-.23-18a2.79,2.79,0,0,0-1.73-1l-5.27.21c-.53-.18-.8-.41-.8-.69l-.05-3.55L615,194l.15-4.34.54-4c.12-.74.75-1.12,1.9-1.13Zm5.05,28.07c0,4.55.66,7,1.8,7.22l8.57-.53q5.07-.75,6.37-7.46a12.14,12.14,0,0,0-2.6-7.49,8.14,8.14,0,0,0-4.91-1.68c-5.1.06-7.9.47-8.42,1.21l-.57,2,.06,5Z"/>
            </g>
            <g class="cls-9">
              <g>
                <rect class="cls-10" x="458.4" y="416.52" width="121.28" height="165.41" transform="translate(-6.42 6.76) rotate(-0.74)"/>
                <path class="cls-11" d="M513.5,486.13l38.88-57.33a3.62,3.62,0,0,0-2.48-5.61l-60-8.66a3.62,3.62,0,0,0-4,4.68l21.15,66A3.61,3.61,0,0,0,513.5,486.13Z"/>
                <g>
                  <path class="cls-12" d="M554.31,298.4,590,287.88a9.93,9.93,0,0,1,12.29,6.72l4.31,14.66a9.84,9.84,0,0,1,.35,1.83,10,10,0,0,0-.37-3.42L602.23,293a9.92,9.92,0,0,0-12.29-6.72L554.29,296.8a10,10,0,0,0-7,10.5A9.93,9.93,0,0,1,554.31,298.4Z"/>
                  <path class="cls-13" d="M606.56,309.26l-4.31-14.66A9.93,9.93,0,0,0,590,287.88L554.31,298.4a9.93,9.93,0,0,0-7.07,8.9,9.79,9.79,0,0,0,.36,3.42l4.31,14.66a9.93,9.93,0,0,0,12.3,6.72l35.65-10.51a10,10,0,0,0,7-10.5A9.84,9.84,0,0,0,606.56,309.26Z"/>
                </g>
                <g>
                  <path class="cls-12" d="M475,297.41l-35.91-9.59a9.92,9.92,0,0,0-12.12,7l-.28,1.07a9.92,9.92,0,0,1,11.92-6.44l31.3,8.36A10,10,0,0,1,477,310L473,324.75a9.92,9.92,0,0,1-6.24,6.77,9.93,9.93,0,0,0,11.33-7.2L482,309.55A9.94,9.94,0,0,0,475,297.41Z"/>
                  <path class="cls-13" d="M473,324.75,477,310a10,10,0,0,0-7-12.14l-31.3-8.36a9.92,9.92,0,0,0-11.92,6.44c-.07.2-.14.39-.2.59l-3.92,14.77a10,10,0,0,0,7,12.15l31.29,8.35a9.79,9.79,0,0,0,5.88-.26A9.92,9.92,0,0,0,473,324.75Z"/>
                </g>
                <rect class="cls-13" x="458.72" y="300.22" width="115.77" height="18.89" rx="2.73" transform="translate(-3.97 6.71) rotate(-0.74)"/>
                <ellipse class="cls-14" cx="514.57" cy="357.18" rx="55.25" ry="74.49" transform="translate(-4.51 6.58) rotate(-0.73)"/>
                <path class="cls-13" d="M563,306l-16.74-41c-2.52-6.15-7-9.89-11.82-9.83l-40.25.52c-4.8.07-9.2,3.92-11.55,10.13l-15.69,41.39Z"/>
                <path class="cls-12" d="M559.75,296.46c-37.31,12.46-54.51,11.56-91,1l.4-1.51c36.19,10.39,53.09,11.6,90.16-1C559.48,295.45,559.61,296,559.75,296.46Z"/>
                <path class="cls-15" d="M535.94,398c-13.83-4.4-25.43-3.64-39.25.48a.56.56,0,0,1-.75-.43c-.09-.28,0,.05,0,0a.57.57,0,0,1,.46-.76c14-4.11,25.79-4.88,39.86-.45.47.15.52.4.46.69s0-.05,0,0A.58.58,0,0,1,535.94,398Z"/>
                <path class="cls-16" d="M478.75,289.73h0a1.49,1.49,0,0,0,1.94-.82l11.85-29.25a1.5,1.5,0,0,0-.82-2h0a1.49,1.49,0,0,0-1.94.82l-11.85,29.25A1.5,1.5,0,0,0,478.75,289.73Z"/>
                <rect class="cls-16" x="497.73" y="249.9" width="2.99" height="18.18" rx="0.43" transform="translate(751.78 -243.53) rotate(89.26)"/>
                <path class="cls-16" d="M428.38,319.73h0a1.49,1.49,0,0,0,1.05,1.84L459.8,330a1.48,1.48,0,0,0,1.83-1h0a1.5,1.5,0,0,0-1-1.84l-30.37-8.38A1.5,1.5,0,0,0,428.38,319.73Z"/>
                <path class="cls-10" d="M429.06,537.28h0a17.51,17.51,0,0,1-11.18-22l27.64-85.22a17.48,17.48,0,0,1,22-11.21h0a17.52,17.52,0,0,1,11.18,22L451,526.07A17.47,17.47,0,0,1,429.06,537.28Z"/>
                <path class="cls-10" d="M558.07,424.19h0a17.38,17.38,0,0,1,24.36-3.46L665,483.17a17.6,17.6,0,0,1,3.45,24.49h0a17.38,17.38,0,0,1-24.36,3.46l-82.56-62.44A17.6,17.6,0,0,1,558.07,424.19Z"/>
                <path class="cls-17" d="M520.58,470.76h0a1.33,1.33,0,0,1-.35-1.84l28-41.28a1.33,1.33,0,0,1,1.84-.35h0a1.33,1.33,0,0,1,.35,1.84l-28,41.28A1.33,1.33,0,0,1,520.58,470.76Z"/>
                <path class="cls-17" d="M495.49,431.57h0c.33-.64.5-1.21,1.91-.55,20.66,9.68,16.8,11,37.58-1.71,1.42-.87,1.55-.25,1.94.34h0c.38.6,1,.91-.49,1.81-21.54,13.28-19,11.88-40.24,1.85C494.74,432.62,495.16,432.21,495.49,431.57Z"/>
                <path class="cls-17" d="M505.79,443.89h0c.15-.46.2-.85,1.22-.58,14.94,4.09,12.49,5.41,25.08-5.34.85-.74,1-.34,1.34,0h0c.32.35.75.49-.14,1.25-13,11.2-11.45,10-26.84,5.73C505.4,444.67,505.64,444.35,505.79,443.89Z"/>
                <path d="M540.3,392.19c-5.69-12.26,3.24-4.17-23.54-.95a24,24,0,0,1-.17-5.29c26.09-2.22,15.65-9.57,26,2.35C541.23,389.26,541.73,391.3,540.3,392.19Z"/>
                <path d="M491.14,392.82c5.37-12.4-3.35-4.07,23.5-1.55a23.48,23.48,0,0,0,0-5.3c-26.13-1.54-15.89-9.15-25.88,3C490.13,389.93,489.68,392,491.14,392.82Z"/>
                <path class="cls-18" d="M550.26,357.92l-15.87,6.48a10.12,10.12,0,0,1-13.17-5.58L519.28,354a10.18,10.18,0,0,1,5.55-13.22l15.88-6.48a10.12,10.12,0,0,1,13.17,5.58l1.94,4.78A10.19,10.19,0,0,1,550.26,357.92Z"/>
                <path class="cls-18" d="M486.17,359.24l13.53,5.12a11.46,11.46,0,0,0,14.74-6.7l.88-2.32a11.53,11.53,0,0,0-6.68-14.8l-13.53-5.12a11.46,11.46,0,0,0-14.75,6.7l-.87,2.32A11.54,11.54,0,0,0,486.17,359.24Z"/>
                <ellipse cx="508.85" cy="347.43" rx="1.19" ry="1.2"/>
                <ellipse cx="524.45" cy="347.23" rx="1.19" ry="1.2"/>
              </g>
            </g>
            <g>
              <path d="M404.5,454.23q6.48,0,7.31.18a22,22,0,0,1,4.24.79,5.17,5.17,0,0,1,2.28,1.13,3.9,3.9,0,0,1,.59,1.91l.3.5a1.34,1.34,0,0,1-.18,1,47.29,47.29,0,0,1,0,6.52q-.67,5.36-6.8,5.78l-8.27.05-1.59-.09a6.42,6.42,0,0,1-1.62,0,.57.57,0,0,1-.54-.39l-.22-2.2v-.71l.28-.17,2.32,0a1.39,1.39,0,0,0,.76-.46,71.64,71.64,0,0,1-.09-7.3,1.53,1.53,0,0,0-.83-.42l-2.55.09c-.25-.07-.38-.16-.38-.27l0-1.44.18-.51.08-1.75.26-1.61c.06-.3.37-.45.92-.46Zm2.4,11.35c0,1.84.31,2.81.87,2.92l4.13-.22a3.49,3.49,0,0,0,3.07-3,4.37,4.37,0,0,0-1.24-3,4.32,4.32,0,0,0-2.36-.68c-2.46,0-3.82.2-4.07.5l-.27.82,0,2Z"/>
              <path d="M438.33,453.83c.7-.05,1.11,0,1.24.15l0,2.85.22.56-.2,1.22,0,2.22-.28.39-1.46.21h-1.34l-.42-.23a1,1,0,0,0-.87-1.3l-2.93,0-1,.41.33.68.58.27,1.74,0c.26,0,.39.15.39.46l-.07,1.89-.47.17-3.21.1c-.72.23-1.05.49-1,.76-.18.87.06,1.38.72,1.52a17.94,17.94,0,0,0,3.49-.16c.39,0,.67-.46.84-1.37l.61-.18,2,0a.5.5,0,0,1,.48.33l0,5.19c.42.75.14,1.13-.84,1.15l-2.16,0-2.22.22-1.94,0c-.07.11-2.85.27-8.36.49-.53.09-.89,0-1.08-.2l.35-4.25.38-.17,1.56,0,.57-.29c.15-3.5.18-5.72.1-6.68-.19-.33-.93-.45-2.23-.36-.25,0-.38-.15-.38-.35l-.29-5c.08-.15.28-.25.6-.29Q431.43,454.14,438.33,453.83Z"/>
              <path d="M446.15,453.93l6.55,0a12.39,12.39,0,0,1,3.62,0,13.46,13.46,0,0,0,1.16,3.22c.07.45,0,.67-.18.67l-1,.18-.57.4q-.09.27.69,1.26l1.91,2.59,1.35,1.44a16.89,16.89,0,0,0,2,2.7,3.69,3.69,0,0,0,1.24.32l2-.08.39.22c-.09,2.63-.08,4,.05,4.06-.12.27-.28.4-.47.4l-2.64,0-.86-.16-.86.18-5.78.18c-1,0-1.53-.07-1.53-.26l-.23-2.89.09-.61.85-.18q.76-.24-.78-1.65c.12-.34.09-.55-.1-.62l-3,.15-.84,1.45v.34l.48.27a2.85,2.85,0,0,1,1.79.43c.28,1.85.29,2.79,0,2.83l-4.93.18-4.07,0c-.45,0-.67-.14-.67-.33l-.22-2v-1l.38-.23,1.71,0c.32,0,.75-.4,1.29-1.3l.37-.83,2-3.14a17.18,17.18,0,0,1,1.59-3v-.33l-.48-.28h-1.71c-.39,0-.52-.5-.4-1.4l-.41-2.23-.3-.71.09-.11Zm4.86,9.62V464l.38.22a1.52,1.52,0,0,0,1.33-.3q.19-.1-.39-1.11l-.29-.28c-.45,0-.67,0-.67.12Z"/>
              <path d="M471.77,453.36q6.5,0,7.32.18a22.15,22.15,0,0,1,4.24.79,5.17,5.17,0,0,1,2.27,1.12,3.9,3.9,0,0,1,.6,1.92l.29.5a1.25,1.25,0,0,1-.18,1,45.46,45.46,0,0,1,0,6.51q-.66,5.37-6.8,5.78l-8.26.06-1.59-.1a5.59,5.59,0,0,1-1.62,0,.57.57,0,0,1-.55-.38l-.22-2.2v-.71l.29-.17,2.32,0a1.37,1.37,0,0,0,.75-.46,71.64,71.64,0,0,1-.09-7.3,1.5,1.5,0,0,0-.83-.42l-2.54.09q-.39-.11-.39-.27l0-1.44.19-.51.07-1.75.27-1.61c.06-.3.36-.45.91-.46Zm2.41,11.35c0,1.84.31,2.81.86,2.92l4.13-.22a3.5,3.5,0,0,0,3.08-3,3.29,3.29,0,0,0-3.61-3.7c-2.46,0-3.81.19-4.06.5l-.28.82,0,2Z"/>
              <path d="M504.68,453l4.07-.06,2.45.18a15,15,0,0,1,2.71.49l1.08.47a6.21,6.21,0,0,1,1.51,3.21,24.58,24.58,0,0,0,.06,4.66c-.14,4.32-.56,6.75-1.28,7.28a5.1,5.1,0,0,1-2.33,1,22.81,22.81,0,0,1-4.61.54h-4.67l-2.26-.24a5.82,5.82,0,0,1-2.66-1.4,5.88,5.88,0,0,1-1.3-2.32l-.51-4.49L497,459l.51-2.24.71-1.28a7.45,7.45,0,0,1,2.49-1.73C503,453.12,504.32,452.86,504.68,453Zm-2.87,7.13a10.28,10.28,0,0,0,.6,4.34l.45.53a5.69,5.69,0,0,0,2.27.81,10.29,10.29,0,0,0,4.41-.84c.48-.44.72-.75.72-.92l.32-2,0-2.59a3.07,3.07,0,0,0-.81-1.32l-1.09-.47-2.54.14-2,.25a4.1,4.1,0,0,0-1.77.7A4.2,4.2,0,0,0,501.81,460.1Z"/>
              <path d="M517,452.94h3l2.22-.12c2,0,4,0,6-.08a7.58,7.58,0,0,1,4.54,1.62c.68.68,1,1.07,1,1.18l.19,2,0,2a2.66,2.66,0,0,1-.8,1.6l-.73.44c-.86.22-1.36.46-1.48.73l.29.2c.87.14,1.39.44,1.57.91l.3,1.14c-.12.76,0,1.25.4,1.47l.63-.07.19-.37.08-1.22a1.21,1.21,0,0,1,1-.27l1,0,.29.16c.1,2.83-.07,4.62-.5,5.39-.36.4-1.34.67-2.95.8a16.72,16.72,0,0,1-3.25-.18,3.63,3.63,0,0,1-1.5-.64,2.38,2.38,0,0,1-.65-1.07l-.78-4.08-.59-.9a2.37,2.37,0,0,0-2-.52c-.32.1-.52.74-.61,1.91-.18.84,0,1.32.65,1.45l1.31-.05.44.14v3.71c-.19.26-.62.37-1.3.34l-7,0-.38-.2,0-2.36-.17-.59c-.07-.47,0-.73.15-.77l2-.08.35-.32a45.75,45.75,0,0,0-.63-6.75,1,1,0,0,0-.67-.53l-2.14-.18c-.36-.22-.48-.38-.35-.5l0-1.08.5-3.44C516.09,453.28,516.27,453,517,452.94Zm8.59,4.89c-.18,1.12.14,1.77.94,1.95,1.62.05,2.53-.33,2.76-1.14l0-1.34c-.11-.38-.76-.68-2-.91-.87-.06-1.36,0-1.46.24Z"/>
              <path d="M551.48,452.57l6.55,0c2.22-.18,3.43-.2,3.62-.05a13.37,13.37,0,0,0,1.16,3.22c.07.44,0,.67-.18.67l-1,.18-.57.4q-.09.26.69,1.26l1.91,2.59,1.35,1.44a16.46,16.46,0,0,0,2,2.69,3.27,3.27,0,0,0,1.24.32l2-.08.39.22c-.1,2.64-.08,4,0,4.07-.12.26-.28.4-.47.4l-2.64,0-.86-.15-.86.17-5.78.19c-1,0-1.53-.07-1.53-.26l-.23-2.89.09-.62.85-.17c.51-.16.25-.71-.78-1.66.12-.33.09-.54-.1-.61l-3,.15-.84,1.45v.33l.48.28a2.8,2.8,0,0,1,1.79.42c.28,1.85.29,2.8,0,2.84l-4.92.17-4.07.06c-.45,0-.67-.14-.67-.33l-.22-2v-1l.38-.23,1.71,0c.32,0,.75-.4,1.29-1.31l.37-.82,2-3.14a16.81,16.81,0,0,1,1.59-3v-.34l-.48-.27-1.71,0c-.39,0-.52-.5-.4-1.39l-.41-2.24-.3-.7.09-.12Zm4.86,9.62v.45l.38.22a1.59,1.59,0,0,0,1.33-.3c.13-.08,0-.45-.39-1.12l-.29-.27c-.45,0-.67,0-.67.12Z"/>
              <path d="M573.06,452.06l8.33-.05c.24,0,.39.07.45.22l0,3.49-.19.17-2.45.2c-.63.34-.88.61-.75.79l-.19,7.12c.25.35.89.51,1.91.46l3.11-.1.38-.29.09-.93c.06-.15.25-.23.56-.23h1c.93-.24,1.49-.25,1.68,0v6.32l-.38.23q-3.87.33-12.39.5l-1.59,0-.39-.22,0-4.39.19-.17,2-.14.57-.39.08-.72-.22-2.12L575,461a16.79,16.79,0,0,1-.24-3.68,1.63,1.63,0,0,0-.48-.64l-1.22-.32-.19-.28-.24-3.77A.63.63,0,0,1,573.06,452.06Z"/>
              <path d="M589.34,452l9.57-.07a5.36,5.36,0,0,1,.42,2.7l0,1.32-.38.23c-1.57-.16-2.42.11-2.53.82l-.1,5.24.12,1.64.54.33,4-.05.35.17.25,4.79c0,.19-.27.3-.82.35a28.25,28.25,0,0,0-4,.1l-1.59,0a25.24,25.24,0,0,1-4.51.22c-1.07,0-1.6-.07-1.6-.25l-.06-4.58.19-.17,2.35-.14c.42-.23.6-.47.53-.73l.11-6.89a2,2,0,0,0-.84-.55l-1.87,0q-.39-.06-.39-.39l-.14-3.75C589,452.08,589.09,452,589.34,452Z"/>
              <path d="M609.66,451.68l5.18-.06c.38,0,.55.27.49.85l-.05,3.66-.19.15-1.2.13c-.43.15-.6.52-.53,1.1s.76,2.79,1.74,7l.39.48c.49.1.86-.25,1.1-1.06l2-6.28-.1-.54c-.68-.2-1-.38-.93-.53l-.06-4.57c0-.15.11-.24.35-.28q7.44,0,9.76-.22a1.24,1.24,0,0,1,1.08.19l.12,2.35a3.47,3.47,0,0,0,0,1.45l-.08,1c-.1.18-.38.29-.82.33l-3.43.27a2.16,2.16,0,0,0-1.26.89l-2.7,8.14a19.3,19.3,0,0,0-1.08,2.68.78.78,0,0,1-.63.38,19.64,19.64,0,0,0-3.14.21l-1.5,0-.38-.22q-4.86-12.21-4.77-12.33l-1-.43-4.26-.15-.29-.22.07-1.74.36-1.53a.65.65,0,0,1,.47-.89Z"/>
              <path d="M648.41,451.11c.7-.05,1.12,0,1.25.15l0,2.85.23.56-.2,1.22,0,2.22-.28.39-1.46.21h-1.33l-.42-.23a1,1,0,0,0-.87-1.3l-2.93,0-1,.4.33.69.57.27,1.75,0c.26,0,.38.15.39.46l-.07,1.89-.48.17-3.21.1c-.71.23-1,.49-1,.76-.18.87.06,1.38.72,1.52a17.94,17.94,0,0,0,3.49-.16c.38,0,.66-.46.84-1.37l.6-.18,2,0a.51.51,0,0,1,.48.33l0,5.19c.41.75.13,1.13-.84,1.15l-2.16,0-2.23.22-1.94,0a78.68,78.68,0,0,1-8.35.5c-.53.09-.89,0-1.09-.21l.36-4.24.38-.17,1.56,0,.57-.29c.14-3.49.18-5.72.1-6.68-.19-.33-.94-.45-2.23-.36-.25,0-.38-.15-.38-.35l-.29-5c.08-.15.28-.25.6-.29Q641.52,451.42,648.41,451.11Z"/>
            </g>
            <g>
              <path d="M463.42,491l12.69-.17a1.23,1.23,0,0,1,1,.3,2,2,0,0,1,.27,1.18,6.78,6.78,0,0,1-.4,2.39,4.9,4.9,0,0,1-1.1,1.87,2,2,0,0,1-1.42.56l-8.07.1c-.91,0-1.35.38-1.34,1.1a.65.65,0,0,0,.32.62,3.84,3.84,0,0,0,1.37.25,20.76,20.76,0,0,1,6.78,1.65,7.77,7.77,0,0,1,3.32,2.75,5,5,0,0,1,.93,2.86,6.8,6.8,0,0,1-2.08,4.78,11.19,11.19,0,0,1-4.4,2.8,18.32,18.32,0,0,1-6,1,15.68,15.68,0,0,1-4.78-.62c-1.32-.39-2-1.07-2-2a3.46,3.46,0,0,1,.26-1.46c.19-.41.41-.61.67-.62a2.08,2.08,0,0,1,.54.1,14.37,14.37,0,0,0,1.77.38,9.69,9.69,0,0,0,1.67.15,4.14,4.14,0,0,0,2.43-.68,2,2,0,0,0,.91-1.74,2.6,2.6,0,0,0-1.49-2.21,10,10,0,0,0-3.61-1.17c-1.23-.19-2-.3-2.21-.36a2,2,0,0,1-.69-.28,1.26,1.26,0,0,1-.64-1.11,16.93,16.93,0,0,1,.78-3.8,56.7,56.7,0,0,1,1.8-5.48,10.74,10.74,0,0,1,1.25-2.64A2,2,0,0,1,463.42,491Z"/>
              <path d="M484.34,503.05a4.14,4.14,0,0,1,3,1.14,4.09,4.09,0,0,1,1.31,3.09,4,4,0,0,1-1.23,3,4.2,4.2,0,0,1-2.93,1.22,4.15,4.15,0,0,1-3-1.15,4.09,4.09,0,0,1-1.31-3,4,4,0,0,1,1.23-3.06A4.24,4.24,0,0,1,484.34,503.05Z"/>
              <path d="M500.23,490.13a9.87,9.87,0,0,1,4.73,1.15,10.22,10.22,0,0,1,4.65,4.74,11.35,11.35,0,0,1,1.19,5,10.12,10.12,0,0,1-9.92,10.32,9.51,9.51,0,0,1-6.79-2.51,10.63,10.63,0,0,1-3.4-8.14,10.26,10.26,0,0,1,2.91-7.89A9.31,9.31,0,0,1,500.23,490.13Zm-.34,5.35c-1.11,0-1.65,1-1.63,2.85a15.34,15.34,0,0,0,1.5,6.65,1.68,1.68,0,0,0,1.5,1.13c1.08,0,1.61-1,1.58-2.91a18,18,0,0,0-.39-3.44,12.78,12.78,0,0,0-.92-3A1.93,1.93,0,0,0,499.89,495.48Z"/>
              <path d="M522.17,489.85A10,10,0,0,1,526.9,491a10.27,10.27,0,0,1,4.65,4.74,11.28,11.28,0,0,1,1.19,4.95A10.12,10.12,0,0,1,522.82,511,9.55,9.55,0,0,1,516,508.5a10.63,10.63,0,0,1-3.41-8.15,10.33,10.33,0,0,1,2.91-7.89A9.38,9.38,0,0,1,522.17,489.85Zm-.34,5.35q-1.67,0-1.62,2.85a15.37,15.37,0,0,0,1.49,6.65,1.69,1.69,0,0,0,1.5,1.13q1.62,0,1.59-2.91a19.05,19.05,0,0,0-.4-3.45,12.31,12.31,0,0,0-.92-3A1.91,1.91,0,0,0,521.83,495.2Z"/>
              <path d="M544.11,489.57a10,10,0,0,1,4.73,1.14,10.27,10.27,0,0,1,4.65,4.74,11.21,11.21,0,0,1,1.19,4.95,10.14,10.14,0,0,1-9.92,10.33,9.55,9.55,0,0,1-6.78-2.52,10.59,10.59,0,0,1-3.41-8.14,10.29,10.29,0,0,1,2.92-7.89A9.25,9.25,0,0,1,544.11,489.57Zm-.34,5.34c-1.11,0-1.65,1-1.62,2.86a15.29,15.29,0,0,0,1.49,6.64,1.68,1.68,0,0,0,1.5,1.13q1.62,0,1.59-2.91a19,19,0,0,0-.4-3.44,12.31,12.31,0,0,0-.92-3A1.94,1.94,0,0,0,543.77,494.91Z"/>
              <path d="M573.27,488.11v-.84a.94.94,0,0,1,1.16-1.2l1.5,0a1.31,1.31,0,0,1,.93.23,1.37,1.37,0,0,1,.25.94v.86c0,.38.06.61.17.69a4.23,4.23,0,0,0,1.18.28c.17,0,.5.13,1,.28a2.39,2.39,0,0,0,.5.08,1.38,1.38,0,0,0,.48-.12,3.75,3.75,0,0,1,1.06-.28c.64,0,1.35.52,2.15,1.57a5.49,5.49,0,0,1,1.29,3.26,2.14,2.14,0,0,1-.5,1.51,1.92,1.92,0,0,1-2.32.35c-.26-.17-.94-.75-2-1.74a5,5,0,0,0-3.5-1.44,1.94,1.94,0,0,0-1.31.45,1.44,1.44,0,0,0-.49,1.15,1.72,1.72,0,0,0,1.09,1.52,24.52,24.52,0,0,0,3.3,1.05,11.76,11.76,0,0,1,4.38,2.15,5.76,5.76,0,0,1,2,4.46,6.21,6.21,0,0,1-2,4.74,10,10,0,0,1-2.6,1.82,8,8,0,0,1-2.81.86.92.92,0,0,0-.6.19,1.2,1.2,0,0,0-.12.67v.82a1.36,1.36,0,0,1-.22,1,1.33,1.33,0,0,1-.92.25l-1.5,0a.95.95,0,0,1-1.2-1.17v-.82a1.4,1.4,0,0,0-.1-.64.55.55,0,0,0-.42-.18,17.5,17.5,0,0,1-3.09-.64,6.58,6.58,0,0,1-2.08-.89,5,5,0,0,1-1.27-2.21A9.58,9.58,0,0,1,566,504a2,2,0,0,1,.33-1.2,1.16,1.16,0,0,1,.92-.45,2,2,0,0,1,1.4.81c.13.15.55.75,1.24,1.79a4.61,4.61,0,0,0,1.92,1.64,5.86,5.86,0,0,0,2.68.56,3.77,3.77,0,0,0,1.89-.45,1.27,1.27,0,0,0,.73-1.12,1.66,1.66,0,0,0-1-1.39c-.22-.11-1.25-.49-3.06-1.12q-6.51-2.24-6.58-7.12a6.35,6.35,0,0,1,2.17-4.83,8,8,0,0,1,3.89-2.1,1.27,1.27,0,0,0,.67-.24A1.13,1.13,0,0,0,573.27,488.11Z"/>
            </g>
            <line class="cls-19" x1="375.63" y1="244.49" x2="647.77" y2="242.38"/>
            <rect class="cls-20" x="418.47" y="246.87" width="202.52" height="203.28" transform="matrix(1, -0.01, 0.01, 1, -4.47, 6.76)"/>
          </g>
          <g>
            <g>
              <path class="cls-21" d="M598.09,535.14c0-.12,0-.22,0-.33s0-.22,0-.33h0a3.1,3.1,0,0,0-3.1-3.08l-36.78.23a3.1,3.1,0,0,0-3.06,3.12h0c0,.11,0,.22,0,.33a3.16,3.16,0,0,0,0,.32,3.1,3.1,0,0,0,3.1,3.08l36.78-.23A3.1,3.1,0,0,0,598.09,535.14Z"/>
              <rect class="cls-22" x="573.53" y="514.89" width="6.19" height="42.94" rx="1.08" transform="matrix(0.01, 1, -1, 0.01, 1109.41, -43.58)"/>
              <rect class="cls-23" x="538.17" y="523.17" width="18.93" height="28.41" rx="3.29" transform="translate(1081.61 -13.58) rotate(89.65)"/>
              <rect x="547.96" y="524.74" width="2.18" height="14.18" transform="translate(1077.47 -20.5) rotate(89.65)"/>
              <rect x="547.98" y="528.35" width="2.18" height="14.18" transform="translate(1081.1 -16.94) rotate(89.65)"/>
              <rect x="548" y="531.89" width="2.18" height="14.18" transform="translate(1084.66 -13.45) rotate(89.65)"/>
              <rect x="548.02" y="535.53" width="2.18" height="14.18" transform="translate(1088.32 -9.85) rotate(89.65)"/>
              <path d="M521.58,556.89,527.84,538a7.29,7.29,0,0,1,9.2-4.63h0a7.34,7.34,0,0,1,4.6,9.25l-6.26,18.94a7.29,7.29,0,0,1-9.2,4.63h0a7.34,7.34,0,0,1-4.6-9.25"/>
              <rect x="588.72" y="529.9" width="3.3" height="2.22" rx="0.42" transform="translate(1117.72 -62.63) rotate(89.65)"/>
            </g>
            <g>
              <path class="cls-21" d="M436.92,537.27a1.67,1.67,0,0,1,0-.32c0-.11,0-.22,0-.33h0a3.1,3.1,0,0,1,3-3.15l36.77-.72a3.11,3.11,0,0,1,3.15,3h0c0,.11,0,.21,0,.32s0,.22,0,.33a3.1,3.1,0,0,1-3,3.15l-36.77.72A3.09,3.09,0,0,1,436.92,537.27Z"/>
              <rect class="cls-22" x="455.32" y="516.47" width="6.17" height="42.94" rx="1.08" transform="translate(987.29 69.12) rotate(88.88)"/>
              <rect class="cls-23" x="477.98" y="523.99" width="18.86" height="28.41" rx="3.29" transform="translate(1015.99 40.37) rotate(88.88)"/>
              <rect x="484.77" y="525.62" width="2.18" height="14.18" transform="translate(1008.98 36.54) rotate(88.88)"/>
              <rect x="484.84" y="529.22" width="2.18" height="14.18" transform="translate(1012.64 40) rotate(88.88)"/>
              <rect x="484.91" y="532.74" width="2.18" height="14.18" transform="matrix(0.02, 1, -1, 0.02, 1016.23, 43.38)"/>
              <rect x="484.98" y="536.37" width="2.18" height="14.18" transform="translate(1019.93 46.87) rotate(88.88)"/>
              <path d="M514,557l-6.74-18.71a7.29,7.29,0,0,0-9.32-4.37h0a7.31,7.31,0,0,0-4.36,9.33l6.74,18.7a7.3,7.3,0,0,0,9.32,4.38h0A7.31,7.31,0,0,0,514,557"/>
              <rect x="442.89" y="531.86" width="3.29" height="2.22" rx="0.42" transform="matrix(0.02, 1, -1, 0.02, 968.71, 78.11)"/>
            </g>
          </g>
        </g>
        <g>
          <path class="cls-24" d="M230.33,103.72l8.73-.11a.75.75,0,0,1,.63.65l-.09,1.51-.28.74.23,3.41,0,2.39-.33.62-1.05.35-1,.85v.44l.79,1.61.54,2.23,1.62.93q.94.21,2.06-4.72v-.88l-1-.61a7.11,7.11,0,0,1-.27-3.52q.93-4.76.59-5.26a1.55,1.55,0,0,1,.83-1l6.73-.09,2.24.37.45.88v.73l-.43,1.18.25,2.13,0,4.51c-.15.3-.61.45-1.39.46l-1.9-.19c-.73,0-1.19.15-1.39.42-1.33,2.09-2,3.22-1.89,3.36l-.71,1.81-.62,3-.92,2,.19,6.64.34.33,2.11-.14q.45.21.45.51l0,6.35a.63.63,0,0,1-.54.41,8.21,8.21,0,0,1-2.78-.19l-4.24.17c.07.22-.93.34-3,.37-1.26.09-1.83-.26-1.69-1l-.06-4.81.17-.78a1.34,1.34,0,0,1,.87-.74l2.22-.25c.3-.08.46-.58.5-1.51l.16-4.59L237,123l-1.41-2.11-2.41-5-.12-.66-.44-.73-.86-.72c-1.63.07-2.41-.21-2.35-.85l.19-8.45C229.63,104,229.89,103.73,230.33,103.72Z"/>
          <path class="cls-24" d="M252.77,103.1l4.68-.06,2.82.37a11,11,0,0,1,3.12,1l1.26.94q1.08,1.64,1.76,6.32a79,79,0,0,0,.12,9.18q-.16,12.74-1.39,14.29a5.16,5.16,0,0,1-2.68,2q-5.07,1.35-5.29,1l-5.38,0-2.6-.48c-.85-.21-1.88-1.13-3.07-2.78a15.78,15.78,0,0,1-1.52-4.57l-.63-8.84,0-6.57.56-4.41.81-2.51a10.32,10.32,0,0,1,2.85-3.38C250.84,103.39,252.35,102.89,252.77,103.1Zm-3.22,14a34.33,34.33,0,0,0,.73,8.55l.53,1a5.47,5.47,0,0,0,2.61,1.62q3.51-.15,5.07-1.61a4.12,4.12,0,0,0,.81-1.8l.35-4-.06-5.1a7.93,7.93,0,0,0-.95-2.6l-1.25-.94-2.93.26-2.29.47a4,4,0,0,0-2,1.35A11.65,11.65,0,0,0,249.55,117.09Z"/>
          <path class="cls-24" d="M269,103.15l11.89.07.3.29-.23,5.17,0,3.42-.21.55-2.66.55a1.81,1.81,0,0,0-.75,1.73q-.32,7-.27,9.66l.63,1.31,1.51.61a8.24,8.24,0,0,0,3.22-.26,2,2,0,0,0,.93-1.52l.12-7.49.2-1.73,0-2.27-.11-.3-1.19-1,.29-3.42v-4.84a1,1,0,0,1,.54-.63q7.71-.21,9.1-.45c1.26-.17,1.94,0,2,.41l.17,5.14c.32,2.22.06,3.4-.79,3.53a25.23,25.23,0,0,0-4.39.06l-.65.67.1,8.26a17.17,17.17,0,0,1,.39,4.62l-.58,5.8L288,134l-.64,1.62c-.18,1-2.38,1.72-6.59,2.22l-4.79.06a5.6,5.6,0,0,1-2.91-1.58,4.1,4.1,0,0,1-1.24-2.44l-.1-16.11.28-3.86-.52-.84-2.6-.18c-.42-.07-.56-.61-.42-1.61l.12-7.75C268.66,103.29,268.82,103.15,269,103.15Z"/>
          <path class="cls-24" d="M312,102.74h7.53c2.56-.32,3.95-.34,4.17,0A40.26,40.26,0,0,0,325,109c.09.88,0,1.32-.2,1.33l-1.16.34-.65.78a6.1,6.1,0,0,0,.8,2.49l2.22,5.11,1.57,2.84a38.1,38.1,0,0,0,2.38,5.33,2.85,2.85,0,0,0,1.43.64l2.27-.14.44.43q-.12,7.78.1,8c-.14.51-.32.77-.54.77l-3,0-1-.32-1,.35-6.66.3c-1.17,0-1.75-.16-1.76-.52l-.29-5.69.09-1.21,1-.34c.58-.31.27-1.39-.92-3.26.13-.66.09-1.07-.13-1.21l-3.47.27-1,2.83v.66l.55.55c1.08.06,1.76.34,2.06.85.34,3.65.37,5.5.07,5.58l-5.66.29-4.68.07q-.76-.1-.78-.66l-.27-3.92,0-2,.43-.45,2,0q.56.11,1.47-2.55l.42-1.63,2.22-6.15a46.5,46.5,0,0,1,1.79-5.86v-.66l-.56-.55-2,0c-.44-.07-.6-1-.48-2.75l-.49-4.4-.35-1.39.11-.22Zm5.69,19v.88l.45.43a1.29,1.29,0,0,0,1.53-.57c.14-.15,0-.88-.47-2.19l-.34-.55c-.51-.07-.76,0-.76.23Z"/>
          <path class="cls-24" d="M336.76,102.27l3.4,0,2.56-.21a64.92,64.92,0,0,0,6.83-.09,7.86,7.86,0,0,1,6.37,5.57l.23,3.85.05,4a6.82,6.82,0,0,1-.91,3.13l-.83.86c-1,.43-1.56.9-1.7,1.42l.33.4a2.33,2.33,0,0,1,1.82,1.81l.36,2.23c-.13,1.5,0,2.46.47,2.9l.73-.12.21-.74.08-2.39a1,1,0,0,1,1.16-.53l1.18.1.33.32c.14,5.56,0,9.08-.52,10.58-.41.79-1.54,1.31-3.38,1.55a11.64,11.64,0,0,1-3.74-.39,3.73,3.73,0,0,1-1.73-1.26,5.94,5.94,0,0,1-.76-2.12l-.95-8-.68-1.79c-.94-1.06-1.72-1.41-2.35-1-.37.2-.59,1.45-.69,3.75-.19,1.64.06,2.59.77,2.85l1.5-.09.52.29,0,7.3c-.22.49-.71.71-1.49.64l-8-.11-.45-.4-.06-4.62-.2-1.18c-.08-.92,0-1.43.17-1.5l2.26-.14.4-.63q.06-3.42-.79-13.28c-.23-.63-.49-1-.79-1l-2.45-.38c-.42-.43-.56-.76-.42-1l0-2.13.53-6.76C335.77,102.93,336,102.41,336.76,102.27Zm9.92,9.71q-.29,3.31,1.11,3.84c1.86.12,2.91-.61,3.16-2.21l0-2.64q-.2-1.09-2.25-1.8c-1-.14-1.56,0-1.68.46Z"/>
          <path class="cls-24" d="M381.07,101.44c.8-.08,1.28,0,1.43.31l.07,5.62.27,1.1-.22,2.39.05,4.36-.32.78-1.67.39-1.54,0-.48-.47c.13-1.43-.21-2.28-1-2.56l-3.36,0-1.13.79.39,1.35.66.54,2,0c.29,0,.44.3.45.91l-.06,3.71-.54.33-3.7.16c-.82.45-1.19,1-1.11,1.49-.2,1.71.08,2.71.84,3a12.07,12.07,0,0,0,4-.27c.44,0,.76-.9.95-2.69l.7-.34,2.34,0a.76.76,0,0,1,.55.65l0,10.21c.49,1.49.17,2.24-.95,2.25l-2.49,0-2.56.4-2.23,0q-.1.33-9.6.9c-.61.15-1,0-1.25-.43L362,128l.43-.33,1.79,0,.65-.56q.21-10.32.05-13.14c-.22-.66-1.08-.91-2.56-.74q-.45-.1-.45-.69l-.38-9.87a.82.82,0,0,1,.68-.56Q373.15,102,381.07,101.44Z"/>
          <path class="cls-24" d="M395.66,101.51l3.4,0,2.56-.22a60.11,60.11,0,0,0,6.84-.09,7.18,7.18,0,0,1,5.23,3.24,6.88,6.88,0,0,1,1.13,2.33l.23,3.86.05,4a6.7,6.7,0,0,1-.91,3.13l-.83.86c-1,.43-1.56.9-1.7,1.41l.34.4a2.35,2.35,0,0,1,1.81,1.81l.36,2.24c-.13,1.49,0,2.46.47,2.89l.73-.12.21-.73.08-2.39a1,1,0,0,1,1.17-.53l1.17.09.33.33c.15,5.55,0,9.08-.52,10.58-.41.79-1.53,1.3-3.38,1.55a11.68,11.68,0,0,1-3.74-.39,3.69,3.69,0,0,1-1.73-1.27,6,6,0,0,1-.76-2.12l-.94-8-.69-1.79c-.94-1.07-1.72-1.41-2.35-1-.36.21-.59,1.46-.68,3.76-.2,1.64,0,2.59.77,2.85l1.49-.09.52.28,0,7.31c-.21.49-.71.71-1.49.64l-8-.11-.45-.4-.05-4.63-.2-1.17c-.09-.93,0-1.43.16-1.51l2.27-.13.39-.63q.06-3.42-.79-13.28c-.23-.63-.49-1-.78-1.06l-2.46-.37c-.42-.43-.56-.76-.41-1l0-2.13.53-6.76C394.67,102.17,394.88,101.64,395.66,101.51Zm9.93,9.71q-.29,3.3,1.11,3.84c1.85.12,2.9-.61,3.15-2.21l0-2.64c-.14-.73-.89-1.33-2.26-1.81-1-.13-1.56,0-1.67.47Z"/>
          <path class="cls-24" d="M440,100.68c.81-.08,1.28,0,1.43.31l.08,5.62.27,1.09-.23,2.39.06,4.37-.32.78-1.68.38-1.54,0-.48-.47q.19-2.13-1-2.55l-3.36,0-1.13.79.39,1.35.66.54,2,0c.3,0,.45.31.45.92l-.06,3.7-.54.34-3.69.16c-.83.45-1.2.95-1.12,1.48-.19,1.72.09,2.72.85,3a12,12,0,0,0,4-.27c.44,0,.76-.9,1-2.69l.69-.34,2.34,0a.77.77,0,0,1,.56.65l0,10.21q.72,2.22-1,2.25l-2.49,0-2.55.4-2.23,0c-.07.22-3.28.52-9.61.89-.61.16-1,0-1.25-.42l.37-8.34.43-.33,1.8,0,.65-.56q.19-10.31.05-13.14c-.23-.65-1.09-.9-2.57-.73-.3-.07-.44-.31-.45-.7l-.38-9.87a.81.81,0,0,1,.69-.55Q432,101.22,440,100.68Z"/>
          <path class="cls-24" d="M449,101h7.54c2.55-.33,3.94-.34,4.16,0a38.82,38.82,0,0,0,1.37,6.33q.12,1.32-.21,1.32l-1.16.35-.65.78a6,6,0,0,0,.8,2.48L463,117.3l1.57,2.85a38.07,38.07,0,0,0,2.38,5.32,2.85,2.85,0,0,0,1.43.65l2.27-.14.44.43c-.08,5.19,0,7.86.1,8-.14.52-.31.78-.53.78l-3,0-1-.32-1,.34-6.66.31c-1.16,0-1.75-.16-1.76-.53l-.29-5.68.09-1.22,1-.34c.58-.3.27-1.38-.92-3.25.14-.67.09-1.07-.13-1.21l-3.47.26-1,2.84v.66l.56.54c1.07.06,1.76.35,2,.86q.51,5.46.08,5.58l-5.67.29-4.68.06c-.51-.07-.77-.28-.77-.65l-.27-3.92,0-2,.43-.45,2,0c.36.07.85-.78,1.46-2.55l.42-1.62,2.23-6.16a44.06,44.06,0,0,1,1.79-5.86v-.66l-.56-.54-2,0c-.44-.07-.6-1-.48-2.75l-.49-4.39-.35-1.39.11-.23Zm5.7,19v.88l.44.44a1.29,1.29,0,0,0,1.53-.57c.14-.15,0-.88-.47-2.2l-.33-.54c-.52-.07-.77,0-.77.23Z"/>
          <path class="cls-24" d="M473.79,100.21l9.58,0a.5.5,0,0,1,.52.43l.09,6.87-.21.33-2.82.37c-.72.67-1,1.19-.85,1.55l-.15,14c.3.7,1,1,2.2.92l3.58-.15.44-.56.08-1.84a.59.59,0,0,1,.66-.44l1.09,0c1.07-.45,1.72-.46,1.94,0l.05,12.44-.43.44a142.19,142.19,0,0,1-14.25.85l-1.83,0-.45-.43v-8.63l.22-.33,2.26-.25.65-.78.09-1.4-.27-4.18.09-1.61a57.45,57.45,0,0,1-.32-7.23,3.85,3.85,0,0,0-.56-1.28l-1.4-.64-.22-.55-.32-7.41C473.39,100.36,473.57,100.21,473.79,100.21Z"/>
          <path class="cls-24" d="M493.17,100l9.58,0a.5.5,0,0,1,.52.43l.09,6.87-.22.33-2.81.37c-.72.67-1,1.18-.86,1.55l-.14,14c.3.7,1,1,2.2.92l3.58-.15.44-.56.08-1.84a.6.6,0,0,1,.65-.45h1.1c1.07-.45,1.71-.46,1.94,0l.05,12.45-.43.44a142.23,142.23,0,0,1-14.26.85l-1.82,0-.45-.43v-8.63l.22-.33,2.26-.25.65-.78.09-1.4-.27-4.18.09-1.61a57.45,57.45,0,0,1-.32-7.23,3.76,3.76,0,0,0-.56-1.28l-1.4-.64-.23-.55-.31-7.41C492.77,100.11,493,100,493.17,100Z"/>
          <path class="cls-24" d="M512.41,100.07l8.74-.11a.78.78,0,0,1,.63.65l-.09,1.51-.29.73.23,3.42,0,2.38-.32.63-1.06.34-1,.86v.44l.79,1.61.54,2.23,1.62.93c.64.14,1.32-1.43,2.06-4.72v-.88l-1-.62A7,7,0,0,1,523,106q.91-4.74.59-5.25a1.54,1.54,0,0,1,.83-1l6.72-.08,2.24.37.45.88v.73l-.42,1.18.24,2.13,0,4.51c-.14.3-.6.45-1.38.46l-1.91-.2c-.73,0-1.19.15-1.38.43-1.34,2.09-2,3.21-1.9,3.36l-.7,1.81-.62,3-.93,2L525,127l.33.32,2.12-.13c.29.14.44.31.44.5l0,6.35a.66.66,0,0,1-.55.42,8.49,8.49,0,0,1-2.78-.19l-4.24.17c.08.22-.92.34-3,.37-1.27.09-1.83-.26-1.7-1.05l-.06-4.8.17-.78a1.34,1.34,0,0,1,.87-.74l2.23-.25c.29-.08.45-.58.49-1.51l.16-4.59-.42-1.72-1.42-2.11-2.4-5-.12-.66-.45-.73-.85-.72c-1.63.07-2.42-.22-2.35-.85l.18-8.45C511.72,100.34,512,100.08,512.41,100.07Z"/>
          <path class="cls-24" d="M547.22,99.55l1.64.09a40.66,40.66,0,0,1,9.95-.24l1.72.2L565.3,101l1.77,1a6.66,6.66,0,0,1,2.31,3.46c.66,2.24.92,3.6.78,4.09l-.27,1.77-1.61,2.19.11.55,1.45,1.26a20.74,20.74,0,0,1,2,6,38.55,38.55,0,0,1,.21,7.59,12.84,12.84,0,0,1-1.17,3.07c-1,1.09-1.84,1.64-2.58,1.64l-5.07.51a6.77,6.77,0,0,0-2.82.15l-5.92,0a57.87,57.87,0,0,0-7.72-.34l-.52-.54V125.4l.09-1.61.29-.34,1.2-.23a1.67,1.67,0,0,0,.53-1.19l.31-9.8-.33-.51c-.08-.15-.59-.21-1.54-.2l-.41-.44-.14-2.49-.46-2,0-1.54a13.67,13.67,0,0,1-.07-4.88A1.57,1.57,0,0,1,547.22,99.55ZM553.65,111c-.2,1.52,0,2.39.66,2.6a14.09,14.09,0,0,0,3.36-.38,26.58,26.58,0,0,1,4.12-.82,3.5,3.5,0,0,0,2-1.2c0-.88-.77-1.52-2.29-1.92l-2.49,0-1.64.31-2.92.26A2.36,2.36,0,0,0,553.65,111Zm.74,8.8.38,4.33a1.82,1.82,0,0,0,1.11.75,36.59,36.59,0,0,0,7.45-.86,3.41,3.41,0,0,0,1.41-1.45,3.86,3.86,0,0,0-.36-1.72c-.67-1.15-1.19-1.75-1.56-1.82l-2.6-.52a28.6,28.6,0,0,0-5.08.29A2.43,2.43,0,0,0,554.39,119.79Z"/>
          <path class="cls-24" d="M579.47,99.28H587c2.56-.33,4-.34,4.17-.05a39.33,39.33,0,0,0,1.36,6.33c.08.88,0,1.32-.2,1.32l-1.17.35-.65.78a6,6,0,0,0,.8,2.48l2.23,5.11,1.57,2.85a39,39,0,0,0,2.37,5.32,2.93,2.93,0,0,0,1.44.65l2.26-.14.45.43q-.12,7.78.1,8-.21.78-.54.78l-3,0-1-.32-1,.35-6.65.3c-1.17,0-1.76-.16-1.76-.53l-.3-5.68.1-1.21,1-.35c.58-.3.28-1.38-.92-3.25.14-.67.1-1.07-.12-1.21l-3.47.26-.95,2.84v.66l.56.55c1.07.06,1.76.34,2.06.85q.51,5.46.07,5.58l-5.66.29-4.68.06c-.52-.06-.78-.28-.78-.65l-.27-3.92,0-2,.44-.45,2,0q.56.1,1.47-2.55l.42-1.62,2.22-6.16a45.74,45.74,0,0,1,1.79-5.86v-.66l-.55-.54-2,0c-.44-.07-.6-1-.47-2.75l-.5-4.39-.35-1.39.11-.23Zm5.69,19v.89l.44.43a1.28,1.28,0,0,0,1.53-.57c.15-.15,0-.88-.46-2.2l-.34-.54c-.51-.07-.77,0-.76.23Z"/>
          <path class="cls-24" d="M608.93,98.42c5,.08,7.78.23,8.42.44a16.22,16.22,0,0,1,4.88,1.59,5.86,5.86,0,0,1,2.63,2.24,12,12,0,0,1,.7,3.77l.35,1a4.09,4.09,0,0,1-.2,2q.24,2.05.06,12.81-.71,10.55-7.76,11.29l-9.51,0-1.83-.2a3.9,3.9,0,0,1-1.86,0,.82.82,0,0,1-.63-.76l-.28-4.33,0-1.39.33-.34,2.67.08c.22,0,.51-.3.87-.89q-.3-6.31-.19-14.35a1.62,1.62,0,0,0-1-.84l-2.92.15q-.45-.21-.45-.54l0-2.83.21-1,.07-3.45.28-3.16a.94.94,0,0,1,1-.9Zm2.88,22.35q.08,5.43,1,5.75l4.75-.39q2.8-.59,3.51-5.92a12.49,12.49,0,0,0-1.47-6,3.77,3.77,0,0,0-2.72-1.36c-2.83,0-4.39.35-4.67.94l-.31,1.62.05,4Z"/>
          <path class="cls-24" d="M643.23,98.45h7.54c2.55-.32,3.94-.34,4.16,0a38.25,38.25,0,0,0,1.37,6.33c.08.88,0,1.32-.21,1.33l-1.16.34-.65.78a6.1,6.1,0,0,0,.8,2.49l2.22,5.11,1.57,2.84a37.59,37.59,0,0,0,2.38,5.33,2.85,2.85,0,0,0,1.43.64l2.27-.14.44.44c-.08,5.19,0,7.85.1,8-.14.51-.31.77-.53.77l-3,0-1-.31-1,.34-6.66.31c-1.17,0-1.75-.17-1.76-.53l-.29-5.69.09-1.21,1-.34c.58-.3.27-1.39-.92-3.26.14-.66.09-1.06-.13-1.21l-3.47.27-.95,2.84v.66l.56.54c1.07.06,1.75.34,2.05.85.34,3.65.37,5.5.08,5.58l-5.67.3-4.68.06c-.51-.07-.77-.29-.78-.65l-.27-3.93,0-2,.43-.45,2,0c.36.07.85-.78,1.46-2.55l.42-1.62,2.23-6.16a43.6,43.6,0,0,1,1.79-5.86V108l-.56-.54-2,0c-.44-.07-.6-1-.48-2.75l-.49-4.4-.35-1.39.11-.22Zm5.7,19v.88l.44.43a1.29,1.29,0,0,0,1.53-.57c.14-.15,0-.88-.47-2.19l-.33-.55c-.52-.06-.77,0-.77.23Z"/>
          <path class="cls-24" d="M667.58,97.88q8.08.12,19.49-.25c.71,0,1.13.17,1.29.53l-.23,8.08-.31,1.21.15,3.12c-.15.37-.31.59-.51.67l-3.14.26h-.73q-.76,0-.69-2.16l-.77-.43-2,.14c-.65.64-.9,1-.75,1.18l-.5,12.42.13,1.65.55.39,3.66,0c.37-.08.59.43.68,1.53l-.1,1.06.17,4.52c-.07.51-.32.77-.76.78l-5.7.18-6.55,0c-.36-.15-.63-.75-.79-1.83l.3-2.79a4.38,4.38,0,0,1,0-2.06l.65-.34,2.67.08c.51-.23.76-.77.75-1.63l.1-9.17-.16-3.78-.88-.76h-.66c-.49.15-.76.88-.82,2.17-.14.23-.47.3-1,.24l-3.55,0-.4-.43q.06-12.08-.17-13.29l.2-1.06Z"/>
          <path class="cls-24" d="M700.82,97.45q8.07.12,19.48-.25c.71,0,1.14.17,1.29.53l-.22,8.08-.32,1.21.15,3.12a1.1,1.1,0,0,1-.5.67l-3.14.26h-.73q-.78,0-.69-2.16l-.77-.43-2,.14c-.65.64-.9,1-.76,1.18l-.5,12.42.14,1.65.55.39,3.66,0c.36-.08.59.43.67,1.53l-.09,1.06.16,4.52q-.09.76-.75.78l-5.71.18-6.54,0c-.37-.15-.63-.75-.79-1.83l.29-2.79a4.53,4.53,0,0,1,0-2.06l.66-.34,2.67.08q.76-.34.75-1.62l.1-9.18-.16-3.78-.89-.76h-.66c-.48.15-.75.88-.81,2.17-.14.23-.47.3-1,.24l-3.55,0-.41-.43q.06-12.07-.17-13.29l.21-1.07Z"/>
          <path class="cls-24" d="M725.75,96.94l9.33.1a1.07,1.07,0,0,1,.66.54l-.08,2.1.32,7.81-.33.45-1.86.24c-.58.38-.87.78-.86,1.22l-.37,5.22.56.66,2.63-.26a8.45,8.45,0,0,1,2.73-.7c1.09-.23,1.59-1.2,1.5-2.92l0-2.42-.56-.65c-.95-.06-1.36-.31-1.22-.76l-.33-8.91.54-.56,7.93-.54,1.53-.35c.66,0,1,.13,1,.43v8.69l-.22.56-2.29.58-.54.56a16.42,16.42,0,0,0-.39,3.86l-.33,9.07a2.08,2.08,0,0,0,.78.76l3.73-.16.44.43,0,2.32-.2,1.43-.15,5.07c-.07.51-.28.77-.65.78L747,131.5a38.5,38.5,0,0,1-7.82.43,1,1,0,0,1-.88-.64l-.42-6.94-.23-.76,0-1.55,1.19-1.11a2,2,0,0,0-.57-2.31l-3.84.16a2,2,0,0,0-1.09,1l0,1.32c.08.51.78.8,2.1.85q.33.11.24,1.65l-.19,2.65c.15.14.17,1.61.06,4.4-.21.66-.61.93-1.2.79l-4.6.28a4.78,4.78,0,0,1-2.41.36c-1.83.09-2.74,0-2.75-.3l-.51-5.5-.23-.87,0-1.44.44-.44,2.3-.14a1.56,1.56,0,0,0,1.3-1.34l-.27-12.48a1.34,1.34,0,0,0-.89-.87c-1.46.24-2.2,0-2.21-.74l.31-10.13C725.06,97.25,725.38,97,725.75,96.94Z"/>
          <path class="cls-24" d="M752.77,96.78l11,0q.45.87.51,5.31l0,2.61-.43.44c-1.81-.34-2.78.18-2.91,1.58L760.93,117l.15,3.22.63.66,4.57-.06.41.32.34,9.43c0,.37-.31.59-.94.67a19.77,19.77,0,0,0-4.57.17l-1.83-.08c-.14.22-1.87.35-5.19.4-1.22,0-1.83-.16-1.83-.53l-.12-9,.22-.34,2.7-.25a1.6,1.6,0,0,0,.6-1.44l0-13.55a2.66,2.66,0,0,0-1-1.08l-2.16-.09c-.29-.07-.44-.32-.45-.76l-.2-7.38A.51.51,0,0,1,752.77,96.78Z"/>
          <path class="cls-24" d="M775.18,96.34l2.23,0,2.2.52,1.62.61.29-.12a1.13,1.13,0,0,1,1.16-.64c2.88,0,4.32.26,4.33.68l-.16,10.35a1.25,1.25,0,0,1-1.06.46,15.23,15.23,0,0,0-3.91.27l-1.68,0-.44-.32-.21-2.42c-.38-.49-.62-.7-.74-.65l-.66.34a8,8,0,0,0-1.09,3.27c-.2,1.5.19,2.49,1.17,3l5.16-.17c1.63.2,2.59.82,2.87,1.87.37.48.64,1.82.79,4q.11,8.22-1.95,10.89l-1.77,1.82a12.48,12.48,0,0,1-5,1.35,18.46,18.46,0,0,1-4.1-.17l-2.43-1a4,4,0,0,1-1.2-2.82l-.1-7.41c0-.85.15-1.32.49-1.4l2.35.08c1.11-.36,1.71-.29,1.79.2-.2,1.69-.11,2.64.26,2.86.12.27,1,.61,2.53,1q3,.15,3.75-1.74l-.21-2c.4-1.28-.18-2.27-1.72-3l-7.28.21q-3.48-.28-3.34-4l0-3.93.67-7.71.38-1.51Q772.25,96.09,775.18,96.34Z"/>
        </g>
        <g>
          <path class="cls-24" d="M174.63,657.9l1.65.09a40.55,40.55,0,0,1,9.94-.24l1.72.2,4.77,1.37,1.77,1a6.66,6.66,0,0,1,2.31,3.46c.67,2.24.93,3.61.79,4.1l-.27,1.76-1.62,2.19.12.55,1.44,1.26a20.44,20.44,0,0,1,2,6,38.63,38.63,0,0,1,.21,7.6,12.91,12.91,0,0,1-1.17,3.06,4,4,0,0,1-2.57,1.65l-5.08.5a6.7,6.7,0,0,0-2.81.15l-5.93,0a56.23,56.23,0,0,0-7.72-.34l-.52-.55v-7.93l.09-1.61.29-.34,1.2-.23a1.7,1.7,0,0,0,.54-1.18l.31-9.81-.34-.51c-.07-.15-.58-.21-1.54-.2l-.4-.43-.14-2.5-.47-2.05,0-1.54a13.47,13.47,0,0,1-.06-4.88A1.58,1.58,0,0,1,174.63,657.9Zm6.44,11.44c-.2,1.52,0,2.39.65,2.6a14.44,14.44,0,0,0,3.36-.37,26.85,26.85,0,0,1,4.12-.83,3.47,3.47,0,0,0,2-1.2c0-.88-.77-1.52-2.29-1.91l-2.48,0-1.64.31-2.93.26A2.33,2.33,0,0,0,181.07,669.34Zm.73,8.8.39,4.33a1.77,1.77,0,0,0,1.1.75,36.59,36.59,0,0,0,7.45-.86,3.41,3.41,0,0,0,1.41-1.45,3.94,3.94,0,0,0-.35-1.72c-.68-1.14-1.19-1.75-1.56-1.82l-2.6-.51a27.67,27.67,0,0,0-5.08.28A2.37,2.37,0,0,0,181.8,678.14Z"/>
          <path class="cls-24" d="M202.05,657.54l11.89.07.29.29-.22,5.18,0,3.41-.21.56-2.66.54a1.82,1.82,0,0,0-.75,1.74q-.31,7-.28,9.66l.64,1.31,1.51.6a8,8,0,0,0,3.21-.26,1.93,1.93,0,0,0,.94-1.51l.12-7.49.2-1.73,0-2.28-.12-.29-1.18-1,.29-3.41V658.1a1,1,0,0,1,.54-.63q7.71-.21,9.1-.45,1.89-.24,2,.42l.18,5.13c.32,2.23.05,3.4-.8,3.54a25.84,25.84,0,0,0-4.38,0l-.65.67.1,8.26a17.17,17.17,0,0,1,.39,4.62l-.58,5.81-.7,2.91-.63,1.62c-.19,1-2.38,1.72-6.6,2.21l-4.78.07a5.67,5.67,0,0,1-2.91-1.58,4.13,4.13,0,0,1-1.24-2.44l-.1-16.12.28-3.85-.52-.84-2.6-.19c-.42-.07-.56-.6-.42-1.61l.12-7.75A.56.56,0,0,1,202.05,657.54Z"/>
          <path class="cls-24" d="M230.39,657.07q8.09.1,19.48-.25c.71,0,1.14.16,1.29.53l-.22,8.08-.32,1.21.15,3.12a1.1,1.1,0,0,1-.5.67l-3.14.26h-.73c-.52,0-.74-.71-.69-2.16l-.77-.43-2,.14c-.65.64-.9,1-.76,1.18l-.49,12.41.13,1.65.55.4,3.66,0c.36-.07.59.44.67,1.54l-.09,1.06.17,4.52c-.07.51-.32.77-.76.78l-5.7.18-6.55,0c-.37-.14-.63-.75-.79-1.82l.29-2.79a4.32,4.32,0,0,1,0-2.06l.65-.34,2.67.08c.51-.23.76-.77.75-1.63l.1-9.17-.16-3.78-.89-.76h-.66c-.48.15-.75.87-.81,2.17-.14.22-.47.3-1,.23l-3.55.05-.41-.43c.05-8.06,0-12.48-.17-13.29l.21-1.07Z"/>
          <path class="cls-24" d="M268.74,656.35q7.45.12,8.42.44a16.92,16.92,0,0,1,4.88,1.59,5.84,5.84,0,0,1,2.62,2.24,11.8,11.8,0,0,1,.71,3.77l.34,1a4,4,0,0,1-.19,2q.24,2.05.05,12.81-.7,10.54-7.75,11.29l-9.51,0-1.83-.2a3.9,3.9,0,0,1-1.86,0c-.35-.06-.56-.32-.64-.76l-.27-4.33,0-1.39.33-.33,2.67.07c.22,0,.5-.3.86-.89q-.3-6.32-.18-14.35a1.6,1.6,0,0,0-1-.83l-2.93.15c-.29-.15-.44-.33-.44-.55l0-2.83.21-1,.06-3.45.29-3.16a.93.93,0,0,1,1.05-.89Zm2.88,22.35c.05,3.63.39,5.54,1,5.75l4.75-.39q2.81-.59,3.5-5.92a12.51,12.51,0,0,0-1.46-6,3.79,3.79,0,0,0-2.73-1.36c-2.82,0-4.38.35-4.67.94l-.3,1.62.05,4Z"/>
          <path class="cls-24" d="M296.71,656.06l4.68-.06,2.82.37a11,11,0,0,1,3.12,1l1.26.93q1.08,1.65,1.76,6.33a79.2,79.2,0,0,0,.12,9.18q-.17,12.74-1.39,14.29a5.16,5.16,0,0,1-2.68,2q-5.07,1.35-5.29,1l-5.38,0-2.6-.48c-.86-.21-1.88-1.14-3.07-2.78a15.78,15.78,0,0,1-1.52-4.57l-.63-8.84,0-6.57.56-4.41.81-2.51a10.22,10.22,0,0,1,2.85-3.38C294.78,656.34,296.29,655.85,296.71,656.06Zm-3.22,14a33.76,33.76,0,0,0,.73,8.54l.53,1.06a5.47,5.47,0,0,0,2.61,1.62q3.51-.15,5.07-1.61a4.22,4.22,0,0,0,.81-1.81l.35-4-.06-5.11a7.89,7.89,0,0,0-.95-2.59l-1.25-.94-2.93.26-2.29.47a4,4,0,0,0-2,1.35A12.56,12.56,0,0,0,293.49,670.05Z"/>
          <path class="cls-24" d="M313.1,682.13a8.49,8.49,0,0,0,2.85,0c.51-.05.76-.58.75-1.58l.05-10.21,0-3.3-.53-.84-2-.19a.85.85,0,0,1-.34-.73q.29-3.65.23-7.57l.5-1.18,1.82-.46a27.32,27.32,0,0,0,5-.07l.62.33,6.58,16.94.56.4.39-.41.16-4.81,0-3.08c-.08-.57-.9-.91-2.46-1-.42-.26-.56-1-.43-2.12l0-5.51c.06-.51.27-.77.61-.77l5.74-.19a19.43,19.43,0,0,0,4.53-.17.51.51,0,0,1,.55.44l.16,3.52.32,2.42,0,2.12-.4.45-4,.38a1.82,1.82,0,0,0-.86,1.48l-.2,7.24.05,4.14a1.68,1.68,0,0,0,.74.87l2.64,0c.44.07.62.46.56,1.17l.24,9.8a.71.71,0,0,1-.65.63,11.42,11.42,0,0,0-3.69.16l-4.14.05-.62-.39q-5.31-14.62-6.31-18.64l-.3-.33c-.37-.07-.62.14-.76.63l-.52,8c-.06,1.13.06,1.73.35,1.8l.41.21,1.61,0c.41.07.56.74.42,2l-.2,6.61-.44.3-1.57.13a28.9,28.9,0,0,0-5.52.19l-.73-.21-1.61-.09a.86.86,0,0,1-.45-.73,52.85,52.85,0,0,0-.1-7.34Z"/>
          <path class="cls-24" d="M334.44,655.72q8.08.12,19.49-.25c.71,0,1.14.17,1.29.53l-.22,8.08-.32,1.22.15,3.11a1.1,1.1,0,0,1-.5.67l-3.14.26h-.74c-.51,0-.74-.71-.68-2.16l-.77-.43-2,.14c-.65.64-.91,1-.76,1.18l-.5,12.42.13,1.65.56.39,3.66,0c.36-.08.59.43.67,1.53l-.09,1.07.16,4.51q-.09.76-.75.78l-5.71.18-6.54,0c-.37-.14-.63-.75-.79-1.83l.29-2.79a4.53,4.53,0,0,1,0-2.06l.66-.33,2.67.07q.76-.35.75-1.62l.1-9.18-.16-3.78-.89-.76h-.66c-.48.15-.75.88-.81,2.17-.14.23-.47.3-1,.24l-3.55,0-.41-.43q.06-12.07-.17-13.29l.21-1.06Z"/>
          <path class="cls-24" d="M368.19,655.36l10.5,0a1,1,0,0,1,.85.65q.16,4.66-.07,8.92l-.43.34-2.64.14q-1.61.21-1.59,1.38v8.63l.12.62-.17,3.52.33.33a.6.6,0,0,0,.73-.34l.92-2.14.62-2.65,4.9-14.64c.33-.86.82-1.05,1.46-.57l3.35,13.8a.88.88,0,0,0,.89.72c.34-.15.57-1,.7-2.65,0-3.55.14-5.43.33-5.66l0-1.58-.74-.76-2.24-.08c-.34,0-.44-.76-.32-2.31l.12-5c.14-.49.32-.73.54-.74a4.55,4.55,0,0,1,1.91.31,3.43,3.43,0,0,1,1.78-.25l8.08-.1c.49.14.71.57.64,1.28l-.08,1.8q.33.32.4,6.05l-.43.55-5.19,0-.62.45-.21.41-.9,12.34a2.05,2.05,0,0,0,.57,1.94l.51.18,3.19.06c.22,0,.33.15.33.44l.27,6.9,0,1.5-.4.41-3.61.27-3.48,0a2.06,2.06,0,0,1-1.17-.5l-1.44-3.5-2.22-7.53-1.74-5q-.12-.33-.66-.21c-.2,0-.56,1-1.1,3q-2.23,7.38-3.77,13.49c-.07.27-.46.44-1.17.52a38.29,38.29,0,0,1-7.2,0q-.63-.1-.54-2l0-5.33a.58.58,0,0,1,.51-.41q2.85.48,2.3-2.93l-.24-1.57-.54-11.08q-.24-1.25-2.58-1.32a2.58,2.58,0,0,1-.35-1.62v-7.85C367.54,655.48,367.85,655.29,368.19,655.36Z"/>
          <path class="cls-24" d="M410,654.6l4.68-.07,2.82.37a11.66,11.66,0,0,1,3.12,1l1.26.94c.72,1.09,1.3,3.2,1.76,6.32a79,79,0,0,0,.12,9.18q-.16,12.74-1.39,14.3a5.2,5.2,0,0,1-2.68,2q-5.07,1.35-5.29,1l-5.38,0-2.6-.49c-.86-.2-1.88-1.13-3.07-2.78a15.38,15.38,0,0,1-1.52-4.57l-.63-8.84,0-6.57.56-4.41.81-2.51a10.21,10.21,0,0,1,2.85-3.37Q409.39,654.28,410,654.6Zm-3.22,14a33.76,33.76,0,0,0,.73,8.54l.52,1.06a5.66,5.66,0,0,0,2.62,1.61c2.34-.1,4-.64,5.06-1.6a4.25,4.25,0,0,0,.82-1.81l.35-4-.06-5.1a8.17,8.17,0,0,0-.95-2.6l-1.26-.93-2.92.25-2.3.47a4,4,0,0,0-2,1.35A11.92,11.92,0,0,0,406.8,668.59Z"/>
          <path class="cls-24" d="M424.14,654.67l3.4,0,2.55-.22a60.11,60.11,0,0,0,6.84-.09,7.2,7.2,0,0,1,5.24,3.24,7,7,0,0,1,1.12,2.33l.24,3.86.05,4a6.82,6.82,0,0,1-.91,3.13l-.83.86q-1.5.65-1.71,1.41l.34.4a2.33,2.33,0,0,1,1.81,1.81l.36,2.24c-.12,1.49,0,2.46.48,2.89l.73-.12.21-.74.08-2.38a1,1,0,0,1,1.16-.53l1.17.09.34.33c.14,5.55,0,9.08-.53,10.58-.4.79-1.53,1.3-3.38,1.55a11.27,11.27,0,0,1-3.73-.4,3.81,3.81,0,0,1-1.74-1.26,6.06,6.06,0,0,1-.76-2.12l-.94-8-.68-1.79c-.94-1.07-1.73-1.41-2.36-1-.36.2-.59,1.45-.68,3.76-.2,1.64.06,2.59.77,2.85l1.5-.09.51.28,0,7.31c-.21.49-.71.7-1.49.64l-8-.12-.44-.39-.06-4.63-.2-1.17c-.08-.93,0-1.43.16-1.51l2.27-.14.39-.63q.07-3.41-.79-13.27c-.23-.64-.49-1-.78-1.06l-2.45-.37c-.42-.43-.56-.76-.42-1l0-2.13.54-6.76C423.14,655.33,423.36,654.8,424.14,654.67Zm9.92,9.71q-.29,3.3,1.11,3.84c1.86.12,2.91-.61,3.15-2.21l0-2.64c-.13-.73-.88-1.34-2.25-1.81-1-.13-1.56,0-1.68.47Z"/>
          <path class="cls-24" d="M449.69,654.34l3.4,0,2.56-.22a62.51,62.51,0,0,0,6.84-.09,7.18,7.18,0,0,1,5.23,3.24,6.79,6.79,0,0,1,1.13,2.33l.23,3.85.05,4a6.74,6.74,0,0,1-.91,3.13l-.83.85c-1,.43-1.56.91-1.7,1.42l.34.4a2.35,2.35,0,0,1,1.81,1.81l.36,2.24c-.13,1.49,0,2.46.48,2.89l.73-.12.21-.74.07-2.38a1,1,0,0,1,1.17-.53l1.17.09.33.33c.15,5.55,0,9.08-.52,10.58-.4.79-1.53,1.3-3.38,1.55a11.34,11.34,0,0,1-3.74-.4,3.79,3.79,0,0,1-1.73-1.26,6.06,6.06,0,0,1-.76-2.12l-.94-8-.69-1.79c-.94-1.07-1.72-1.41-2.35-1-.36.2-.59,1.45-.68,3.76-.2,1.64.06,2.59.77,2.85l1.49-.09.52.28,0,7.31c-.21.49-.71.7-1.49.64l-8-.12-.44-.39-.06-4.63-.2-1.17c-.09-.93,0-1.43.16-1.51l2.27-.14.39-.63q.08-3.4-.79-13.27c-.23-.64-.49-1-.78-1.06L449,665.8c-.42-.43-.56-.76-.41-1l0-2.12.54-6.76Q448.52,654.54,449.69,654.34Zm9.93,9.71q-.28,3.3,1.11,3.84c1.85.12,2.9-.62,3.15-2.21l0-2.64c-.13-.73-.89-1.34-2.26-1.81-1-.13-1.56,0-1.67.46Z"/>
          <path class="cls-24" d="M475.14,654.08l8.74-.11a.78.78,0,0,1,.63.65l-.09,1.51-.28.74.22,3.41,0,2.38-.32.63-1.06.35-1,.85v.44l.79,1.61.54,2.23,1.62.93q1,.21,2.06-4.72v-.88l-1-.61a7.06,7.06,0,0,1-.26-3.53c.62-3.16.81-4.91.59-5.25a1.57,1.57,0,0,1,.83-1l6.73-.08,2.23.37.45.88v.73l-.42,1.18.24,2.13-.05,4.51c-.14.3-.6.45-1.38.46l-1.91-.2c-.73,0-1.19.15-1.38.43q-2,3.14-1.89,3.36l-.71,1.81-.62,3-.93,2,.2,6.64.33.33,2.12-.14c.3.14.44.31.45.5l0,6.36a.65.65,0,0,1-.54.41,8.56,8.56,0,0,1-2.79-.19l-4.24.17c.08.22-.92.34-3,.37-1.27.09-1.83-.26-1.7-1.05l-.06-4.8.18-.78a1.35,1.35,0,0,1,.86-.74l2.23-.25c.29-.08.46-.58.49-1.51l.16-4.59-.42-1.72-1.42-2.11-2.4-5-.12-.66-.45-.73-.85-.72c-1.63.07-2.42-.21-2.35-.85l.18-8.45C474.45,654.35,474.7,654.09,475.14,654.08Z"/>
          <path class="cls-24" d="M516.6,653.55l8.74-.12a.78.78,0,0,1,.63.66l-.09,1.5-.28.74.23,3.41-.05,2.39-.32.62-1.05.35-1,.86v.44l.78,1.6.54,2.23,1.63.94c.63.13,1.32-1.44,2.06-4.73l0-.88-.95-.61a7,7,0,0,1-.27-3.52q.93-4.75.59-5.26a1.55,1.55,0,0,1,.83-1l6.73-.09,2.23.37.45.88v.73l-.42,1.18.25,2.13-.06,4.51c-.14.3-.6.45-1.38.46l-1.9-.19c-.73,0-1.2.15-1.39.42q-2,3.15-1.89,3.36l-.71,1.81-.62,3-.92,2,.19,6.64.33.33,2.12-.14q.45.21.45.51l0,6.35a.63.63,0,0,1-.54.41,8.49,8.49,0,0,1-2.78-.18l-4.24.16c.07.22-.93.34-3,.37-1.27.09-1.83-.26-1.69-1l-.07-4.81.18-.77a1.33,1.33,0,0,1,.86-.75l2.23-.25c.29-.07.46-.58.5-1.51l.16-4.59-.43-1.72-1.42-2.11-2.4-5-.12-.66-.45-.73-.85-.72c-1.63.07-2.41-.21-2.35-.85l.19-8.44C515.91,653.81,516.17,653.55,516.6,653.55Z"/>
          <path class="cls-24" d="M548.81,652.8l4.68-.06,2.82.37a11.2,11.2,0,0,1,3.12,1l1.26.94q1.08,1.63,1.76,6.33a81.58,81.58,0,0,0,.12,9.17q-.17,12.75-1.39,14.3a5.27,5.27,0,0,1-2.68,2q-5.07,1.35-5.29,1l-5.38,0-2.6-.48c-.85-.21-1.88-1.14-3.07-2.79a15.57,15.57,0,0,1-1.52-4.57l-.63-8.83,0-6.58.56-4.41.81-2.5a10.35,10.35,0,0,1,2.85-3.38C546.88,653.08,548.39,652.58,548.81,652.8Zm-3.22,14a34.23,34.23,0,0,0,.73,8.54l.53,1.06a5.63,5.63,0,0,0,2.61,1.62c2.34-.11,4-.64,5.07-1.61a4.14,4.14,0,0,0,.81-1.81l.36-4-.07-5.1a7.89,7.89,0,0,0-1-2.59l-1.25-.94-2.92.26-2.3.47a4,4,0,0,0-2,1.34A11.8,11.8,0,0,0,545.59,666.79Z"/>
          <path class="cls-24" d="M565.08,652.85l11.89.06.3.29-.23,5.18.05,3.41-.22.56-2.66.54a1.82,1.82,0,0,0-.75,1.74c-.2,4.65-.3,7.87-.27,9.66l.64,1.31,1.5.6a8,8,0,0,0,3.22-.26,1.94,1.94,0,0,0,.93-1.52l.12-7.49.2-1.72,0-2.28-.11-.29-1.19-1,.29-3.41V653.4a1,1,0,0,1,.54-.63c5.14-.14,8.18-.29,9.1-.45,1.26-.16,1.94,0,2,.42l.17,5.13c.32,2.23.06,3.4-.79,3.54a24.91,24.91,0,0,0-4.39.05l-.65.67.11,8.26a17.43,17.43,0,0,1,.38,4.62l-.58,5.81-.69,2.91-.64,1.62q-.27,1.47-6.59,2.21l-4.79.07a5.67,5.67,0,0,1-2.91-1.58,4.13,4.13,0,0,1-1.24-2.44l-.1-16.12.28-3.86-.52-.83-2.6-.19c-.41-.07-.55-.6-.42-1.61l.12-7.74C564.7,653,564.87,652.85,565.08,652.85Z"/>
          <path class="cls-24" d="M612.61,652.08a16.06,16.06,0,0,1,4.54.16l2.46.82,1.73,1a.5.5,0,0,0,.62-.3c-.23-1.08-.13-1.73.31-1.95l1.24,0c.07.15,1.14.32,3.19.51.29.07.44.6.46,1.57l0,14.28-.33.23-4.75.17-5.7.07-.55-.21-.23-.55a9.51,9.51,0,0,0-.26-3,3.21,3.21,0,0,0-5.49-.66c-.43,1.06-.71,3.4-.86,7a11.69,11.69,0,0,0,.8,5.09,6.76,6.76,0,0,0,2.48,2.32l2.74-.15,1.66-1.19a6.34,6.34,0,0,0,1-2.26l.3-3c0-.27.31-.41.94-.42l5.82.11.66.43a36.66,36.66,0,0,1-.35,7q-2.13,7.92-10.39,7.8c-.64.16-2.22-.1-4.77-.78q-3.82-1.56-3.93-1.86a7.37,7.37,0,0,1-3-5.72q-.12-9.47.22-17.22l.58-3.13q.42-2.08,3.46-4.37A12.91,12.91,0,0,1,612.61,652.08Z"/>
          <path class="cls-24" d="M634.92,652.09h7.54c2.55-.33,3.94-.35,4.16-.05a40.57,40.57,0,0,0,1.36,6.33c.09.88,0,1.32-.2,1.32l-1.16.35-.65.78a6,6,0,0,0,.8,2.48l2.22,5.11,1.57,2.85a38.07,38.07,0,0,0,2.38,5.32,2.85,2.85,0,0,0,1.43.65l2.27-.14.44.43c-.08,5.19,0,7.86.1,8-.14.52-.32.78-.53.78l-3,0-1-.32-1,.34-6.66.31c-1.17,0-1.75-.16-1.76-.53l-.29-5.68.09-1.21,1-.35c.58-.3.27-1.38-.92-3.25.14-.67.09-1.07-.13-1.21l-3.47.26-1,2.84v.66l.55.55c1.08,0,1.76.34,2.06.85q.51,5.46.08,5.58l-5.67.29-4.68.06c-.51-.07-.77-.28-.78-.65l-.27-3.92,0-2,.43-.45,2,0c.36.07.85-.78,1.46-2.55l.42-1.62,2.23-6.16a44.06,44.06,0,0,1,1.79-5.86v-.66l-.56-.54-2,0c-.44-.07-.6-1-.48-2.75l-.49-4.39-.35-1.39.11-.23Zm5.7,19v.88l.44.44a1.29,1.29,0,0,0,1.53-.57c.14-.15,0-.88-.47-2.2l-.33-.54c-.52-.07-.77,0-.77.23Z"/>
          <path class="cls-24" d="M659.28,677.65a8.49,8.49,0,0,0,2.85,0q.76-.08.75-1.59l0-10.2,0-3.3-.53-.84-2-.19a.82.82,0,0,1-.34-.73q.29-3.64.23-7.57l.5-1.18,1.82-.46a27.21,27.21,0,0,0,5-.07l.63.32,6.58,17,.55.4.4-.41.16-4.81,0-3.09c-.08-.56-.9-.9-2.46-1-.42-.26-.56-1-.43-2.12l0-5.51c.06-.51.27-.77.61-.78l5.74-.18a19.43,19.43,0,0,0,4.53-.17.51.51,0,0,1,.55.43l.16,3.53.32,2.41,0,2.13-.4.45-4,.38a1.82,1.82,0,0,0-.85,1.48l-.2,7.23.05,4.15a1.68,1.68,0,0,0,.74.87l2.64,0c.44.07.62.46.56,1.17l.23,9.8a.71.71,0,0,1-.65.63,11.17,11.17,0,0,0-3.69.16l-4.13.05-.63-.4q-5.29-14.61-6.3-18.63l-.3-.33c-.37-.07-.62.14-.76.63l-.52,8c-.06,1.13.06,1.73.35,1.8l.41.21,1.61,0q.62.1.42,2l-.2,6.61-.44.3-1.57.13a29.65,29.65,0,0,0-5.52.18l-.73-.21-1.61-.09a.84.84,0,0,1-.45-.72,52.78,52.78,0,0,0-.1-7.34Z"/>
          <path class="cls-24" d="M697.77,651q8.09.11,19.49-.26c.71,0,1.13.17,1.29.54l-.23,8.08-.31,1.21.15,3.12a1.07,1.07,0,0,1-.51.67l-3.14.26h-.73c-.51,0-.74-.71-.69-2.16l-.77-.43-2,.14c-.65.64-.9,1-.75,1.18l-.5,12.41.13,1.65.55.4,3.66-.05c.37-.08.59.44.68,1.54l-.1,1.06.17,4.51c-.07.52-.32.78-.76.78l-5.7.19-6.55,0c-.36-.14-.63-.75-.79-1.82l.3-2.79a4.53,4.53,0,0,1,0-2.06l.65-.34,2.67.08c.51-.23.76-.77.75-1.63l.1-9.18-.16-3.77-.88-.76h-.66c-.49.16-.76.88-.82,2.18-.14.22-.47.3-1,.23l-3.55,0-.4-.44q.06-12.08-.17-13.28l.2-1.07Z"/>
          <path class="cls-24" d="M721.57,650.82l3.41,0,2.55-.22a62.51,62.51,0,0,0,6.84-.09,7.16,7.16,0,0,1,5.23,3.24,6.79,6.79,0,0,1,1.13,2.33L741,660l.06,4a6.71,6.71,0,0,1-.92,3.13l-.83.85c-1,.43-1.56.91-1.7,1.42l.34.4a2.32,2.32,0,0,1,1.81,1.81l.36,2.24c-.13,1.49,0,2.46.48,2.89l.73-.12.21-.74.08-2.38a1,1,0,0,1,1.16-.53l1.17.09.33.33c.15,5.55,0,9.08-.52,10.58-.4.79-1.53,1.3-3.38,1.55a11.23,11.23,0,0,1-3.73-.4,3.81,3.81,0,0,1-1.74-1.26,6.06,6.06,0,0,1-.76-2.12l-.94-8-.68-1.79c-.94-1.07-1.73-1.41-2.36-1-.36.2-.59,1.45-.68,3.76-.2,1.64.06,2.59.77,2.85l1.5-.09.51.28,0,7.31c-.21.49-.71.7-1.49.64l-8-.12-.44-.39-.06-4.63-.2-1.17c-.09-.93,0-1.43.16-1.51l2.27-.14.39-.63q.07-3.4-.79-13.27c-.23-.64-.49-1-.78-1.06l-2.46-.37c-.42-.44-.55-.76-.41-1l0-2.12.54-6.76C720.58,651.48,720.8,651,721.57,650.82Zm9.93,9.71q-.29,3.3,1.11,3.84c1.85.12,2.9-.62,3.15-2.21l0-2.64c-.13-.73-.88-1.34-2.26-1.81-1-.13-1.56,0-1.67.46Z"/>
          <path class="cls-24" d="M747,650.56l8.74-.11a.78.78,0,0,1,.63.65l-.09,1.51-.28.74.23,3.41,0,2.38-.32.63-1,.35-1,.85v.44l.79,1.61.54,2.23,1.63.93q.95.21,2.06-4.72l0-.88-1-.62a7,7,0,0,1-.27-3.52q.93-4.74.59-5.25a1.57,1.57,0,0,1,.83-1l6.73-.08,2.23.37.45.88v.73l-.42,1.18.25,2.13-.06,4.51c-.14.3-.6.45-1.38.46l-1.9-.2c-.74,0-1.2.15-1.39.43q-2,3.14-1.89,3.36L761,665.8l-.62,3-.92,2,.19,6.64.33.32,2.12-.13c.3.14.45.31.45.5l0,6.36a.64.64,0,0,1-.54.41,8.56,8.56,0,0,1-2.79-.19l-4.23.17c.07.22-.93.34-3,.37-1.27.09-1.83-.26-1.69-1l-.07-4.8.18-.78a1.35,1.35,0,0,1,.86-.74l2.23-.25c.29-.08.46-.58.49-1.51l.17-4.59-.43-1.72-1.42-2.11-2.4-5-.12-.66-.45-.73-.85-.72c-1.63.07-2.41-.21-2.35-.85l.19-8.45Q746.36,650.58,747,650.56Z"/>
          <path class="cls-24" d="M785.56,650.14h7.53c2.56-.33,3.95-.35,4.17,0a40.57,40.57,0,0,0,1.36,6.33c.09.88,0,1.32-.2,1.32l-1.16.35-.65.78a6,6,0,0,0,.8,2.48l2.22,5.11,1.57,2.85a38.07,38.07,0,0,0,2.38,5.32,2.85,2.85,0,0,0,1.43.65l2.27-.14.44.43q-.12,7.78.1,8-.21.78-.54.78l-3,0-1-.32-1,.34-6.66.31c-1.17,0-1.75-.16-1.76-.53l-.29-5.68.09-1.22,1-.34c.58-.3.27-1.38-.92-3.25.13-.67.09-1.07-.13-1.21l-3.47.26-1,2.84v.66l.55.54c1.08.06,1.76.35,2.06.86.34,3.64.37,5.5.07,5.58l-5.66.29-4.68.06c-.51-.07-.77-.28-.78-.65l-.27-3.92,0-2,.43-.45,2,0c.36.07.85-.78,1.46-2.55l.42-1.62,2.22-6.16a47.55,47.55,0,0,1,1.79-5.86v-.66l-.56-.54-2,0c-.44-.07-.6-1-.48-2.75l-.49-4.39-.35-1.39.11-.23Zm5.69,19,0,.88.44.44a1.29,1.29,0,0,0,1.53-.57c.14-.15,0-.88-.47-2.2l-.33-.54c-.52-.07-.77,0-.77.23Z"/>
          <path class="cls-24" d="M818.8,649.71l3.54-.05,3.71.8,2,.81c.42-.07.62-.6.6-1.58l.84-.19,3.26,0,1.16-.31c.49.14.7.31.63.5l.15,3.27.13,10.09q-.21.45-.54.45-1.14-.31-6.06.81l-.84-.21a6.61,6.61,0,0,0-1.17-2.3c-.56-.55-1-.83-1.29-.82a36.16,36.16,0,0,0-6.27,1.66,5.9,5.9,0,0,0-2.67,2.67,18.23,18.23,0,0,0-.69,3.06,17.53,17.53,0,0,0,.27,4,14,14,0,0,0,1.4,3.91,2.37,2.37,0,0,0,1.15.79l1.17.32,1.87,0,2.62-1,.5-.63a1.6,1.6,0,0,0-.75-1.56l-3.87.27c-.42-.22-.59-.46-.52-.73a8.48,8.48,0,0,0-.27-3.27l.09-1.79,1-.31a67.23,67.23,0,0,1,9.31-.67l3.76-.45c1.2-.09,1.8,0,1.8.19l.23,3.78-.05,1.69-.44.3a1.54,1.54,0,0,0-1.34.86,75.85,75.85,0,0,0,.12,9l-.51.4-2.85.48c-.48.06-.8,0-.95-.2l-.74-.73h-.62l-4.37,1.19-4,.27-4-.35a6.1,6.1,0,0,1-4.54-3.65c-.65-.89-1.07-3.76-1.28-8.61l.14-6.31c.37-2.8.5-4.23.38-4.3a32.25,32.25,0,0,1,1.56-6.55A8.26,8.26,0,0,1,818.8,649.71Z"/>
          <path class="cls-24" d="M842.2,649.4l7.53,0q3.84-.49,4.17-.06a40,40,0,0,0,1.36,6.33c.08.88,0,1.33-.2,1.33l-1.17.34-.65.78a6.19,6.19,0,0,0,.8,2.49l2.23,5.11,1.57,2.84a38.53,38.53,0,0,0,2.37,5.33,2.93,2.93,0,0,0,1.44.64l2.26-.14.45.44c-.08,5.19-.05,7.85.1,8q-.21.76-.54.78l-3,0-1-.32-1,.34-6.65.31c-1.17,0-1.76-.16-1.76-.53l-.29-5.69.09-1.21,1-.34c.58-.3.28-1.39-.92-3.26.14-.66.1-1.06-.12-1.21l-3.47.27-.95,2.84v.66l.56.54c1.07.06,1.76.35,2.06.86q.51,5.46.07,5.57l-5.66.3-4.68.06c-.52-.07-.78-.29-.78-.65l-.27-3.93,0-2,.44-.44,2,0q.56.1,1.47-2.55l.42-1.62,2.22-6.16a45.24,45.24,0,0,1,1.79-5.86V659l-.55-.54-2-.05c-.44-.07-.6-1-.47-2.75l-.5-4.4-.35-1.39.11-.22Zm5.69,19v.88l.45.44a1.29,1.29,0,0,0,1.52-.57c.15-.15,0-.88-.46-2.2l-.34-.55c-.51-.06-.77,0-.76.23Z"/>
          <path class="cls-24" d="M866.36,648.83l11,0c.3.59.47,2.36.51,5.32l0,2.6-.43.45c-1.81-.34-2.78.18-2.91,1.58l-.05,10.31.15,3.23.63.65,4.57-.06.41.33.34,9.43c0,.37-.31.59-.94.67a19.77,19.77,0,0,0-4.57.17l-1.83-.09c-.14.23-1.87.36-5.19.4-1.22,0-1.83-.16-1.83-.53l-.12-9,.22-.33,2.7-.25a1.6,1.6,0,0,0,.6-1.44l.05-13.55a2.76,2.76,0,0,0-1-1.09l-2.16-.08c-.29-.07-.44-.32-.44-.76l-.21-7.38A.53.53,0,0,1,866.36,648.83Z"/>
          <path class="cls-24" d="M883.33,674.75a8.53,8.53,0,0,0,2.86,0c.51-.05.76-.58.74-1.59l.06-10.2,0-3.3-.52-.84-2-.2a.8.8,0,0,1-.34-.73c.19-2.42.26-4.94.23-7.56l.5-1.18,1.82-.47a27.07,27.07,0,0,0,5-.06l.63.32,6.58,17,.55.4.4-.41.16-4.81,0-3.09c-.08-.56-.9-.9-2.47-1-.41-.26-.56-1-.43-2.12l0-5.51c.07-.51.27-.77.62-.78l5.73-.18a19.51,19.51,0,0,0,4.54-.17.52.52,0,0,1,.55.43l.16,3.52.32,2.42,0,2.13-.4.45-4,.38a1.85,1.85,0,0,0-.86,1.48l-.2,7.23.06,4.15a1.68,1.68,0,0,0,.74.87l2.63,0q.66.11.57,1.17l.23,9.79a.72.72,0,0,1-.65.64,11.59,11.59,0,0,0-3.69.15l-4.13.06-.63-.4Q893.3,668.05,892.3,664l-.29-.32c-.37-.07-.62.14-.76.63l-.52,8c-.06,1.13.06,1.73.35,1.8l.4.21,1.61,0c.42.07.56.74.43,2l-.21,6.61-.43.3-1.57.13a28.81,28.81,0,0,0-5.52.18l-.74-.21-1.61-.09a.85.85,0,0,1-.44-.73,52.92,52.92,0,0,0-.1-7.34Z"/>
        </g>
      </g>
    </g>
    <g id="settings">
      <g>
        <circle class="cls-24" cx="502" cy="796.5" r="33.5"/>
        <path class="cls-27" d="M493.06,774.12a24.55,24.55,0,0,0-6.71,4.46l2.11,4.67a19.77,19.77,0,1,1-3.35,21.37c-.12-.25-.22-.51-.33-.76l.07,0,3.65,2.62,3.51-1.58-14-10-1.73,17.12,3.51-1.58.45-4.47.16-.07c.1.25.21.51.33.76a24.55,24.55,0,1,0,12.3-32.46Z"/>
      </g>
    </g>
  </g>
</svg>
