<svg xmlns="http://www.w3.org/2000/svg" xmlns:xlink="http://www.w3.org/1999/xlink" width="1000" height="900" viewBox="0 0 1000 900">
  <defs>
    <style>
      .cls-1 {
        fill: none;
      }

      .cls-2 {
        fill: #8c6239;
      }

      .cls-3 {
        fill: #573c23;
      }

      .cls-4, .cls-5 {
        fill: #ad7846;
      }

      .cls-5 {
        stroke: #000;
        stroke-miterlimit: 10;
        stroke-width: 2px;
      }

      .cls-6 {
        clip-path: url(#clip-path);
      }

      .cls-7 {
        fill: #f7d2d2;
      }

      .cls-8 {
        fill: #35485e;
      }

      .cls-9 {
        fill: #b00002;
      }

      .cls-10 {
        fill: #511801;
      }

      .cls-11 {
        fill: #734a39;
      }

      .cls-12 {
        fill: #f5c7c7;
      }

      .cls-13 {
        fill: #fff;
      }

      .cls-14 {
        fill: #231f20;
      }

      .cls-15 {
        fill: #b89595;
      }

      .cls-16 {
        fill: #9c796a;
      }

      .cls-17 {
        fill: #914e33;
      }

      .cls-18 {
        fill: #fabf6f;
      }

      .cls-19 {
        opacity: 0.54;
      }

      .cls-20 {
        fill: gold;
      }

      .cls-21 {
        opacity: 0.5;
      }

      .cls-22 {
        fill: #f7931e;
      }

      .cls-23 {
        clip-path: url(#clip-path-2);
      }

      .cls-24 {
        clip-path: url(#clip-path-3);
      }

      .cls-25 {
        fill: #42210b;
      }
    </style>
    <clipPath id="clip-path">
      <rect class="cls-1" x="327.47" y="203.5" width="372.81" height="388.83"/>
    </clipPath>
    <clipPath id="clip-path-2">
      <rect class="cls-1" x="1300.5" y="-2643.5" width="1920" height="1077"/>
    </clipPath>
    <clipPath id="clip-path-3">
      <rect class="cls-1" x="-701.5" y="-2663.5" width="1919" height="1079"/>
    </clipPath>
  </defs>
  <g id="end_screens" data-name="end screens">
    <g id="you_won" data-name="you won">
      <g>
        <g>
          <rect class="cls-2" x="5.78" y="5" width="992.71" height="898.68"/>
          <path d="M6.45,5.34l991.71.32-.33,897.68L6.11,903,6.45,5.34m-1-1L5.11,904l993.72.32.33-899.68L5.45,4.34Z"/>
        </g>
        <g>
          <g>
            <g>
              <path class="cls-3" d="M439.08,38C308.4,38,177.16,37.6,48.31,36.78c185.6-1.68,374.89-2.54,563.33-2.54,129.12,0,259.32.41,387,1.2v.08C813.86,37.17,625.59,38,439.08,38Z"/>
              <path d="M611.73,34.74c107,0,214.85.28,321.35.83-163.63,1.29-329.51,1.94-494,1.94-107,0-214.38-.28-320.53-.83,163-1.28,328.41-1.94,493.17-1.94h0m-.06-1c-202.71,0-405.91,1-606.23,2.94V37c143.5,1,288.43,1.52,433.63,1.52,187.15,0,374.74-.84,560.08-2.5V34.94c-128.4-.8-257.83-1.2-387.48-1.2Z"/>
            </g>
            <g>
              <path class="cls-3" d="M382.77,81.57c-125.43,0-252.22-.15-376.85-.45V81c170.29-.57,344.08-.85,516.54-.85,132.59,0,266.18.17,398.17.5-57.73.2-114.93.36-170.84.49h-.45C628.1,81.42,504.77,81.57,382.77,81.57Z"/>
              <path d="M522.51,80.65q88.9,0,178.18.1c-105.5.21-212.22.32-317.94.32-59.11,0-118.51,0-177.85-.1,105.58-.22,211.79-.32,317.48-.32h.13m-.13-1c-172.62,0-345.49.28-517,.85v1.12q187.91.45,377.33.45c122.27,0,244.68-.14,366.59-.43h.45q125.09-.28,249.34-.78v-.49c-157.9-.48-317.22-.72-476.75-.72Z"/>
            </g>
            <g>
              <path class="cls-3" d="M351.3,125.14c-115.12,0-231.32-.16-345.4-.49v-.71c169.51-.71,342.31-1.07,513.62-1.07,146.16,0,293.48.27,438.51.78C757.47,124.64,553.58,125.14,351.3,125.14Z"/>
              <path d="M519.54,122.37v1c100.65,0,201.84.13,302.45.37-156.38.6-314.08.9-470.82.9-100.57,0-202-.13-302.07-.37,155.6-.6,313.63-.9,470.44-.9v-1m0,0c-171.63,0-343.51.36-514.14,1.07v1.71q172.27.5,345.77.49c216.59,0,433.56-.57,648-1.7v-.64c-158.85-.61-319.1-.93-479.58-.93Z"/>
            </g>
            <g>
              <path class="cls-3" d="M335.9,168.71c-92.85,0-186.58-.16-278.58-.49h-.27q-25.6-.09-51.16-.2v-1.7c174.82-1.18,352.88-1.78,529.28-1.78,154.69,0,310.62.46,463.43,1.37v0c-140.56,1.19-283.26,2-424.15,2.43h-.33C495,168.59,414.84,168.71,335.9,168.71Z"/>
              <path d="M535.1,164v1c130.21,0,261.28.33,390.67,1-116.86.88-234.71,1.5-351.32,1.85h-.33c-79.09.24-159.2.36-238.1.36-92.86,0-186.59-.16-278.59-.49H57q-25.32-.09-50.59-.2v-.7C181,165.63,358.88,165,535.1,165v-1m0,0c-176.8,0-353.92.6-529.71,1.79v2.69q25.86.12,51.78.2h0q139.07.51,278.83.5,119,0,238.1-.36h.33c142.11-.42,283.94-1.24,424.65-2.43v-1c-153.71-.92-308.73-1.38-464-1.38Z"/>
            </g>
            <g>
              <path class="cls-3" d="M459.21,212.33c-114.86,0-230.21-.16-344.21-.49,157.88-.62,318.1-.93,477.72-.93,114.92,0,230.66.16,344.93.48C779.37,212,618.72,212.33,459.21,212.33Z"/>
              <path d="M592.73,211.41q75.3,0,150.89.09c-94.74.22-189.8.33-284.46.33q-75.29,0-150.69-.09c94.51-.22,189.43-.33,284.14-.33h.12m-.12-1c-196.41,0-393.17.47-587.24,1.42V212c150.14.57,301.85.85,453.79.85,180.46,0,361.23-.4,539.93-1.19v-.56c-134.67-.45-270.48-.67-406.48-.67Z"/>
            </g>
            <g>
              <path class="cls-3" d="M402.1,255.89c-132.18,0-265.5-.14-396.24-.42v-.22c177.53-.51,358.71-.77,538.53-.77,146.15,0,293.82.17,439.15.51C791.13,255.59,595.6,255.89,402.1,255.89Z"/>
              <path d="M544.43,255c65.8,0,131.9,0,198,.1-113.43.21-227.19.31-340.28.31-65.75,0-131.77,0-197.63-.11,113-.2,226.77-.3,339.95-.3m0-1c-180,0-360.2.25-539.07.77V256q197.63.42,396.75.42c199.41,0,399.12-.32,597-.95v-.91c-150.8-.37-302.65-.55-454.64-.55Z"/>
            </g>
            <g>
              <path class="cls-3" d="M354.5,299.46c-116.19,0-233.5-.2-348.66-.61v-.91c174.51-.92,352.41-1.38,528.71-1.38,147.83,0,296.82.33,443.18,1C772,298.81,562.45,299.46,354.5,299.46Z"/>
              <path d="M534.57,297.06c112.76,0,226.19.19,338.61.57-171.94.88-345.9,1.33-518.76,1.33-112.73,0-226.51-.19-338.35-.57,171.25-.88,345.63-1.33,518.5-1.33m0-1c-176.67,0-353.66.46-529.23,1.39v1.9q173.9.61,349.08.61c215.45,0,431.36-.69,644.63-2.06v-.77c-153.86-.71-309-1.07-464.48-1.07Z"/>
            </g>
            <g>
              <path class="cls-3" d="M435.21,343.06c-98.51,0-197.33-.11-295.15-.33,135.53-.42,272.72-.64,409.46-.64,98.56,0,197.55.11,295.78.33C709.2,342.85,571.82,343.06,435.21,343.06Z"/>
              <path d="M549.53,341.59c-182,0-364.36.38-544.21,1.13v.13c142.22.48,286,.71,429.89.71,188.34,0,377-.4,562.91-1.2-148.33-.51-298.34-.77-448.59-.77Z"/>
            </g>
            <g>
              <path class="cls-3" d="M571.69,385.71c-103.68,0-207.61-.06-310.93-.18,127.08-.19,254.91-.28,382.23-.28,103.61,0,208.13.06,311.36.18C827.36,385.62,698.85,385.71,571.69,385.71Z"/>
              <path d="M642.88,384.75c-213.32,0-426.85.26-637.57.77v.08c187.32.41,376.79.61,566.4.61,142.65,0,285.38-.12,427.31-.34V385q-177.51-.24-356.14-.24Z"/>
            </g>
            <g>
              <path class="cls-3" d="M458.61,430.23c-114.76,0-229.94-.16-343.7-.49,157.82-.62,318-.93,477.63-.93,114.9,0,230.64.16,344.92.48C778.9,429.92,618.12,430.23,458.61,430.23Z"/>
              <path d="M592.55,429.31q75.06,0,150.4.09c-94.77.22-189.8.33-284.39.33q-74.91,0-149.92-.09c94.44-.22,189.27-.33,283.91-.33m0-1c-196.41,0-393.19.47-587.26,1.42v.15c150,.57,301.5.85,453.27.85,180.62,0,361.59-.4,540.44-1.19V429c-134.66-.45-270.46-.67-406.45-.67Z"/>
            </g>
            <g>
              <path class="cls-3" d="M470.19,473.82c-142,0-284.61-.48-424.53-1.41,201-1.92,406.15-2.89,610.4-2.89,114.05,0,229.25.31,342.43.91v1.23C823.72,473.09,646,473.82,470.19,473.82Z"/>
              <path d="M656.18,470c113.81,0,228.81.3,341.81.9v.25c-174.58,1.42-352.14,2.15-527.78,2.15-119.74,0-239.92-.34-358.56-1C291.47,470.79,474.14,470,656.16,470h0m-.07-1c-217.63,0-435.78,1.09-650.84,3.29v.32c153.87,1.13,309.25,1.69,464.94,1.69,176.54,0,353.48-.73,528.78-2.16v-2.23Q828.27,469,656.11,469Z"/>
            </g>
            <g>
              <path class="cls-3" d="M377.61,517.36c-124,0-249.15-.16-371.85-.48v-.21c171.6-.62,346.59-.93,520.12-.93,135.51,0,272,.19,406.62.57C748.79,517,562.46,517.36,377.61,517.36Z"/>
              <path d="M526,516.24c72.48,0,145.25,0,217.86.16-122,.31-244.45.46-366.31.46-72.42,0-145.21-.05-217.66-.16,121.6-.31,244.16-.46,366-.46H526m-.11-1c-173.84,0-347.93.31-520.6.93v1.21q185.37.48,372.26.48c207.73,0,415.82-.44,621.45-1.32V516c-156.7-.51-314.8-.77-473.11-.77Z"/>
            </g>
            <g>
              <path class="cls-3" d="M450.36,561c-80,0-160.22-.05-240.07-.16,107.66-.2,216.11-.3,324.23-.3,80,0,160.24.06,240.16.17C666.94,560.86,558.48,561,450.36,561Z"/>
              <path d="M534.43,560c-177,0-354.27.27-529.19.8v.1c147.23.38,296.07.56,445.08.56,183.28,0,366.8-.28,547.72-.85-153.26-.4-308.35-.61-463.61-.61Z"/>
            </g>
            <g>
              <path class="cls-3" d="M410.29,604.53c-135,0-271.12-.17-404.56-.5h0c179.83-.61,363.22-.92,545.1-.92,135.19,0,271.43.17,405.67.51C775.72,604.23,592.2,604.53,410.29,604.53Z"/>
              <path d="M550.79,602.61v1q90.56,0,181.49.11c-107.31.21-214.92.31-322,.31-60.29,0-120.78,0-181.16-.1,107-.21,214.61-.32,321.65-.32v-1m0,0c-182.23,0-364.69.31-545.56.92v1c134.4.33,269.67.5,405.07.5C607,605,804,604.68,998.94,604v-.74c-148.56-.41-298.28-.62-448.15-.62Z"/>
            </g>
            <g>
              <path class="cls-3" d="M458.69,648.13c-114.82,0-230.06-.17-343.88-.49,157.78-.62,317.87-.93,477.34-.93,114.83,0,230.48.16,344.63.48C778.47,647.81,617.94,648.13,458.69,648.13Z"/>
              <path d="M592.23,646.21v1q74.94,0,150.14.09c-94.54.22-189.36.33-283.72.33q-75,0-150-.09c94.34-.22,189.08-.33,283.59-.33v-1m0,0c-196.32,0-393,.47-587,1.41v.16c150,.57,301.62.85,453.44.85,180.58,0,361.45-.4,540.27-1.2v-.55c-134.74-.45-270.61-.67-406.69-.67Z"/>
            </g>
            <g>
              <path class="cls-3" d="M434.37,691.7c-139.5,0-280.18-.17-418.33-.51,184.54-.6,372.64-.91,559.26-.91,139.67,0,280.67.17,419.17.51C809.48,691.39,621.06,691.7,434.37,691.7Z"/>
              <path d="M575.58,690.78c62.46,0,125.21,0,187.87.11-109.58.2-219.61.31-329,.31q-93.62,0-187.58-.1c109.37-.21,219.24-.32,328.6-.32h.15m-.15-1c-190.49,0-381.22.32-570.24,1v.93c142.38.36,285.73.54,429.22.54,188.55,0,377.35-.31,564.5-.92v-1c-140.51-.34-281.92-.52-423.48-.52Z"/>
            </g>
            <g>
              <path class="cls-3" d="M344.5,736.66c-96.89,0-194.7-.18-290.7-.52h-.33L5.68,736v-.74c168.57-1.07,340.51-1.61,511-1.61,135.12,0,271,.34,404.93,1-114.58.82-230.23,1.39-344.8,1.72h-.12C499.65,736.55,421.52,736.66,344.5,736.66Z"/>
              <path d="M516.73,733.1v1c104.61,0,209.69.2,314,.61-84.62.5-169.53.88-253.86,1.12h-.13c-77.06.22-155.17.33-232.16.33-96.91,0-194.74-.18-290.76-.52h-.32l-22.26-.09c160.36-1,323.56-1.45,485.51-1.45v-1m0,0c-170.81,0-342,.54-511.55,1.61v1.74l48.29.19h.32q144.93.52,290.77.52,116.06,0,232.17-.33h.12c141.06-.4,281.77-1.17,421.12-2.3-159.16-.95-320.05-1.43-481.24-1.43Z"/>
            </g>
            <g>
              <path class="cls-3" d="M458.64,778.87c-114.82,0-230-.17-343.86-.49,157.77-.62,317.85-.93,477.33-.93,114.82,0,230.47.16,344.62.48C778.42,778.55,617.89,778.87,458.64,778.87Z"/>
              <path d="M592.17,778q74.93,0,150.13.09c-94.54.22-189.36.33-283.72.33q-75,0-150-.1c94.35-.21,189.1-.32,283.62-.32m0-1c-196.33,0-393,.47-587,1.41v.16c150,.56,301.6.85,453.42.85,180.58,0,361.48-.4,540.29-1.2v-.55c-134.74-.45-270.63-.67-406.7-.67Z"/>
            </g>
            <g>
              <path class="cls-3" d="M447.28,823.84l-137.91,0q87.57-.06,175.18-.06l138.16,0C564.17,823.82,505.52,823.84,447.28,823.84Z"/>
              <path d="M484.65,823.25c-160.31,0-320.71.14-479.51.43V824c146.5.25,294.32.37,442.21.37q154.18,0,308-.18h0q122.22-.13,243.46-.39h0c-170-.34-342.05-.5-514.21-.5Z"/>
            </g>
            <g>
              <path class="cls-3" d="M510.48,866c-87,0-174.11-.06-260.77-.17,113.63-.19,228-.29,342.15-.29,86.94,0,174.36.06,261.27.17C739.19,865.94,624.45,866,510.48,866Z"/>
              <path d="M591.81,865.08c-193.7,0-387.65.28-578.86.84,164.49.41,331,.62,497.58.62,163.2,0,326.55-.2,488.31-.59v-.46c-134.93-.27-270.9-.41-407-.41Z"/>
            </g>
          </g>
          <g>
            <path class="cls-4" d="M5.13,868.62v-.31c328.46-2.11,664.57-1.54,993.71,1.62V871C669.68,872.84,333.58,872,5.13,868.62Z"/>
            <path class="cls-4" d="M5.14,824.81v-1.12c248.81-.44,500.51-.28,750.24.47h0q122.13.38,243.46.93v.49C670.08,826.37,335.06,826.11,5.14,824.81Z"/>
            <path class="cls-4" d="M5.16,781.86v-1.71c330.17-.72,665-.09,993.71,1.86v.63C670.14,783.71,335.32,783.45,5.16,781.86Z"/>
            <path class="cls-4" d="M5.18,739.49v-2.7q24.12-.09,48.29-.15h.32c173.69-.52,348.53-.46,522.94.19h.12c141.23.52,282.18,1.42,422,2.7v1C670.15,742.29,335.34,741.94,5.18,739.49Z"/>
            <path class="cls-4" d="M5.19,693.48v-.15c328.46-1,664.57-.69,993.72,1v.56C669.76,695.76,333.64,695.29,5.19,693.48Z"/>
            <path class="cls-4" d="M5.21,650.56v-1.22c329.93-.49,664.33-.09,993.71,1.17v.92C669.54,652,335.13,651.73,5.21,650.56Z"/>
            <path class="cls-4" d="M5.22,607.87V606c330.06-.94,665-.23,993.72,2.09v.78C670.17,610.14,335.26,609.82,5.22,607.87Z"/>
            <path class="cls-4" d="M5.24,562.59v-.13C333.57,561.58,670,562,998,563.6,670,564.51,333.55,564.18,5.24,562.59Z"/>
            <path class="cls-4" d="M5.26,519.8v-.09c328.24-.5,663.13-.36,993.71.38V521C668.38,521.2,333.48,520.8,5.26,519.8Z"/>
            <path class="cls-4" d="M5.27,475.59v-.15c328.46-1,664.57-.69,993.72,1V477C669.84,477.87,333.72,477.4,5.27,475.59Z"/>
            <path class="cls-4" d="M5.29,433v-.32c328.32-2.2,663.81-1.8,993.71,1.11V436C669.09,437.57,333.6,436.57,5.29,433Z"/>
            <path class="cls-5" d="M5.31,389.15v-1.21c329.92-.64,664.93-.14,993.71,1.48V390C670.24,390.81,335.23,390.55,5.31,389.15Z"/>
            <path class="cls-4" d="M5.32,344.52v-.1c328.33-.62,664.8-.31,992.8.93C670.11,346,333.63,345.73,5.32,344.52Z"/>
            <path class="cls-4" d="M5.34,301.79v-1c329.65-.62,664.53-.21,993.71,1.19v.74C669.86,303.43,335,303.11,5.34,301.79Z"/>
            <path class="cls-4" d="M5.35,257.7v-.15c328.46-1,664.57-.69,993.72,1v.56C669.92,260,333.8,259.51,5.35,257.7Z"/>
            <path class="cls-4" d="M5.37,214.6v-.94c329.49-.61,664.16-.26,993.71,1v1C669.52,216.26,334.85,215.91,5.37,214.6Z"/>
            <path class="cls-4" d="M5.39,170.61v-1.73l51.78-.17h0c171.59-.5,344.51-.45,516.93.14h.33c141.94.5,283.52,1.36,423.73,2.58C670.38,173.19,335.06,172.92,5.39,170.61Z"/>
            <path class="cls-4" d="M5.4,127v-.16c328.46-1,664.57-.69,993.72,1v.55C670,129.24,333.85,128.78,5.4,127Z"/>
            <path class="cls-4" d="M5.42,81.65v-.3c246.23-.25,496.24-.15,743.92.29h.45q125.19.23,249.34.57h0C670.87,82.66,334.75,82.46,5.42,81.65Z"/>
            <path class="cls-4" d="M13.26,39.41c325.59-.6,659-.39,985.89.62v.45C672.24,40.94,338.84,40.58,13.26,39.41Z"/>
          </g>
        </g>
        <g>
          <g>
            <g>
              <path class="cls-3" d="M998.64,56.26l-35.46-.21,35.46-.31Z"/>
              <path d="M999.14,55.24q-48.61.4-97,.89,48.42.36,97,.64V55.24Z"/>
            </g>
            <g>
              <path class="cls-3" d="M998.63,100.56q-49.38-.11-98.61-.23l98.61-.3Z"/>
              <path d="M999.13,99.53q-122.39.33-243.81.87,48.23.16,96.64.3,73.41.21,147.17.36V99.53Z"/>
            </g>
            <g>
              <path class="cls-3" d="M998.61,144.12c-57.37-.13-114.31-.29-170.22-.49,56.3-.28,113.24-.52,170.22-.72Z"/>
              <path d="M998.11,143.41v.21l-34.27-.08,34.27-.13m1-1q-139,.48-276.93,1.29,137.77.63,276.93.92v-2.21Z"/>
            </g>
            <g>
              <path class="cls-3" d="M971.25,187.49c-62.09-.23-123.76-.52-184.09-.89,70.64-.6,141.5-1.1,211.43-1.51v2.49Z"/>
              <path d="M998.09,185.6v1.47L971.26,187q-55.47-.21-110.31-.48c45.9-.35,91.72-.65,137.14-.91m1-1q-139,.79-276.94,2.09,124,.85,249.09,1.31l27.84.09v-3.49Z"/>
            </g>
            <g>
              <path class="cls-3" d="M999.08,231.52q-48.63-.15-97.05-.34,48.4-.24,97.05-.44Z"/>
              <path d="M999.08,230.74q-48.65.19-97.05.44,48.4.19,97.05.34v-.78Z"/>
            </g>
            <g>
              <path class="cls-3" d="M998.56,274.89l-119-.24c39.63-.13,79.36-.24,119-.34Z"/>
              <path d="M999.06,273.81q-139,.35-276.93.9,137.82.44,276.93.68v-1.58Z"/>
            </g>
            <g>
              <path class="cls-3" d="M998.54,318.37c-57.53-.16-115.22-.37-172.36-.62,56.87-.35,114.55-.66,172.37-.92Z"/>
              <path d="M998.05,317.33v.53q-33.78-.09-67.63-.2,33.72-.18,67.63-.33m1-1q-130.24.59-259.46,1.5,129.12.69,259.46,1v-2.54Z"/>
            </g>
            <g>
              <path class="cls-3" d="M999,362.36q-48.64-.12-97-.29,48.4-.21,97-.38Z"/>
              <path d="M999,361.69q-48.64.17-97,.38,48.4.17,97,.29v-.67Z"/>
            </g>
            <g>
              <path class="cls-3" d="M999,405l-97-.19,97-.23Z"/>
              <path d="M999,404.61l-97,.23,97,.19v-.42Z"/>
            </g>
            <g>
              <path class="cls-3" d="M999,449.42q-48.63-.15-97.06-.34,48.42-.24,97.06-.44Z"/>
              <path d="M999,448.64q-48.63.19-97.06.44,48.42.19,97.06.34v-.78Z"/>
            </g>
            <g>
              <path class="cls-3" d="M998.48,491.92l-38.15-.24,38.15-.35Z"/>
              <path d="M999,490.83q-48.62.42-97.05.94,48.42.36,97.05.66v-1.6Z"/>
            </g>
            <g>
              <path class="cls-3" d="M998.46,536.34c-36.83-.08-74-.17-111.31-.28,36.9-.14,74.08-.26,111.31-.38Z"/>
              <path d="M999,535.18q-122.36.38-243.81,1,121.36.45,243.81.71v-1.66Z"/>
            </g>
            <g>
              <path class="cls-3" d="M999,580.36l-97.05-.23q48.4-.15,97.05-.28Z"/>
              <path d="M999,579.85q-48.65.12-97.05.28l97.05.23v-.51Z"/>
            </g>
            <g>
              <path class="cls-3" d="M998.43,623.47l-77.77-.17,77.77-.25Z"/>
              <path d="M998.93,622.55q-113.1.33-225.41.81,112.25.39,225.41.62v-1.43Z"/>
            </g>
            <g>
              <path class="cls-3" d="M998.92,667.32q-48.64-.15-97.06-.34,48.42-.24,97.06-.44Z"/>
              <path d="M998.92,666.54q-48.63.19-97.06.44,48.42.19,97.06.34v-.78Z"/>
            </g>
            <g>
              <path class="cls-3" d="M998.4,710.61l-67.53-.15,67.53-.2Z"/>
              <path d="M998.9,709.75q-110.1.32-219.43.77,109.29.38,219.43.59v-1.36Z"/>
            </g>
            <g>
              <path class="cls-3" d="M998.38,755.51l-29.54-.11c-37.9-.13-75.82-.29-113.39-.48,47.62-.34,95.46-.64,142.93-.9Z"/>
              <path d="M997.88,754.53V755l-29-.11-22.72-.08,51.76-.29m1-1q-110.11.59-219.42,1.48,94.32.57,189.38.9,15,.08,30,.11v-2.49Z"/>
            </g>
            <g>
              <path class="cls-3" d="M998.87,798.06q-48.64-.15-97.06-.34,48.42-.24,97.06-.44Z"/>
              <path d="M998.87,797.28q-48.63.19-97.06.44,48.42.19,97.06.34v-.78Z"/>
            </g>
            <g>
              <path class="cls-3" d="M998.85,843.37q-77.31-.11-154.13-.26H842q78.16-.17,156.86-.28Z"/>
              <path d="M998.85,842.82q-78.68.12-156.86.28h2.73q76.81.15,154.13.26v-.55Z"/>
            </g>
            <g>
              <path class="cls-3" d="M998.83,885.36l-71.29-.17,71.29-.2Z"/>
              <path d="M998.83,885l-71.29.2,71.29.17V885Z"/>
            </g>
          </g>
          <g>
            <path class="cls-4" d="M998.83,888.66q-48.63-.45-97.05-1,48.42-.33,97.05-.57Z"/>
            <path class="cls-4" d="M998.85,844.37q-122.39-.42-243.81-1,44.76-.14,89.68-.23,76.86-.17,154.13-.27Z"/>
            <path class="cls-4" d="M998.87,801.49q-139-.59-276.94-1.47,137.79-.54,276.94-.74Z"/>
            <path class="cls-4" d="M998.88,759.31q-139-.9-276.93-2.27,122.89-.76,246.89-1.14l30-.08Z"/>
            <path class="cls-4" d="M998.9,713.16q-48.63-.23-97-.51,48.4-.15,97-.28Z"/>
            <path class="cls-4" d="M998.91,670.09q-139-.44-276.93-1.07,137.82-.36,276.93-.51Z"/>
            <path class="cls-4" d="M998.93,627.57q-130.23-.66-259.45-1.66,129.12-.61,259.45-.88Z"/>
            <path class="cls-4" d="M999,582.22q-48.65-.21-97.06-.44,48.42-.15,97.06-.24Z"/>
            <path class="cls-4" d="M999,539.29q-48.62-.12-97.05-.28,48.44-.07,97.05-.13Z"/>
            <path class="cls-4" d="M999,495.27q-48.63-.24-97.05-.51,48.41-.17,97.05-.28Z"/>
            <path class="cls-4" d="M999,453.08q-48.63-.45-97.06-1,48.43-.33,97.06-.59Z"/>
            <path class="cls-5" d="M999,408.73q-122.35-.45-243.81-1.11,121.37-.37,243.81-.55Z"/>
            <path class="cls-4" d="M999,364.07l-97-.34q48.4-.11,97-.17Z"/>
            <path class="cls-4" d="M999,321.36q-113.11-.39-225.4-.95,112.23-.32,225.4-.47Z"/>
            <path class="cls-4" d="M999.06,277.38q-48.62-.24-97-.51,48.42-.17,97-.28Z"/>
            <path class="cls-4" d="M999.08,234.16q-110.1-.37-219.43-.91,109.27-.28,219.43-.44Z"/>
            <path class="cls-4" d="M999.09,190.4q-110.12-.66-219.42-1.62,95.4-.51,191.58-.79l27.84-.08Z"/>
            <path class="cls-4" d="M999.11,146.64q-48.63-.22-97.05-.5,48.41-.16,97.05-.28Z"/>
            <path class="cls-4" d="M999.13,101.1q-78.68-.16-156.86-.38l9.69,0q73.34-.09,147.17-.15Z"/>
            <path class="cls-4" d="M999.14,58.93l-71.29-.24q35.58-.07,71.29-.12Z"/>
          </g>
        </g>
        <g>
          <g>
            <g>
              <path class="cls-3" d="M5.94,18.17c60.52.2,121.09.5,180.78.87C126.52,19.58,66,20,5.94,20.41Z"/>
              <path d="M6.44,18.67q54.93.18,109.77.47c-36.64.29-73.3.54-109.77.77V18.67m-1-1v3.25Q127.18,20.18,247.91,19q-120.63-.88-242.47-1.3Z"/>
            </g>
            <g>
              <path class="cls-3" d="M5.93,64q48.27.09,97,.22c-32.22.11-64.62.21-97,.3Z"/>
              <path d="M5.43,63.5V65q121.7-.34,242.46-.87Q127.22,63.73,5.43,63.5Z"/>
            </g>
            <g>
              <path class="cls-3" d="M5.91,106.81c44.91.11,90,.25,135,.41-45.05.22-90.17.42-135,.58Z"/>
              <path d="M5.41,106.31v2q121.7-.47,242.47-1.16-120.7-.54-242.47-.84Z"/>
            </g>
            <g>
              <path class="cls-3" d="M5.9,148.63c58.49.22,117.69.5,176.71.85-59.22.51-118.41.94-176.72,1.3Z"/>
              <path d="M6.4,149.14q50.79.18,102.07.44-51.31.38-102.08.69v-1.13m-1-1v3.15q121.7-.75,242.47-1.88-120.69-.83-242.46-1.27Z"/>
            </g>
            <g>
              <path class="cls-3" d="M5.88,194.69c38.28.07,76.4.17,114.15.27-37.83.15-75.95.28-114.15.4Z"/>
              <path d="M5.38,194.19v1.67q121.73-.36,242.46-1-120.61-.46-242.46-.7Z"/>
            </g>
            <g>
              <path class="cls-3" d="M5.86,238.25c53.26.08,106.74.18,160,.31-53.2.16-106.67.3-160,.42Z"/>
              <path d="M5.36,237.75v1.73q159.87-.36,318.38-1Q165.39,238,5.36,237.75Z"/>
            </g>
            <g>
              <path class="cls-3" d="M5.85,280.53c51.55.15,103.45.34,155.11.57-52,.32-103.92.6-155.11.84Z"/>
              <path d="M6.35,281l50.18.15-50.18.25V281m-1-1v2.41Q127,281.89,247.81,281q-120.69-.64-242.46-1Z"/>
            </g>
            <g>
              <path class="cls-3" d="M5.83,325.94l22.9.05-22.9.07Z"/>
              <path d="M5.33,325.44v1.12q88.19-.26,175.76-.63-87.54-.3-175.76-.49Z"/>
            </g>
            <g>
              <path class="cls-3" d="M5.81,368.88q66.55,0,133.07.12l-133.07.15Z"/>
              <path d="M5.31,368.38v1.27c136.54-.12,272.67-.35,407.63-.69-135-.3-271.1-.49-407.63-.58Z"/>
            </g>
            <g>
              <path class="cls-3" d="M5.8,412.59c38.31.07,76.59.16,114.62.27-38,.15-76.31.28-114.62.39Z"/>
              <path d="M5.3,412.09v1.67q121.73-.36,242.46-1-120.61-.48-242.46-.7Z"/>
            </g>
            <g>
              <path class="cls-3" d="M5.78,453.3c86.32.22,173.3.62,259.32,1.19-85.38.81-172.36,1.46-259.32,1.93Z"/>
              <path d="M6.28,453.81c63.93.16,128.29.42,192.41.78-63.74.54-128.09,1-192.41,1.33v-2.11m-1-1v4.13q159.92-.87,318.38-2.52-158.25-1.2-318.38-1.61Z"/>
            </g>
            <g>
              <path class="cls-3" d="M5.76,499.61c35.8.07,72.33.16,109.39.26-36.42.14-72.95.27-109.39.38Z"/>
              <path d="M5.26,499.11v1.64q121.71-.37,242.47-.94-120.67-.45-242.47-.7Z"/>
            </g>
            <g>
              <path class="cls-3" d="M5.25,544.64v-.84q88.19.15,175.76.38Q93.47,544.45,5.25,544.64Z"/>
              <path d="M5.25,543.8v.84q88.19-.18,175.76-.46-87.54-.24-175.76-.38Z"/>
            </g>
            <g>
              <path class="cls-3" d="M5.73,586.91c44.86.07,89.65.16,134.08.27-44.91.16-89.7.29-134.08.4Z"/>
              <path d="M5.23,586.41v1.67q141.84-.36,282.49-1-140.52-.48-282.49-.71Z"/>
            </g>
            <g>
              <path class="cls-3" d="M5.72,630.49c38.23.07,76.33.16,114.08.27-37.93.15-76,.28-114.08.4Z"/>
              <path d="M5.22,630v1.67q121.73-.37,242.46-1Q127,630.21,5.22,630Z"/>
            </g>
            <g>
              <path class="cls-3" d="M5.7,674c58,.09,115.74.2,172.75.34-57.31.18-115,.34-172.75.47Z"/>
              <path d="M5.2,673.52v1.81q163.13-.36,324.81-1-161.5-.56-324.81-.78Z"/>
            </g>
            <g>
              <path class="cls-3" d="M5.68,717.75c33.21.13,66.27.27,98.92.43-32.72.24-65.78.45-98.92.65Z"/>
              <path d="M6.18,718.25l7.26,0-7.26,0v-.07m-1-1v2.08q88.17-.52,175.76-1.23-87.55-.52-175.76-.85Z"/>
            </g>
            <g>
              <path class="cls-3" d="M5.67,761.23c38.13.07,76.28.16,114.19.27-37.83.15-76,.28-114.19.39Z"/>
              <path d="M5.17,760.73v1.67q121.73-.37,242.46-1Q127,761,5.17,760.73Z"/>
            </g>
            <g>
              <path class="cls-3" d="M5.15,807.65V807q91.65.12,182.66.29Q96.85,807.52,5.15,807.65Z"/>
              <path d="M5.15,807v.62q91.64-.14,182.66-.33-91-.18-182.66-.29Z"/>
            </g>
            <g>
              <path class="cls-3" d="M5.63,849.28l31.06,0-31.06.06Z"/>
              <path d="M5.13,848.77v1.1q134.72-.23,268.23-.61Q140,848.93,5.13,848.77Z"/>
            </g>
          </g>
          <g>
            <path class="cls-4" d="M5.13,855.3v-3.24q121.74.81,242.47,2.11Q127,855,5.13,855.3Z"/>
            <path class="cls-4" d="M5.15,809.47V808q121.7.42,242.47,1Q126.93,809.3,5.15,809.47Z"/>
            <path class="cls-4" d="M5.17,766.66v-2q121.68.54,242.46,1.32Q126.94,766.43,5.17,766.66Z"/>
            <path class="cls-4" d="M5.18,724.84v-3.15q121.7.82,242.47,2Q126.95,724.48,5.18,724.84Z"/>
            <path class="cls-4" d="M5.2,678.78v-1.67q121.73.45,242.46,1.12Q127,678.64,5.2,678.78Z"/>
            <path class="cls-4" d="M5.21,635.22v-1.73q159.87.46,318.38,1.19Q165.25,635.09,5.21,635.22Z"/>
            <path class="cls-4" d="M5.23,592.94v-2.41q121.7.65,242.47,1.58Q127,592.67,5.23,592.94Z"/>
            <path class="cls-4" d="M5.25,547.53v-1.12q88.19.32,175.76.75Q93.47,547.42,5.25,547.53Z"/>
            <path class="cls-4" d="M5.26,504.6v-1.28c136.54.22,272.67.54,407.63,1C277.92,504.49,141.79,504.6,5.26,504.6Z"/>
            <path class="cls-4" d="M5.28,460.89v-1.67q121.73.45,242.47,1.12Q127.12,460.75,5.28,460.89Z"/>
            <path class="cls-4" d="M5.29,420.18v-4.13q159.9,1,318.37,2.73Q165.42,419.88,5.29,420.18Z"/>
            <path class="cls-5" d="M5.31,373.87v-1.64q121.71.45,242.47,1.1Q127.09,373.71,5.31,373.87Z"/>
            <path class="cls-4" d="M5.33,329.18v-.84q88.19.24,175.76.58Q93.55,329.08,5.33,329.18Z"/>
            <path class="cls-4" d="M5.34,286.57V284.9q141.84.45,282.49,1.14Q147.31,286.43,5.34,286.57Z"/>
            <path class="cls-4" d="M5.36,243v-1.67q121.73.45,242.47,1.12Q127.2,242.86,5.36,243Z"/>
            <path class="cls-4" d="M5.38,199.46v-1.8q163.11.47,324.81,1.24Q168.69,199.33,5.38,199.46Z"/>
            <path class="cls-4" d="M5.39,155.74v-2.08q88.17.59,175.76,1.34Q93.6,155.48,5.39,155.74Z"/>
            <path class="cls-4" d="M5.41,112.26v-1.67q121.73.45,242.47,1.13Q127.25,112.11,5.41,112.26Z"/>
            <path class="cls-4" d="M5.43,66v-.62q91.64.18,182.66.44Q97.12,65.9,5.43,66Z"/>
            <path class="cls-4" d="M5.44,24.22V23.13q134.7.3,268.23.77Q140.29,24.16,5.44,24.22Z"/>
          </g>
        </g>
      </g>
      <g class="cls-6">
        <g>
          <ellipse class="cls-7" cx="363.43" cy="691.05" rx="28.64" ry="18.64" transform="translate(-415.69 742.05) rotate(-66)"/>
          <rect class="cls-8" x="418.04" y="496.39" width="192.61" height="261.72"/>
          <path class="cls-9" d="M503.32,610l67.33-96.24a3.61,3.61,0,0,0-2.4-5.64l-101.83-16a3.62,3.62,0,0,0-4,4.63L496.91,609A3.61,3.61,0,0,0,503.32,610Z"/>
          <g>
            <path class="cls-10" d="M574.45,310.25l56.83-15.9a15.76,15.76,0,0,1,19.38,10.88l6.54,23.29a15.4,15.4,0,0,1,.52,2.89,15.46,15.46,0,0,0-.52-5.42l-6.54-23.29a15.77,15.77,0,0,0-19.38-10.88l-56.83,15.91A15.75,15.75,0,0,0,563,324.19,15.76,15.76,0,0,1,574.45,310.25Z"/>
            <path class="cls-11" d="M657.2,328.52l-6.54-23.29a15.76,15.76,0,0,0-19.38-10.88l-56.83,15.9a15.8,15.8,0,0,0-10.9,19.36l6.54,23.28a15.78,15.78,0,0,0,19.39,10.88l56.83-15.9a15.75,15.75,0,0,0,11.41-16.46A15.4,15.4,0,0,0,657.2,328.52Z"/>
          </g>
          <g>
            <path class="cls-10" d="M448.57,307.06l-56.82-15.9A15.78,15.78,0,0,0,372.36,302l-.47,1.68A15.75,15.75,0,0,1,391,293.78l49.52,13.86A15.74,15.74,0,0,1,451.38,327l-6.54,23.29a15.72,15.72,0,0,1-10,10.59,15.78,15.78,0,0,0,18.13-11.17l6.54-23.28A15.74,15.74,0,0,0,448.57,307.06Z"/>
            <path class="cls-11" d="M444.84,350.28,451.38,327a15.74,15.74,0,0,0-10.9-19.35L391,293.78a15.75,15.75,0,0,0-19.07,9.94c-.11.31-.23.61-.32.93L365,327.94a15.75,15.75,0,0,0,10.9,19.36l49.53,13.86a15.78,15.78,0,0,0,19.38-10.88Z"/>
          </g>
          <rect class="cls-11" x="422.42" y="312.36" width="183.85" height="29.89" rx="2.73"/>
          <ellipse class="cls-12" cx="510.16" cy="402.44" rx="87.74" ry="117.86"/>
          <path class="cls-11" d="M588.08,322.48l-25.75-65.15c-3.86-9.78-10.92-15.79-18.56-15.79H479.85c-7.64,0-14.7,6-18.56,15.79l-25.75,65.15Z"/>
          <path class="cls-10" d="M583.13,307.31c-59.5,18.93-86.79,17.17-144.46-.34l.66-2.39c57.27,17.19,84.07,19.44,143.2.31Z"/>
          <path class="cls-13" d="M514.22,374.53c0,13.7-13.22,31.71-27,31.71s-22.76-18-22.76-31.71,17.1-28.88,30.82-28.88S514.22,360.82,514.22,374.53Z"/>
          <path class="cls-13" d="M513.87,374.53c0,13.7,13.38,31.71,27.27,31.71s23-18,23-31.71S546.88,345.65,533,345.65,513.87,360.82,513.87,374.53Z"/>
          <ellipse class="cls-14" cx="496.88" cy="372.09" rx="1.66" ry="3.08"/>
          <ellipse class="cls-14" cx="524.19" cy="372.09" rx="1.66" ry="3.08"/>
          <path class="cls-15" d="M543.25,455.43c-21.88,12.66-40.3,11-62.33.07-.73-.36-1.05.45-1.19,1.23s0-.14,0,0a1.89,1.89,0,0,0,.74,2.09c22.38,10.85,41.06,12.56,63.31-.19a1.73,1.73,0,0,0,.72-1.94c-.09-.8,0,.14,0,0C544.41,455.89,544,455,543.25,455.43Z"/>
          <path class="cls-16" d="M454.64,295h0a2.38,2.38,0,0,0,3.11-1.26l19.41-46a2.37,2.37,0,0,0-1.27-3.1h0a2.38,2.38,0,0,0-3.1,1.27l-19.41,46A2.37,2.37,0,0,0,454.64,295Z"/>
          <rect class="cls-16" x="485.42" y="232.34" width="4.73" height="28.88" rx="0.43" transform="translate(734.57 -241.01) rotate(90)"/>
          <path class="cls-16" d="M374.05,341.43h0a2.37,2.37,0,0,0,1.62,2.93l48.06,13.89a2.38,2.38,0,0,0,2.93-1.62h0a2.36,2.36,0,0,0-1.61-2.93L377,339.81A2.38,2.38,0,0,0,374.05,341.43Z"/>
          <path class="cls-8" d="M370.68,685.62h0a27.7,27.7,0,0,1-17.31-35L399,516.32A27.77,27.77,0,0,1,434.11,499h0a27.69,27.69,0,0,1,17.31,35L405.78,668.34A27.76,27.76,0,0,1,370.68,685.62Z"/>
          <path class="cls-8" d="M581.08,505.71h0a27.68,27.68,0,0,1,39.07-.38l117.1,115.08a27.79,27.79,0,0,1,.36,39.13h0a27.69,27.69,0,0,1-39.07.38L581.45,544.84A27.78,27.78,0,0,1,581.08,505.71Z"/>
          <path class="cls-7" d="M334.63,722.23h0a2.89,2.89,0,0,1-1.47-3.8l12.5-28.14a2.9,2.9,0,0,1,3.81-1.47h0a2.88,2.88,0,0,1,1.46,3.8l-12.49,28.15A2.9,2.9,0,0,1,334.63,722.23Z"/>
          <path class="cls-7" d="M339,732.35h0a2.88,2.88,0,0,1-1.46-3.8l8.55-19.27a2.91,2.91,0,0,1,3.81-1.46h0a2.89,2.89,0,0,1,1.47,3.8l-8.56,19.27A2.89,2.89,0,0,1,339,732.35Z"/>
          <path class="cls-7" d="M348.88,733.19h0a2.89,2.89,0,0,1-1.47-3.8l6.47-14.55a2.89,2.89,0,0,1,3.8-1.47h0a2.89,2.89,0,0,1,1.47,3.8l-6.46,14.56A2.9,2.9,0,0,1,348.88,733.19Z"/>
          <path class="cls-7" d="M359.07,730.05h0a2.89,2.89,0,0,1-1.47-3.8l7.88-17.75a2.9,2.9,0,0,1,3.81-1.47h0a2.9,2.9,0,0,1,1.47,3.8l-7.88,17.76A2.91,2.91,0,0,1,359.07,730.05Z"/>
          <path class="cls-7" d="M380.46,717.87h0a3.7,3.7,0,0,1-4.35-2.9l-3.48-17.44a3.71,3.71,0,0,1,2.91-4.35h0a3.71,3.71,0,0,1,4.35,2.9l3.48,17.45A3.7,3.7,0,0,1,380.46,717.87Z"/>
          <rect class="cls-17" x="418.19" y="725.25" width="192.46" height="32.87"/>
          <rect class="cls-18" x="487.41" y="725.94" width="50.79" height="31.47" rx="2.87"/>
          <path class="cls-19" d="M517.37,582.25h0a2.1,2.1,0,0,1-.52-2.92l45.28-64.73a2.11,2.11,0,0,1,2.93-.52h0a2.1,2.1,0,0,1,.52,2.92L520.3,581.73A2.12,2.12,0,0,1,517.37,582.25Z"/>
          <path class="cls-19" d="M478.33,519.73h0c.54-1,.82-1.9,3.05-.82,32.6,15.73,26.45,17.77,59.71-1.95,2.27-1.34,2.47-.36,3.07.59h0c.59,1,1.54,1.45-.82,2.86C508.87,541,513,538.81,479.41,522.5,477.11,521.38,477.8,520.74,478.33,519.73Z"/>
          <path class="cls-19" d="M494.44,539.44h0c.25-.73.34-1.35,1.95-.89,23.64,6.77,19.73,8.81,39.92-7.94,1.38-1.15,1.63-.51,2.13,0h0c.51.56,1.2.78-.23,2-20.93,17.45-18.4,15.56-42.75,8.51C493.8,540.66,494.19,540.16,494.44,539.44Z"/>
          <path d="M550.29,458.35c-8.79-19.51,5.24-6.52-37.36-2a37.88,37.88,0,0,1-.16-8.38c41.48-3,25.05-14.81,41.17,4.25C551.84,453.74,552.59,457,550.29,458.35Z"/>
          <path d="M472.21,458.35c8.79-19.51-5.24-6.52,37.36-2a37.88,37.88,0,0,0,.16-8.38c-41.48-3-25.05-14.81-41.17,4.25C470.66,453.74,469.91,457,472.21,458.35Z"/>
          <g id="BADGE">
            <path d="M533.21,290.35a3.89,3.89,0,0,0-2.11.61l-6.25-9.34,6.89-8.62a4,4,0,1,0-1.54-3.14c0,.06,0,.11,0,.16l-11,.73-4.09-10.45a4,4,0,1,0-3.27,0l-4.9,10-11-1.66a3.08,3.08,0,0,0,0-.53,4,4,0,1,0-1.82,3.34l6.16,9.21-7,8.8a4,4,0,1,0,1.5,3.1,2.62,2.62,0,0,0,0-.28l11.22-.74,4.14,10.58a4,4,0,1,0,3.17,0L518.28,292l11,1.67a4.91,4.91,0,0,0,0,.67,4,4,0,1,0,4-4Z"/>
            <path class="cls-20" d="M531.81,289.49a3.91,3.91,0,0,0-2.11.61l-6.24-9.33,6.89-8.63a4,4,0,1,0-1.54-3.13v.15l-11,.73-4.1-10.45a4,4,0,1,0-3.26,0l-4.9,10-11-1.67a4.55,4.55,0,0,0,0-.53,4,4,0,1,0-4,4,3.92,3.92,0,0,0,2.14-.63l6.17,9.21-7,8.8a3.91,3.91,0,0,0-2.46-.86,4,4,0,1,0,4,4c0-.09,0-.18,0-.28l11.21-.74,4.15,10.58a4,4,0,1,0,3.16,0l4.95-10.05,11,1.67a3.52,3.52,0,0,0-.06.66,4,4,0,1,0,4-4Z"/>
            <g class="cls-21">
              <path d="M501.71,277.87H502l.28.07.2.08,0,0a.17.17,0,0,1,.15-.08c.37,0,.55,0,.55.1l0,1.32a.16.16,0,0,1-.13.05,1.79,1.79,0,0,0-.5,0h-.22l-.05,0,0-.31c0-.06-.07-.09-.09-.08l-.08,0a1.07,1.07,0,0,0-.15.41c0,.19,0,.32.15.38h.66c.2,0,.33.11.36.24a1.12,1.12,0,0,1,.09.52,2.5,2.5,0,0,1-.26,1.38l-.23.23a1.58,1.58,0,0,1-.64.16,2.86,2.86,0,0,1-.52,0l-.31-.14a.51.51,0,0,1-.15-.36v-.94c0-.11,0-.17.07-.18h.29c.15,0,.22,0,.23,0q0,.33,0,.36s.13.08.32.14.42-.06.49-.21l0-.26c.06-.16,0-.29-.21-.38h-.93q-.45,0-.42-.51v-.5l.09-1,.06-.19A.67.67,0,0,1,501.71,277.87Z"/>
              <path d="M503.82,277.86l1.19,0c.05,0,.08,0,.09.07l0,.27,0,1,0,.06-.24,0c-.08.05-.11.1-.11.15l-.06.67.07.08.34,0a1.1,1.1,0,0,1,.35-.08c.14,0,.21-.15.2-.37v-.31l-.07-.08c-.13,0-.18,0-.16-.1l0-1.14.07-.07,1,0,.19-.05c.09,0,.13,0,.13.06v1.11l0,.07-.3.07-.07.07a2.63,2.63,0,0,0-.05.49l-.06,1.16a.28.28,0,0,0,.1.09h.48l.05,0v.3l0,.18,0,.65c0,.06,0,.1-.09.1l-.26,0a4.68,4.68,0,0,1-1,0,.14.14,0,0,1-.12-.08l0-.88,0-.1v-.2l.16-.14a.26.26,0,0,0-.07-.29h-.49a.22.22,0,0,0-.14.13V281c0,.06.09.1.26.11s0,.08,0,.21l0,.33a2.18,2.18,0,0,1,0,.57q0,.12-.15.09l-.59,0s-.13,0-.31,0-.35,0-.35,0l-.06-.7,0-.11v-.18l.05-.06h.3a.19.19,0,0,0,.16-.17v-1.59a.19.19,0,0,0-.11-.12c-.19,0-.28,0-.28-.09l.05-1.29C503.73,277.9,503.77,277.86,503.82,277.86Z"/>
              <path d="M509.75,277.87c.11,0,.17,0,.19,0v.72l0,.14,0,.3v.56l-.05.09-.21,0h-.2l-.06-.06q0-.27-.12-.33h-.43l-.15.1,0,.17.08.07h.26s.06,0,.06.12l0,.47-.07.05h-.47c-.11.06-.16.12-.15.19s0,.34.11.38a1.46,1.46,0,0,0,.51,0c.06,0,.1-.11.13-.34l.09,0h.3a.11.11,0,0,1,.07.08l0,1.3c.06.19,0,.29-.12.29h-.32l-.33.05h-.29a7.6,7.6,0,0,1-1.22.09c-.08,0-.14,0-.16,0l.06-1.06.05-.05h.23l.09-.07c0-.87,0-1.43,0-1.67,0-.08-.13-.12-.32-.1a.08.08,0,0,1-.06-.09l0-1.26a.11.11,0,0,1,.09-.07C508.27,277.92,509.08,277.91,509.75,277.87Z"/>
              <path d="M510.36,277.9h.43l.33,0H512a.88.88,0,0,1,.66.42c.1.17.15.27.14.3l0,.49v.5a.8.8,0,0,1-.12.4l-.11.11c-.12.05-.2.11-.22.18l0,0a.32.32,0,0,1,.23.23l0,.29a.52.52,0,0,0,0,.37l.1,0,0-.09v-.31a.14.14,0,0,1,.15-.06h.15l0,0a5.59,5.59,0,0,1-.08,1.35.54.54,0,0,1-.44.19,1.45,1.45,0,0,1-.48,0,.52.52,0,0,1-.22-.17.85.85,0,0,1-.09-.27l-.11-1-.08-.23c-.12-.14-.22-.18-.3-.14s-.08.19-.09.48,0,.33.09.37h.19l.07,0v.93c0,.07-.09.09-.19.08l-1,0-.05-.06v-.59l0-.14c0-.12,0-.19,0-.2h.29l.05-.08c0-.29,0-.85-.08-1.69,0-.08-.06-.13-.1-.14l-.31-.05c-.06-.06-.07-.1-.06-.13V279l.08-.86C510.23,278,510.26,277.92,510.36,277.9Zm1.25,1.25c0,.28,0,.45.14.5s.37-.08.4-.28V279c0-.09-.11-.17-.28-.23s-.2,0-.22.05Z"/>
              <path d="M513.55,277.89H515a2.68,2.68,0,0,1,0,.68v.33l0,.06c-.24-.05-.36,0-.38.19l0,1.32v.41l.08.08h.59l0,0,0,1.2s-.05.07-.13.08a2.43,2.43,0,0,0-.58,0l-.23,0a2.26,2.26,0,0,1-.67,0c-.15,0-.23,0-.23-.07v-1.14l0,0,.34,0a.21.21,0,0,0,.08-.18l0-1.73a.43.43,0,0,0-.12-.14h-.28s0-.05,0-.1l0-.94A.07.07,0,0,1,513.55,277.89Z"/>
              <path d="M516.82,277.88a13.08,13.08,0,0,0,1.37,0l0,.05q0,.92,0,1.77a.1.1,0,0,1-.11.07h-.25l-.06,0,0-.27c-.07-.07-.12-.1-.15-.1l-.59,0-.26,0-.07.08a.26.26,0,0,0,.08.29h.28l0,0,0,.11v.31l0,0a.71.71,0,0,0-.27,0,.34.34,0,0,0-.11.32l0,.4.09.09.32,0,.05.06c0,.26,0,.57,0,.93,0,.05,0,.08-.07.09h-.26l-.14.05-.57,0s-.1,0-.27,0l-.11,0c-.07,0-.11,0-.11-.09v-.87l.07-.07q.31,0,.36-.12c0-.15,0-.73,0-1.73l0-.11,0,0-.23-.06s-.06-.13,0-.25a5.91,5.91,0,0,0,.06-1c0-.07,0-.11.1-.12Z"/>
              <path d="M519.73,277.88a13.08,13.08,0,0,0,1.37,0l0,.05q0,.92,0,1.77a.1.1,0,0,1-.11.07h-.25l-.06,0,0-.27c-.07-.07-.12-.1-.16-.1l-.58,0-.26,0-.07.08a.26.26,0,0,0,.08.29H520l0,0,0,.11,0,.31,0,0a.71.71,0,0,0-.27,0,.34.34,0,0,0-.11.32l0,.4.09.09.32,0,0,.06a8.38,8.38,0,0,0,0,.93c0,.05,0,.08-.07.09h-.26l-.14.05-.57,0s-.1,0-.27,0l-.11,0c-.07,0-.11,0-.11-.09v-.87l.07-.07q.32,0,.36-.12c0-.15,0-.73,0-1.73l0-.11,0,0-.23-.06a.26.26,0,0,1,0-.25,5.91,5.91,0,0,0,.06-1c0-.07,0-.11.1-.12Z"/>
            </g>
          </g>
        </g>
      </g>
      <g>
        <path class="cls-22" d="M217.33,80.52c4.32-.13,6.9,0,7.73.37l4.18,1.44,2.93,1.8a.84.84,0,0,0,1.05-.49c-.37-1.83-.18-2.93.57-3.31h2.12q.18.38,5.42.94c.5.12.75,1,.75,2.68l-.38,24.25-.56.37-8.1.19h-9.73l-.93-.38-.38-.93a16.09,16.09,0,0,0-.37-5,5.19,5.19,0,0,0-2.12-2.49q-4-2.37-7.23,1.24-1.12,2.68-1.62,11.91a19.85,19.85,0,0,0,1.25,8.66q.87,1.82,4.17,4l4.68-.18,2.87-2a11,11,0,0,0,1.8-3.8l.56-5q0-.69,1.62-.69l9.92.32,1.12.74q.38,2.37-.75,11.91-3.81,13.41-17.89,13-1.62.38-8.1-1.43c-4.33-1.83-6.55-2.91-6.68-3.25a12.49,12.49,0,0,1-4.92-9.78q0-16.09.75-29.24l1.06-5.3q.75-3.55,6-7.35A22,22,0,0,1,217.33,80.52Z"/>
        <path class="cls-22" d="M261.4,80.33h8l4.8.69a19.19,19.19,0,0,1,5.3,1.74l2.12,1.62q1.8,2.81,2.87,10.79-.37,13.83,0,15.58-.57,21.63-2.68,24.25a8.87,8.87,0,0,1-4.62,3.37c-5.77,1.45-8.79,2-9,1.62L259,139.8l-4.43-.87q-2.17-.56-5.17-4.8a26.3,26.3,0,0,1-2.49-7.79l-.88-15,.19-11.15,1.06-7.49,1.43-4.23q1.06-2.44,4.93-5.68C258.1,80.77,260.69,80,261.4,80.33ZM255.6,104q-.18,9.8,1.06,14.53l.88,1.8c.45.83,1.93,1.77,4.42,2.81q6-.19,8.67-2.62a7.27,7.27,0,0,0,1.43-3.05l.69-6.74v-8.66a13.64,13.64,0,0,0-1.56-4.43L269.07,96l-5,.37-3.93.75c-1.87.71-3,1.46-3.49,2.25A20.4,20.4,0,0,0,255.6,104Z"/>
        <path class="cls-22" d="M288.77,125a14.92,14.92,0,0,0,4.86,0c.87-.09,1.31-1,1.31-2.68l.31-17.33V99.34l-.87-1.43L291,97.54a1.4,1.4,0,0,1-.56-1.25q.56-6.17.56-12.84l.87-2,3.12-.74a49.34,49.34,0,0,0,8.48,0l1.06.56,10.84,28.92.94.69.69-.69.37-8.16V96.79c-.13-1-1.52-1.56-4.18-1.81-.7-.46-.93-1.66-.68-3.61l.18-9.36c.13-.87.48-1.3,1.06-1.3l9.79-.19c1,.25,3.53.19,7.73-.19a.89.89,0,0,1,.94.75l.18,6,.5,4.12v3.61l-.68.75-6.86.56a3.13,3.13,0,0,0-1.5,2.5l-.5,12.28v7a2.92,2.92,0,0,0,1.25,1.5l4.49.12c.75.13,1.06.79.93,2l.19,16.64a1.21,1.21,0,0,1-1.12,1.06c-3.37-.21-5.47-.14-6.3.19h-7l-1.06-.69q-8.73-24.93-10.35-31.79l-.5-.56c-.62-.13-1.06.23-1.31,1.06L301.42,121c-.12,1.91.07,2.93.56,3l.69.38h2.74c.71.12.94,1.27.69,3.43l-.5,11.22-.75.5-2.68.18a49,49,0,0,0-9.41.19l-1.25-.37-2.74-.19a1.47,1.47,0,0,1-.75-1.25q.38-10.65,0-12.47Z"/>
        <path class="cls-22" d="M353.29,81h6l6.3,1.43L369,83.88c.7-.12,1.06-1,1.06-2.68l1.43-.31L377,81l2-.5c.83.25,1.19.54,1.06.87l.19,5.55v17.14q-.37.75-.93.75-1.94-.56-10.35,1.25l-1.44-.38c-.83-2.28-1.47-3.59-1.93-3.92-1-1-1.68-1.44-2.18-1.44A65.07,65.07,0,0,0,352.73,103a10.09,10.09,0,0,0-4.62,4.49c-.12,0-.54,1.73-1.24,5.18a28.8,28.8,0,0,0,.37,6.73,23.28,23.28,0,0,0,2.31,6.67,3.94,3.94,0,0,0,1.93,1.37l2,.56h3.18l4.49-1.62.88-1.06a2.8,2.8,0,0,0-1.25-2.68l-6.61.37c-.71-.37-1-.79-.87-1.24.12-3,0-4.84-.38-5.55l.19-3.06,1.62-.49a117.39,117.39,0,0,1,15.9-.94l6.42-.69c2-.12,3,0,3,.38l.32,6.42-.13,2.87-.75.5a2.6,2.6,0,0,0-2.3,1.43q-.37,1.44,0,15.21l-.88.69-4.86.74c-.83.09-1.37,0-1.62-.37l-1.25-1.25h-1.06l-7.48,1.94-6.79.37-6.8-.69a10.41,10.41,0,0,1-7.66-6.29q-1.63-2.31-2-14.65l.37-10.72q1.07-7.11.75-7.3,1.76-9.11,2.81-11.09Q344.56,81.57,353.29,81Z"/>
        <path class="cls-22" d="M388,80.77l5.8.12,4.36-.31a108,108,0,0,0,11.66,0,12.2,12.2,0,0,1,8.85,5.61q2,3.44,1.87,4l.31,6.55v6.73c-.46,2.91-1,4.67-1.62,5.3l-1.43,1.43c-1.71.71-2.68,1.5-2.93,2.37l.56.69a4,4,0,0,1,3.05,3.11l.56,3.81q-.37,3.8.75,4.92l1.25-.19.37-1.24.19-4.06a1.78,1.78,0,0,1,2-.87l2,.19.56.56q.18,14.14-1.12,18c-.71,1.33-2.64,2.19-5.8,2.56a19.57,19.57,0,0,1-6.36-.75,6.47,6.47,0,0,1-2.93-2.18,10.33,10.33,0,0,1-1.25-3.62l-1.43-13.65-1.12-3.05q-2.37-2.74-4-1.81-.93.5-1.25,6.36c-.37,2.78,0,4.4,1.25,4.86l2.55-.12.88.49-.13,12.41c-.37.83-1.22,1.18-2.55,1.06l-13.66-.37-.74-.69v-7.85l-.31-2c-.13-1.58,0-2.43.31-2.56l3.86-.18.69-1.06q.18-5.81-1.06-22.57c-.38-1.08-.81-1.68-1.31-1.81l-4.18-.68c-.71-.75-.93-1.31-.68-1.69V94.92l1.06-11.47C386.24,81.87,386.62,81,388,80.77Zm16.7,16.7c-.37,3.74.23,5.93,1.81,6.55q4.74.38,5.43-3.68V95.85q-.31-1.86-3.81-3.11c-1.7-.25-2.66,0-2.86.74Z"/>
        <path class="cls-22" d="M438.82,81l12.84.18q6.54-.74,7.1,0Q460.2,90.31,461,92c.12,1.49,0,2.24-.38,2.24l-2,.56-1.13,1.31c-.12.59.32,2,1.31,4.24l3.68,8.73,2.62,4.86A64.44,64.44,0,0,0,469,123a4.92,4.92,0,0,0,2.43,1.13l3.86-.19.75.75q-.37,13.22,0,13.59c-.25.87-.56,1.31-.93,1.31h-5.18l-1.68-.57-1.68.57-11.35.37c-2,0-3-.31-3-.94l-.38-9.66.19-2.06,1.68-.56q1.5-.73-1.49-5.54c.25-1.13.19-1.81-.19-2.06l-5.92.37-1.68,4.8v1.12l.93.94c1.83.12,3,.62,3.49,1.5q.75,9.28,0,9.47l-9.66.38h-8c-.87-.13-1.31-.5-1.31-1.13l-.37-6.67v-3.36l.75-.75h3.36c.62.12,1.48-1.31,2.56-4.3l.75-2.75,3.92-10.41a76.15,76.15,0,0,1,3.18-9.91V97.35l-.93-.94-3.37-.12q-1.12-.18-.75-4.68l-.75-7.48-.56-2.36.19-.38Zm9.28,32.35v1.5l.75.75a2.22,2.22,0,0,0,2.62-.94c.25-.25,0-1.5-.75-3.74l-.56-.94c-.87-.12-1.31,0-1.31.38Z"/>
        <path class="cls-22" d="M480.33,80.58q13.79.38,33.23,0c1.2,0,1.93.31,2.18.94l-.56,13.71-.56,2.06.19,5.3a1.83,1.83,0,0,1-.88,1.12l-5.36.37h-1.25c-.87,0-1.24-1.22-1.12-3.68l-1.31-.74-3.42.18c-1.13,1.08-1.56,1.75-1.31,2L499,122.91l.19,2.8.94.69h6.23c.62-.12,1,.75,1.12,2.62l-.19,1.81.19,7.66c-.12.88-.56,1.31-1.31,1.31l-9.72.19-11.16-.19c-.62-.25-1.06-1.29-1.31-3.11l.56-4.74c-.25-1.87-.25-3,0-3.49l1.12-.56,4.55.18c.88-.37,1.31-1.28,1.31-2.74l.38-15.58-.19-6.43-1.5-1.3h-1.12c-.83.24-1.31,1.47-1.43,3.67-.25.38-.81.5-1.68.38H480l-.69-.75q.38-20.51,0-22.57l.38-1.81Z"/>
        <path class="cls-22" d="M520,80.77l20.26.37.5.5-.5,8.79v5.8l-.37.93-4.56.88c-.87.49-1.3,1.47-1.3,2.93q-.69,11.84-.69,16.39l1.06,2.24,2.56,1.06c3,.13,4.86,0,5.48-.37a3.24,3.24,0,0,0,1.62-2.56l.38-12.71.37-2.93V98.22l-.19-.5-2-1.68.56-5.8.12-8.23a1.77,1.77,0,0,1,.94-1.06q13.15-.18,15.52-.56c2.16-.25,3.31,0,3.43.75l.19,8.73c.5,3.78,0,5.78-1.44,6a44.16,44.16,0,0,0-7.48,0L553.33,97v14q.93,6.36.56,7.86l-1.12,9.85-1.25,4.92-1.12,2.74q-.49,2.5-11.28,3.62H531a9.57,9.57,0,0,1-4.92-2.74,7,7,0,0,1-2.06-4.18l.19-27.37.56-6.54-.87-1.44-4.43-.37c-.71-.12-.94-1-.69-2.74l.38-13.16A1,1,0,0,1,520,80.77Z"/>
        <path class="cls-22" d="M569.1,80.27l16.33.19a.86.86,0,0,1,.88.74V92.86l-.38.56-4.8.56c-1.24,1.13-1.74,2-1.49,2.62l-.56,23.75c.49,1.21,1.74,1.75,3.74,1.62l6.11-.18.74-.94.19-3.12A1,1,0,0,1,591,117h1.87c1.83-.75,2.93-.75,3.31,0L596,138.12l-.75.75q-7.61.93-24.31,1.12h-3.12l-.75-.75.19-14.65.38-.56,3.86-.37,1.12-1.31.19-2.37-.37-7.11.18-2.74a97.49,97.49,0,0,1-.37-12.28,6.2,6.2,0,0,0-.94-2.18l-2.37-1.13-.37-.93L568.17,81Q568.54,80.27,569.1,80.27Z"/>
        <path class="cls-22" d="M609.37,81l12.84.18q6.56-.74,7.11,0,1.44,9.1,2.18,10.79c.13,1.49,0,2.24-.37,2.24l-2,.56L628,96.1c-.12.59.31,2,1.31,4.24l3.68,8.73,2.62,4.86a63,63,0,0,0,3.92,9.1,4.91,4.91,0,0,0,2.44,1.13l3.86-.19.75.75q-.37,13.22,0,13.59c-.25.87-.56,1.31-.94,1.31h-5.17l-1.68-.57-1.69.57-11.34.37c-2,0-3-.31-3-.94l-.37-9.66.19-2.06,1.68-.56q1.5-.73-1.5-5.54c.25-1.13.19-1.81-.18-2.06l-5.92.37-1.69,4.8v1.12l.94.94c1.83.12,3,.62,3.49,1.5q.75,9.28,0,9.47l-9.66.38h-8c-.88-.13-1.31-.5-1.31-1.13l-.38-6.67v-3.36l.75-.75h3.37q.93.18,2.55-4.3l.75-2.75,3.93-10.41a76.15,76.15,0,0,1,3.18-9.91V97.35l-.94-.94-3.36-.12q-1.12-.18-.75-4.68l-.75-7.48-.56-2.36.19-.38Zm9.29,32.35v1.5l.75.75a2.22,2.22,0,0,0,2.62-.94c.25-.25,0-1.5-.75-3.74l-.56-.94c-.87-.12-1.31,0-1.31.38Z"/>
        <path class="cls-22" d="M650.89,80.58q13.77.38,33.23,0c1.2,0,1.93.31,2.18.94l-.56,13.71-.56,2.06.18,5.3a1.86,1.86,0,0,1-.87,1.12l-5.36.37h-1.25c-.87,0-1.24-1.22-1.12-3.68l-1.31-.74-3.43.18c-1.12,1.08-1.56,1.75-1.31,2l-1.12,21.07.19,2.8.93.69H677c.62-.12,1,.75,1.12,2.62l-.19,1.81.19,7.66c-.13.88-.56,1.31-1.31,1.31L667,140l-11.16-.19c-.63-.25-1.06-1.29-1.31-3.11l.56-4.74c-.25-1.87-.25-3,0-3.49l1.12-.56,4.55.18c.88-.37,1.31-1.28,1.31-2.74l.37-15.58-.18-6.43-1.5-1.3h-1.12c-.83.24-1.31,1.47-1.43,3.67-.25.38-.81.5-1.69.38h-6l-.69-.75q.38-20.51,0-22.57L650.2,81Z"/>
        <path class="cls-22" d="M690.41,80.58l18.77.19q.74,1.5.74,9v4.42l-.74.75q-4.62-.93-5,2.62l-.31,17.52.18,5.48,1.06,1.12h7.8l.68.57.38,16c0,.62-.54,1-1.62,1.12q-1.32-.37-7.8.19l-3.11-.19q-.37.56-8.86.56c-2.07,0-3.11-.31-3.11-.94V123.78l.37-.56,4.61-.37a2.69,2.69,0,0,0,1.06-2.43l.38-23a4.67,4.67,0,0,0-1.62-1.87l-3.68-.18c-.5-.13-.75-.57-.75-1.31l-.19-12.53A.89.89,0,0,1,690.41,80.58Z"/>
        <path class="cls-22" d="M733.43,80.33h8l4.8.69a19.12,19.12,0,0,1,5.29,1.74l2.12,1.62q1.82,2.81,2.87,10.79-.37,13.83,0,15.58-.56,21.63-2.68,24.25a8.89,8.89,0,0,1-4.61,3.37q-8.67,2.17-9,1.62L731,139.8l-4.42-.87c-1.46-.37-3.18-2-5.18-4.8a26.9,26.9,0,0,1-2.49-7.79l-.87-15,.19-11.15,1.06-7.49,1.43-4.23q1.06-2.44,4.92-5.68Q732.37,79.77,733.43,80.33ZM727.63,104q-.2,9.8,1.06,14.53l.87,1.8c.46.83,1.93,1.77,4.43,2.81,4-.13,6.87-1,8.66-2.62a7.2,7.2,0,0,0,1.44-3.05l.68-6.74v-8.66a13.64,13.64,0,0,0-1.56-4.43L741.09,96l-5,.37-3.93.75c-1.87.71-3,1.46-3.49,2.25A20.4,20.4,0,0,0,727.63,104Z"/>
        <path class="cls-22" d="M760.79,125a14.92,14.92,0,0,0,4.86,0c.88-.09,1.31-1,1.31-2.68l.31-17.33V99.34l-.87-1.43L763,97.54a1.4,1.4,0,0,1-.56-1.25q.57-6.17.56-12.84l.88-2,3.11-.74a49.34,49.34,0,0,0,8.48,0l1.06.56,10.85,28.92.93.69.69-.69.37-8.16V96.79c-.12-1-1.51-1.56-4.17-1.81-.71-.46-.94-1.66-.69-3.61l.19-9.36c.12-.87.47-1.3,1.06-1.3l9.78-.19q1.44.38,7.73-.19a.89.89,0,0,1,.94.75l.19,6,.5,4.12v3.61l-.69.75-6.86.56a3.13,3.13,0,0,0-1.49,2.5l-.5,12.28v7a2.91,2.91,0,0,0,1.24,1.5l4.49.12c.75.13,1.06.79.94,2l.19,16.64a1.22,1.22,0,0,1-1.13,1.06c-3.36-.21-5.46-.14-6.29.19h-7l-1.06-.69q-8.73-24.93-10.35-31.79l-.49-.56c-.63-.13-1.06.23-1.31,1.06L773.45,121c-.13,1.91.06,2.93.56,3l.68.38h2.75c.7.12.93,1.27.68,3.43l-.5,11.22-.74.5-2.68.18a49.08,49.08,0,0,0-9.42.19l-1.24-.37-2.75-.19a1.47,1.47,0,0,1-.75-1.25q.38-10.65,0-12.47Z"/>
        <path class="cls-22" d="M819.45,80.33h3.8l3.75.94,2.74,1.06.5-.19a1.87,1.87,0,0,1,2-1.06c4.9.12,7.36.54,7.36,1.25l-.5,17.58a2.15,2.15,0,0,1-1.81.74,25.58,25.58,0,0,0-6.67.38h-2.87l-.74-.56-.32-4.12c-.62-.83-1-1.2-1.24-1.12l-1.13.56a13.52,13.52,0,0,0-1.93,5.55c-.37,2.53.27,4.22,1.93,5l8.79-.19q4.18.57,4.87,3.24c.62.84,1,3.12,1.24,6.86q0,14-3.55,18.45l-3,3.06a21.39,21.39,0,0,1-8.48,2.18,31.27,31.27,0,0,1-7-.37L813,137.81q-1.62-1.25-2-4.8V120.42q0-2.19.87-2.37l4,.18c1.91-.58,2.93-.45,3.05.38-.37,2.86-.25,4.49.38,4.86q.31.69,4.3,1.81,5.18.31,6.42-2.87l-.31-3.43c.7-2.16-.25-3.84-2.87-5l-12.4.19q-5.93-.57-5.62-6.8v-6.67l1.31-13.09.69-2.55Q814.46,79.84,819.45,80.33Z"/>
        <path class="cls-22" d="M375.08,155.7H390a1.29,1.29,0,0,1,1.06,1.12l-.18,2.56-.5,1.24.31,5.8-.12,4.05-.57,1.06-1.8.56-1.69,1.44v.75l1.31,2.74.88,3.8,2.74,1.62q1.62.38,3.61-8V173l-1.62-1.06a12,12,0,0,1-.37-6c1.12-5.36,1.5-8.33,1.12-8.91a2.63,2.63,0,0,1,1.44-1.62h11.47l3.8.68.75,1.5v1.25l-.75,2,.37,3.62-.18,7.66q-.37.75-2.37.75l-3.25-.37c-1.24,0-2,.23-2.36.68q-3.49,5.31-3.31,5.68l-1.24,3L397.39,187l-1.62,3.43L396,201.7l.56.57,3.62-.19c.49.25.74.54.74.87l-.18,10.79a1.09,1.09,0,0,1-.94.68,14.26,14.26,0,0,1-4.74-.37l-7.23.18c.13.38-1.58.57-5.11.57-2.16.12-3.12-.48-2.87-1.81v-8.17l.32-1.31a2.23,2.23,0,0,1,1.49-1.24l3.8-.38c.5-.12.79-1,.88-2.55l.37-7.8-.68-2.93L383.62,185l-4-8.54-.19-1.13-.75-1.24-1.43-1.25q-4.18.14-4-1.49l.5-14.34C373.89,156.14,374.33,155.7,375.08,155.7Z"/>
        <path class="cls-22" d="M430,155.14h8l4.81.68a19.46,19.46,0,0,1,5.29,1.75l2.12,1.62Q452,162,453.06,170q-.37,13.85,0,15.59-.56,21.63-2.68,24.25a8.82,8.82,0,0,1-4.61,3.36q-8.67,2.19-9,1.63l-9.17-.19-4.42-.87c-1.46-.38-3.18-2-5.18-4.8a26.28,26.28,0,0,1-2.49-7.8l-.87-15,.18-11.16,1.06-7.48,1.44-4.24c.7-1.62,2.35-3.51,4.92-5.67Q428.94,154.57,430,155.14Zm-5.8,23.69q-.19,9.78,1.06,14.52l.87,1.81c.46.83,1.93,1.77,4.43,2.8,4-.12,6.87-1,8.66-2.61a7.27,7.27,0,0,0,1.44-3.06l.68-6.73v-8.67a13.59,13.59,0,0,0-1.56-4.42l-2.12-1.62-5,.37-3.93.75c-1.87.71-3,1.45-3.49,2.24A20,20,0,0,0,424.2,178.83Z"/>
        <path class="cls-22" d="M457.74,155.57,478,156l.49.5-.49,8.79V171l-.38.94-4.55.87a3.09,3.09,0,0,0-1.31,2.93q-.69,11.85-.68,16.4l1.06,2.24,2.55,1.06c3,.12,4.86,0,5.49-.37a3.3,3.3,0,0,0,1.62-2.56l.37-12.72.38-2.93V173l-.19-.5-2-1.68.57-5.8.12-8.23a1.74,1.74,0,0,1,.94-1.06q13.14-.18,15.52-.56c2.16-.25,3.3,0,3.43.75l.18,8.72c.5,3.79,0,5.78-1.43,6a42.07,42.07,0,0,0-7.48,0l-1.12,1.12v14q.93,6.36.56,7.85l-1.12,9.85-1.25,4.93-1.12,2.74q-.51,2.49-11.29,3.62h-8.16a9.66,9.66,0,0,1-4.93-2.75,7,7,0,0,1-2-4.17l.18-27.37.56-6.55-.87-1.43-4.43-.37c-.7-.13-.93-1-.68-2.75l.37-13.15A1,1,0,0,1,457.74,155.57Z"/>
        <path class="cls-22" d="M523.75,155.51l17.89.19a1.66,1.66,0,0,1,1.44,1.12q.18,7.92-.32,15.15l-.74.56-4.49.19c-1.83.21-2.74,1-2.74,2.3l-.19,14.65.19,1.06-.38,6,.56.56a1,1,0,0,0,1.25-.56l1.62-3.62,1.12-4.49,8.67-24.74c.58-1.46,1.41-1.77,2.49-.94l5.42,23.5a1.5,1.5,0,0,0,1.5,1.25c.58-.25,1-1.75,1.25-4.49q.18-9,.68-9.6v-2.68l-1.24-1.31-3.81-.19c-.58,0-.74-1.31-.5-3.92l.32-8.55c.25-.83.56-1.24.93-1.24a7.6,7.6,0,0,1,3.24.56,5.91,5.91,0,0,1,3.06-.37h13.77c.84.25,1.19,1,1.06,2.18l-.18,3.05c.37.38.56,3.8.56,10.29l-.75.93-8.85-.18-1.06.74-.38.69-1.8,20.95a3.48,3.48,0,0,0,.93,3.3l.87.31,5.43.19c.37,0,.56.25.56.75l.31,11.72v2.55l-.69.69-6.17.37h-5.92a3.68,3.68,0,0,1-2-.87l-2.37-6-3.62-12.84-2.87-8.48c-.12-.37-.49-.49-1.12-.37-.33,0-1,1.68-1.93,5q-4,12.47-6.73,22.82c-.13.45-.79.74-2,.87q-9.72.38-12.28-.19c-.71-.12-1-1.27-.87-3.43l.19-9a1,1,0,0,1,.87-.68q4.86.87,4-4.93l-.38-2.68-.68-18.82q-.37-2.13-4.37-2.31c-.37-.37-.56-1.29-.56-2.74l.19-13.34C522.63,155.7,523.17,155.39,523.75,155.51Z"/>
        <path class="cls-22" d="M595.07,155.14h8l4.8.68a19.46,19.46,0,0,1,5.29,1.75l2.12,1.62q1.82,2.81,2.87,10.78-.37,13.85,0,15.59-.55,21.63-2.68,24.25a8.82,8.82,0,0,1-4.61,3.36q-8.67,2.19-9,1.63l-9.17-.19-4.42-.87q-2.19-.57-5.17-4.8a26.55,26.55,0,0,1-2.5-7.8l-.87-15,.19-11.16,1.06-7.48,1.43-4.24q1.06-2.43,4.92-5.67Q594,154.57,595.07,155.14Zm-5.8,23.69q-.19,9.78,1.06,14.52l.87,1.81c.46.83,1.93,1.77,4.43,2.8,4-.12,6.87-1,8.66-2.61a7.27,7.27,0,0,0,1.44-3.06l.68-6.73v-8.67a13.59,13.59,0,0,0-1.56-4.42l-2.12-1.62-5,.37-3.93.75c-1.87.71-3,1.45-3.49,2.24A20.57,20.57,0,0,0,589.27,178.83Z"/>
        <path class="cls-22" d="M622.43,199.77a14.92,14.92,0,0,0,4.86,0c.88-.08,1.31-1,1.31-2.68l.31-17.33v-5.61l-.87-1.43-3.43-.38a1.39,1.39,0,0,1-.56-1.24q.57-6.18.56-12.85l.88-2,3.11-.75a47.37,47.37,0,0,0,8.48,0l1.06.56L649,185l.93.68.69-.68.37-8.17V171.6c-.12-1-1.51-1.56-4.17-1.81-.71-.46-.94-1.66-.69-3.62l.19-9.35c.12-.87.48-1.31,1.06-1.31l9.78-.19q1.44.38,7.73-.18a.89.89,0,0,1,.94.75l.19,6,.5,4.11v3.62l-.69.75-6.86.56a3.09,3.09,0,0,0-1.49,2.49l-.5,12.28v7a2.88,2.88,0,0,0,1.24,1.49l4.49.13c.75.12,1.06.79.94,2l.19,16.65a1.23,1.23,0,0,1-1.13,1.06q-5-.31-6.29.18h-7l-1.06-.68q-8.73-24.93-10.35-31.79l-.49-.56c-.63-.13-1.06.22-1.31,1.05l-1.06,13.59c-.13,1.92.06,2.93.56,3.06l.68.37h2.75c.7.13.93,1.27.68,3.43l-.5,11.22-.74.5-2.68.19a48.28,48.28,0,0,0-9.42.19l-1.24-.38-2.75-.19a1.45,1.45,0,0,1-.75-1.24q.38-10.67,0-12.47Z"/>
      </g>
      <g>
        <path class="cls-22" d="M143.27,671.21q9.33.25,22.49,0c.82,0,1.31.21,1.48.63l-.38,9.29-.38,1.39.13,3.58a1.22,1.22,0,0,1-.59.76l-3.63.26h-.84c-.6,0-.85-.83-.76-2.49l-.89-.51-2.32.13c-.76.73-1.06,1.18-.89,1.35l-.76,14.26.13,1.9.63.46h4.22c.42-.08.68.51.76,1.78l-.12,1.22.12,5.19c-.08.59-.38.89-.88.89l-6.59.12-7.55-.12c-.42-.17-.72-.88-.89-2.11l.38-3.21a5.33,5.33,0,0,1,0-2.36l.76-.38,3.08.12c.59-.25.89-.87.89-1.85l.25-10.55-.12-4.35-1-.88h-.76c-.56.16-.88,1-1,2.49-.16.25-.54.33-1.14.25H143l-.46-.51q.25-13.87,0-15.27l.25-1.23Z"/>
        <path class="cls-22" d="M172.05,671l10.76.25a1.17,1.17,0,0,1,.76.64l-.13,2.4.26,9-.38.5-2.15.26c-.68.42-1,.88-1,1.39l-.5,6,.63.76,3-.25a9.48,9.48,0,0,1,3.16-.76c1.27-.25,1.86-1.37,1.77-3.33v-2.79l-.63-.76c-1.1-.08-1.56-.38-1.39-.89L186,673.15l.63-.63,9.16-.51,1.77-.38q1.14,0,1.14.51l-.13,10-.25.63-2.66.63L195,684a19.11,19.11,0,0,0-.51,4.43L194,698.89a2.3,2.3,0,0,0,.89.89l4.3-.13.51.51v2.65l-.25,1.65-.26,5.82c-.08.59-.33.89-.76.89L196,711a44.85,44.85,0,0,1-9,.38,1.19,1.19,0,0,1-1-.76l-.38-8-.26-.89V700l1.4-1.27a2.28,2.28,0,0,0-.64-2.65l-4.43.12a2.33,2.33,0,0,0-1.26,1.14v1.52c.08.59.88.93,2.4,1,.25.09.34.72.25,1.9l-.25,3c.17.17.17,1.86,0,5.06-.25.76-.72,1.06-1.39.89l-5.32.25c-.25.26-1.18.38-2.78.38-2.11.09-3.17,0-3.17-.38l-.5-6.33-.26-1v-1.64l.51-.51,2.66-.13a1.79,1.79,0,0,0,1.52-1.52L174,685.56a1.54,1.54,0,0,0-1-1c-1.69.26-2.53,0-2.53-.88l.5-11.65C171.25,671.34,171.63,671,172.05,671Z"/>
        <path class="cls-22" d="M225.6,671c.92-.08,1.47,0,1.64.38v6.46l.3,1.26-.3,2.75v5l-.38.88-1.94.43h-1.77l-.55-.55c.17-1.63-.21-2.62-1.14-3h-3.88l-1.31.89.42,1.56.76.63h2.32c.34,0,.51.35.51,1.06l-.13,4.26-.63.38-4.26.13c-1,.5-1.39,1.07-1.31,1.68-.25,2,.06,3.13.93,3.46,2.59.09,4.13,0,4.64-.25.51,0,.89-1,1.14-3.08l.8-.38h2.7a.85.85,0,0,1,.63.76l-.12,11.73c.53,1.72.15,2.57-1.14,2.57h-2.87l-2.95.43h-2.58q-.12.38-11.1.88c-.7.17-1.18,0-1.43-.5l.55-9.58.51-.38h2.06l.76-.63q.39-11.87.26-15.11c-.26-.76-1.24-1.06-3-.89-.34-.08-.5-.35-.5-.8l-.3-11.35a.94.94,0,0,1,.8-.63Q216.44,671.55,225.6,671Z"/>
        <path class="cls-22" d="M229,671.34l3.93.08,2.95-.21a74.16,74.16,0,0,0,7.89,0,8.23,8.23,0,0,1,6,3.8,7.91,7.91,0,0,1,1.27,2.7l.21,4.43v4.56c-.31,2-.68,3.16-1.1,3.58l-1,1c-1.15.48-1.81,1-2,1.61l.38.46a2.71,2.71,0,0,1,2.07,2.11L250,698c-.17,1.72,0,2.83.5,3.34l.85-.13.25-.84.13-2.75a1.21,1.21,0,0,1,1.35-.59l1.35.13.38.38q.12,9.59-.76,12.15c-.48.9-1.79,1.48-3.93,1.73a13.49,13.49,0,0,1-4.3-.5,4.33,4.33,0,0,1-2-1.48A6.85,6.85,0,0,1,243,707l-1-9.24-.76-2.07c-1.07-1.23-2-1.64-2.7-1.22-.42.23-.7,1.66-.84,4.3-.26,1.89,0,3,.84,3.3l1.73-.09.59.34-.08,8.4c-.26.56-.83.8-1.73.71l-9.24-.25-.51-.46v-5.32L229.1,704c-.09-1.07,0-1.65.21-1.73l2.62-.13.46-.72c.08-2.61-.15-7.7-.72-15.27-.25-.73-.55-1.14-.88-1.22L228,684.5c-.48-.51-.63-.88-.46-1.14v-2.44l.71-7.77C227.82,672.08,228.07,671.48,229,671.34Zm11.31,11.3c-.25,2.54.16,4,1.23,4.44,2.13.16,3.36-.66,3.67-2.49v-3c-.15-.85-1-1.55-2.58-2.11-1.15-.17-1.8,0-1.94.5Z"/>
        <path class="cls-22" d="M280.11,671c.93-.08,1.48,0,1.65.38v6.46l.29,1.26-.29,2.75v5l-.38.88-1.94.43h-1.78l-.54-.55c.16-1.63-.22-2.62-1.14-3H272.1l-1.31.89.42,1.56.76.63h2.32c.34,0,.51.35.51,1.06l-.13,4.26-.63.38-4.26.13c-1,.5-1.4,1.07-1.31,1.68-.26,2,0,3.13.93,3.46,2.58.09,4.13,0,4.64-.25.5,0,.88-1,1.14-3.08l.8-.38h2.7a.87.87,0,0,1,.63.76l-.13,11.73c.54,1.72.16,2.57-1.14,2.57h-2.86l-3,.43h-2.57q-.13.38-11.1.88c-.7.17-1.18,0-1.43-.5l.54-9.58.51-.38h2.07l.76-.63q.38-11.87.25-15.11c-.25-.76-1.24-1.06-2.95-.89-.34-.08-.51-.35-.51-.8l-.29-11.35a.94.94,0,0,1,.8-.63Q271,671.55,280.11,671Z"/>
        <path class="cls-22" d="M296.23,671.21l12.7.13q.51,1,.51,6.12v3l-.51.51q-3.12-.63-3.37,1.77l-.21,11.86.12,3.71.72.76h5.27l.47.38.25,10.84c0,.43-.36.68-1.1.76a22.81,22.81,0,0,0-5.27.13L303.7,711c-.17.26-2.17.38-6,.38-1.41,0-2.11-.21-2.11-.63V700.45l.25-.38,3.12-.25a1.81,1.81,0,0,0,.72-1.65l.25-15.57a3.06,3.06,0,0,0-1.09-1.26l-2.49-.13c-.34-.08-.51-.38-.51-.89l-.13-8.48A.6.6,0,0,1,296.23,671.21Z"/>
        <path class="cls-22" d="M322.1,671h2.57l2.53.63,1.86.72.34-.13a1.26,1.26,0,0,1,1.35-.71q5,.12,5,.84l-.34,11.9a1.44,1.44,0,0,1-1.23.51,17.27,17.27,0,0,0-4.51.25h-1.94l-.51-.38-.21-2.78c-.42-.57-.7-.82-.84-.76l-.76.38a9.12,9.12,0,0,0-1.31,3.75c-.25,1.72.18,2.86,1.31,3.42l5.95-.13c1.88.26,3,1,3.29,2.2.42.56.7,2.11.84,4.64q0,9.45-2.4,12.49L331,710a14.45,14.45,0,0,1-5.74,1.47,20.76,20.76,0,0,1-4.73-.25L317.75,710a4.59,4.59,0,0,1-1.35-3.25v-8.53c0-1,.2-1.52.59-1.6l2.7.13c1.29-.4,2-.31,2.07.25-.25,1.94-.17,3,.25,3.29.14.31,1.11.72,2.91,1.22q3.51.22,4.35-1.94l-.21-2.32q.72-2.19-1.94-3.42l-8.4.13q-4-.37-3.8-4.6V684.8l.89-8.86.46-1.73C317.9,671.87,319.85,670.82,322.1,671Z"/>
        <path class="cls-22" d="M356.15,671.51l8.69.12c3-.34,4.56-.34,4.81,0a45.4,45.4,0,0,0,1.48,7.3c.08,1,0,1.52-.26,1.52l-1.35.38-.76.89a7,7,0,0,0,.89,2.87l2.49,5.9,1.77,3.29a43.42,43.42,0,0,0,2.66,6.17,3.44,3.44,0,0,0,1.64.76l2.62-.13.51.5c-.17,6-.17,9,0,9.2-.17.59-.38.89-.64.89h-3.5l-1.14-.38-1.14.38-7.68.25c-1.35,0-2-.21-2-.63l-.25-6.54.12-1.39,1.14-.38q1-.51-1-3.76c.17-.76.13-1.22-.13-1.39l-4,.25-1.14,3.25v.76l.64.63c1.23.09,2,.43,2.36,1q.51,6.28,0,6.41l-6.54.25H351c-.59-.08-.89-.33-.89-.76l-.25-4.51v-2.28l.51-.51h2.27c.43.09,1-.88,1.73-2.91l.51-1.85,2.66-7.05a52.46,52.46,0,0,1,2.15-6.71v-.76l-.63-.63-2.28-.09c-.51-.08-.68-1.14-.51-3.16l-.5-5.06-.38-1.61.12-.25Zm6.28,21.89v1l.51.5a1.49,1.49,0,0,0,1.77-.63c.17-.17,0-1-.5-2.53l-.38-.63c-.59-.09-.89,0-.89.25Z"/>
        <path class="cls-22" d="M395.26,701.25a10.05,10.05,0,0,0,3.29,0c.59,0,.89-.66.89-1.81l.21-11.73v-3.8l-.59-1-2.32-.25a1,1,0,0,1-.38-.85q.38-4.17.38-8.69l.59-1.35,2.11-.51a31.92,31.92,0,0,0,5.74,0l.71.38,7.35,19.58.63.47.46-.47.26-5.52v-3.55c-.09-.65-1-1-2.83-1.22-.48-.31-.63-1.13-.46-2.45l.12-6.33c.09-.59.33-.89.72-.89l6.62-.12A22.65,22.65,0,0,0,424,671a.6.6,0,0,1,.63.51l.13,4.05.33,2.78v2.45l-.46.51-4.64.38a2.05,2.05,0,0,0-1,1.68l-.34,8.32v4.76a1.92,1.92,0,0,0,.84,1l3,.08q.76.13.63,1.35l.13,11.27a.83.83,0,0,1-.76.72,13.58,13.58,0,0,0-4.26.12h-4.77l-.72-.46q-5.91-16.87-7-21.52l-.34-.38c-.42-.09-.72.15-.89.72l-.71,9.19c-.09,1.3,0,2,.38,2.07l.46.26h1.86c.48.08.63.85.46,2.32l-.34,7.59-.5.34-1.82.13a33.07,33.07,0,0,0-6.37.12l-.84-.25-1.86-.13a1,1,0,0,1-.5-.84,65,65,0,0,0,0-8.44Z"/>
        <path class="cls-22" d="M450.83,671c.93-.08,1.48,0,1.65.38v6.46l.29,1.26-.29,2.75v5l-.38.88-1.94.43h-1.78l-.54-.55c.16-1.63-.22-2.62-1.14-3h-3.88l-1.31.89.42,1.56.76.63H445c.34,0,.51.35.51,1.06l-.13,4.26-.63.38-4.27.13c-.95.5-1.39,1.07-1.3,1.68-.26,2,.05,3.13.92,3.46,2.59.09,4.14,0,4.65-.25.5,0,.88-1,1.14-3.08l.8-.38h2.7a.87.87,0,0,1,.63.76l-.13,11.73c.54,1.72.16,2.57-1.14,2.57H445.9l-3,.43h-2.57q-.14.38-11.1.88c-.7.17-1.18,0-1.43-.5l.54-9.58.51-.38H431l.76-.63q.38-11.87.25-15.11c-.25-.76-1.24-1.06-3-.89-.34-.08-.51-.35-.51-.8l-.29-11.35a.94.94,0,0,1,.8-.63Q441.68,671.55,450.83,671Z"/>
        <path class="cls-22" d="M456.36,671.29l12.11.13a1.13,1.13,0,0,1,1,.76q.12,5.36-.21,10.25l-.51.38-3,.13q-1.86.21-1.86,1.56l-.13,9.92.13.71-.25,4.06.37.38a.7.7,0,0,0,.85-.38l1.1-2.45.76-3L472.52,677c.39-1,1-1.2,1.69-.63l3.67,15.9a1,1,0,0,0,1,.85c.4-.17.68-1.18.85-3q.12-6.12.46-6.5v-1.81l-.84-.89-2.58-.13c-.39,0-.5-.88-.34-2.65l.22-5.79c.16-.56.38-.84.63-.84a5.25,5.25,0,0,1,2.19.38,4,4,0,0,1,2.07-.25h9.33c.56.17.8.66.71,1.47l-.12,2.07q.38.39.38,7l-.51.64-6-.13-.72.51-.25.46-1.23,14.18a2.38,2.38,0,0,0,.64,2.24l.59.21,3.67.12c.25,0,.38.17.38.51l.21,7.93v1.73l-.46.47-4.18.25h-4a2.57,2.57,0,0,1-1.35-.59l-1.6-4.05-2.45-8.69-1.94-5.74c-.09-.26-.34-.34-.76-.26-.23,0-.66,1.14-1.31,3.42q-2.7,8.44-4.56,15.45c-.08.3-.53.5-1.35.59a45.83,45.83,0,0,1-8.31-.13c-.48-.09-.68-.86-.59-2.32l.13-6.12a.64.64,0,0,1,.59-.46q3.28.59,2.7-3.34l-.26-1.81-.46-12.75c-.17-1-1.15-1.47-3-1.56a2.84,2.84,0,0,1-.38-1.85l.12-9C455.6,671.42,456,671.21,456.36,671.29Z"/>
        <path class="cls-22" d="M512.77,671h2.58l2.53.63,1.86.72.33-.13a1.27,1.27,0,0,1,1.35-.71q5,.12,5,.84l-.33,11.9a1.45,1.45,0,0,1-1.23.51,17.27,17.27,0,0,0-4.51.25h-1.94l-.51-.38-.21-2.78c-.42-.57-.71-.82-.85-.76l-.75.38a9,9,0,0,0-1.31,3.75c-.26,1.72.18,2.86,1.31,3.42l5.94-.13c1.89.26,3,1,3.3,2.2.42.56.7,2.11.84,4.64q0,9.45-2.41,12.49L521.68,710a14.49,14.49,0,0,1-5.74,1.47,20.76,20.76,0,0,1-4.73-.25L508.43,710a4.59,4.59,0,0,1-1.35-3.25v-8.53c0-1,.19-1.52.59-1.6l2.7.13c1.29-.4,2-.31,2.07.25-.26,1.94-.17,3,.25,3.29.14.31,1.11.72,2.91,1.22,2.34.15,3.78-.5,4.35-1.94l-.21-2.32c.47-1.46-.17-2.6-1.94-3.42l-8.4.13q-4-.37-3.8-4.6V684.8l.89-8.86.46-1.73C508.58,671.87,510.52,670.82,512.77,671Z"/>
        <path class="cls-22" d="M531.8,671l10.76.25c.43.17.68.38.76.64l-.12,2.4.25,9-.38.5-2.15.26c-.68.42-1,.88-1,1.39l-.51,6,.63.76,3-.25a9.53,9.53,0,0,1,3.16-.76c1.27-.25,1.86-1.37,1.78-3.33v-2.79l-.64-.76c-1.09-.08-1.56-.38-1.39-.89l-.25-10.25.63-.63,9.16-.51,1.77-.38q1.14,0,1.14.51l-.13,10-.25.63-2.66.63-.63.64a19.11,19.11,0,0,0-.51,4.43l-.5,10.42a2.21,2.21,0,0,0,.88.89l4.3-.13.51.51v2.65l-.25,1.65-.26,5.82c-.08.59-.33.89-.75.89l-2.41-.13a44.78,44.78,0,0,1-9,.38,1.21,1.21,0,0,1-1-.76l-.38-8-.26-.89V700l1.4-1.27a2.28,2.28,0,0,0-.64-2.65l-4.43.12a2.37,2.37,0,0,0-1.26,1.14v1.52c.08.59.88.93,2.4,1,.26.09.34.72.26,1.9l-.26,3c.17.17.17,1.86,0,5.06-.25.76-.71,1.06-1.39.89l-5.32.25c-.25.26-1.18.38-2.78.38-2.11.09-3.17,0-3.17-.38l-.5-6.33-.25-1v-1.64l.5-.51,2.66-.13a1.79,1.79,0,0,0,1.52-1.52l-.13-14.34a1.52,1.52,0,0,0-1-1c-1.69.26-2.53,0-2.53-.88l.5-11.65C531,671.34,531.38,671,531.8,671Z"/>
        <path class="cls-22" d="M585.35,671c.93-.08,1.48,0,1.64.38v6.46l.3,1.26-.3,2.75v5l-.38.88-1.94.43H582.9l-.55-.55c.17-1.63-.21-2.62-1.14-3h-3.88l-1.31.89.43,1.56.76.63h2.32c.33,0,.5.35.5,1.06l-.12,4.26-.64.38-4.26.13c-1,.5-1.39,1.07-1.31,1.68-.25,2,.06,3.13.93,3.46,2.59.09,4.14,0,4.64-.25.51,0,.89-1,1.14-3.08l.8-.38h2.7a.88.88,0,0,1,.64.76l-.13,11.73c.53,1.72.16,2.57-1.14,2.57h-2.87l-2.95.43h-2.58q-.12.38-11.09.88c-.71.17-1.18,0-1.44-.5l.55-9.58.51-.38h2.07l.75-.63q.39-11.87.26-15.11c-.26-.76-1.24-1.06-3-.89-.33-.08-.5-.35-.5-.8l-.3-11.35a.94.94,0,0,1,.8-.63Q576.19,671.55,585.35,671Z"/>
        <path class="cls-22" d="M588.72,671.34l3.93.08,3-.21a74.16,74.16,0,0,0,7.89,0,8.25,8.25,0,0,1,6,3.8,8,8,0,0,1,1.26,2.7l.21,4.43v4.56c-.31,2-.67,3.16-1.1,3.58l-1,1c-1.15.48-1.81,1-2,1.61l.38.46a2.71,2.71,0,0,1,2.07,2.11l.38,2.57c-.17,1.72,0,2.83.5,3.34l.85-.13.25-.84.13-2.75a1.21,1.21,0,0,1,1.35-.59l1.35.13.38.38q.12,9.59-.76,12.15c-.48.9-1.79,1.48-3.93,1.73a13.54,13.54,0,0,1-4.3-.5,4.33,4.33,0,0,1-2-1.48,6.85,6.85,0,0,1-.85-2.45l-1-9.24-.76-2.07c-1.07-1.23-2-1.64-2.7-1.22-.42.23-.7,1.66-.84,4.3q-.37,2.84.84,3.3L600,702l.59.34-.08,8.4c-.25.56-.83.8-1.73.71l-9.24-.25-.51-.46v-5.32l-.21-1.35c-.08-1.07,0-1.65.21-1.73l2.62-.13.46-.72q.14-3.91-.71-15.27c-.26-.73-.55-1.14-.89-1.22l-2.83-.47c-.48-.51-.63-.88-.46-1.14v-2.44l.72-7.77C587.57,672.08,587.82,671.48,588.72,671.34ZM600,682.64c-.25,2.54.16,4,1.23,4.44,2.13.16,3.36-.66,3.67-2.49v-3c-.14-.85-1-1.55-2.58-2.11-1.15-.17-1.8,0-1.94.5Z"/>
        <path class="cls-22" d="M617.5,671.21l12.7.13q.51,1,.51,6.12v3l-.51.51q-3.12-.63-3.37,1.77l-.21,11.86.12,3.71.72.76h5.27l.47.38.25,10.84c0,.43-.36.68-1.1.76a22.81,22.81,0,0,0-5.27.13L625,711c-.17.26-2.17.38-6,.38-1.41,0-2.11-.21-2.11-.63V700.45l.25-.38,3.12-.25a1.81,1.81,0,0,0,.72-1.65l.25-15.57a3.06,3.06,0,0,0-1.09-1.26l-2.49-.13c-.34-.08-.51-.38-.51-.89l-.13-8.48A.6.6,0,0,1,617.5,671.21Z"/>
        <path class="cls-22" d="M647,671.13q11.18.24,12.32,0l.46.5q-.26,8.28,0,16a.78.78,0,0,1-1,.59h-2.28l-.5-.38-.38-2.49c-.59-.59-1.06-.88-1.39-.88l-5.28.38-2.36.25-.63.76a2.36,2.36,0,0,0,.76,2.62l2.48-.13.38.25.26,1-.13,2.78-.25.38a7,7,0,0,0-2.37.34,3.1,3.1,0,0,0-1,2.91l.38,3.63.76.76,2.87-.13.51.51a77.44,77.44,0,0,0-.38,8.39c-.17.43-.38.68-.64.76h-2.36l-1.26.51-5.15.25c-.09.26-.89.38-2.41.38l-1,.38c-.67-.08-1-.38-1-.88l-.13-7v-.76l.64-.63q2.87.25,3.24-1.14.25-2-.12-15.57l-.38-1-.38-.38-2.11-.51a2.55,2.55,0,0,1-.38-2.24c.51-5.62.67-8.6.51-8.94.08-.65.38-1,.88-1.1Z"/>
        <path class="cls-22" d="M674.38,671.13q11.18.24,12.32,0l.46.5q-.24,8.28,0,16a.78.78,0,0,1-1,.59h-2.27l-.51-.38L683,685.3c-.59-.59-1-.88-1.39-.88l-5.28.38-2.36.25-.63.76a2.36,2.36,0,0,0,.76,2.62l2.49-.13.38.25.25,1-.13,2.78-.25.38a6.9,6.9,0,0,0-2.36.34,3.11,3.11,0,0,0-1,2.91l.38,3.63.76.76,2.87-.13.51.51a80.08,80.08,0,0,0-.38,8.39,1.16,1.16,0,0,1-.63.76h-2.37l-1.26.51-5.15.25c-.09.26-.89.38-2.41.38l-1,.38c-.67-.08-1-.38-1-.88l-.13-7v-.76l.64-.63c1.91.17,3-.21,3.25-1.14q.25-2-.13-15.57l-.38-1-.38-.38-2.11-.51a2.55,2.55,0,0,1-.38-2.24q.76-8.43.51-8.94c.08-.65.38-1,.88-1.1Z"/>
        <path class="cls-22" d="M701.85,671.21l12.7.13q.51,1,.51,6.12v3l-.51.51q-3.12-.63-3.38,1.77L711,694.59l.13,3.71.72.76h5.27l.46.38.26,10.84c0,.43-.37.68-1.1.76a22.81,22.81,0,0,0-5.27.13l-2.11-.13c-.17.26-2.17.38-6,.38q-2.1,0-2.1-.63V700.45l.25-.38,3.12-.25a1.85,1.85,0,0,0,.72-1.65l.25-15.57a3,3,0,0,0-1.1-1.26l-2.49-.13c-.33-.08-.5-.38-.5-.89l-.13-8.48A.6.6,0,0,1,701.85,671.21Z"/>
        <path class="cls-22" d="M721.05,701.25a10.06,10.06,0,0,0,3.29,0c.59,0,.88-.66.88-1.81l.22-11.73v-3.8l-.6-1-2.32-.25a1,1,0,0,1-.38-.85c.26-2.78.38-5.68.38-8.69l.59-1.35,2.11-.51a31.93,31.93,0,0,0,5.74,0l.72.38L739,691.25l.63.47.47-.47.25-5.52v-3.55c-.08-.65-1-1-2.82-1.22-.48-.31-.64-1.13-.47-2.45l.13-6.33c.08-.59.32-.89.71-.89l6.63-.12a22.57,22.57,0,0,0,5.23-.13.59.59,0,0,1,.63.51l.13,4.05.34,2.78v2.45l-.47.51-4.64.38a2.1,2.1,0,0,0-1,1.68l-.34,8.32v4.76a2,2,0,0,0,.85,1l3,.08q.75.13.63,1.35l.12,11.27a.82.82,0,0,1-.75.72A13.68,13.68,0,0,0,744,711h-4.77l-.71-.46q-5.91-16.87-7-21.52l-.33-.38c-.43-.09-.72.15-.89.72l-.72,9.19c-.08,1.3,0,2,.38,2.07l.47.26h1.85c.48.08.64.85.47,2.32l-.34,7.59-.51.34-1.81.13a33.06,33.06,0,0,0-6.37.12l-.85-.25-1.85-.13a1,1,0,0,1-.51-.84,61.14,61.14,0,0,0,0-8.44Z"/>
        <path class="cls-22" d="M765.86,671.21q9.32.25,22.49,0c.81,0,1.31.21,1.47.63l-.38,9.29-.38,1.39.13,3.58a1.22,1.22,0,0,1-.59.76l-3.63.26h-.84c-.59,0-.85-.83-.76-2.49l-.89-.51-2.32.13c-.76.73-1,1.18-.88,1.35l-.76,14.26.12,1.9.64.46h4.21c.43-.08.68.51.76,1.78l-.12,1.22.12,5.19c-.08.59-.38.89-.88.89l-6.58.12-7.56-.12c-.42-.17-.71-.88-.88-2.11l.38-3.21a5,5,0,0,1,0-2.36l.76-.38,3.08.12c.59-.25.88-.87.88-1.85l.26-10.55-.13-4.35-1-.88h-.76c-.57.16-.89,1-1,2.49-.17.25-.55.33-1.14.25h-4.1l-.46-.51q.25-13.87,0-15.27l.25-1.23Z"/>
        <path class="cls-22" d="M802.36,671h5.4l3.25.47a12.77,12.77,0,0,1,3.58,1.18l1.44,1.09q1.22,1.9,1.94,7.3-.26,9.38,0,10.55-.37,14.64-1.82,16.42a6,6,0,0,1-3.12,2.28c-3.91,1-5.95,1.35-6.12,1.09l-6.2-.12-3-.59q-1.47-.39-3.5-3.25a18.29,18.29,0,0,1-1.69-5.28L791.93,692l.13-7.55.72-5.06,1-2.87a11.85,11.85,0,0,1,3.33-3.84Q801.64,670.67,802.36,671Zm-3.93,16a39.28,39.28,0,0,0,.72,9.83l.59,1.22c.31.56,1.31,1.2,3,1.9,2.7-.08,4.65-.68,5.86-1.77a4.91,4.91,0,0,0,1-2.07l.47-4.56v-5.86a9.42,9.42,0,0,0-1.06-3l-1.43-1.1-3.38.26-2.66.5a4.63,4.63,0,0,0-2.36,1.52A13.89,13.89,0,0,0,798.43,687.08Z"/>
        <path class="cls-22" d="M821.85,671.29l12.11.13a1.13,1.13,0,0,1,1,.76c.09,3.57,0,7-.21,10.25l-.51.38-3,.13q-1.86.21-1.86,1.56l-.13,9.92.13.71-.25,4.06.37.38a.7.7,0,0,0,.85-.38l1.1-2.45.76-3L838,677c.39-1,1-1.2,1.69-.63l3.67,15.9a1,1,0,0,0,1,.85c.4-.17.68-1.18.85-3q.12-6.12.46-6.5v-1.81l-.84-.89-2.58-.13c-.39,0-.5-.88-.34-2.65l.22-5.79c.16-.56.38-.84.63-.84a5.25,5.25,0,0,1,2.19.38,4,4,0,0,1,2.07-.25h9.33c.56.17.8.66.71,1.47l-.12,2.07q.38.39.38,7l-.51.64-6-.13-.72.51-.25.46-1.23,14.18a2.4,2.4,0,0,0,.64,2.24l.59.21,3.67.12c.25,0,.38.17.38.51l.21,7.93v1.73l-.46.47-4.18.25h-4a2.57,2.57,0,0,1-1.35-.59l-1.6-4.05-2.45-8.69-1.94-5.74c-.09-.26-.34-.34-.76-.26-.23,0-.66,1.14-1.31,3.42q-2.7,8.44-4.56,15.45c-.08.3-.53.5-1.35.59a45.83,45.83,0,0,1-8.31-.13c-.48-.09-.67-.86-.59-2.32l.13-6.12a.64.64,0,0,1,.59-.46q3.28.59,2.7-3.34l-.26-1.81L824,684.37c-.17-1-1.15-1.47-3-1.56a2.84,2.84,0,0,1-.38-1.85l.12-9C821.09,671.42,821.46,671.21,821.85,671.29Z"/>
        <path class="cls-22" d="M860.2,701.25a10.12,10.12,0,0,0,3.3,0c.59,0,.88-.66.88-1.81l.21-11.73v-3.8l-.59-1-2.32-.25a1,1,0,0,1-.38-.85c.26-2.78.38-5.68.38-8.69l.59-1.35,2.11-.51a31.92,31.92,0,0,0,5.74,0l.72.38,7.34,19.58.63.47.47-.47.25-5.52v-3.55c-.08-.65-1-1-2.83-1.22-.48-.31-.63-1.13-.46-2.45l.13-6.33c.08-.59.32-.89.71-.89l6.63-.12a22.56,22.56,0,0,0,5.23-.13.59.59,0,0,1,.63.51l.13,4.05.34,2.78v2.45l-.47.51-4.64.38a2.1,2.1,0,0,0-1,1.68l-.34,8.32v4.76a2,2,0,0,0,.85,1l3,.08c.51.09.72.54.64,1.35l.12,11.27a.83.83,0,0,1-.76.72,13.58,13.58,0,0,0-4.26.12h-4.77l-.71-.46q-5.91-16.87-7-21.52l-.34-.38c-.42-.09-.71.15-.88.72l-.72,9.19c-.08,1.3,0,2,.38,2.07l.46.26h1.86c.48.08.63.85.47,2.32l-.34,7.59-.51.34-1.81.13a33.06,33.06,0,0,0-6.37.12l-.85-.25L860.2,711a1,1,0,0,1-.5-.84,61.14,61.14,0,0,0,0-8.44Z"/>
      </g>
    </g>
  </g>
  <g id="settings">
    <g>
      <circle class="cls-22" cx="513" cy="823" r="33.5"/>
      <path class="cls-25" d="M504.06,800.62a24.55,24.55,0,0,0-6.71,4.46l2.11,4.67a19.77,19.77,0,1,1-3.35,21.37c-.12-.25-.22-.51-.33-.76l.07,0L499.5,833l3.51-1.58-14-10-1.73,17.12,3.51-1.58.45-4.47.16-.07c.1.25.21.51.33.76a24.55,24.55,0,1,0,12.3-32.46Z"/>
    </g>
  </g>
</svg>
